M48
INCH,TZ
T1C0.0118
T2C0.0236
T3C0.0256
T4C0.0315
T5C0.0394
T6C0.0453
T7C0.0469
T8C0.0750
T9C0.1260
%
G90
G05
T1
X32776Y-44783
X34055Y-23622
X34252Y-47933
X34941Y-24016
X35630Y-48228
X35827Y-26299
X35827Y-27795
X35906Y-29606
X35984Y-37953
X36142Y-36063
X36220Y-34724
X36614Y-32087
X37008Y-24567
X37165Y-28346
X37165Y-30236
X37165Y-34252
X37244Y-26220
X37244Y-42362
X37500Y-46949
X37638Y-35827
X37874Y-37874
X37953Y-22205
X38031Y-40000
X38346Y-42520
X38661Y-42517
X38740Y-27559
X38780Y-46752
X38819Y-37480
X38819Y-39370
X38858Y-33307
X38898Y-21575
X38898Y-25512
X38898Y-35276
X38976Y-29528
X39173Y-42126
X39370Y-24016
X39567Y-42913
X41142Y-41850
X41535Y-37402
X41929Y-24016
X42520Y-25197
X42717Y-20079
X42992Y-25197
X44094Y-21260
X44725Y-35512
X44734Y-35837
X44783Y-23819
X47835Y-24016
X48130Y-33465
X48346Y-25276
X48622Y-20079
X48898Y-25276
X50000Y-21260
X50689Y-23819
X53248Y-27008
X53248Y-27323
X53543Y-28543
X53937Y-25689
X54409Y-27717
X54449Y-27047
X54523Y-28329
X54567Y-20000
X54724Y-24606
X54980Y-24803
X55354Y-26614
X55354Y-28268
X55355Y-25986
X55413Y-23425
X55592Y-26194
X55620Y-27844
X55650Y-26850
X55650Y-29370
X55650Y-29764
X55849Y-26014
X56063Y-21260
X56161Y-26057
X56398Y-26280
X56676Y-25978
X56912Y-28819
X56988Y-25591
X57165Y-28583
X57717Y-26299
X57726Y-26624
X58416Y-27647
X59134Y-22913
X59134Y-23622
X60157Y-21811
X61890Y-23228
T4
X41929Y-28248
X41929Y-29626
X45866Y-28248
X45866Y-29626
X49803Y-28248
X49803Y-29626
T5
X33661Y-30118
X33661Y-37598
X34055Y-28150
X34055Y-35630
X38780Y-44675
X39764Y-44675
X48124Y-39551
X48124Y-40551
X48124Y-41551
X49124Y-39551
X49124Y-40551
X49124Y-41551
X49606Y-31890
X50606Y-31890
X51606Y-31890
X59843Y-34252
X59843Y-35252
X59843Y-36252
X59843Y-37252
X59843Y-38252
X59843Y-39252
X61417Y-34252
X61417Y-35252
X61417Y-36252
X61417Y-37252
X61417Y-38252
X61417Y-39252
X61417Y-40252
T6
X43307Y-45276
X43307Y-47244
X43307Y-38386
X43307Y-40354
X45276Y-45276
X45276Y-47244
X45276Y-38386
X45276Y-40354
X48957Y-45276
X48957Y-47244
X50925Y-45276
X50925Y-47244
X54606Y-45276
X54606Y-47244
X56575Y-45276
X56575Y-47244
T7
X27823Y-47736
X28823Y-47736
X29823Y-47736
X30823Y-47736
T8
X23622Y-24016
X23622Y-26969
X23622Y-32087
X23622Y-35039
X23622Y-40157
X23622Y-43110
X28543Y-24016
X28543Y-26969
X28543Y-32087
X28543Y-35039
X28543Y-40157
X28543Y-43110
T9
X21654Y-19685
X21850Y-47244
X34449Y-21654
X34449Y-45079
X61024Y-19685
X61024Y-47244
T2
G00X41663Y-18429
M15
G01X41663Y-18154
M16
G05
G00X44951Y-18429
M15
G01X44951Y-18154
M16
G05
G00X47569Y-18429
M15
G01X47569Y-18154
M16
G05
G00X50856Y-18429
M15
G01X50856Y-18154
M16
G05
G00X53474Y-18429
M15
G01X53474Y-18154
M16
G05
G00X56762Y-18429
M15
G01X56762Y-18154
M16
G05
T3
G00X42431Y-19512
M15
G01X42431Y-19433
M16
G05
G00X44183Y-19512
M15
G01X44183Y-19433
M16
G05
G00X48337Y-19512
M15
G01X48337Y-19433
M16
G05
G00X50089Y-19512
M15
G01X50089Y-19433
M16
G05
G00X54242Y-19512
M15
G01X54242Y-19433
M16
G05
G00X55994Y-19512
M15
G01X55994Y-19433
M16
G05
M30
