G04 #@! TF.GenerationSoftware,KiCad,Pcbnew,8.0.2+dfsg-1*
G04 #@! TF.CreationDate,2024-05-23T10:42:26+00:00*
G04 #@! TF.ProjectId,akkupack-ng,616b6b75-7061-4636-9b2d-6e672e6b6963,rev?*
G04 #@! TF.SameCoordinates,Original*
G04 #@! TF.FileFunction,Paste,Top*
G04 #@! TF.FilePolarity,Positive*
%FSLAX46Y46*%
G04 Gerber Fmt 4.6, Leading zero omitted, Abs format (unit mm)*
G04 Created by KiCad (PCBNEW 8.0.2+dfsg-1) date 2024-05-23 10:42:26*
%MOMM*%
%LPD*%
G01*
G04 APERTURE LIST*
%ADD10R,1.000000X0.750000*%
%ADD11R,0.300000X0.850000*%
%ADD12R,0.400000X1.350000*%
%ADD13R,2.900000X1.900000*%
%ADD14R,2.000000X2.400000*%
%ADD15R,1.800000X1.000000*%
G04 APERTURE END LIST*
G36*
G01*
X102655000Y-108765500D02*
X102655000Y-109134500D01*
G75*
G02*
X102634500Y-109155000I-20500J0D01*
G01*
X101105500Y-109155000D01*
G75*
G02*
X101085000Y-109134500I0J20500D01*
G01*
X101085000Y-108765500D01*
G75*
G02*
X101105500Y-108745000I20500J0D01*
G01*
X102634500Y-108745000D01*
G75*
G02*
X102655000Y-108765500I0J-20500D01*
G01*
G37*
G36*
G01*
X102655000Y-108115500D02*
X102655000Y-108484500D01*
G75*
G02*
X102634500Y-108505000I-20500J0D01*
G01*
X101105500Y-108505000D01*
G75*
G02*
X101085000Y-108484500I0J20500D01*
G01*
X101085000Y-108115500D01*
G75*
G02*
X101105500Y-108095000I20500J0D01*
G01*
X102634500Y-108095000D01*
G75*
G02*
X102655000Y-108115500I0J-20500D01*
G01*
G37*
G36*
G01*
X102655000Y-107465500D02*
X102655000Y-107834500D01*
G75*
G02*
X102634500Y-107855000I-20500J0D01*
G01*
X101105500Y-107855000D01*
G75*
G02*
X101085000Y-107834500I0J20500D01*
G01*
X101085000Y-107465500D01*
G75*
G02*
X101105500Y-107445000I20500J0D01*
G01*
X102634500Y-107445000D01*
G75*
G02*
X102655000Y-107465500I0J-20500D01*
G01*
G37*
G36*
G01*
X102655000Y-106815500D02*
X102655000Y-107184500D01*
G75*
G02*
X102634500Y-107205000I-20500J0D01*
G01*
X101105500Y-107205000D01*
G75*
G02*
X101085000Y-107184500I0J20500D01*
G01*
X101085000Y-106815500D01*
G75*
G02*
X101105500Y-106795000I20500J0D01*
G01*
X102634500Y-106795000D01*
G75*
G02*
X102655000Y-106815500I0J-20500D01*
G01*
G37*
G36*
G01*
X102655000Y-106165500D02*
X102655000Y-106534500D01*
G75*
G02*
X102634500Y-106555000I-20500J0D01*
G01*
X101105500Y-106555000D01*
G75*
G02*
X101085000Y-106534500I0J20500D01*
G01*
X101085000Y-106165500D01*
G75*
G02*
X101105500Y-106145000I20500J0D01*
G01*
X102634500Y-106145000D01*
G75*
G02*
X102655000Y-106165500I0J-20500D01*
G01*
G37*
G36*
G01*
X102655000Y-105515500D02*
X102655000Y-105884500D01*
G75*
G02*
X102634500Y-105905000I-20500J0D01*
G01*
X101105500Y-105905000D01*
G75*
G02*
X101085000Y-105884500I0J20500D01*
G01*
X101085000Y-105515500D01*
G75*
G02*
X101105500Y-105495000I20500J0D01*
G01*
X102634500Y-105495000D01*
G75*
G02*
X102655000Y-105515500I0J-20500D01*
G01*
G37*
G36*
G01*
X102655000Y-104865500D02*
X102655000Y-105234500D01*
G75*
G02*
X102634500Y-105255000I-20500J0D01*
G01*
X101105500Y-105255000D01*
G75*
G02*
X101085000Y-105234500I0J20500D01*
G01*
X101085000Y-104865500D01*
G75*
G02*
X101105500Y-104845000I20500J0D01*
G01*
X102634500Y-104845000D01*
G75*
G02*
X102655000Y-104865500I0J-20500D01*
G01*
G37*
G36*
G01*
X96915000Y-104865500D02*
X96915000Y-105234500D01*
G75*
G02*
X96894500Y-105255000I-20500J0D01*
G01*
X95365500Y-105255000D01*
G75*
G02*
X95345000Y-105234500I0J20500D01*
G01*
X95345000Y-104865500D01*
G75*
G02*
X95365500Y-104845000I20500J0D01*
G01*
X96894500Y-104845000D01*
G75*
G02*
X96915000Y-104865500I0J-20500D01*
G01*
G37*
G36*
G01*
X96915000Y-105515500D02*
X96915000Y-105884500D01*
G75*
G02*
X96894500Y-105905000I-20500J0D01*
G01*
X95365500Y-105905000D01*
G75*
G02*
X95345000Y-105884500I0J20500D01*
G01*
X95345000Y-105515500D01*
G75*
G02*
X95365500Y-105495000I20500J0D01*
G01*
X96894500Y-105495000D01*
G75*
G02*
X96915000Y-105515500I0J-20500D01*
G01*
G37*
G36*
G01*
X96915000Y-106165500D02*
X96915000Y-106534500D01*
G75*
G02*
X96894500Y-106555000I-20500J0D01*
G01*
X95365500Y-106555000D01*
G75*
G02*
X95345000Y-106534500I0J20500D01*
G01*
X95345000Y-106165500D01*
G75*
G02*
X95365500Y-106145000I20500J0D01*
G01*
X96894500Y-106145000D01*
G75*
G02*
X96915000Y-106165500I0J-20500D01*
G01*
G37*
G36*
G01*
X96915000Y-106815500D02*
X96915000Y-107184500D01*
G75*
G02*
X96894500Y-107205000I-20500J0D01*
G01*
X95365500Y-107205000D01*
G75*
G02*
X95345000Y-107184500I0J20500D01*
G01*
X95345000Y-106815500D01*
G75*
G02*
X95365500Y-106795000I20500J0D01*
G01*
X96894500Y-106795000D01*
G75*
G02*
X96915000Y-106815500I0J-20500D01*
G01*
G37*
G36*
G01*
X96915000Y-107465500D02*
X96915000Y-107834500D01*
G75*
G02*
X96894500Y-107855000I-20500J0D01*
G01*
X95365500Y-107855000D01*
G75*
G02*
X95345000Y-107834500I0J20500D01*
G01*
X95345000Y-107465500D01*
G75*
G02*
X95365500Y-107445000I20500J0D01*
G01*
X96894500Y-107445000D01*
G75*
G02*
X96915000Y-107465500I0J-20500D01*
G01*
G37*
G36*
G01*
X96915000Y-108115500D02*
X96915000Y-108484500D01*
G75*
G02*
X96894500Y-108505000I-20500J0D01*
G01*
X95365500Y-108505000D01*
G75*
G02*
X95345000Y-108484500I0J20500D01*
G01*
X95345000Y-108115500D01*
G75*
G02*
X95365500Y-108095000I20500J0D01*
G01*
X96894500Y-108095000D01*
G75*
G02*
X96915000Y-108115500I0J-20500D01*
G01*
G37*
G36*
G01*
X96915000Y-108765500D02*
X96915000Y-109134500D01*
G75*
G02*
X96894500Y-109155000I-20500J0D01*
G01*
X95365500Y-109155000D01*
G75*
G02*
X95345000Y-109134500I0J20500D01*
G01*
X95345000Y-108765500D01*
G75*
G02*
X95365500Y-108745000I20500J0D01*
G01*
X96894500Y-108745000D01*
G75*
G02*
X96915000Y-108765500I0J-20500D01*
G01*
G37*
G36*
G01*
X139720000Y-80435000D02*
X139720000Y-80065000D01*
G75*
G02*
X139855000Y-79930000I135000J0D01*
G01*
X140125000Y-79930000D01*
G75*
G02*
X140260000Y-80065000I0J-135000D01*
G01*
X140260000Y-80435000D01*
G75*
G02*
X140125000Y-80570000I-135000J0D01*
G01*
X139855000Y-80570000D01*
G75*
G02*
X139720000Y-80435000I0J135000D01*
G01*
G37*
G36*
G01*
X140740000Y-80435000D02*
X140740000Y-80065000D01*
G75*
G02*
X140875000Y-79930000I135000J0D01*
G01*
X141145000Y-79930000D01*
G75*
G02*
X141280000Y-80065000I0J-135000D01*
G01*
X141280000Y-80435000D01*
G75*
G02*
X141145000Y-80570000I-135000J0D01*
G01*
X140875000Y-80570000D01*
G75*
G02*
X140740000Y-80435000I0J135000D01*
G01*
G37*
G36*
G01*
X102170000Y-91280000D02*
X101830000Y-91280000D01*
G75*
G02*
X101690000Y-91140000I0J140000D01*
G01*
X101690000Y-90860000D01*
G75*
G02*
X101830000Y-90720000I140000J0D01*
G01*
X102170000Y-90720000D01*
G75*
G02*
X102310000Y-90860000I0J-140000D01*
G01*
X102310000Y-91140000D01*
G75*
G02*
X102170000Y-91280000I-140000J0D01*
G01*
G37*
G36*
G01*
X102170000Y-90320000D02*
X101830000Y-90320000D01*
G75*
G02*
X101690000Y-90180000I0J140000D01*
G01*
X101690000Y-89900000D01*
G75*
G02*
X101830000Y-89760000I140000J0D01*
G01*
X102170000Y-89760000D01*
G75*
G02*
X102310000Y-89900000I0J-140000D01*
G01*
X102310000Y-90180000D01*
G75*
G02*
X102170000Y-90320000I-140000J0D01*
G01*
G37*
G36*
G01*
X96992500Y-57815000D02*
X96992500Y-58185000D01*
G75*
G02*
X96857500Y-58320000I-135000J0D01*
G01*
X96587500Y-58320000D01*
G75*
G02*
X96452500Y-58185000I0J135000D01*
G01*
X96452500Y-57815000D01*
G75*
G02*
X96587500Y-57680000I135000J0D01*
G01*
X96857500Y-57680000D01*
G75*
G02*
X96992500Y-57815000I0J-135000D01*
G01*
G37*
G36*
G01*
X95972500Y-57815000D02*
X95972500Y-58185000D01*
G75*
G02*
X95837500Y-58320000I-135000J0D01*
G01*
X95567500Y-58320000D01*
G75*
G02*
X95432500Y-58185000I0J135000D01*
G01*
X95432500Y-57815000D01*
G75*
G02*
X95567500Y-57680000I135000J0D01*
G01*
X95837500Y-57680000D01*
G75*
G02*
X95972500Y-57815000I0J-135000D01*
G01*
G37*
G36*
G01*
X96992500Y-97815000D02*
X96992500Y-98185000D01*
G75*
G02*
X96857500Y-98320000I-135000J0D01*
G01*
X96587500Y-98320000D01*
G75*
G02*
X96452500Y-98185000I0J135000D01*
G01*
X96452500Y-97815000D01*
G75*
G02*
X96587500Y-97680000I135000J0D01*
G01*
X96857500Y-97680000D01*
G75*
G02*
X96992500Y-97815000I0J-135000D01*
G01*
G37*
G36*
G01*
X95972500Y-97815000D02*
X95972500Y-98185000D01*
G75*
G02*
X95837500Y-98320000I-135000J0D01*
G01*
X95567500Y-98320000D01*
G75*
G02*
X95432500Y-98185000I0J135000D01*
G01*
X95432500Y-97815000D01*
G75*
G02*
X95567500Y-97680000I135000J0D01*
G01*
X95837500Y-97680000D01*
G75*
G02*
X95972500Y-97815000I0J-135000D01*
G01*
G37*
G36*
G01*
X103850000Y-108950000D02*
X105150000Y-108950000D01*
G75*
G02*
X105400000Y-109200000I0J-250000D01*
G01*
X105400000Y-109850000D01*
G75*
G02*
X105150000Y-110100000I-250000J0D01*
G01*
X103850000Y-110100000D01*
G75*
G02*
X103600000Y-109850000I0J250000D01*
G01*
X103600000Y-109200000D01*
G75*
G02*
X103850000Y-108950000I250000J0D01*
G01*
G37*
G36*
G01*
X103850000Y-111900000D02*
X105150000Y-111900000D01*
G75*
G02*
X105400000Y-112150000I0J-250000D01*
G01*
X105400000Y-112800000D01*
G75*
G02*
X105150000Y-113050000I-250000J0D01*
G01*
X103850000Y-113050000D01*
G75*
G02*
X103600000Y-112800000I0J250000D01*
G01*
X103600000Y-112150000D01*
G75*
G02*
X103850000Y-111900000I250000J0D01*
G01*
G37*
G36*
G01*
X113050000Y-64975000D02*
X113050000Y-64025000D01*
G75*
G02*
X113300000Y-63775000I250000J0D01*
G01*
X113800000Y-63775000D01*
G75*
G02*
X114050000Y-64025000I0J-250000D01*
G01*
X114050000Y-64975000D01*
G75*
G02*
X113800000Y-65225000I-250000J0D01*
G01*
X113300000Y-65225000D01*
G75*
G02*
X113050000Y-64975000I0J250000D01*
G01*
G37*
G36*
G01*
X114950000Y-64975000D02*
X114950000Y-64025000D01*
G75*
G02*
X115200000Y-63775000I250000J0D01*
G01*
X115700000Y-63775000D01*
G75*
G02*
X115950000Y-64025000I0J-250000D01*
G01*
X115950000Y-64975000D01*
G75*
G02*
X115700000Y-65225000I-250000J0D01*
G01*
X115200000Y-65225000D01*
G75*
G02*
X114950000Y-64975000I0J250000D01*
G01*
G37*
G36*
G01*
X111720000Y-51685000D02*
X111720000Y-51315000D01*
G75*
G02*
X111855000Y-51180000I135000J0D01*
G01*
X112125000Y-51180000D01*
G75*
G02*
X112260000Y-51315000I0J-135000D01*
G01*
X112260000Y-51685000D01*
G75*
G02*
X112125000Y-51820000I-135000J0D01*
G01*
X111855000Y-51820000D01*
G75*
G02*
X111720000Y-51685000I0J135000D01*
G01*
G37*
G36*
G01*
X112740000Y-51685000D02*
X112740000Y-51315000D01*
G75*
G02*
X112875000Y-51180000I135000J0D01*
G01*
X113145000Y-51180000D01*
G75*
G02*
X113280000Y-51315000I0J-135000D01*
G01*
X113280000Y-51685000D01*
G75*
G02*
X113145000Y-51820000I-135000J0D01*
G01*
X112875000Y-51820000D01*
G75*
G02*
X112740000Y-51685000I0J135000D01*
G01*
G37*
G36*
G01*
X102920000Y-103260000D02*
X102580000Y-103260000D01*
G75*
G02*
X102440000Y-103120000I0J140000D01*
G01*
X102440000Y-102840000D01*
G75*
G02*
X102580000Y-102700000I140000J0D01*
G01*
X102920000Y-102700000D01*
G75*
G02*
X103060000Y-102840000I0J-140000D01*
G01*
X103060000Y-103120000D01*
G75*
G02*
X102920000Y-103260000I-140000J0D01*
G01*
G37*
G36*
G01*
X102920000Y-102300000D02*
X102580000Y-102300000D01*
G75*
G02*
X102440000Y-102160000I0J140000D01*
G01*
X102440000Y-101880000D01*
G75*
G02*
X102580000Y-101740000I140000J0D01*
G01*
X102920000Y-101740000D01*
G75*
G02*
X103060000Y-101880000I0J-140000D01*
G01*
X103060000Y-102160000D01*
G75*
G02*
X102920000Y-102300000I-140000J0D01*
G01*
G37*
G36*
G01*
X97987500Y-68256250D02*
X97987500Y-67743750D01*
G75*
G02*
X98206250Y-67525000I218750J0D01*
G01*
X98643750Y-67525000D01*
G75*
G02*
X98862500Y-67743750I0J-218750D01*
G01*
X98862500Y-68256250D01*
G75*
G02*
X98643750Y-68475000I-218750J0D01*
G01*
X98206250Y-68475000D01*
G75*
G02*
X97987500Y-68256250I0J218750D01*
G01*
G37*
G36*
G01*
X99562500Y-68256250D02*
X99562500Y-67743750D01*
G75*
G02*
X99781250Y-67525000I218750J0D01*
G01*
X100218750Y-67525000D01*
G75*
G02*
X100437500Y-67743750I0J-218750D01*
G01*
X100437500Y-68256250D01*
G75*
G02*
X100218750Y-68475000I-218750J0D01*
G01*
X99781250Y-68475000D01*
G75*
G02*
X99562500Y-68256250I0J218750D01*
G01*
G37*
G36*
G01*
X143725000Y-55600000D02*
X143725000Y-55300000D01*
G75*
G02*
X143875000Y-55150000I150000J0D01*
G01*
X145050000Y-55150000D01*
G75*
G02*
X145200000Y-55300000I0J-150000D01*
G01*
X145200000Y-55600000D01*
G75*
G02*
X145050000Y-55750000I-150000J0D01*
G01*
X143875000Y-55750000D01*
G75*
G02*
X143725000Y-55600000I0J150000D01*
G01*
G37*
G36*
G01*
X143725000Y-57500000D02*
X143725000Y-57200000D01*
G75*
G02*
X143875000Y-57050000I150000J0D01*
G01*
X145050000Y-57050000D01*
G75*
G02*
X145200000Y-57200000I0J-150000D01*
G01*
X145200000Y-57500000D01*
G75*
G02*
X145050000Y-57650000I-150000J0D01*
G01*
X143875000Y-57650000D01*
G75*
G02*
X143725000Y-57500000I0J150000D01*
G01*
G37*
G36*
G01*
X145600000Y-56550000D02*
X145600000Y-56250000D01*
G75*
G02*
X145750000Y-56100000I150000J0D01*
G01*
X146925000Y-56100000D01*
G75*
G02*
X147075000Y-56250000I0J-150000D01*
G01*
X147075000Y-56550000D01*
G75*
G02*
X146925000Y-56700000I-150000J0D01*
G01*
X145750000Y-56700000D01*
G75*
G02*
X145600000Y-56550000I0J150000D01*
G01*
G37*
G36*
G01*
X96992500Y-77815000D02*
X96992500Y-78185000D01*
G75*
G02*
X96857500Y-78320000I-135000J0D01*
G01*
X96587500Y-78320000D01*
G75*
G02*
X96452500Y-78185000I0J135000D01*
G01*
X96452500Y-77815000D01*
G75*
G02*
X96587500Y-77680000I135000J0D01*
G01*
X96857500Y-77680000D01*
G75*
G02*
X96992500Y-77815000I0J-135000D01*
G01*
G37*
G36*
G01*
X95972500Y-77815000D02*
X95972500Y-78185000D01*
G75*
G02*
X95837500Y-78320000I-135000J0D01*
G01*
X95567500Y-78320000D01*
G75*
G02*
X95432500Y-78185000I0J135000D01*
G01*
X95432500Y-77815000D01*
G75*
G02*
X95567500Y-77680000I135000J0D01*
G01*
X95837500Y-77680000D01*
G75*
G02*
X95972500Y-77815000I0J-135000D01*
G01*
G37*
D10*
X152200000Y-65925000D03*
X158200000Y-65925000D03*
X152200000Y-69675000D03*
X158200000Y-69675000D03*
G36*
G01*
X150630000Y-67040000D02*
X150970000Y-67040000D01*
G75*
G02*
X151110000Y-67180000I0J-140000D01*
G01*
X151110000Y-67460000D01*
G75*
G02*
X150970000Y-67600000I-140000J0D01*
G01*
X150630000Y-67600000D01*
G75*
G02*
X150490000Y-67460000I0J140000D01*
G01*
X150490000Y-67180000D01*
G75*
G02*
X150630000Y-67040000I140000J0D01*
G01*
G37*
G36*
G01*
X150630000Y-68000000D02*
X150970000Y-68000000D01*
G75*
G02*
X151110000Y-68140000I0J-140000D01*
G01*
X151110000Y-68420000D01*
G75*
G02*
X150970000Y-68560000I-140000J0D01*
G01*
X150630000Y-68560000D01*
G75*
G02*
X150490000Y-68420000I0J140000D01*
G01*
X150490000Y-68140000D01*
G75*
G02*
X150630000Y-68000000I140000J0D01*
G01*
G37*
G36*
G01*
X116300000Y-62300000D02*
X116300000Y-62600000D01*
G75*
G02*
X116150000Y-62750000I-150000J0D01*
G01*
X115125000Y-62750000D01*
G75*
G02*
X114975000Y-62600000I0J150000D01*
G01*
X114975000Y-62300000D01*
G75*
G02*
X115125000Y-62150000I150000J0D01*
G01*
X116150000Y-62150000D01*
G75*
G02*
X116300000Y-62300000I0J-150000D01*
G01*
G37*
G36*
G01*
X116300000Y-60400000D02*
X116300000Y-60700000D01*
G75*
G02*
X116150000Y-60850000I-150000J0D01*
G01*
X115125000Y-60850000D01*
G75*
G02*
X114975000Y-60700000I0J150000D01*
G01*
X114975000Y-60400000D01*
G75*
G02*
X115125000Y-60250000I150000J0D01*
G01*
X116150000Y-60250000D01*
G75*
G02*
X116300000Y-60400000I0J-150000D01*
G01*
G37*
G36*
G01*
X114025000Y-61350000D02*
X114025000Y-61650000D01*
G75*
G02*
X113875000Y-61800000I-150000J0D01*
G01*
X112850000Y-61800000D01*
G75*
G02*
X112700000Y-61650000I0J150000D01*
G01*
X112700000Y-61350000D01*
G75*
G02*
X112850000Y-61200000I150000J0D01*
G01*
X113875000Y-61200000D01*
G75*
G02*
X114025000Y-61350000I0J-150000D01*
G01*
G37*
G36*
G01*
X90670000Y-106760000D02*
X90330000Y-106760000D01*
G75*
G02*
X90190000Y-106620000I0J140000D01*
G01*
X90190000Y-106340000D01*
G75*
G02*
X90330000Y-106200000I140000J0D01*
G01*
X90670000Y-106200000D01*
G75*
G02*
X90810000Y-106340000I0J-140000D01*
G01*
X90810000Y-106620000D01*
G75*
G02*
X90670000Y-106760000I-140000J0D01*
G01*
G37*
G36*
G01*
X90670000Y-105800000D02*
X90330000Y-105800000D01*
G75*
G02*
X90190000Y-105660000I0J140000D01*
G01*
X90190000Y-105380000D01*
G75*
G02*
X90330000Y-105240000I140000J0D01*
G01*
X90670000Y-105240000D01*
G75*
G02*
X90810000Y-105380000I0J-140000D01*
G01*
X90810000Y-105660000D01*
G75*
G02*
X90670000Y-105800000I-140000J0D01*
G01*
G37*
G36*
G01*
X90760000Y-101580000D02*
X90760000Y-101920000D01*
G75*
G02*
X90620000Y-102060000I-140000J0D01*
G01*
X90340000Y-102060000D01*
G75*
G02*
X90200000Y-101920000I0J140000D01*
G01*
X90200000Y-101580000D01*
G75*
G02*
X90340000Y-101440000I140000J0D01*
G01*
X90620000Y-101440000D01*
G75*
G02*
X90760000Y-101580000I0J-140000D01*
G01*
G37*
G36*
G01*
X89800000Y-101580000D02*
X89800000Y-101920000D01*
G75*
G02*
X89660000Y-102060000I-140000J0D01*
G01*
X89380000Y-102060000D01*
G75*
G02*
X89240000Y-101920000I0J140000D01*
G01*
X89240000Y-101580000D01*
G75*
G02*
X89380000Y-101440000I140000J0D01*
G01*
X89660000Y-101440000D01*
G75*
G02*
X89800000Y-101580000I0J-140000D01*
G01*
G37*
G36*
G01*
X137510000Y-64330000D02*
X137510000Y-64670000D01*
G75*
G02*
X137370000Y-64810000I-140000J0D01*
G01*
X137090000Y-64810000D01*
G75*
G02*
X136950000Y-64670000I0J140000D01*
G01*
X136950000Y-64330000D01*
G75*
G02*
X137090000Y-64190000I140000J0D01*
G01*
X137370000Y-64190000D01*
G75*
G02*
X137510000Y-64330000I0J-140000D01*
G01*
G37*
G36*
G01*
X136550000Y-64330000D02*
X136550000Y-64670000D01*
G75*
G02*
X136410000Y-64810000I-140000J0D01*
G01*
X136130000Y-64810000D01*
G75*
G02*
X135990000Y-64670000I0J140000D01*
G01*
X135990000Y-64330000D01*
G75*
G02*
X136130000Y-64190000I140000J0D01*
G01*
X136410000Y-64190000D01*
G75*
G02*
X136550000Y-64330000I0J-140000D01*
G01*
G37*
G36*
G01*
X96992500Y-82815000D02*
X96992500Y-83185000D01*
G75*
G02*
X96857500Y-83320000I-135000J0D01*
G01*
X96587500Y-83320000D01*
G75*
G02*
X96452500Y-83185000I0J135000D01*
G01*
X96452500Y-82815000D01*
G75*
G02*
X96587500Y-82680000I135000J0D01*
G01*
X96857500Y-82680000D01*
G75*
G02*
X96992500Y-82815000I0J-135000D01*
G01*
G37*
G36*
G01*
X95972500Y-82815000D02*
X95972500Y-83185000D01*
G75*
G02*
X95837500Y-83320000I-135000J0D01*
G01*
X95567500Y-83320000D01*
G75*
G02*
X95432500Y-83185000I0J135000D01*
G01*
X95432500Y-82815000D01*
G75*
G02*
X95567500Y-82680000I135000J0D01*
G01*
X95837500Y-82680000D01*
G75*
G02*
X95972500Y-82815000I0J-135000D01*
G01*
G37*
G36*
G01*
X120262500Y-85925000D02*
X120262500Y-84075000D01*
G75*
G02*
X120512500Y-83825000I250000J0D01*
G01*
X121337500Y-83825000D01*
G75*
G02*
X121587500Y-84075000I0J-250000D01*
G01*
X121587500Y-85925000D01*
G75*
G02*
X121337500Y-86175000I-250000J0D01*
G01*
X120512500Y-86175000D01*
G75*
G02*
X120262500Y-85925000I0J250000D01*
G01*
G37*
G36*
G01*
X123337500Y-85925000D02*
X123337500Y-84075000D01*
G75*
G02*
X123587500Y-83825000I250000J0D01*
G01*
X124412500Y-83825000D01*
G75*
G02*
X124662500Y-84075000I0J-250000D01*
G01*
X124662500Y-85925000D01*
G75*
G02*
X124412500Y-86175000I-250000J0D01*
G01*
X123587500Y-86175000D01*
G75*
G02*
X123337500Y-85925000I0J250000D01*
G01*
G37*
G36*
G01*
X143020000Y-54185000D02*
X143020000Y-53815000D01*
G75*
G02*
X143155000Y-53680000I135000J0D01*
G01*
X143425000Y-53680000D01*
G75*
G02*
X143560000Y-53815000I0J-135000D01*
G01*
X143560000Y-54185000D01*
G75*
G02*
X143425000Y-54320000I-135000J0D01*
G01*
X143155000Y-54320000D01*
G75*
G02*
X143020000Y-54185000I0J135000D01*
G01*
G37*
G36*
G01*
X144040000Y-54185000D02*
X144040000Y-53815000D01*
G75*
G02*
X144175000Y-53680000I135000J0D01*
G01*
X144445000Y-53680000D01*
G75*
G02*
X144580000Y-53815000I0J-135000D01*
G01*
X144580000Y-54185000D01*
G75*
G02*
X144445000Y-54320000I-135000J0D01*
G01*
X144175000Y-54320000D01*
G75*
G02*
X144040000Y-54185000I0J135000D01*
G01*
G37*
G36*
G01*
X122125000Y-80275000D02*
X120875000Y-80275000D01*
G75*
G02*
X120625000Y-80025000I0J250000D01*
G01*
X120625000Y-79400000D01*
G75*
G02*
X120875000Y-79150000I250000J0D01*
G01*
X122125000Y-79150000D01*
G75*
G02*
X122375000Y-79400000I0J-250000D01*
G01*
X122375000Y-80025000D01*
G75*
G02*
X122125000Y-80275000I-250000J0D01*
G01*
G37*
G36*
G01*
X122125000Y-77350000D02*
X120875000Y-77350000D01*
G75*
G02*
X120625000Y-77100000I0J250000D01*
G01*
X120625000Y-76475000D01*
G75*
G02*
X120875000Y-76225000I250000J0D01*
G01*
X122125000Y-76225000D01*
G75*
G02*
X122375000Y-76475000I0J-250000D01*
G01*
X122375000Y-77100000D01*
G75*
G02*
X122125000Y-77350000I-250000J0D01*
G01*
G37*
G36*
G01*
X97987500Y-53256250D02*
X97987500Y-52743750D01*
G75*
G02*
X98206250Y-52525000I218750J0D01*
G01*
X98643750Y-52525000D01*
G75*
G02*
X98862500Y-52743750I0J-218750D01*
G01*
X98862500Y-53256250D01*
G75*
G02*
X98643750Y-53475000I-218750J0D01*
G01*
X98206250Y-53475000D01*
G75*
G02*
X97987500Y-53256250I0J218750D01*
G01*
G37*
G36*
G01*
X99562500Y-53256250D02*
X99562500Y-52743750D01*
G75*
G02*
X99781250Y-52525000I218750J0D01*
G01*
X100218750Y-52525000D01*
G75*
G02*
X100437500Y-52743750I0J-218750D01*
G01*
X100437500Y-53256250D01*
G75*
G02*
X100218750Y-53475000I-218750J0D01*
G01*
X99781250Y-53475000D01*
G75*
G02*
X99562500Y-53256250I0J218750D01*
G01*
G37*
G36*
G01*
X105270000Y-91315000D02*
X105270000Y-91685000D01*
G75*
G02*
X105135000Y-91820000I-135000J0D01*
G01*
X104865000Y-91820000D01*
G75*
G02*
X104730000Y-91685000I0J135000D01*
G01*
X104730000Y-91315000D01*
G75*
G02*
X104865000Y-91180000I135000J0D01*
G01*
X105135000Y-91180000D01*
G75*
G02*
X105270000Y-91315000I0J-135000D01*
G01*
G37*
G36*
G01*
X104250000Y-91315000D02*
X104250000Y-91685000D01*
G75*
G02*
X104115000Y-91820000I-135000J0D01*
G01*
X103845000Y-91820000D01*
G75*
G02*
X103710000Y-91685000I0J135000D01*
G01*
X103710000Y-91315000D01*
G75*
G02*
X103845000Y-91180000I135000J0D01*
G01*
X104115000Y-91180000D01*
G75*
G02*
X104250000Y-91315000I0J-135000D01*
G01*
G37*
G36*
G01*
X97987500Y-93256250D02*
X97987500Y-92743750D01*
G75*
G02*
X98206250Y-92525000I218750J0D01*
G01*
X98643750Y-92525000D01*
G75*
G02*
X98862500Y-92743750I0J-218750D01*
G01*
X98862500Y-93256250D01*
G75*
G02*
X98643750Y-93475000I-218750J0D01*
G01*
X98206250Y-93475000D01*
G75*
G02*
X97987500Y-93256250I0J218750D01*
G01*
G37*
G36*
G01*
X99562500Y-93256250D02*
X99562500Y-92743750D01*
G75*
G02*
X99781250Y-92525000I218750J0D01*
G01*
X100218750Y-92525000D01*
G75*
G02*
X100437500Y-92743750I0J-218750D01*
G01*
X100437500Y-93256250D01*
G75*
G02*
X100218750Y-93475000I-218750J0D01*
G01*
X99781250Y-93475000D01*
G75*
G02*
X99562500Y-93256250I0J218750D01*
G01*
G37*
G36*
G01*
X110215000Y-56525000D02*
X110515000Y-56525000D01*
G75*
G02*
X110665000Y-56675000I0J-150000D01*
G01*
X110665000Y-58325000D01*
G75*
G02*
X110515000Y-58475000I-150000J0D01*
G01*
X110215000Y-58475000D01*
G75*
G02*
X110065000Y-58325000I0J150000D01*
G01*
X110065000Y-56675000D01*
G75*
G02*
X110215000Y-56525000I150000J0D01*
G01*
G37*
G36*
G01*
X108945000Y-56525000D02*
X109245000Y-56525000D01*
G75*
G02*
X109395000Y-56675000I0J-150000D01*
G01*
X109395000Y-58325000D01*
G75*
G02*
X109245000Y-58475000I-150000J0D01*
G01*
X108945000Y-58475000D01*
G75*
G02*
X108795000Y-58325000I0J150000D01*
G01*
X108795000Y-56675000D01*
G75*
G02*
X108945000Y-56525000I150000J0D01*
G01*
G37*
G36*
G01*
X107675000Y-56525000D02*
X107975000Y-56525000D01*
G75*
G02*
X108125000Y-56675000I0J-150000D01*
G01*
X108125000Y-58325000D01*
G75*
G02*
X107975000Y-58475000I-150000J0D01*
G01*
X107675000Y-58475000D01*
G75*
G02*
X107525000Y-58325000I0J150000D01*
G01*
X107525000Y-56675000D01*
G75*
G02*
X107675000Y-56525000I150000J0D01*
G01*
G37*
G36*
G01*
X106405000Y-56525000D02*
X106705000Y-56525000D01*
G75*
G02*
X106855000Y-56675000I0J-150000D01*
G01*
X106855000Y-58325000D01*
G75*
G02*
X106705000Y-58475000I-150000J0D01*
G01*
X106405000Y-58475000D01*
G75*
G02*
X106255000Y-58325000I0J150000D01*
G01*
X106255000Y-56675000D01*
G75*
G02*
X106405000Y-56525000I150000J0D01*
G01*
G37*
G36*
G01*
X106405000Y-61475000D02*
X106705000Y-61475000D01*
G75*
G02*
X106855000Y-61625000I0J-150000D01*
G01*
X106855000Y-63275000D01*
G75*
G02*
X106705000Y-63425000I-150000J0D01*
G01*
X106405000Y-63425000D01*
G75*
G02*
X106255000Y-63275000I0J150000D01*
G01*
X106255000Y-61625000D01*
G75*
G02*
X106405000Y-61475000I150000J0D01*
G01*
G37*
G36*
G01*
X107675000Y-61475000D02*
X107975000Y-61475000D01*
G75*
G02*
X108125000Y-61625000I0J-150000D01*
G01*
X108125000Y-63275000D01*
G75*
G02*
X107975000Y-63425000I-150000J0D01*
G01*
X107675000Y-63425000D01*
G75*
G02*
X107525000Y-63275000I0J150000D01*
G01*
X107525000Y-61625000D01*
G75*
G02*
X107675000Y-61475000I150000J0D01*
G01*
G37*
G36*
G01*
X108945000Y-61475000D02*
X109245000Y-61475000D01*
G75*
G02*
X109395000Y-61625000I0J-150000D01*
G01*
X109395000Y-63275000D01*
G75*
G02*
X109245000Y-63425000I-150000J0D01*
G01*
X108945000Y-63425000D01*
G75*
G02*
X108795000Y-63275000I0J150000D01*
G01*
X108795000Y-61625000D01*
G75*
G02*
X108945000Y-61475000I150000J0D01*
G01*
G37*
G36*
G01*
X110215000Y-61475000D02*
X110515000Y-61475000D01*
G75*
G02*
X110665000Y-61625000I0J-150000D01*
G01*
X110665000Y-63275000D01*
G75*
G02*
X110515000Y-63425000I-150000J0D01*
G01*
X110215000Y-63425000D01*
G75*
G02*
X110065000Y-63275000I0J150000D01*
G01*
X110065000Y-61625000D01*
G75*
G02*
X110215000Y-61475000I150000J0D01*
G01*
G37*
G36*
G01*
X87425000Y-109537500D02*
X84575000Y-109537500D01*
G75*
G02*
X84325000Y-109287500I0J250000D01*
G01*
X84325000Y-108562500D01*
G75*
G02*
X84575000Y-108312500I250000J0D01*
G01*
X87425000Y-108312500D01*
G75*
G02*
X87675000Y-108562500I0J-250000D01*
G01*
X87675000Y-109287500D01*
G75*
G02*
X87425000Y-109537500I-250000J0D01*
G01*
G37*
G36*
G01*
X87425000Y-103612500D02*
X84575000Y-103612500D01*
G75*
G02*
X84325000Y-103362500I0J250000D01*
G01*
X84325000Y-102637500D01*
G75*
G02*
X84575000Y-102387500I250000J0D01*
G01*
X87425000Y-102387500D01*
G75*
G02*
X87675000Y-102637500I0J-250000D01*
G01*
X87675000Y-103362500D01*
G75*
G02*
X87425000Y-103612500I-250000J0D01*
G01*
G37*
G36*
G01*
X133315000Y-74220000D02*
X133685000Y-74220000D01*
G75*
G02*
X133820000Y-74355000I0J-135000D01*
G01*
X133820000Y-74625000D01*
G75*
G02*
X133685000Y-74760000I-135000J0D01*
G01*
X133315000Y-74760000D01*
G75*
G02*
X133180000Y-74625000I0J135000D01*
G01*
X133180000Y-74355000D01*
G75*
G02*
X133315000Y-74220000I135000J0D01*
G01*
G37*
G36*
G01*
X133315000Y-75240000D02*
X133685000Y-75240000D01*
G75*
G02*
X133820000Y-75375000I0J-135000D01*
G01*
X133820000Y-75645000D01*
G75*
G02*
X133685000Y-75780000I-135000J0D01*
G01*
X133315000Y-75780000D01*
G75*
G02*
X133180000Y-75645000I0J135000D01*
G01*
X133180000Y-75375000D01*
G75*
G02*
X133315000Y-75240000I135000J0D01*
G01*
G37*
G36*
G01*
X109990000Y-64670000D02*
X109990000Y-64330000D01*
G75*
G02*
X110130000Y-64190000I140000J0D01*
G01*
X110410000Y-64190000D01*
G75*
G02*
X110550000Y-64330000I0J-140000D01*
G01*
X110550000Y-64670000D01*
G75*
G02*
X110410000Y-64810000I-140000J0D01*
G01*
X110130000Y-64810000D01*
G75*
G02*
X109990000Y-64670000I0J140000D01*
G01*
G37*
G36*
G01*
X110950000Y-64670000D02*
X110950000Y-64330000D01*
G75*
G02*
X111090000Y-64190000I140000J0D01*
G01*
X111370000Y-64190000D01*
G75*
G02*
X111510000Y-64330000I0J-140000D01*
G01*
X111510000Y-64670000D01*
G75*
G02*
X111370000Y-64810000I-140000J0D01*
G01*
X111090000Y-64810000D01*
G75*
G02*
X110950000Y-64670000I0J140000D01*
G01*
G37*
G36*
G01*
X89150000Y-86600000D02*
X88950000Y-86600000D01*
G75*
G02*
X88850000Y-86500000I0J100000D01*
G01*
X88850000Y-85225000D01*
G75*
G02*
X88950000Y-85125000I100000J0D01*
G01*
X89150000Y-85125000D01*
G75*
G02*
X89250000Y-85225000I0J-100000D01*
G01*
X89250000Y-86500000D01*
G75*
G02*
X89150000Y-86600000I-100000J0D01*
G01*
G37*
G36*
G01*
X89800000Y-86600000D02*
X89600000Y-86600000D01*
G75*
G02*
X89500000Y-86500000I0J100000D01*
G01*
X89500000Y-85225000D01*
G75*
G02*
X89600000Y-85125000I100000J0D01*
G01*
X89800000Y-85125000D01*
G75*
G02*
X89900000Y-85225000I0J-100000D01*
G01*
X89900000Y-86500000D01*
G75*
G02*
X89800000Y-86600000I-100000J0D01*
G01*
G37*
G36*
G01*
X90450000Y-86600000D02*
X90250000Y-86600000D01*
G75*
G02*
X90150000Y-86500000I0J100000D01*
G01*
X90150000Y-85225000D01*
G75*
G02*
X90250000Y-85125000I100000J0D01*
G01*
X90450000Y-85125000D01*
G75*
G02*
X90550000Y-85225000I0J-100000D01*
G01*
X90550000Y-86500000D01*
G75*
G02*
X90450000Y-86600000I-100000J0D01*
G01*
G37*
G36*
G01*
X91100000Y-86600000D02*
X90900000Y-86600000D01*
G75*
G02*
X90800000Y-86500000I0J100000D01*
G01*
X90800000Y-85225000D01*
G75*
G02*
X90900000Y-85125000I100000J0D01*
G01*
X91100000Y-85125000D01*
G75*
G02*
X91200000Y-85225000I0J-100000D01*
G01*
X91200000Y-86500000D01*
G75*
G02*
X91100000Y-86600000I-100000J0D01*
G01*
G37*
G36*
G01*
X91750000Y-86600000D02*
X91550000Y-86600000D01*
G75*
G02*
X91450000Y-86500000I0J100000D01*
G01*
X91450000Y-85225000D01*
G75*
G02*
X91550000Y-85125000I100000J0D01*
G01*
X91750000Y-85125000D01*
G75*
G02*
X91850000Y-85225000I0J-100000D01*
G01*
X91850000Y-86500000D01*
G75*
G02*
X91750000Y-86600000I-100000J0D01*
G01*
G37*
G36*
G01*
X92400000Y-86600000D02*
X92200000Y-86600000D01*
G75*
G02*
X92100000Y-86500000I0J100000D01*
G01*
X92100000Y-85225000D01*
G75*
G02*
X92200000Y-85125000I100000J0D01*
G01*
X92400000Y-85125000D01*
G75*
G02*
X92500000Y-85225000I0J-100000D01*
G01*
X92500000Y-86500000D01*
G75*
G02*
X92400000Y-86600000I-100000J0D01*
G01*
G37*
G36*
G01*
X93050000Y-86600000D02*
X92850000Y-86600000D01*
G75*
G02*
X92750000Y-86500000I0J100000D01*
G01*
X92750000Y-85225000D01*
G75*
G02*
X92850000Y-85125000I100000J0D01*
G01*
X93050000Y-85125000D01*
G75*
G02*
X93150000Y-85225000I0J-100000D01*
G01*
X93150000Y-86500000D01*
G75*
G02*
X93050000Y-86600000I-100000J0D01*
G01*
G37*
G36*
G01*
X93050000Y-80875000D02*
X92850000Y-80875000D01*
G75*
G02*
X92750000Y-80775000I0J100000D01*
G01*
X92750000Y-79500000D01*
G75*
G02*
X92850000Y-79400000I100000J0D01*
G01*
X93050000Y-79400000D01*
G75*
G02*
X93150000Y-79500000I0J-100000D01*
G01*
X93150000Y-80775000D01*
G75*
G02*
X93050000Y-80875000I-100000J0D01*
G01*
G37*
G36*
G01*
X92400000Y-80875000D02*
X92200000Y-80875000D01*
G75*
G02*
X92100000Y-80775000I0J100000D01*
G01*
X92100000Y-79500000D01*
G75*
G02*
X92200000Y-79400000I100000J0D01*
G01*
X92400000Y-79400000D01*
G75*
G02*
X92500000Y-79500000I0J-100000D01*
G01*
X92500000Y-80775000D01*
G75*
G02*
X92400000Y-80875000I-100000J0D01*
G01*
G37*
G36*
G01*
X91750000Y-80875000D02*
X91550000Y-80875000D01*
G75*
G02*
X91450000Y-80775000I0J100000D01*
G01*
X91450000Y-79500000D01*
G75*
G02*
X91550000Y-79400000I100000J0D01*
G01*
X91750000Y-79400000D01*
G75*
G02*
X91850000Y-79500000I0J-100000D01*
G01*
X91850000Y-80775000D01*
G75*
G02*
X91750000Y-80875000I-100000J0D01*
G01*
G37*
G36*
G01*
X91100000Y-80875000D02*
X90900000Y-80875000D01*
G75*
G02*
X90800000Y-80775000I0J100000D01*
G01*
X90800000Y-79500000D01*
G75*
G02*
X90900000Y-79400000I100000J0D01*
G01*
X91100000Y-79400000D01*
G75*
G02*
X91200000Y-79500000I0J-100000D01*
G01*
X91200000Y-80775000D01*
G75*
G02*
X91100000Y-80875000I-100000J0D01*
G01*
G37*
G36*
G01*
X90450000Y-80875000D02*
X90250000Y-80875000D01*
G75*
G02*
X90150000Y-80775000I0J100000D01*
G01*
X90150000Y-79500000D01*
G75*
G02*
X90250000Y-79400000I100000J0D01*
G01*
X90450000Y-79400000D01*
G75*
G02*
X90550000Y-79500000I0J-100000D01*
G01*
X90550000Y-80775000D01*
G75*
G02*
X90450000Y-80875000I-100000J0D01*
G01*
G37*
G36*
G01*
X89800000Y-80875000D02*
X89600000Y-80875000D01*
G75*
G02*
X89500000Y-80775000I0J100000D01*
G01*
X89500000Y-79500000D01*
G75*
G02*
X89600000Y-79400000I100000J0D01*
G01*
X89800000Y-79400000D01*
G75*
G02*
X89900000Y-79500000I0J-100000D01*
G01*
X89900000Y-80775000D01*
G75*
G02*
X89800000Y-80875000I-100000J0D01*
G01*
G37*
G36*
G01*
X89150000Y-80875000D02*
X88950000Y-80875000D01*
G75*
G02*
X88850000Y-80775000I0J100000D01*
G01*
X88850000Y-79500000D01*
G75*
G02*
X88950000Y-79400000I100000J0D01*
G01*
X89150000Y-79400000D01*
G75*
G02*
X89250000Y-79500000I0J-100000D01*
G01*
X89250000Y-80775000D01*
G75*
G02*
X89150000Y-80875000I-100000J0D01*
G01*
G37*
G36*
G01*
X96315000Y-112730000D02*
X96685000Y-112730000D01*
G75*
G02*
X96820000Y-112865000I0J-135000D01*
G01*
X96820000Y-113135000D01*
G75*
G02*
X96685000Y-113270000I-135000J0D01*
G01*
X96315000Y-113270000D01*
G75*
G02*
X96180000Y-113135000I0J135000D01*
G01*
X96180000Y-112865000D01*
G75*
G02*
X96315000Y-112730000I135000J0D01*
G01*
G37*
G36*
G01*
X96315000Y-113750000D02*
X96685000Y-113750000D01*
G75*
G02*
X96820000Y-113885000I0J-135000D01*
G01*
X96820000Y-114155000D01*
G75*
G02*
X96685000Y-114290000I-135000J0D01*
G01*
X96315000Y-114290000D01*
G75*
G02*
X96180000Y-114155000I0J135000D01*
G01*
X96180000Y-113885000D01*
G75*
G02*
X96315000Y-113750000I135000J0D01*
G01*
G37*
G36*
G01*
X125215000Y-56525000D02*
X125515000Y-56525000D01*
G75*
G02*
X125665000Y-56675000I0J-150000D01*
G01*
X125665000Y-58325000D01*
G75*
G02*
X125515000Y-58475000I-150000J0D01*
G01*
X125215000Y-58475000D01*
G75*
G02*
X125065000Y-58325000I0J150000D01*
G01*
X125065000Y-56675000D01*
G75*
G02*
X125215000Y-56525000I150000J0D01*
G01*
G37*
G36*
G01*
X123945000Y-56525000D02*
X124245000Y-56525000D01*
G75*
G02*
X124395000Y-56675000I0J-150000D01*
G01*
X124395000Y-58325000D01*
G75*
G02*
X124245000Y-58475000I-150000J0D01*
G01*
X123945000Y-58475000D01*
G75*
G02*
X123795000Y-58325000I0J150000D01*
G01*
X123795000Y-56675000D01*
G75*
G02*
X123945000Y-56525000I150000J0D01*
G01*
G37*
G36*
G01*
X122675000Y-56525000D02*
X122975000Y-56525000D01*
G75*
G02*
X123125000Y-56675000I0J-150000D01*
G01*
X123125000Y-58325000D01*
G75*
G02*
X122975000Y-58475000I-150000J0D01*
G01*
X122675000Y-58475000D01*
G75*
G02*
X122525000Y-58325000I0J150000D01*
G01*
X122525000Y-56675000D01*
G75*
G02*
X122675000Y-56525000I150000J0D01*
G01*
G37*
G36*
G01*
X121405000Y-56525000D02*
X121705000Y-56525000D01*
G75*
G02*
X121855000Y-56675000I0J-150000D01*
G01*
X121855000Y-58325000D01*
G75*
G02*
X121705000Y-58475000I-150000J0D01*
G01*
X121405000Y-58475000D01*
G75*
G02*
X121255000Y-58325000I0J150000D01*
G01*
X121255000Y-56675000D01*
G75*
G02*
X121405000Y-56525000I150000J0D01*
G01*
G37*
G36*
G01*
X121405000Y-61475000D02*
X121705000Y-61475000D01*
G75*
G02*
X121855000Y-61625000I0J-150000D01*
G01*
X121855000Y-63275000D01*
G75*
G02*
X121705000Y-63425000I-150000J0D01*
G01*
X121405000Y-63425000D01*
G75*
G02*
X121255000Y-63275000I0J150000D01*
G01*
X121255000Y-61625000D01*
G75*
G02*
X121405000Y-61475000I150000J0D01*
G01*
G37*
G36*
G01*
X122675000Y-61475000D02*
X122975000Y-61475000D01*
G75*
G02*
X123125000Y-61625000I0J-150000D01*
G01*
X123125000Y-63275000D01*
G75*
G02*
X122975000Y-63425000I-150000J0D01*
G01*
X122675000Y-63425000D01*
G75*
G02*
X122525000Y-63275000I0J150000D01*
G01*
X122525000Y-61625000D01*
G75*
G02*
X122675000Y-61475000I150000J0D01*
G01*
G37*
G36*
G01*
X123945000Y-61475000D02*
X124245000Y-61475000D01*
G75*
G02*
X124395000Y-61625000I0J-150000D01*
G01*
X124395000Y-63275000D01*
G75*
G02*
X124245000Y-63425000I-150000J0D01*
G01*
X123945000Y-63425000D01*
G75*
G02*
X123795000Y-63275000I0J150000D01*
G01*
X123795000Y-61625000D01*
G75*
G02*
X123945000Y-61475000I150000J0D01*
G01*
G37*
G36*
G01*
X125215000Y-61475000D02*
X125515000Y-61475000D01*
G75*
G02*
X125665000Y-61625000I0J-150000D01*
G01*
X125665000Y-63275000D01*
G75*
G02*
X125515000Y-63425000I-150000J0D01*
G01*
X125215000Y-63425000D01*
G75*
G02*
X125065000Y-63275000I0J150000D01*
G01*
X125065000Y-61625000D01*
G75*
G02*
X125215000Y-61475000I150000J0D01*
G01*
G37*
G36*
G01*
X137870000Y-53150000D02*
X137870000Y-52850000D01*
G75*
G02*
X138020000Y-52700000I150000J0D01*
G01*
X139045000Y-52700000D01*
G75*
G02*
X139195000Y-52850000I0J-150000D01*
G01*
X139195000Y-53150000D01*
G75*
G02*
X139045000Y-53300000I-150000J0D01*
G01*
X138020000Y-53300000D01*
G75*
G02*
X137870000Y-53150000I0J150000D01*
G01*
G37*
G36*
G01*
X137870000Y-54100000D02*
X137870000Y-53800000D01*
G75*
G02*
X138020000Y-53650000I150000J0D01*
G01*
X139045000Y-53650000D01*
G75*
G02*
X139195000Y-53800000I0J-150000D01*
G01*
X139195000Y-54100000D01*
G75*
G02*
X139045000Y-54250000I-150000J0D01*
G01*
X138020000Y-54250000D01*
G75*
G02*
X137870000Y-54100000I0J150000D01*
G01*
G37*
G36*
G01*
X137870000Y-55050000D02*
X137870000Y-54750000D01*
G75*
G02*
X138020000Y-54600000I150000J0D01*
G01*
X139045000Y-54600000D01*
G75*
G02*
X139195000Y-54750000I0J-150000D01*
G01*
X139195000Y-55050000D01*
G75*
G02*
X139045000Y-55200000I-150000J0D01*
G01*
X138020000Y-55200000D01*
G75*
G02*
X137870000Y-55050000I0J150000D01*
G01*
G37*
G36*
G01*
X140145000Y-55050000D02*
X140145000Y-54750000D01*
G75*
G02*
X140295000Y-54600000I150000J0D01*
G01*
X141320000Y-54600000D01*
G75*
G02*
X141470000Y-54750000I0J-150000D01*
G01*
X141470000Y-55050000D01*
G75*
G02*
X141320000Y-55200000I-150000J0D01*
G01*
X140295000Y-55200000D01*
G75*
G02*
X140145000Y-55050000I0J150000D01*
G01*
G37*
G36*
G01*
X140145000Y-54100000D02*
X140145000Y-53800000D01*
G75*
G02*
X140295000Y-53650000I150000J0D01*
G01*
X141320000Y-53650000D01*
G75*
G02*
X141470000Y-53800000I0J-150000D01*
G01*
X141470000Y-54100000D01*
G75*
G02*
X141320000Y-54250000I-150000J0D01*
G01*
X140295000Y-54250000D01*
G75*
G02*
X140145000Y-54100000I0J150000D01*
G01*
G37*
G36*
G01*
X140145000Y-53150000D02*
X140145000Y-52850000D01*
G75*
G02*
X140295000Y-52700000I150000J0D01*
G01*
X141320000Y-52700000D01*
G75*
G02*
X141470000Y-52850000I0J-150000D01*
G01*
X141470000Y-53150000D01*
G75*
G02*
X141320000Y-53300000I-150000J0D01*
G01*
X140295000Y-53300000D01*
G75*
G02*
X140145000Y-53150000I0J150000D01*
G01*
G37*
G36*
G01*
X96992500Y-92815000D02*
X96992500Y-93185000D01*
G75*
G02*
X96857500Y-93320000I-135000J0D01*
G01*
X96587500Y-93320000D01*
G75*
G02*
X96452500Y-93185000I0J135000D01*
G01*
X96452500Y-92815000D01*
G75*
G02*
X96587500Y-92680000I135000J0D01*
G01*
X96857500Y-92680000D01*
G75*
G02*
X96992500Y-92815000I0J-135000D01*
G01*
G37*
G36*
G01*
X95972500Y-92815000D02*
X95972500Y-93185000D01*
G75*
G02*
X95837500Y-93320000I-135000J0D01*
G01*
X95567500Y-93320000D01*
G75*
G02*
X95432500Y-93185000I0J135000D01*
G01*
X95432500Y-92815000D01*
G75*
G02*
X95567500Y-92680000I135000J0D01*
G01*
X95837500Y-92680000D01*
G75*
G02*
X95972500Y-92815000I0J-135000D01*
G01*
G37*
G36*
G01*
X103800000Y-92387500D02*
X104100000Y-92387500D01*
G75*
G02*
X104250000Y-92537500I0J-150000D01*
G01*
X104250000Y-93712500D01*
G75*
G02*
X104100000Y-93862500I-150000J0D01*
G01*
X103800000Y-93862500D01*
G75*
G02*
X103650000Y-93712500I0J150000D01*
G01*
X103650000Y-92537500D01*
G75*
G02*
X103800000Y-92387500I150000J0D01*
G01*
G37*
G36*
G01*
X101900000Y-92387500D02*
X102200000Y-92387500D01*
G75*
G02*
X102350000Y-92537500I0J-150000D01*
G01*
X102350000Y-93712500D01*
G75*
G02*
X102200000Y-93862500I-150000J0D01*
G01*
X101900000Y-93862500D01*
G75*
G02*
X101750000Y-93712500I0J150000D01*
G01*
X101750000Y-92537500D01*
G75*
G02*
X101900000Y-92387500I150000J0D01*
G01*
G37*
G36*
G01*
X102850000Y-94262500D02*
X103150000Y-94262500D01*
G75*
G02*
X103300000Y-94412500I0J-150000D01*
G01*
X103300000Y-95587500D01*
G75*
G02*
X103150000Y-95737500I-150000J0D01*
G01*
X102850000Y-95737500D01*
G75*
G02*
X102700000Y-95587500I0J150000D01*
G01*
X102700000Y-94412500D01*
G75*
G02*
X102850000Y-94262500I150000J0D01*
G01*
G37*
D11*
X113500000Y-46460000D03*
X106500000Y-46460000D03*
D12*
X108700000Y-49135000D03*
X109350000Y-49135000D03*
X110000000Y-49135000D03*
X110650000Y-49135000D03*
X111300000Y-49135000D03*
D13*
X110000000Y-46460000D03*
G36*
G01*
X96992500Y-67815000D02*
X96992500Y-68185000D01*
G75*
G02*
X96857500Y-68320000I-135000J0D01*
G01*
X96587500Y-68320000D01*
G75*
G02*
X96452500Y-68185000I0J135000D01*
G01*
X96452500Y-67815000D01*
G75*
G02*
X96587500Y-67680000I135000J0D01*
G01*
X96857500Y-67680000D01*
G75*
G02*
X96992500Y-67815000I0J-135000D01*
G01*
G37*
G36*
G01*
X95972500Y-67815000D02*
X95972500Y-68185000D01*
G75*
G02*
X95837500Y-68320000I-135000J0D01*
G01*
X95567500Y-68320000D01*
G75*
G02*
X95432500Y-68185000I0J135000D01*
G01*
X95432500Y-67815000D01*
G75*
G02*
X95567500Y-67680000I135000J0D01*
G01*
X95837500Y-67680000D01*
G75*
G02*
X95972500Y-67815000I0J-135000D01*
G01*
G37*
G36*
G01*
X107870000Y-53150000D02*
X107870000Y-52850000D01*
G75*
G02*
X108020000Y-52700000I150000J0D01*
G01*
X109045000Y-52700000D01*
G75*
G02*
X109195000Y-52850000I0J-150000D01*
G01*
X109195000Y-53150000D01*
G75*
G02*
X109045000Y-53300000I-150000J0D01*
G01*
X108020000Y-53300000D01*
G75*
G02*
X107870000Y-53150000I0J150000D01*
G01*
G37*
G36*
G01*
X107870000Y-54100000D02*
X107870000Y-53800000D01*
G75*
G02*
X108020000Y-53650000I150000J0D01*
G01*
X109045000Y-53650000D01*
G75*
G02*
X109195000Y-53800000I0J-150000D01*
G01*
X109195000Y-54100000D01*
G75*
G02*
X109045000Y-54250000I-150000J0D01*
G01*
X108020000Y-54250000D01*
G75*
G02*
X107870000Y-54100000I0J150000D01*
G01*
G37*
G36*
G01*
X107870000Y-55050000D02*
X107870000Y-54750000D01*
G75*
G02*
X108020000Y-54600000I150000J0D01*
G01*
X109045000Y-54600000D01*
G75*
G02*
X109195000Y-54750000I0J-150000D01*
G01*
X109195000Y-55050000D01*
G75*
G02*
X109045000Y-55200000I-150000J0D01*
G01*
X108020000Y-55200000D01*
G75*
G02*
X107870000Y-55050000I0J150000D01*
G01*
G37*
G36*
G01*
X110145000Y-55050000D02*
X110145000Y-54750000D01*
G75*
G02*
X110295000Y-54600000I150000J0D01*
G01*
X111320000Y-54600000D01*
G75*
G02*
X111470000Y-54750000I0J-150000D01*
G01*
X111470000Y-55050000D01*
G75*
G02*
X111320000Y-55200000I-150000J0D01*
G01*
X110295000Y-55200000D01*
G75*
G02*
X110145000Y-55050000I0J150000D01*
G01*
G37*
G36*
G01*
X110145000Y-54100000D02*
X110145000Y-53800000D01*
G75*
G02*
X110295000Y-53650000I150000J0D01*
G01*
X111320000Y-53650000D01*
G75*
G02*
X111470000Y-53800000I0J-150000D01*
G01*
X111470000Y-54100000D01*
G75*
G02*
X111320000Y-54250000I-150000J0D01*
G01*
X110295000Y-54250000D01*
G75*
G02*
X110145000Y-54100000I0J150000D01*
G01*
G37*
G36*
G01*
X110145000Y-53150000D02*
X110145000Y-52850000D01*
G75*
G02*
X110295000Y-52700000I150000J0D01*
G01*
X111320000Y-52700000D01*
G75*
G02*
X111470000Y-52850000I0J-150000D01*
G01*
X111470000Y-53150000D01*
G75*
G02*
X111320000Y-53300000I-150000J0D01*
G01*
X110295000Y-53300000D01*
G75*
G02*
X110145000Y-53150000I0J150000D01*
G01*
G37*
G36*
G01*
X119650000Y-79637500D02*
X119650000Y-79862500D01*
G75*
G02*
X119537500Y-79975000I-112500J0D01*
G01*
X119162500Y-79975000D01*
G75*
G02*
X119050000Y-79862500I0J112500D01*
G01*
X119050000Y-79637500D01*
G75*
G02*
X119162500Y-79525000I112500J0D01*
G01*
X119537500Y-79525000D01*
G75*
G02*
X119650000Y-79637500I0J-112500D01*
G01*
G37*
G36*
G01*
X117550000Y-79637500D02*
X117550000Y-79862500D01*
G75*
G02*
X117437500Y-79975000I-112500J0D01*
G01*
X117062500Y-79975000D01*
G75*
G02*
X116950000Y-79862500I0J112500D01*
G01*
X116950000Y-79637500D01*
G75*
G02*
X117062500Y-79525000I112500J0D01*
G01*
X117437500Y-79525000D01*
G75*
G02*
X117550000Y-79637500I0J-112500D01*
G01*
G37*
D14*
X142350000Y-77500000D03*
X138650000Y-77500000D03*
G36*
G01*
X96992500Y-72815000D02*
X96992500Y-73185000D01*
G75*
G02*
X96857500Y-73320000I-135000J0D01*
G01*
X96587500Y-73320000D01*
G75*
G02*
X96452500Y-73185000I0J135000D01*
G01*
X96452500Y-72815000D01*
G75*
G02*
X96587500Y-72680000I135000J0D01*
G01*
X96857500Y-72680000D01*
G75*
G02*
X96992500Y-72815000I0J-135000D01*
G01*
G37*
G36*
G01*
X95972500Y-72815000D02*
X95972500Y-73185000D01*
G75*
G02*
X95837500Y-73320000I-135000J0D01*
G01*
X95567500Y-73320000D01*
G75*
G02*
X95432500Y-73185000I0J135000D01*
G01*
X95432500Y-72815000D01*
G75*
G02*
X95567500Y-72680000I135000J0D01*
G01*
X95837500Y-72680000D01*
G75*
G02*
X95972500Y-72815000I0J-135000D01*
G01*
G37*
G36*
G01*
X90760000Y-110080000D02*
X90760000Y-110420000D01*
G75*
G02*
X90620000Y-110560000I-140000J0D01*
G01*
X90340000Y-110560000D01*
G75*
G02*
X90200000Y-110420000I0J140000D01*
G01*
X90200000Y-110080000D01*
G75*
G02*
X90340000Y-109940000I140000J0D01*
G01*
X90620000Y-109940000D01*
G75*
G02*
X90760000Y-110080000I0J-140000D01*
G01*
G37*
G36*
G01*
X89800000Y-110080000D02*
X89800000Y-110420000D01*
G75*
G02*
X89660000Y-110560000I-140000J0D01*
G01*
X89380000Y-110560000D01*
G75*
G02*
X89240000Y-110420000I0J140000D01*
G01*
X89240000Y-110080000D01*
G75*
G02*
X89380000Y-109940000I140000J0D01*
G01*
X89660000Y-109940000D01*
G75*
G02*
X89800000Y-110080000I0J-140000D01*
G01*
G37*
G36*
G01*
X131118750Y-47500000D02*
X131881250Y-47500000D01*
G75*
G02*
X132100000Y-47718750I0J-218750D01*
G01*
X132100000Y-48156250D01*
G75*
G02*
X131881250Y-48375000I-218750J0D01*
G01*
X131118750Y-48375000D01*
G75*
G02*
X130900000Y-48156250I0J218750D01*
G01*
X130900000Y-47718750D01*
G75*
G02*
X131118750Y-47500000I218750J0D01*
G01*
G37*
G36*
G01*
X131118750Y-49625000D02*
X131881250Y-49625000D01*
G75*
G02*
X132100000Y-49843750I0J-218750D01*
G01*
X132100000Y-50281250D01*
G75*
G02*
X131881250Y-50500000I-218750J0D01*
G01*
X131118750Y-50500000D01*
G75*
G02*
X130900000Y-50281250I0J218750D01*
G01*
X130900000Y-49843750D01*
G75*
G02*
X131118750Y-49625000I218750J0D01*
G01*
G37*
G36*
G01*
X128740000Y-58920000D02*
X128740000Y-58580000D01*
G75*
G02*
X128880000Y-58440000I140000J0D01*
G01*
X129160000Y-58440000D01*
G75*
G02*
X129300000Y-58580000I0J-140000D01*
G01*
X129300000Y-58920000D01*
G75*
G02*
X129160000Y-59060000I-140000J0D01*
G01*
X128880000Y-59060000D01*
G75*
G02*
X128740000Y-58920000I0J140000D01*
G01*
G37*
G36*
G01*
X129700000Y-58920000D02*
X129700000Y-58580000D01*
G75*
G02*
X129840000Y-58440000I140000J0D01*
G01*
X130120000Y-58440000D01*
G75*
G02*
X130260000Y-58580000I0J-140000D01*
G01*
X130260000Y-58920000D01*
G75*
G02*
X130120000Y-59060000I-140000J0D01*
G01*
X129840000Y-59060000D01*
G75*
G02*
X129700000Y-58920000I0J140000D01*
G01*
G37*
G36*
G01*
X128730000Y-56450000D02*
X128730000Y-56080000D01*
G75*
G02*
X128865000Y-55945000I135000J0D01*
G01*
X129135000Y-55945000D01*
G75*
G02*
X129270000Y-56080000I0J-135000D01*
G01*
X129270000Y-56450000D01*
G75*
G02*
X129135000Y-56585000I-135000J0D01*
G01*
X128865000Y-56585000D01*
G75*
G02*
X128730000Y-56450000I0J135000D01*
G01*
G37*
G36*
G01*
X129750000Y-56450000D02*
X129750000Y-56080000D01*
G75*
G02*
X129885000Y-55945000I135000J0D01*
G01*
X130155000Y-55945000D01*
G75*
G02*
X130290000Y-56080000I0J-135000D01*
G01*
X130290000Y-56450000D01*
G75*
G02*
X130155000Y-56585000I-135000J0D01*
G01*
X129885000Y-56585000D01*
G75*
G02*
X129750000Y-56450000I0J135000D01*
G01*
G37*
G36*
G01*
X110850000Y-83075000D02*
X110850000Y-82325000D01*
G75*
G02*
X111225000Y-81950000I375000J0D01*
G01*
X112475000Y-81950000D01*
G75*
G02*
X112850000Y-82325000I0J-375000D01*
G01*
X112850000Y-83075000D01*
G75*
G02*
X112475000Y-83450000I-375000J0D01*
G01*
X111225000Y-83450000D01*
G75*
G02*
X110850000Y-83075000I0J375000D01*
G01*
G37*
G36*
G01*
X110850000Y-85375000D02*
X110850000Y-84625000D01*
G75*
G02*
X111225000Y-84250000I375000J0D01*
G01*
X112475000Y-84250000D01*
G75*
G02*
X112850000Y-84625000I0J-375000D01*
G01*
X112850000Y-85375000D01*
G75*
G02*
X112475000Y-85750000I-375000J0D01*
G01*
X111225000Y-85750000D01*
G75*
G02*
X110850000Y-85375000I0J375000D01*
G01*
G37*
G36*
G01*
X117150000Y-86400000D02*
X117150000Y-83600000D01*
G75*
G02*
X117650000Y-83100000I500000J0D01*
G01*
X118650000Y-83100000D01*
G75*
G02*
X119150000Y-83600000I0J-500000D01*
G01*
X119150000Y-86400000D01*
G75*
G02*
X118650000Y-86900000I-500000J0D01*
G01*
X117650000Y-86900000D01*
G75*
G02*
X117150000Y-86400000I0J500000D01*
G01*
G37*
G36*
G01*
X110850000Y-87675000D02*
X110850000Y-86925000D01*
G75*
G02*
X111225000Y-86550000I375000J0D01*
G01*
X112475000Y-86550000D01*
G75*
G02*
X112850000Y-86925000I0J-375000D01*
G01*
X112850000Y-87675000D01*
G75*
G02*
X112475000Y-88050000I-375000J0D01*
G01*
X111225000Y-88050000D01*
G75*
G02*
X110850000Y-87675000I0J375000D01*
G01*
G37*
G36*
G01*
X133330000Y-72240000D02*
X133670000Y-72240000D01*
G75*
G02*
X133810000Y-72380000I0J-140000D01*
G01*
X133810000Y-72660000D01*
G75*
G02*
X133670000Y-72800000I-140000J0D01*
G01*
X133330000Y-72800000D01*
G75*
G02*
X133190000Y-72660000I0J140000D01*
G01*
X133190000Y-72380000D01*
G75*
G02*
X133330000Y-72240000I140000J0D01*
G01*
G37*
G36*
G01*
X133330000Y-73200000D02*
X133670000Y-73200000D01*
G75*
G02*
X133810000Y-73340000I0J-140000D01*
G01*
X133810000Y-73620000D01*
G75*
G02*
X133670000Y-73760000I-140000J0D01*
G01*
X133330000Y-73760000D01*
G75*
G02*
X133190000Y-73620000I0J140000D01*
G01*
X133190000Y-73340000D01*
G75*
G02*
X133330000Y-73200000I140000J0D01*
G01*
G37*
D15*
X135500000Y-76250000D03*
X135500000Y-73750000D03*
G36*
G01*
X145220000Y-54185000D02*
X145220000Y-53815000D01*
G75*
G02*
X145355000Y-53680000I135000J0D01*
G01*
X145625000Y-53680000D01*
G75*
G02*
X145760000Y-53815000I0J-135000D01*
G01*
X145760000Y-54185000D01*
G75*
G02*
X145625000Y-54320000I-135000J0D01*
G01*
X145355000Y-54320000D01*
G75*
G02*
X145220000Y-54185000I0J135000D01*
G01*
G37*
G36*
G01*
X146240000Y-54185000D02*
X146240000Y-53815000D01*
G75*
G02*
X146375000Y-53680000I135000J0D01*
G01*
X146645000Y-53680000D01*
G75*
G02*
X146780000Y-53815000I0J-135000D01*
G01*
X146780000Y-54185000D01*
G75*
G02*
X146645000Y-54320000I-135000J0D01*
G01*
X146375000Y-54320000D01*
G75*
G02*
X146240000Y-54185000I0J135000D01*
G01*
G37*
G36*
G01*
X97387500Y-112700000D02*
X97387500Y-112400000D01*
G75*
G02*
X97537500Y-112250000I150000J0D01*
G01*
X98712500Y-112250000D01*
G75*
G02*
X98862500Y-112400000I0J-150000D01*
G01*
X98862500Y-112700000D01*
G75*
G02*
X98712500Y-112850000I-150000J0D01*
G01*
X97537500Y-112850000D01*
G75*
G02*
X97387500Y-112700000I0J150000D01*
G01*
G37*
G36*
G01*
X97387500Y-114600000D02*
X97387500Y-114300000D01*
G75*
G02*
X97537500Y-114150000I150000J0D01*
G01*
X98712500Y-114150000D01*
G75*
G02*
X98862500Y-114300000I0J-150000D01*
G01*
X98862500Y-114600000D01*
G75*
G02*
X98712500Y-114750000I-150000J0D01*
G01*
X97537500Y-114750000D01*
G75*
G02*
X97387500Y-114600000I0J150000D01*
G01*
G37*
G36*
G01*
X99262500Y-113650000D02*
X99262500Y-113350000D01*
G75*
G02*
X99412500Y-113200000I150000J0D01*
G01*
X100587500Y-113200000D01*
G75*
G02*
X100737500Y-113350000I0J-150000D01*
G01*
X100737500Y-113650000D01*
G75*
G02*
X100587500Y-113800000I-150000J0D01*
G01*
X99412500Y-113800000D01*
G75*
G02*
X99262500Y-113650000I0J150000D01*
G01*
G37*
G36*
G01*
X91600000Y-63850000D02*
X91600000Y-64050000D01*
G75*
G02*
X91500000Y-64150000I-100000J0D01*
G01*
X90225000Y-64150000D01*
G75*
G02*
X90125000Y-64050000I0J100000D01*
G01*
X90125000Y-63850000D01*
G75*
G02*
X90225000Y-63750000I100000J0D01*
G01*
X91500000Y-63750000D01*
G75*
G02*
X91600000Y-63850000I0J-100000D01*
G01*
G37*
G36*
G01*
X91600000Y-63200000D02*
X91600000Y-63400000D01*
G75*
G02*
X91500000Y-63500000I-100000J0D01*
G01*
X90225000Y-63500000D01*
G75*
G02*
X90125000Y-63400000I0J100000D01*
G01*
X90125000Y-63200000D01*
G75*
G02*
X90225000Y-63100000I100000J0D01*
G01*
X91500000Y-63100000D01*
G75*
G02*
X91600000Y-63200000I0J-100000D01*
G01*
G37*
G36*
G01*
X91600000Y-62550000D02*
X91600000Y-62750000D01*
G75*
G02*
X91500000Y-62850000I-100000J0D01*
G01*
X90225000Y-62850000D01*
G75*
G02*
X90125000Y-62750000I0J100000D01*
G01*
X90125000Y-62550000D01*
G75*
G02*
X90225000Y-62450000I100000J0D01*
G01*
X91500000Y-62450000D01*
G75*
G02*
X91600000Y-62550000I0J-100000D01*
G01*
G37*
G36*
G01*
X91600000Y-61900000D02*
X91600000Y-62100000D01*
G75*
G02*
X91500000Y-62200000I-100000J0D01*
G01*
X90225000Y-62200000D01*
G75*
G02*
X90125000Y-62100000I0J100000D01*
G01*
X90125000Y-61900000D01*
G75*
G02*
X90225000Y-61800000I100000J0D01*
G01*
X91500000Y-61800000D01*
G75*
G02*
X91600000Y-61900000I0J-100000D01*
G01*
G37*
G36*
G01*
X91600000Y-61250000D02*
X91600000Y-61450000D01*
G75*
G02*
X91500000Y-61550000I-100000J0D01*
G01*
X90225000Y-61550000D01*
G75*
G02*
X90125000Y-61450000I0J100000D01*
G01*
X90125000Y-61250000D01*
G75*
G02*
X90225000Y-61150000I100000J0D01*
G01*
X91500000Y-61150000D01*
G75*
G02*
X91600000Y-61250000I0J-100000D01*
G01*
G37*
G36*
G01*
X91600000Y-60600000D02*
X91600000Y-60800000D01*
G75*
G02*
X91500000Y-60900000I-100000J0D01*
G01*
X90225000Y-60900000D01*
G75*
G02*
X90125000Y-60800000I0J100000D01*
G01*
X90125000Y-60600000D01*
G75*
G02*
X90225000Y-60500000I100000J0D01*
G01*
X91500000Y-60500000D01*
G75*
G02*
X91600000Y-60600000I0J-100000D01*
G01*
G37*
G36*
G01*
X91600000Y-59950000D02*
X91600000Y-60150000D01*
G75*
G02*
X91500000Y-60250000I-100000J0D01*
G01*
X90225000Y-60250000D01*
G75*
G02*
X90125000Y-60150000I0J100000D01*
G01*
X90125000Y-59950000D01*
G75*
G02*
X90225000Y-59850000I100000J0D01*
G01*
X91500000Y-59850000D01*
G75*
G02*
X91600000Y-59950000I0J-100000D01*
G01*
G37*
G36*
G01*
X85875000Y-59950000D02*
X85875000Y-60150000D01*
G75*
G02*
X85775000Y-60250000I-100000J0D01*
G01*
X84500000Y-60250000D01*
G75*
G02*
X84400000Y-60150000I0J100000D01*
G01*
X84400000Y-59950000D01*
G75*
G02*
X84500000Y-59850000I100000J0D01*
G01*
X85775000Y-59850000D01*
G75*
G02*
X85875000Y-59950000I0J-100000D01*
G01*
G37*
G36*
G01*
X85875000Y-60600000D02*
X85875000Y-60800000D01*
G75*
G02*
X85775000Y-60900000I-100000J0D01*
G01*
X84500000Y-60900000D01*
G75*
G02*
X84400000Y-60800000I0J100000D01*
G01*
X84400000Y-60600000D01*
G75*
G02*
X84500000Y-60500000I100000J0D01*
G01*
X85775000Y-60500000D01*
G75*
G02*
X85875000Y-60600000I0J-100000D01*
G01*
G37*
G36*
G01*
X85875000Y-61250000D02*
X85875000Y-61450000D01*
G75*
G02*
X85775000Y-61550000I-100000J0D01*
G01*
X84500000Y-61550000D01*
G75*
G02*
X84400000Y-61450000I0J100000D01*
G01*
X84400000Y-61250000D01*
G75*
G02*
X84500000Y-61150000I100000J0D01*
G01*
X85775000Y-61150000D01*
G75*
G02*
X85875000Y-61250000I0J-100000D01*
G01*
G37*
G36*
G01*
X85875000Y-61900000D02*
X85875000Y-62100000D01*
G75*
G02*
X85775000Y-62200000I-100000J0D01*
G01*
X84500000Y-62200000D01*
G75*
G02*
X84400000Y-62100000I0J100000D01*
G01*
X84400000Y-61900000D01*
G75*
G02*
X84500000Y-61800000I100000J0D01*
G01*
X85775000Y-61800000D01*
G75*
G02*
X85875000Y-61900000I0J-100000D01*
G01*
G37*
G36*
G01*
X85875000Y-62550000D02*
X85875000Y-62750000D01*
G75*
G02*
X85775000Y-62850000I-100000J0D01*
G01*
X84500000Y-62850000D01*
G75*
G02*
X84400000Y-62750000I0J100000D01*
G01*
X84400000Y-62550000D01*
G75*
G02*
X84500000Y-62450000I100000J0D01*
G01*
X85775000Y-62450000D01*
G75*
G02*
X85875000Y-62550000I0J-100000D01*
G01*
G37*
G36*
G01*
X85875000Y-63200000D02*
X85875000Y-63400000D01*
G75*
G02*
X85775000Y-63500000I-100000J0D01*
G01*
X84500000Y-63500000D01*
G75*
G02*
X84400000Y-63400000I0J100000D01*
G01*
X84400000Y-63200000D01*
G75*
G02*
X84500000Y-63100000I100000J0D01*
G01*
X85775000Y-63100000D01*
G75*
G02*
X85875000Y-63200000I0J-100000D01*
G01*
G37*
G36*
G01*
X85875000Y-63850000D02*
X85875000Y-64050000D01*
G75*
G02*
X85775000Y-64150000I-100000J0D01*
G01*
X84500000Y-64150000D01*
G75*
G02*
X84400000Y-64050000I0J100000D01*
G01*
X84400000Y-63850000D01*
G75*
G02*
X84500000Y-63750000I100000J0D01*
G01*
X85775000Y-63750000D01*
G75*
G02*
X85875000Y-63850000I0J-100000D01*
G01*
G37*
G36*
G01*
X109750000Y-87725000D02*
X109250000Y-87725000D01*
G75*
G02*
X109025000Y-87500000I0J225000D01*
G01*
X109025000Y-87050000D01*
G75*
G02*
X109250000Y-86825000I225000J0D01*
G01*
X109750000Y-86825000D01*
G75*
G02*
X109975000Y-87050000I0J-225000D01*
G01*
X109975000Y-87500000D01*
G75*
G02*
X109750000Y-87725000I-225000J0D01*
G01*
G37*
G36*
G01*
X109750000Y-86175000D02*
X109250000Y-86175000D01*
G75*
G02*
X109025000Y-85950000I0J225000D01*
G01*
X109025000Y-85500000D01*
G75*
G02*
X109250000Y-85275000I225000J0D01*
G01*
X109750000Y-85275000D01*
G75*
G02*
X109975000Y-85500000I0J-225000D01*
G01*
X109975000Y-85950000D01*
G75*
G02*
X109750000Y-86175000I-225000J0D01*
G01*
G37*
G36*
G01*
X138815000Y-58725000D02*
X138265000Y-58725000D01*
G75*
G02*
X138065000Y-58525000I0J200000D01*
G01*
X138065000Y-58125000D01*
G75*
G02*
X138265000Y-57925000I200000J0D01*
G01*
X138815000Y-57925000D01*
G75*
G02*
X139015000Y-58125000I0J-200000D01*
G01*
X139015000Y-58525000D01*
G75*
G02*
X138815000Y-58725000I-200000J0D01*
G01*
G37*
G36*
G01*
X138815000Y-57075000D02*
X138265000Y-57075000D01*
G75*
G02*
X138065000Y-56875000I0J200000D01*
G01*
X138065000Y-56475000D01*
G75*
G02*
X138265000Y-56275000I200000J0D01*
G01*
X138815000Y-56275000D01*
G75*
G02*
X139015000Y-56475000I0J-200000D01*
G01*
X139015000Y-56875000D01*
G75*
G02*
X138815000Y-57075000I-200000J0D01*
G01*
G37*
G36*
G01*
X113730000Y-56450000D02*
X113730000Y-56080000D01*
G75*
G02*
X113865000Y-55945000I135000J0D01*
G01*
X114135000Y-55945000D01*
G75*
G02*
X114270000Y-56080000I0J-135000D01*
G01*
X114270000Y-56450000D01*
G75*
G02*
X114135000Y-56585000I-135000J0D01*
G01*
X113865000Y-56585000D01*
G75*
G02*
X113730000Y-56450000I0J135000D01*
G01*
G37*
G36*
G01*
X114750000Y-56450000D02*
X114750000Y-56080000D01*
G75*
G02*
X114885000Y-55945000I135000J0D01*
G01*
X115155000Y-55945000D01*
G75*
G02*
X115290000Y-56080000I0J-135000D01*
G01*
X115290000Y-56450000D01*
G75*
G02*
X115155000Y-56585000I-135000J0D01*
G01*
X114885000Y-56585000D01*
G75*
G02*
X114750000Y-56450000I0J135000D01*
G01*
G37*
G36*
G01*
X94200000Y-118675000D02*
X93900000Y-118675000D01*
G75*
G02*
X93750000Y-118525000I0J150000D01*
G01*
X93750000Y-117350000D01*
G75*
G02*
X93900000Y-117200000I150000J0D01*
G01*
X94200000Y-117200000D01*
G75*
G02*
X94350000Y-117350000I0J-150000D01*
G01*
X94350000Y-118525000D01*
G75*
G02*
X94200000Y-118675000I-150000J0D01*
G01*
G37*
G36*
G01*
X96100000Y-118675000D02*
X95800000Y-118675000D01*
G75*
G02*
X95650000Y-118525000I0J150000D01*
G01*
X95650000Y-117350000D01*
G75*
G02*
X95800000Y-117200000I150000J0D01*
G01*
X96100000Y-117200000D01*
G75*
G02*
X96250000Y-117350000I0J-150000D01*
G01*
X96250000Y-118525000D01*
G75*
G02*
X96100000Y-118675000I-150000J0D01*
G01*
G37*
G36*
G01*
X95150000Y-116800000D02*
X94850000Y-116800000D01*
G75*
G02*
X94700000Y-116650000I0J150000D01*
G01*
X94700000Y-115475000D01*
G75*
G02*
X94850000Y-115325000I150000J0D01*
G01*
X95150000Y-115325000D01*
G75*
G02*
X95300000Y-115475000I0J-150000D01*
G01*
X95300000Y-116650000D01*
G75*
G02*
X95150000Y-116800000I-150000J0D01*
G01*
G37*
G36*
G01*
X143510000Y-80080000D02*
X143510000Y-80420000D01*
G75*
G02*
X143370000Y-80560000I-140000J0D01*
G01*
X143090000Y-80560000D01*
G75*
G02*
X142950000Y-80420000I0J140000D01*
G01*
X142950000Y-80080000D01*
G75*
G02*
X143090000Y-79940000I140000J0D01*
G01*
X143370000Y-79940000D01*
G75*
G02*
X143510000Y-80080000I0J-140000D01*
G01*
G37*
G36*
G01*
X142550000Y-80080000D02*
X142550000Y-80420000D01*
G75*
G02*
X142410000Y-80560000I-140000J0D01*
G01*
X142130000Y-80560000D01*
G75*
G02*
X141990000Y-80420000I0J140000D01*
G01*
X141990000Y-80080000D01*
G75*
G02*
X142130000Y-79940000I140000J0D01*
G01*
X142410000Y-79940000D01*
G75*
G02*
X142550000Y-80080000I0J-140000D01*
G01*
G37*
G36*
G01*
X101725000Y-110275000D02*
X102275000Y-110275000D01*
G75*
G02*
X102475000Y-110475000I0J-200000D01*
G01*
X102475000Y-110875000D01*
G75*
G02*
X102275000Y-111075000I-200000J0D01*
G01*
X101725000Y-111075000D01*
G75*
G02*
X101525000Y-110875000I0J200000D01*
G01*
X101525000Y-110475000D01*
G75*
G02*
X101725000Y-110275000I200000J0D01*
G01*
G37*
G36*
G01*
X101725000Y-111925000D02*
X102275000Y-111925000D01*
G75*
G02*
X102475000Y-112125000I0J-200000D01*
G01*
X102475000Y-112525000D01*
G75*
G02*
X102275000Y-112725000I-200000J0D01*
G01*
X101725000Y-112725000D01*
G75*
G02*
X101525000Y-112525000I0J200000D01*
G01*
X101525000Y-112125000D01*
G75*
G02*
X101725000Y-111925000I200000J0D01*
G01*
G37*
G36*
G01*
X95185000Y-114270000D02*
X94815000Y-114270000D01*
G75*
G02*
X94680000Y-114135000I0J135000D01*
G01*
X94680000Y-113865000D01*
G75*
G02*
X94815000Y-113730000I135000J0D01*
G01*
X95185000Y-113730000D01*
G75*
G02*
X95320000Y-113865000I0J-135000D01*
G01*
X95320000Y-114135000D01*
G75*
G02*
X95185000Y-114270000I-135000J0D01*
G01*
G37*
G36*
G01*
X95185000Y-113250000D02*
X94815000Y-113250000D01*
G75*
G02*
X94680000Y-113115000I0J135000D01*
G01*
X94680000Y-112845000D01*
G75*
G02*
X94815000Y-112710000I135000J0D01*
G01*
X95185000Y-112710000D01*
G75*
G02*
X95320000Y-112845000I0J-135000D01*
G01*
X95320000Y-113115000D01*
G75*
G02*
X95185000Y-113250000I-135000J0D01*
G01*
G37*
G36*
G01*
X116118750Y-47500000D02*
X116881250Y-47500000D01*
G75*
G02*
X117100000Y-47718750I0J-218750D01*
G01*
X117100000Y-48156250D01*
G75*
G02*
X116881250Y-48375000I-218750J0D01*
G01*
X116118750Y-48375000D01*
G75*
G02*
X115900000Y-48156250I0J218750D01*
G01*
X115900000Y-47718750D01*
G75*
G02*
X116118750Y-47500000I218750J0D01*
G01*
G37*
G36*
G01*
X116118750Y-49625000D02*
X116881250Y-49625000D01*
G75*
G02*
X117100000Y-49843750I0J-218750D01*
G01*
X117100000Y-50281250D01*
G75*
G02*
X116881250Y-50500000I-218750J0D01*
G01*
X116118750Y-50500000D01*
G75*
G02*
X115900000Y-50281250I0J218750D01*
G01*
X115900000Y-49843750D01*
G75*
G02*
X116118750Y-49625000I218750J0D01*
G01*
G37*
G36*
G01*
X142185000Y-61530000D02*
X141815000Y-61530000D01*
G75*
G02*
X141680000Y-61395000I0J135000D01*
G01*
X141680000Y-61125000D01*
G75*
G02*
X141815000Y-60990000I135000J0D01*
G01*
X142185000Y-60990000D01*
G75*
G02*
X142320000Y-61125000I0J-135000D01*
G01*
X142320000Y-61395000D01*
G75*
G02*
X142185000Y-61530000I-135000J0D01*
G01*
G37*
G36*
G01*
X142185000Y-60510000D02*
X141815000Y-60510000D01*
G75*
G02*
X141680000Y-60375000I0J135000D01*
G01*
X141680000Y-60105000D01*
G75*
G02*
X141815000Y-59970000I135000J0D01*
G01*
X142185000Y-59970000D01*
G75*
G02*
X142320000Y-60105000I0J-135000D01*
G01*
X142320000Y-60375000D01*
G75*
G02*
X142185000Y-60510000I-135000J0D01*
G01*
G37*
G36*
G01*
X141990000Y-75170000D02*
X141990000Y-74830000D01*
G75*
G02*
X142130000Y-74690000I140000J0D01*
G01*
X142410000Y-74690000D01*
G75*
G02*
X142550000Y-74830000I0J-140000D01*
G01*
X142550000Y-75170000D01*
G75*
G02*
X142410000Y-75310000I-140000J0D01*
G01*
X142130000Y-75310000D01*
G75*
G02*
X141990000Y-75170000I0J140000D01*
G01*
G37*
G36*
G01*
X142950000Y-75170000D02*
X142950000Y-74830000D01*
G75*
G02*
X143090000Y-74690000I140000J0D01*
G01*
X143370000Y-74690000D01*
G75*
G02*
X143510000Y-74830000I0J-140000D01*
G01*
X143510000Y-75170000D01*
G75*
G02*
X143370000Y-75310000I-140000J0D01*
G01*
X143090000Y-75310000D01*
G75*
G02*
X142950000Y-75170000I0J140000D01*
G01*
G37*
D11*
X143500000Y-46460000D03*
X136500000Y-46460000D03*
D12*
X138700000Y-49135000D03*
X139350000Y-49135000D03*
X140000000Y-49135000D03*
X140650000Y-49135000D03*
X141300000Y-49135000D03*
D13*
X140000000Y-46460000D03*
G36*
G01*
X97987500Y-58256250D02*
X97987500Y-57743750D01*
G75*
G02*
X98206250Y-57525000I218750J0D01*
G01*
X98643750Y-57525000D01*
G75*
G02*
X98862500Y-57743750I0J-218750D01*
G01*
X98862500Y-58256250D01*
G75*
G02*
X98643750Y-58475000I-218750J0D01*
G01*
X98206250Y-58475000D01*
G75*
G02*
X97987500Y-58256250I0J218750D01*
G01*
G37*
G36*
G01*
X99562500Y-58256250D02*
X99562500Y-57743750D01*
G75*
G02*
X99781250Y-57525000I218750J0D01*
G01*
X100218750Y-57525000D01*
G75*
G02*
X100437500Y-57743750I0J-218750D01*
G01*
X100437500Y-58256250D01*
G75*
G02*
X100218750Y-58475000I-218750J0D01*
G01*
X99781250Y-58475000D01*
G75*
G02*
X99562500Y-58256250I0J218750D01*
G01*
G37*
G36*
G01*
X138325000Y-73900000D02*
X138175000Y-73900000D01*
G75*
G02*
X138100000Y-73825000I0J75000D01*
G01*
X138100000Y-72500000D01*
G75*
G02*
X138175000Y-72425000I75000J0D01*
G01*
X138325000Y-72425000D01*
G75*
G02*
X138400000Y-72500000I0J-75000D01*
G01*
X138400000Y-73825000D01*
G75*
G02*
X138325000Y-73900000I-75000J0D01*
G01*
G37*
G36*
G01*
X138825000Y-73900000D02*
X138675000Y-73900000D01*
G75*
G02*
X138600000Y-73825000I0J75000D01*
G01*
X138600000Y-72500000D01*
G75*
G02*
X138675000Y-72425000I75000J0D01*
G01*
X138825000Y-72425000D01*
G75*
G02*
X138900000Y-72500000I0J-75000D01*
G01*
X138900000Y-73825000D01*
G75*
G02*
X138825000Y-73900000I-75000J0D01*
G01*
G37*
G36*
G01*
X139325000Y-73900000D02*
X139175000Y-73900000D01*
G75*
G02*
X139100000Y-73825000I0J75000D01*
G01*
X139100000Y-72500000D01*
G75*
G02*
X139175000Y-72425000I75000J0D01*
G01*
X139325000Y-72425000D01*
G75*
G02*
X139400000Y-72500000I0J-75000D01*
G01*
X139400000Y-73825000D01*
G75*
G02*
X139325000Y-73900000I-75000J0D01*
G01*
G37*
G36*
G01*
X139825000Y-73900000D02*
X139675000Y-73900000D01*
G75*
G02*
X139600000Y-73825000I0J75000D01*
G01*
X139600000Y-72500000D01*
G75*
G02*
X139675000Y-72425000I75000J0D01*
G01*
X139825000Y-72425000D01*
G75*
G02*
X139900000Y-72500000I0J-75000D01*
G01*
X139900000Y-73825000D01*
G75*
G02*
X139825000Y-73900000I-75000J0D01*
G01*
G37*
G36*
G01*
X140325000Y-73900000D02*
X140175000Y-73900000D01*
G75*
G02*
X140100000Y-73825000I0J75000D01*
G01*
X140100000Y-72500000D01*
G75*
G02*
X140175000Y-72425000I75000J0D01*
G01*
X140325000Y-72425000D01*
G75*
G02*
X140400000Y-72500000I0J-75000D01*
G01*
X140400000Y-73825000D01*
G75*
G02*
X140325000Y-73900000I-75000J0D01*
G01*
G37*
G36*
G01*
X140825000Y-73900000D02*
X140675000Y-73900000D01*
G75*
G02*
X140600000Y-73825000I0J75000D01*
G01*
X140600000Y-72500000D01*
G75*
G02*
X140675000Y-72425000I75000J0D01*
G01*
X140825000Y-72425000D01*
G75*
G02*
X140900000Y-72500000I0J-75000D01*
G01*
X140900000Y-73825000D01*
G75*
G02*
X140825000Y-73900000I-75000J0D01*
G01*
G37*
G36*
G01*
X141325000Y-73900000D02*
X141175000Y-73900000D01*
G75*
G02*
X141100000Y-73825000I0J75000D01*
G01*
X141100000Y-72500000D01*
G75*
G02*
X141175000Y-72425000I75000J0D01*
G01*
X141325000Y-72425000D01*
G75*
G02*
X141400000Y-72500000I0J-75000D01*
G01*
X141400000Y-73825000D01*
G75*
G02*
X141325000Y-73900000I-75000J0D01*
G01*
G37*
G36*
G01*
X141825000Y-73900000D02*
X141675000Y-73900000D01*
G75*
G02*
X141600000Y-73825000I0J75000D01*
G01*
X141600000Y-72500000D01*
G75*
G02*
X141675000Y-72425000I75000J0D01*
G01*
X141825000Y-72425000D01*
G75*
G02*
X141900000Y-72500000I0J-75000D01*
G01*
X141900000Y-73825000D01*
G75*
G02*
X141825000Y-73900000I-75000J0D01*
G01*
G37*
G36*
G01*
X142325000Y-73900000D02*
X142175000Y-73900000D01*
G75*
G02*
X142100000Y-73825000I0J75000D01*
G01*
X142100000Y-72500000D01*
G75*
G02*
X142175000Y-72425000I75000J0D01*
G01*
X142325000Y-72425000D01*
G75*
G02*
X142400000Y-72500000I0J-75000D01*
G01*
X142400000Y-73825000D01*
G75*
G02*
X142325000Y-73900000I-75000J0D01*
G01*
G37*
G36*
G01*
X142825000Y-73900000D02*
X142675000Y-73900000D01*
G75*
G02*
X142600000Y-73825000I0J75000D01*
G01*
X142600000Y-72500000D01*
G75*
G02*
X142675000Y-72425000I75000J0D01*
G01*
X142825000Y-72425000D01*
G75*
G02*
X142900000Y-72500000I0J-75000D01*
G01*
X142900000Y-73825000D01*
G75*
G02*
X142825000Y-73900000I-75000J0D01*
G01*
G37*
G36*
G01*
X143325000Y-73900000D02*
X143175000Y-73900000D01*
G75*
G02*
X143100000Y-73825000I0J75000D01*
G01*
X143100000Y-72500000D01*
G75*
G02*
X143175000Y-72425000I75000J0D01*
G01*
X143325000Y-72425000D01*
G75*
G02*
X143400000Y-72500000I0J-75000D01*
G01*
X143400000Y-73825000D01*
G75*
G02*
X143325000Y-73900000I-75000J0D01*
G01*
G37*
G36*
G01*
X143825000Y-73900000D02*
X143675000Y-73900000D01*
G75*
G02*
X143600000Y-73825000I0J75000D01*
G01*
X143600000Y-72500000D01*
G75*
G02*
X143675000Y-72425000I75000J0D01*
G01*
X143825000Y-72425000D01*
G75*
G02*
X143900000Y-72500000I0J-75000D01*
G01*
X143900000Y-73825000D01*
G75*
G02*
X143825000Y-73900000I-75000J0D01*
G01*
G37*
G36*
G01*
X145825000Y-71900000D02*
X144500000Y-71900000D01*
G75*
G02*
X144425000Y-71825000I0J75000D01*
G01*
X144425000Y-71675000D01*
G75*
G02*
X144500000Y-71600000I75000J0D01*
G01*
X145825000Y-71600000D01*
G75*
G02*
X145900000Y-71675000I0J-75000D01*
G01*
X145900000Y-71825000D01*
G75*
G02*
X145825000Y-71900000I-75000J0D01*
G01*
G37*
G36*
G01*
X145825000Y-71400000D02*
X144500000Y-71400000D01*
G75*
G02*
X144425000Y-71325000I0J75000D01*
G01*
X144425000Y-71175000D01*
G75*
G02*
X144500000Y-71100000I75000J0D01*
G01*
X145825000Y-71100000D01*
G75*
G02*
X145900000Y-71175000I0J-75000D01*
G01*
X145900000Y-71325000D01*
G75*
G02*
X145825000Y-71400000I-75000J0D01*
G01*
G37*
G36*
G01*
X145825000Y-70900000D02*
X144500000Y-70900000D01*
G75*
G02*
X144425000Y-70825000I0J75000D01*
G01*
X144425000Y-70675000D01*
G75*
G02*
X144500000Y-70600000I75000J0D01*
G01*
X145825000Y-70600000D01*
G75*
G02*
X145900000Y-70675000I0J-75000D01*
G01*
X145900000Y-70825000D01*
G75*
G02*
X145825000Y-70900000I-75000J0D01*
G01*
G37*
G36*
G01*
X145825000Y-70400000D02*
X144500000Y-70400000D01*
G75*
G02*
X144425000Y-70325000I0J75000D01*
G01*
X144425000Y-70175000D01*
G75*
G02*
X144500000Y-70100000I75000J0D01*
G01*
X145825000Y-70100000D01*
G75*
G02*
X145900000Y-70175000I0J-75000D01*
G01*
X145900000Y-70325000D01*
G75*
G02*
X145825000Y-70400000I-75000J0D01*
G01*
G37*
G36*
G01*
X145825000Y-69900000D02*
X144500000Y-69900000D01*
G75*
G02*
X144425000Y-69825000I0J75000D01*
G01*
X144425000Y-69675000D01*
G75*
G02*
X144500000Y-69600000I75000J0D01*
G01*
X145825000Y-69600000D01*
G75*
G02*
X145900000Y-69675000I0J-75000D01*
G01*
X145900000Y-69825000D01*
G75*
G02*
X145825000Y-69900000I-75000J0D01*
G01*
G37*
G36*
G01*
X145825000Y-69400000D02*
X144500000Y-69400000D01*
G75*
G02*
X144425000Y-69325000I0J75000D01*
G01*
X144425000Y-69175000D01*
G75*
G02*
X144500000Y-69100000I75000J0D01*
G01*
X145825000Y-69100000D01*
G75*
G02*
X145900000Y-69175000I0J-75000D01*
G01*
X145900000Y-69325000D01*
G75*
G02*
X145825000Y-69400000I-75000J0D01*
G01*
G37*
G36*
G01*
X145825000Y-68900000D02*
X144500000Y-68900000D01*
G75*
G02*
X144425000Y-68825000I0J75000D01*
G01*
X144425000Y-68675000D01*
G75*
G02*
X144500000Y-68600000I75000J0D01*
G01*
X145825000Y-68600000D01*
G75*
G02*
X145900000Y-68675000I0J-75000D01*
G01*
X145900000Y-68825000D01*
G75*
G02*
X145825000Y-68900000I-75000J0D01*
G01*
G37*
G36*
G01*
X145825000Y-68400000D02*
X144500000Y-68400000D01*
G75*
G02*
X144425000Y-68325000I0J75000D01*
G01*
X144425000Y-68175000D01*
G75*
G02*
X144500000Y-68100000I75000J0D01*
G01*
X145825000Y-68100000D01*
G75*
G02*
X145900000Y-68175000I0J-75000D01*
G01*
X145900000Y-68325000D01*
G75*
G02*
X145825000Y-68400000I-75000J0D01*
G01*
G37*
G36*
G01*
X145825000Y-67900000D02*
X144500000Y-67900000D01*
G75*
G02*
X144425000Y-67825000I0J75000D01*
G01*
X144425000Y-67675000D01*
G75*
G02*
X144500000Y-67600000I75000J0D01*
G01*
X145825000Y-67600000D01*
G75*
G02*
X145900000Y-67675000I0J-75000D01*
G01*
X145900000Y-67825000D01*
G75*
G02*
X145825000Y-67900000I-75000J0D01*
G01*
G37*
G36*
G01*
X145825000Y-67400000D02*
X144500000Y-67400000D01*
G75*
G02*
X144425000Y-67325000I0J75000D01*
G01*
X144425000Y-67175000D01*
G75*
G02*
X144500000Y-67100000I75000J0D01*
G01*
X145825000Y-67100000D01*
G75*
G02*
X145900000Y-67175000I0J-75000D01*
G01*
X145900000Y-67325000D01*
G75*
G02*
X145825000Y-67400000I-75000J0D01*
G01*
G37*
G36*
G01*
X145825000Y-66900000D02*
X144500000Y-66900000D01*
G75*
G02*
X144425000Y-66825000I0J75000D01*
G01*
X144425000Y-66675000D01*
G75*
G02*
X144500000Y-66600000I75000J0D01*
G01*
X145825000Y-66600000D01*
G75*
G02*
X145900000Y-66675000I0J-75000D01*
G01*
X145900000Y-66825000D01*
G75*
G02*
X145825000Y-66900000I-75000J0D01*
G01*
G37*
G36*
G01*
X145825000Y-66400000D02*
X144500000Y-66400000D01*
G75*
G02*
X144425000Y-66325000I0J75000D01*
G01*
X144425000Y-66175000D01*
G75*
G02*
X144500000Y-66100000I75000J0D01*
G01*
X145825000Y-66100000D01*
G75*
G02*
X145900000Y-66175000I0J-75000D01*
G01*
X145900000Y-66325000D01*
G75*
G02*
X145825000Y-66400000I-75000J0D01*
G01*
G37*
G36*
G01*
X143825000Y-65575000D02*
X143675000Y-65575000D01*
G75*
G02*
X143600000Y-65500000I0J75000D01*
G01*
X143600000Y-64175000D01*
G75*
G02*
X143675000Y-64100000I75000J0D01*
G01*
X143825000Y-64100000D01*
G75*
G02*
X143900000Y-64175000I0J-75000D01*
G01*
X143900000Y-65500000D01*
G75*
G02*
X143825000Y-65575000I-75000J0D01*
G01*
G37*
G36*
G01*
X143325000Y-65575000D02*
X143175000Y-65575000D01*
G75*
G02*
X143100000Y-65500000I0J75000D01*
G01*
X143100000Y-64175000D01*
G75*
G02*
X143175000Y-64100000I75000J0D01*
G01*
X143325000Y-64100000D01*
G75*
G02*
X143400000Y-64175000I0J-75000D01*
G01*
X143400000Y-65500000D01*
G75*
G02*
X143325000Y-65575000I-75000J0D01*
G01*
G37*
G36*
G01*
X142825000Y-65575000D02*
X142675000Y-65575000D01*
G75*
G02*
X142600000Y-65500000I0J75000D01*
G01*
X142600000Y-64175000D01*
G75*
G02*
X142675000Y-64100000I75000J0D01*
G01*
X142825000Y-64100000D01*
G75*
G02*
X142900000Y-64175000I0J-75000D01*
G01*
X142900000Y-65500000D01*
G75*
G02*
X142825000Y-65575000I-75000J0D01*
G01*
G37*
G36*
G01*
X142325000Y-65575000D02*
X142175000Y-65575000D01*
G75*
G02*
X142100000Y-65500000I0J75000D01*
G01*
X142100000Y-64175000D01*
G75*
G02*
X142175000Y-64100000I75000J0D01*
G01*
X142325000Y-64100000D01*
G75*
G02*
X142400000Y-64175000I0J-75000D01*
G01*
X142400000Y-65500000D01*
G75*
G02*
X142325000Y-65575000I-75000J0D01*
G01*
G37*
G36*
G01*
X141825000Y-65575000D02*
X141675000Y-65575000D01*
G75*
G02*
X141600000Y-65500000I0J75000D01*
G01*
X141600000Y-64175000D01*
G75*
G02*
X141675000Y-64100000I75000J0D01*
G01*
X141825000Y-64100000D01*
G75*
G02*
X141900000Y-64175000I0J-75000D01*
G01*
X141900000Y-65500000D01*
G75*
G02*
X141825000Y-65575000I-75000J0D01*
G01*
G37*
G36*
G01*
X141325000Y-65575000D02*
X141175000Y-65575000D01*
G75*
G02*
X141100000Y-65500000I0J75000D01*
G01*
X141100000Y-64175000D01*
G75*
G02*
X141175000Y-64100000I75000J0D01*
G01*
X141325000Y-64100000D01*
G75*
G02*
X141400000Y-64175000I0J-75000D01*
G01*
X141400000Y-65500000D01*
G75*
G02*
X141325000Y-65575000I-75000J0D01*
G01*
G37*
G36*
G01*
X140825000Y-65575000D02*
X140675000Y-65575000D01*
G75*
G02*
X140600000Y-65500000I0J75000D01*
G01*
X140600000Y-64175000D01*
G75*
G02*
X140675000Y-64100000I75000J0D01*
G01*
X140825000Y-64100000D01*
G75*
G02*
X140900000Y-64175000I0J-75000D01*
G01*
X140900000Y-65500000D01*
G75*
G02*
X140825000Y-65575000I-75000J0D01*
G01*
G37*
G36*
G01*
X140325000Y-65575000D02*
X140175000Y-65575000D01*
G75*
G02*
X140100000Y-65500000I0J75000D01*
G01*
X140100000Y-64175000D01*
G75*
G02*
X140175000Y-64100000I75000J0D01*
G01*
X140325000Y-64100000D01*
G75*
G02*
X140400000Y-64175000I0J-75000D01*
G01*
X140400000Y-65500000D01*
G75*
G02*
X140325000Y-65575000I-75000J0D01*
G01*
G37*
G36*
G01*
X139825000Y-65575000D02*
X139675000Y-65575000D01*
G75*
G02*
X139600000Y-65500000I0J75000D01*
G01*
X139600000Y-64175000D01*
G75*
G02*
X139675000Y-64100000I75000J0D01*
G01*
X139825000Y-64100000D01*
G75*
G02*
X139900000Y-64175000I0J-75000D01*
G01*
X139900000Y-65500000D01*
G75*
G02*
X139825000Y-65575000I-75000J0D01*
G01*
G37*
G36*
G01*
X139325000Y-65575000D02*
X139175000Y-65575000D01*
G75*
G02*
X139100000Y-65500000I0J75000D01*
G01*
X139100000Y-64175000D01*
G75*
G02*
X139175000Y-64100000I75000J0D01*
G01*
X139325000Y-64100000D01*
G75*
G02*
X139400000Y-64175000I0J-75000D01*
G01*
X139400000Y-65500000D01*
G75*
G02*
X139325000Y-65575000I-75000J0D01*
G01*
G37*
G36*
G01*
X138825000Y-65575000D02*
X138675000Y-65575000D01*
G75*
G02*
X138600000Y-65500000I0J75000D01*
G01*
X138600000Y-64175000D01*
G75*
G02*
X138675000Y-64100000I75000J0D01*
G01*
X138825000Y-64100000D01*
G75*
G02*
X138900000Y-64175000I0J-75000D01*
G01*
X138900000Y-65500000D01*
G75*
G02*
X138825000Y-65575000I-75000J0D01*
G01*
G37*
G36*
G01*
X138325000Y-65575000D02*
X138175000Y-65575000D01*
G75*
G02*
X138100000Y-65500000I0J75000D01*
G01*
X138100000Y-64175000D01*
G75*
G02*
X138175000Y-64100000I75000J0D01*
G01*
X138325000Y-64100000D01*
G75*
G02*
X138400000Y-64175000I0J-75000D01*
G01*
X138400000Y-65500000D01*
G75*
G02*
X138325000Y-65575000I-75000J0D01*
G01*
G37*
G36*
G01*
X137500000Y-66400000D02*
X136175000Y-66400000D01*
G75*
G02*
X136100000Y-66325000I0J75000D01*
G01*
X136100000Y-66175000D01*
G75*
G02*
X136175000Y-66100000I75000J0D01*
G01*
X137500000Y-66100000D01*
G75*
G02*
X137575000Y-66175000I0J-75000D01*
G01*
X137575000Y-66325000D01*
G75*
G02*
X137500000Y-66400000I-75000J0D01*
G01*
G37*
G36*
G01*
X137500000Y-66900000D02*
X136175000Y-66900000D01*
G75*
G02*
X136100000Y-66825000I0J75000D01*
G01*
X136100000Y-66675000D01*
G75*
G02*
X136175000Y-66600000I75000J0D01*
G01*
X137500000Y-66600000D01*
G75*
G02*
X137575000Y-66675000I0J-75000D01*
G01*
X137575000Y-66825000D01*
G75*
G02*
X137500000Y-66900000I-75000J0D01*
G01*
G37*
G36*
G01*
X137500000Y-67400000D02*
X136175000Y-67400000D01*
G75*
G02*
X136100000Y-67325000I0J75000D01*
G01*
X136100000Y-67175000D01*
G75*
G02*
X136175000Y-67100000I75000J0D01*
G01*
X137500000Y-67100000D01*
G75*
G02*
X137575000Y-67175000I0J-75000D01*
G01*
X137575000Y-67325000D01*
G75*
G02*
X137500000Y-67400000I-75000J0D01*
G01*
G37*
G36*
G01*
X137500000Y-67900000D02*
X136175000Y-67900000D01*
G75*
G02*
X136100000Y-67825000I0J75000D01*
G01*
X136100000Y-67675000D01*
G75*
G02*
X136175000Y-67600000I75000J0D01*
G01*
X137500000Y-67600000D01*
G75*
G02*
X137575000Y-67675000I0J-75000D01*
G01*
X137575000Y-67825000D01*
G75*
G02*
X137500000Y-67900000I-75000J0D01*
G01*
G37*
G36*
G01*
X137500000Y-68400000D02*
X136175000Y-68400000D01*
G75*
G02*
X136100000Y-68325000I0J75000D01*
G01*
X136100000Y-68175000D01*
G75*
G02*
X136175000Y-68100000I75000J0D01*
G01*
X137500000Y-68100000D01*
G75*
G02*
X137575000Y-68175000I0J-75000D01*
G01*
X137575000Y-68325000D01*
G75*
G02*
X137500000Y-68400000I-75000J0D01*
G01*
G37*
G36*
G01*
X137500000Y-68900000D02*
X136175000Y-68900000D01*
G75*
G02*
X136100000Y-68825000I0J75000D01*
G01*
X136100000Y-68675000D01*
G75*
G02*
X136175000Y-68600000I75000J0D01*
G01*
X137500000Y-68600000D01*
G75*
G02*
X137575000Y-68675000I0J-75000D01*
G01*
X137575000Y-68825000D01*
G75*
G02*
X137500000Y-68900000I-75000J0D01*
G01*
G37*
G36*
G01*
X137500000Y-69400000D02*
X136175000Y-69400000D01*
G75*
G02*
X136100000Y-69325000I0J75000D01*
G01*
X136100000Y-69175000D01*
G75*
G02*
X136175000Y-69100000I75000J0D01*
G01*
X137500000Y-69100000D01*
G75*
G02*
X137575000Y-69175000I0J-75000D01*
G01*
X137575000Y-69325000D01*
G75*
G02*
X137500000Y-69400000I-75000J0D01*
G01*
G37*
G36*
G01*
X137500000Y-69900000D02*
X136175000Y-69900000D01*
G75*
G02*
X136100000Y-69825000I0J75000D01*
G01*
X136100000Y-69675000D01*
G75*
G02*
X136175000Y-69600000I75000J0D01*
G01*
X137500000Y-69600000D01*
G75*
G02*
X137575000Y-69675000I0J-75000D01*
G01*
X137575000Y-69825000D01*
G75*
G02*
X137500000Y-69900000I-75000J0D01*
G01*
G37*
G36*
G01*
X137500000Y-70400000D02*
X136175000Y-70400000D01*
G75*
G02*
X136100000Y-70325000I0J75000D01*
G01*
X136100000Y-70175000D01*
G75*
G02*
X136175000Y-70100000I75000J0D01*
G01*
X137500000Y-70100000D01*
G75*
G02*
X137575000Y-70175000I0J-75000D01*
G01*
X137575000Y-70325000D01*
G75*
G02*
X137500000Y-70400000I-75000J0D01*
G01*
G37*
G36*
G01*
X137500000Y-70900000D02*
X136175000Y-70900000D01*
G75*
G02*
X136100000Y-70825000I0J75000D01*
G01*
X136100000Y-70675000D01*
G75*
G02*
X136175000Y-70600000I75000J0D01*
G01*
X137500000Y-70600000D01*
G75*
G02*
X137575000Y-70675000I0J-75000D01*
G01*
X137575000Y-70825000D01*
G75*
G02*
X137500000Y-70900000I-75000J0D01*
G01*
G37*
G36*
G01*
X137500000Y-71400000D02*
X136175000Y-71400000D01*
G75*
G02*
X136100000Y-71325000I0J75000D01*
G01*
X136100000Y-71175000D01*
G75*
G02*
X136175000Y-71100000I75000J0D01*
G01*
X137500000Y-71100000D01*
G75*
G02*
X137575000Y-71175000I0J-75000D01*
G01*
X137575000Y-71325000D01*
G75*
G02*
X137500000Y-71400000I-75000J0D01*
G01*
G37*
G36*
G01*
X137500000Y-71900000D02*
X136175000Y-71900000D01*
G75*
G02*
X136100000Y-71825000I0J75000D01*
G01*
X136100000Y-71675000D01*
G75*
G02*
X136175000Y-71600000I75000J0D01*
G01*
X137500000Y-71600000D01*
G75*
G02*
X137575000Y-71675000I0J-75000D01*
G01*
X137575000Y-71825000D01*
G75*
G02*
X137500000Y-71900000I-75000J0D01*
G01*
G37*
G36*
G01*
X96065000Y-119720000D02*
X96435000Y-119720000D01*
G75*
G02*
X96570000Y-119855000I0J-135000D01*
G01*
X96570000Y-120125000D01*
G75*
G02*
X96435000Y-120260000I-135000J0D01*
G01*
X96065000Y-120260000D01*
G75*
G02*
X95930000Y-120125000I0J135000D01*
G01*
X95930000Y-119855000D01*
G75*
G02*
X96065000Y-119720000I135000J0D01*
G01*
G37*
G36*
G01*
X96065000Y-120740000D02*
X96435000Y-120740000D01*
G75*
G02*
X96570000Y-120875000I0J-135000D01*
G01*
X96570000Y-121145000D01*
G75*
G02*
X96435000Y-121280000I-135000J0D01*
G01*
X96065000Y-121280000D01*
G75*
G02*
X95930000Y-121145000I0J135000D01*
G01*
X95930000Y-120875000D01*
G75*
G02*
X96065000Y-120740000I135000J0D01*
G01*
G37*
G36*
G01*
X97987500Y-73256250D02*
X97987500Y-72743750D01*
G75*
G02*
X98206250Y-72525000I218750J0D01*
G01*
X98643750Y-72525000D01*
G75*
G02*
X98862500Y-72743750I0J-218750D01*
G01*
X98862500Y-73256250D01*
G75*
G02*
X98643750Y-73475000I-218750J0D01*
G01*
X98206250Y-73475000D01*
G75*
G02*
X97987500Y-73256250I0J218750D01*
G01*
G37*
G36*
G01*
X99562500Y-73256250D02*
X99562500Y-72743750D01*
G75*
G02*
X99781250Y-72525000I218750J0D01*
G01*
X100218750Y-72525000D01*
G75*
G02*
X100437500Y-72743750I0J-218750D01*
G01*
X100437500Y-73256250D01*
G75*
G02*
X100218750Y-73475000I-218750J0D01*
G01*
X99781250Y-73475000D01*
G75*
G02*
X99562500Y-73256250I0J218750D01*
G01*
G37*
G36*
G01*
X97987500Y-78256250D02*
X97987500Y-77743750D01*
G75*
G02*
X98206250Y-77525000I218750J0D01*
G01*
X98643750Y-77525000D01*
G75*
G02*
X98862500Y-77743750I0J-218750D01*
G01*
X98862500Y-78256250D01*
G75*
G02*
X98643750Y-78475000I-218750J0D01*
G01*
X98206250Y-78475000D01*
G75*
G02*
X97987500Y-78256250I0J218750D01*
G01*
G37*
G36*
G01*
X99562500Y-78256250D02*
X99562500Y-77743750D01*
G75*
G02*
X99781250Y-77525000I218750J0D01*
G01*
X100218750Y-77525000D01*
G75*
G02*
X100437500Y-77743750I0J-218750D01*
G01*
X100437500Y-78256250D01*
G75*
G02*
X100218750Y-78475000I-218750J0D01*
G01*
X99781250Y-78475000D01*
G75*
G02*
X99562500Y-78256250I0J218750D01*
G01*
G37*
G36*
G01*
X135170000Y-72510000D02*
X134830000Y-72510000D01*
G75*
G02*
X134690000Y-72370000I0J140000D01*
G01*
X134690000Y-72090000D01*
G75*
G02*
X134830000Y-71950000I140000J0D01*
G01*
X135170000Y-71950000D01*
G75*
G02*
X135310000Y-72090000I0J-140000D01*
G01*
X135310000Y-72370000D01*
G75*
G02*
X135170000Y-72510000I-140000J0D01*
G01*
G37*
G36*
G01*
X135170000Y-71550000D02*
X134830000Y-71550000D01*
G75*
G02*
X134690000Y-71410000I0J140000D01*
G01*
X134690000Y-71130000D01*
G75*
G02*
X134830000Y-70990000I140000J0D01*
G01*
X135170000Y-70990000D01*
G75*
G02*
X135310000Y-71130000I0J-140000D01*
G01*
X135310000Y-71410000D01*
G75*
G02*
X135170000Y-71550000I-140000J0D01*
G01*
G37*
G36*
G01*
X113740000Y-58920000D02*
X113740000Y-58580000D01*
G75*
G02*
X113880000Y-58440000I140000J0D01*
G01*
X114160000Y-58440000D01*
G75*
G02*
X114300000Y-58580000I0J-140000D01*
G01*
X114300000Y-58920000D01*
G75*
G02*
X114160000Y-59060000I-140000J0D01*
G01*
X113880000Y-59060000D01*
G75*
G02*
X113740000Y-58920000I0J140000D01*
G01*
G37*
G36*
G01*
X114700000Y-58920000D02*
X114700000Y-58580000D01*
G75*
G02*
X114840000Y-58440000I140000J0D01*
G01*
X115120000Y-58440000D01*
G75*
G02*
X115260000Y-58580000I0J-140000D01*
G01*
X115260000Y-58920000D01*
G75*
G02*
X115120000Y-59060000I-140000J0D01*
G01*
X114840000Y-59060000D01*
G75*
G02*
X114700000Y-58920000I0J140000D01*
G01*
G37*
G36*
G01*
X97987500Y-88256250D02*
X97987500Y-87743750D01*
G75*
G02*
X98206250Y-87525000I218750J0D01*
G01*
X98643750Y-87525000D01*
G75*
G02*
X98862500Y-87743750I0J-218750D01*
G01*
X98862500Y-88256250D01*
G75*
G02*
X98643750Y-88475000I-218750J0D01*
G01*
X98206250Y-88475000D01*
G75*
G02*
X97987500Y-88256250I0J218750D01*
G01*
G37*
G36*
G01*
X99562500Y-88256250D02*
X99562500Y-87743750D01*
G75*
G02*
X99781250Y-87525000I218750J0D01*
G01*
X100218750Y-87525000D01*
G75*
G02*
X100437500Y-87743750I0J-218750D01*
G01*
X100437500Y-88256250D01*
G75*
G02*
X100218750Y-88475000I-218750J0D01*
G01*
X99781250Y-88475000D01*
G75*
G02*
X99562500Y-88256250I0J218750D01*
G01*
G37*
G36*
G01*
X104300000Y-90535000D02*
X103700000Y-90535000D01*
G75*
G02*
X103450000Y-90285000I0J250000D01*
G01*
X103450000Y-89685000D01*
G75*
G02*
X103700000Y-89435000I250000J0D01*
G01*
X104300000Y-89435000D01*
G75*
G02*
X104550000Y-89685000I0J-250000D01*
G01*
X104550000Y-90285000D01*
G75*
G02*
X104300000Y-90535000I-250000J0D01*
G01*
G37*
G36*
G01*
X104300000Y-87735000D02*
X103700000Y-87735000D01*
G75*
G02*
X103450000Y-87485000I0J250000D01*
G01*
X103450000Y-86885000D01*
G75*
G02*
X103700000Y-86635000I250000J0D01*
G01*
X104300000Y-86635000D01*
G75*
G02*
X104550000Y-86885000I0J-250000D01*
G01*
X104550000Y-87485000D01*
G75*
G02*
X104300000Y-87735000I-250000J0D01*
G01*
G37*
G36*
G01*
X134380000Y-67815000D02*
X134380000Y-68185000D01*
G75*
G02*
X134245000Y-68320000I-135000J0D01*
G01*
X133975000Y-68320000D01*
G75*
G02*
X133840000Y-68185000I0J135000D01*
G01*
X133840000Y-67815000D01*
G75*
G02*
X133975000Y-67680000I135000J0D01*
G01*
X134245000Y-67680000D01*
G75*
G02*
X134380000Y-67815000I0J-135000D01*
G01*
G37*
G36*
G01*
X133360000Y-67815000D02*
X133360000Y-68185000D01*
G75*
G02*
X133225000Y-68320000I-135000J0D01*
G01*
X132955000Y-68320000D01*
G75*
G02*
X132820000Y-68185000I0J135000D01*
G01*
X132820000Y-67815000D01*
G75*
G02*
X132955000Y-67680000I135000J0D01*
G01*
X133225000Y-67680000D01*
G75*
G02*
X133360000Y-67815000I0J-135000D01*
G01*
G37*
G36*
G01*
X114753750Y-52520000D02*
X115266250Y-52520000D01*
G75*
G02*
X115485000Y-52738750I0J-218750D01*
G01*
X115485000Y-53176250D01*
G75*
G02*
X115266250Y-53395000I-218750J0D01*
G01*
X114753750Y-53395000D01*
G75*
G02*
X114535000Y-53176250I0J218750D01*
G01*
X114535000Y-52738750D01*
G75*
G02*
X114753750Y-52520000I218750J0D01*
G01*
G37*
G36*
G01*
X114753750Y-54095000D02*
X115266250Y-54095000D01*
G75*
G02*
X115485000Y-54313750I0J-218750D01*
G01*
X115485000Y-54751250D01*
G75*
G02*
X115266250Y-54970000I-218750J0D01*
G01*
X114753750Y-54970000D01*
G75*
G02*
X114535000Y-54751250I0J218750D01*
G01*
X114535000Y-54313750D01*
G75*
G02*
X114753750Y-54095000I218750J0D01*
G01*
G37*
G36*
G01*
X131300000Y-62300000D02*
X131300000Y-62600000D01*
G75*
G02*
X131150000Y-62750000I-150000J0D01*
G01*
X130125000Y-62750000D01*
G75*
G02*
X129975000Y-62600000I0J150000D01*
G01*
X129975000Y-62300000D01*
G75*
G02*
X130125000Y-62150000I150000J0D01*
G01*
X131150000Y-62150000D01*
G75*
G02*
X131300000Y-62300000I0J-150000D01*
G01*
G37*
G36*
G01*
X131300000Y-60400000D02*
X131300000Y-60700000D01*
G75*
G02*
X131150000Y-60850000I-150000J0D01*
G01*
X130125000Y-60850000D01*
G75*
G02*
X129975000Y-60700000I0J150000D01*
G01*
X129975000Y-60400000D01*
G75*
G02*
X130125000Y-60250000I150000J0D01*
G01*
X131150000Y-60250000D01*
G75*
G02*
X131300000Y-60400000I0J-150000D01*
G01*
G37*
G36*
G01*
X129025000Y-61350000D02*
X129025000Y-61650000D01*
G75*
G02*
X128875000Y-61800000I-150000J0D01*
G01*
X127850000Y-61800000D01*
G75*
G02*
X127700000Y-61650000I0J150000D01*
G01*
X127700000Y-61350000D01*
G75*
G02*
X127850000Y-61200000I150000J0D01*
G01*
X128875000Y-61200000D01*
G75*
G02*
X129025000Y-61350000I0J-150000D01*
G01*
G37*
G36*
G01*
X137490000Y-80420000D02*
X137490000Y-80080000D01*
G75*
G02*
X137630000Y-79940000I140000J0D01*
G01*
X137910000Y-79940000D01*
G75*
G02*
X138050000Y-80080000I0J-140000D01*
G01*
X138050000Y-80420000D01*
G75*
G02*
X137910000Y-80560000I-140000J0D01*
G01*
X137630000Y-80560000D01*
G75*
G02*
X137490000Y-80420000I0J140000D01*
G01*
G37*
G36*
G01*
X138450000Y-80420000D02*
X138450000Y-80080000D01*
G75*
G02*
X138590000Y-79940000I140000J0D01*
G01*
X138870000Y-79940000D01*
G75*
G02*
X139010000Y-80080000I0J-140000D01*
G01*
X139010000Y-80420000D01*
G75*
G02*
X138870000Y-80560000I-140000J0D01*
G01*
X138590000Y-80560000D01*
G75*
G02*
X138450000Y-80420000I0J140000D01*
G01*
G37*
G36*
G01*
X133670000Y-77760000D02*
X133330000Y-77760000D01*
G75*
G02*
X133190000Y-77620000I0J140000D01*
G01*
X133190000Y-77340000D01*
G75*
G02*
X133330000Y-77200000I140000J0D01*
G01*
X133670000Y-77200000D01*
G75*
G02*
X133810000Y-77340000I0J-140000D01*
G01*
X133810000Y-77620000D01*
G75*
G02*
X133670000Y-77760000I-140000J0D01*
G01*
G37*
G36*
G01*
X133670000Y-76800000D02*
X133330000Y-76800000D01*
G75*
G02*
X133190000Y-76660000I0J140000D01*
G01*
X133190000Y-76380000D01*
G75*
G02*
X133330000Y-76240000I140000J0D01*
G01*
X133670000Y-76240000D01*
G75*
G02*
X133810000Y-76380000I0J-140000D01*
G01*
X133810000Y-76660000D01*
G75*
G02*
X133670000Y-76800000I-140000J0D01*
G01*
G37*
G36*
G01*
X97987500Y-98256250D02*
X97987500Y-97743750D01*
G75*
G02*
X98206250Y-97525000I218750J0D01*
G01*
X98643750Y-97525000D01*
G75*
G02*
X98862500Y-97743750I0J-218750D01*
G01*
X98862500Y-98256250D01*
G75*
G02*
X98643750Y-98475000I-218750J0D01*
G01*
X98206250Y-98475000D01*
G75*
G02*
X97987500Y-98256250I0J218750D01*
G01*
G37*
G36*
G01*
X99562500Y-98256250D02*
X99562500Y-97743750D01*
G75*
G02*
X99781250Y-97525000I218750J0D01*
G01*
X100218750Y-97525000D01*
G75*
G02*
X100437500Y-97743750I0J-218750D01*
G01*
X100437500Y-98256250D01*
G75*
G02*
X100218750Y-98475000I-218750J0D01*
G01*
X99781250Y-98475000D01*
G75*
G02*
X99562500Y-98256250I0J218750D01*
G01*
G37*
G36*
G01*
X145240000Y-65170000D02*
X145240000Y-64830000D01*
G75*
G02*
X145380000Y-64690000I140000J0D01*
G01*
X145660000Y-64690000D01*
G75*
G02*
X145800000Y-64830000I0J-140000D01*
G01*
X145800000Y-65170000D01*
G75*
G02*
X145660000Y-65310000I-140000J0D01*
G01*
X145380000Y-65310000D01*
G75*
G02*
X145240000Y-65170000I0J140000D01*
G01*
G37*
G36*
G01*
X146200000Y-65170000D02*
X146200000Y-64830000D01*
G75*
G02*
X146340000Y-64690000I140000J0D01*
G01*
X146620000Y-64690000D01*
G75*
G02*
X146760000Y-64830000I0J-140000D01*
G01*
X146760000Y-65170000D01*
G75*
G02*
X146620000Y-65310000I-140000J0D01*
G01*
X146340000Y-65310000D01*
G75*
G02*
X146200000Y-65170000I0J140000D01*
G01*
G37*
G36*
G01*
X97987500Y-63256250D02*
X97987500Y-62743750D01*
G75*
G02*
X98206250Y-62525000I218750J0D01*
G01*
X98643750Y-62525000D01*
G75*
G02*
X98862500Y-62743750I0J-218750D01*
G01*
X98862500Y-63256250D01*
G75*
G02*
X98643750Y-63475000I-218750J0D01*
G01*
X98206250Y-63475000D01*
G75*
G02*
X97987500Y-63256250I0J218750D01*
G01*
G37*
G36*
G01*
X99562500Y-63256250D02*
X99562500Y-62743750D01*
G75*
G02*
X99781250Y-62525000I218750J0D01*
G01*
X100218750Y-62525000D01*
G75*
G02*
X100437500Y-62743750I0J-218750D01*
G01*
X100437500Y-63256250D01*
G75*
G02*
X100218750Y-63475000I-218750J0D01*
G01*
X99781250Y-63475000D01*
G75*
G02*
X99562500Y-63256250I0J218750D01*
G01*
G37*
G36*
G01*
X113740000Y-57670000D02*
X113740000Y-57330000D01*
G75*
G02*
X113880000Y-57190000I140000J0D01*
G01*
X114160000Y-57190000D01*
G75*
G02*
X114300000Y-57330000I0J-140000D01*
G01*
X114300000Y-57670000D01*
G75*
G02*
X114160000Y-57810000I-140000J0D01*
G01*
X113880000Y-57810000D01*
G75*
G02*
X113740000Y-57670000I0J140000D01*
G01*
G37*
G36*
G01*
X114700000Y-57670000D02*
X114700000Y-57330000D01*
G75*
G02*
X114840000Y-57190000I140000J0D01*
G01*
X115120000Y-57190000D01*
G75*
G02*
X115260000Y-57330000I0J-140000D01*
G01*
X115260000Y-57670000D01*
G75*
G02*
X115120000Y-57810000I-140000J0D01*
G01*
X114840000Y-57810000D01*
G75*
G02*
X114700000Y-57670000I0J140000D01*
G01*
G37*
G36*
G01*
X115980000Y-90415000D02*
X115980000Y-90785000D01*
G75*
G02*
X115845000Y-90920000I-135000J0D01*
G01*
X115575000Y-90920000D01*
G75*
G02*
X115440000Y-90785000I0J135000D01*
G01*
X115440000Y-90415000D01*
G75*
G02*
X115575000Y-90280000I135000J0D01*
G01*
X115845000Y-90280000D01*
G75*
G02*
X115980000Y-90415000I0J-135000D01*
G01*
G37*
G36*
G01*
X114960000Y-90415000D02*
X114960000Y-90785000D01*
G75*
G02*
X114825000Y-90920000I-135000J0D01*
G01*
X114555000Y-90920000D01*
G75*
G02*
X114420000Y-90785000I0J135000D01*
G01*
X114420000Y-90415000D01*
G75*
G02*
X114555000Y-90280000I135000J0D01*
G01*
X114825000Y-90280000D01*
G75*
G02*
X114960000Y-90415000I0J-135000D01*
G01*
G37*
G36*
G01*
X89220000Y-109185000D02*
X89220000Y-108815000D01*
G75*
G02*
X89355000Y-108680000I135000J0D01*
G01*
X89625000Y-108680000D01*
G75*
G02*
X89760000Y-108815000I0J-135000D01*
G01*
X89760000Y-109185000D01*
G75*
G02*
X89625000Y-109320000I-135000J0D01*
G01*
X89355000Y-109320000D01*
G75*
G02*
X89220000Y-109185000I0J135000D01*
G01*
G37*
G36*
G01*
X90240000Y-109185000D02*
X90240000Y-108815000D01*
G75*
G02*
X90375000Y-108680000I135000J0D01*
G01*
X90645000Y-108680000D01*
G75*
G02*
X90780000Y-108815000I0J-135000D01*
G01*
X90780000Y-109185000D01*
G75*
G02*
X90645000Y-109320000I-135000J0D01*
G01*
X90375000Y-109320000D01*
G75*
G02*
X90240000Y-109185000I0J135000D01*
G01*
G37*
G36*
G01*
X114980000Y-89215000D02*
X114980000Y-89585000D01*
G75*
G02*
X114845000Y-89720000I-135000J0D01*
G01*
X114575000Y-89720000D01*
G75*
G02*
X114440000Y-89585000I0J135000D01*
G01*
X114440000Y-89215000D01*
G75*
G02*
X114575000Y-89080000I135000J0D01*
G01*
X114845000Y-89080000D01*
G75*
G02*
X114980000Y-89215000I0J-135000D01*
G01*
G37*
G36*
G01*
X113960000Y-89215000D02*
X113960000Y-89585000D01*
G75*
G02*
X113825000Y-89720000I-135000J0D01*
G01*
X113555000Y-89720000D01*
G75*
G02*
X113420000Y-89585000I0J135000D01*
G01*
X113420000Y-89215000D01*
G75*
G02*
X113555000Y-89080000I135000J0D01*
G01*
X113825000Y-89080000D01*
G75*
G02*
X113960000Y-89215000I0J-135000D01*
G01*
G37*
G36*
G01*
X141720000Y-51685000D02*
X141720000Y-51315000D01*
G75*
G02*
X141855000Y-51180000I135000J0D01*
G01*
X142125000Y-51180000D01*
G75*
G02*
X142260000Y-51315000I0J-135000D01*
G01*
X142260000Y-51685000D01*
G75*
G02*
X142125000Y-51820000I-135000J0D01*
G01*
X141855000Y-51820000D01*
G75*
G02*
X141720000Y-51685000I0J135000D01*
G01*
G37*
G36*
G01*
X142740000Y-51685000D02*
X142740000Y-51315000D01*
G75*
G02*
X142875000Y-51180000I135000J0D01*
G01*
X143145000Y-51180000D01*
G75*
G02*
X143280000Y-51315000I0J-135000D01*
G01*
X143280000Y-51685000D01*
G75*
G02*
X143145000Y-51820000I-135000J0D01*
G01*
X142875000Y-51820000D01*
G75*
G02*
X142740000Y-51685000I0J135000D01*
G01*
G37*
D11*
X128500000Y-46460000D03*
X121500000Y-46460000D03*
D12*
X123700000Y-49135000D03*
X124350000Y-49135000D03*
X125000000Y-49135000D03*
X125650000Y-49135000D03*
X126300000Y-49135000D03*
D13*
X125000000Y-46460000D03*
G36*
G01*
X128050000Y-64975000D02*
X128050000Y-64025000D01*
G75*
G02*
X128300000Y-63775000I250000J0D01*
G01*
X128800000Y-63775000D01*
G75*
G02*
X129050000Y-64025000I0J-250000D01*
G01*
X129050000Y-64975000D01*
G75*
G02*
X128800000Y-65225000I-250000J0D01*
G01*
X128300000Y-65225000D01*
G75*
G02*
X128050000Y-64975000I0J250000D01*
G01*
G37*
G36*
G01*
X129950000Y-64975000D02*
X129950000Y-64025000D01*
G75*
G02*
X130200000Y-63775000I250000J0D01*
G01*
X130700000Y-63775000D01*
G75*
G02*
X130950000Y-64025000I0J-250000D01*
G01*
X130950000Y-64975000D01*
G75*
G02*
X130700000Y-65225000I-250000J0D01*
G01*
X130200000Y-65225000D01*
G75*
G02*
X129950000Y-64975000I0J250000D01*
G01*
G37*
G36*
G01*
X101670000Y-103260000D02*
X101330000Y-103260000D01*
G75*
G02*
X101190000Y-103120000I0J140000D01*
G01*
X101190000Y-102840000D01*
G75*
G02*
X101330000Y-102700000I140000J0D01*
G01*
X101670000Y-102700000D01*
G75*
G02*
X101810000Y-102840000I0J-140000D01*
G01*
X101810000Y-103120000D01*
G75*
G02*
X101670000Y-103260000I-140000J0D01*
G01*
G37*
G36*
G01*
X101670000Y-102300000D02*
X101330000Y-102300000D01*
G75*
G02*
X101190000Y-102160000I0J140000D01*
G01*
X101190000Y-101880000D01*
G75*
G02*
X101330000Y-101740000I140000J0D01*
G01*
X101670000Y-101740000D01*
G75*
G02*
X101810000Y-101880000I0J-140000D01*
G01*
X101810000Y-102160000D01*
G75*
G02*
X101670000Y-102300000I-140000J0D01*
G01*
G37*
G36*
G01*
X103725000Y-105275000D02*
X104275000Y-105275000D01*
G75*
G02*
X104475000Y-105475000I0J-200000D01*
G01*
X104475000Y-105875000D01*
G75*
G02*
X104275000Y-106075000I-200000J0D01*
G01*
X103725000Y-106075000D01*
G75*
G02*
X103525000Y-105875000I0J200000D01*
G01*
X103525000Y-105475000D01*
G75*
G02*
X103725000Y-105275000I200000J0D01*
G01*
G37*
G36*
G01*
X103725000Y-106925000D02*
X104275000Y-106925000D01*
G75*
G02*
X104475000Y-107125000I0J-200000D01*
G01*
X104475000Y-107525000D01*
G75*
G02*
X104275000Y-107725000I-200000J0D01*
G01*
X103725000Y-107725000D01*
G75*
G02*
X103525000Y-107525000I0J200000D01*
G01*
X103525000Y-107125000D01*
G75*
G02*
X103725000Y-106925000I200000J0D01*
G01*
G37*
G36*
G01*
X124990000Y-64670000D02*
X124990000Y-64330000D01*
G75*
G02*
X125130000Y-64190000I140000J0D01*
G01*
X125410000Y-64190000D01*
G75*
G02*
X125550000Y-64330000I0J-140000D01*
G01*
X125550000Y-64670000D01*
G75*
G02*
X125410000Y-64810000I-140000J0D01*
G01*
X125130000Y-64810000D01*
G75*
G02*
X124990000Y-64670000I0J140000D01*
G01*
G37*
G36*
G01*
X125950000Y-64670000D02*
X125950000Y-64330000D01*
G75*
G02*
X126090000Y-64190000I140000J0D01*
G01*
X126370000Y-64190000D01*
G75*
G02*
X126510000Y-64330000I0J-140000D01*
G01*
X126510000Y-64670000D01*
G75*
G02*
X126370000Y-64810000I-140000J0D01*
G01*
X126090000Y-64810000D01*
G75*
G02*
X125950000Y-64670000I0J140000D01*
G01*
G37*
G36*
G01*
X147415000Y-66620000D02*
X147785000Y-66620000D01*
G75*
G02*
X147920000Y-66755000I0J-135000D01*
G01*
X147920000Y-67025000D01*
G75*
G02*
X147785000Y-67160000I-135000J0D01*
G01*
X147415000Y-67160000D01*
G75*
G02*
X147280000Y-67025000I0J135000D01*
G01*
X147280000Y-66755000D01*
G75*
G02*
X147415000Y-66620000I135000J0D01*
G01*
G37*
G36*
G01*
X147415000Y-67640000D02*
X147785000Y-67640000D01*
G75*
G02*
X147920000Y-67775000I0J-135000D01*
G01*
X147920000Y-68045000D01*
G75*
G02*
X147785000Y-68180000I-135000J0D01*
G01*
X147415000Y-68180000D01*
G75*
G02*
X147280000Y-68045000I0J135000D01*
G01*
X147280000Y-67775000D01*
G75*
G02*
X147415000Y-67640000I135000J0D01*
G01*
G37*
G36*
G01*
X149537500Y-68040000D02*
X149662500Y-68040000D01*
G75*
G02*
X149725000Y-68102500I0J-62500D01*
G01*
X149725000Y-68337500D01*
G75*
G02*
X149662500Y-68400000I-62500J0D01*
G01*
X149537500Y-68400000D01*
G75*
G02*
X149475000Y-68337500I0J62500D01*
G01*
X149475000Y-68102500D01*
G75*
G02*
X149537500Y-68040000I62500J0D01*
G01*
G37*
G36*
G01*
X149537500Y-67200000D02*
X149662500Y-67200000D01*
G75*
G02*
X149725000Y-67262500I0J-62500D01*
G01*
X149725000Y-67497500D01*
G75*
G02*
X149662500Y-67560000I-62500J0D01*
G01*
X149537500Y-67560000D01*
G75*
G02*
X149475000Y-67497500I0J62500D01*
G01*
X149475000Y-67262500D01*
G75*
G02*
X149537500Y-67200000I62500J0D01*
G01*
G37*
G36*
G01*
X126720000Y-51685000D02*
X126720000Y-51315000D01*
G75*
G02*
X126855000Y-51180000I135000J0D01*
G01*
X127125000Y-51180000D01*
G75*
G02*
X127260000Y-51315000I0J-135000D01*
G01*
X127260000Y-51685000D01*
G75*
G02*
X127125000Y-51820000I-135000J0D01*
G01*
X126855000Y-51820000D01*
G75*
G02*
X126720000Y-51685000I0J135000D01*
G01*
G37*
G36*
G01*
X127740000Y-51685000D02*
X127740000Y-51315000D01*
G75*
G02*
X127875000Y-51180000I135000J0D01*
G01*
X128145000Y-51180000D01*
G75*
G02*
X128280000Y-51315000I0J-135000D01*
G01*
X128280000Y-51685000D01*
G75*
G02*
X128145000Y-51820000I-135000J0D01*
G01*
X127875000Y-51820000D01*
G75*
G02*
X127740000Y-51685000I0J135000D01*
G01*
G37*
G36*
G01*
X141075000Y-58725000D02*
X140525000Y-58725000D01*
G75*
G02*
X140325000Y-58525000I0J200000D01*
G01*
X140325000Y-58125000D01*
G75*
G02*
X140525000Y-57925000I200000J0D01*
G01*
X141075000Y-57925000D01*
G75*
G02*
X141275000Y-58125000I0J-200000D01*
G01*
X141275000Y-58525000D01*
G75*
G02*
X141075000Y-58725000I-200000J0D01*
G01*
G37*
G36*
G01*
X141075000Y-57075000D02*
X140525000Y-57075000D01*
G75*
G02*
X140325000Y-56875000I0J200000D01*
G01*
X140325000Y-56475000D01*
G75*
G02*
X140525000Y-56275000I200000J0D01*
G01*
X141075000Y-56275000D01*
G75*
G02*
X141275000Y-56475000I0J-200000D01*
G01*
X141275000Y-56875000D01*
G75*
G02*
X141075000Y-57075000I-200000J0D01*
G01*
G37*
G36*
G01*
X89220000Y-103185000D02*
X89220000Y-102815000D01*
G75*
G02*
X89355000Y-102680000I135000J0D01*
G01*
X89625000Y-102680000D01*
G75*
G02*
X89760000Y-102815000I0J-135000D01*
G01*
X89760000Y-103185000D01*
G75*
G02*
X89625000Y-103320000I-135000J0D01*
G01*
X89355000Y-103320000D01*
G75*
G02*
X89220000Y-103185000I0J135000D01*
G01*
G37*
G36*
G01*
X90240000Y-103185000D02*
X90240000Y-102815000D01*
G75*
G02*
X90375000Y-102680000I135000J0D01*
G01*
X90645000Y-102680000D01*
G75*
G02*
X90780000Y-102815000I0J-135000D01*
G01*
X90780000Y-103185000D01*
G75*
G02*
X90645000Y-103320000I-135000J0D01*
G01*
X90375000Y-103320000D01*
G75*
G02*
X90240000Y-103185000I0J135000D01*
G01*
G37*
G36*
G01*
X128740000Y-57670000D02*
X128740000Y-57330000D01*
G75*
G02*
X128880000Y-57190000I140000J0D01*
G01*
X129160000Y-57190000D01*
G75*
G02*
X129300000Y-57330000I0J-140000D01*
G01*
X129300000Y-57670000D01*
G75*
G02*
X129160000Y-57810000I-140000J0D01*
G01*
X128880000Y-57810000D01*
G75*
G02*
X128740000Y-57670000I0J140000D01*
G01*
G37*
G36*
G01*
X129700000Y-57670000D02*
X129700000Y-57330000D01*
G75*
G02*
X129840000Y-57190000I140000J0D01*
G01*
X130120000Y-57190000D01*
G75*
G02*
X130260000Y-57330000I0J-140000D01*
G01*
X130260000Y-57670000D01*
G75*
G02*
X130120000Y-57810000I-140000J0D01*
G01*
X129840000Y-57810000D01*
G75*
G02*
X129700000Y-57670000I0J140000D01*
G01*
G37*
G36*
G01*
X121240000Y-81420000D02*
X121240000Y-81080000D01*
G75*
G02*
X121380000Y-80940000I140000J0D01*
G01*
X121660000Y-80940000D01*
G75*
G02*
X121800000Y-81080000I0J-140000D01*
G01*
X121800000Y-81420000D01*
G75*
G02*
X121660000Y-81560000I-140000J0D01*
G01*
X121380000Y-81560000D01*
G75*
G02*
X121240000Y-81420000I0J140000D01*
G01*
G37*
G36*
G01*
X122200000Y-81420000D02*
X122200000Y-81080000D01*
G75*
G02*
X122340000Y-80940000I140000J0D01*
G01*
X122620000Y-80940000D01*
G75*
G02*
X122760000Y-81080000I0J-140000D01*
G01*
X122760000Y-81420000D01*
G75*
G02*
X122620000Y-81560000I-140000J0D01*
G01*
X122340000Y-81560000D01*
G75*
G02*
X122200000Y-81420000I0J140000D01*
G01*
G37*
G36*
G01*
X96992500Y-62815000D02*
X96992500Y-63185000D01*
G75*
G02*
X96857500Y-63320000I-135000J0D01*
G01*
X96587500Y-63320000D01*
G75*
G02*
X96452500Y-63185000I0J135000D01*
G01*
X96452500Y-62815000D01*
G75*
G02*
X96587500Y-62680000I135000J0D01*
G01*
X96857500Y-62680000D01*
G75*
G02*
X96992500Y-62815000I0J-135000D01*
G01*
G37*
G36*
G01*
X95972500Y-62815000D02*
X95972500Y-63185000D01*
G75*
G02*
X95837500Y-63320000I-135000J0D01*
G01*
X95567500Y-63320000D01*
G75*
G02*
X95432500Y-63185000I0J135000D01*
G01*
X95432500Y-62815000D01*
G75*
G02*
X95567500Y-62680000I135000J0D01*
G01*
X95837500Y-62680000D01*
G75*
G02*
X95972500Y-62815000I0J-135000D01*
G01*
G37*
G36*
G01*
X146118750Y-47500000D02*
X146881250Y-47500000D01*
G75*
G02*
X147100000Y-47718750I0J-218750D01*
G01*
X147100000Y-48156250D01*
G75*
G02*
X146881250Y-48375000I-218750J0D01*
G01*
X146118750Y-48375000D01*
G75*
G02*
X145900000Y-48156250I0J218750D01*
G01*
X145900000Y-47718750D01*
G75*
G02*
X146118750Y-47500000I218750J0D01*
G01*
G37*
G36*
G01*
X146118750Y-49625000D02*
X146881250Y-49625000D01*
G75*
G02*
X147100000Y-49843750I0J-218750D01*
G01*
X147100000Y-50281250D01*
G75*
G02*
X146881250Y-50500000I-218750J0D01*
G01*
X146118750Y-50500000D01*
G75*
G02*
X145900000Y-50281250I0J218750D01*
G01*
X145900000Y-49843750D01*
G75*
G02*
X146118750Y-49625000I218750J0D01*
G01*
G37*
G36*
G01*
X96992500Y-52815000D02*
X96992500Y-53185000D01*
G75*
G02*
X96857500Y-53320000I-135000J0D01*
G01*
X96587500Y-53320000D01*
G75*
G02*
X96452500Y-53185000I0J135000D01*
G01*
X96452500Y-52815000D01*
G75*
G02*
X96587500Y-52680000I135000J0D01*
G01*
X96857500Y-52680000D01*
G75*
G02*
X96992500Y-52815000I0J-135000D01*
G01*
G37*
G36*
G01*
X95972500Y-52815000D02*
X95972500Y-53185000D01*
G75*
G02*
X95837500Y-53320000I-135000J0D01*
G01*
X95567500Y-53320000D01*
G75*
G02*
X95432500Y-53185000I0J135000D01*
G01*
X95432500Y-52815000D01*
G75*
G02*
X95567500Y-52680000I135000J0D01*
G01*
X95837500Y-52680000D01*
G75*
G02*
X95972500Y-52815000I0J-135000D01*
G01*
G37*
G36*
G01*
X97987500Y-83256250D02*
X97987500Y-82743750D01*
G75*
G02*
X98206250Y-82525000I218750J0D01*
G01*
X98643750Y-82525000D01*
G75*
G02*
X98862500Y-82743750I0J-218750D01*
G01*
X98862500Y-83256250D01*
G75*
G02*
X98643750Y-83475000I-218750J0D01*
G01*
X98206250Y-83475000D01*
G75*
G02*
X97987500Y-83256250I0J218750D01*
G01*
G37*
G36*
G01*
X99562500Y-83256250D02*
X99562500Y-82743750D01*
G75*
G02*
X99781250Y-82525000I218750J0D01*
G01*
X100218750Y-82525000D01*
G75*
G02*
X100437500Y-82743750I0J-218750D01*
G01*
X100437500Y-83256250D01*
G75*
G02*
X100218750Y-83475000I-218750J0D01*
G01*
X99781250Y-83475000D01*
G75*
G02*
X99562500Y-83256250I0J218750D01*
G01*
G37*
G36*
G01*
X129753750Y-52520000D02*
X130266250Y-52520000D01*
G75*
G02*
X130485000Y-52738750I0J-218750D01*
G01*
X130485000Y-53176250D01*
G75*
G02*
X130266250Y-53395000I-218750J0D01*
G01*
X129753750Y-53395000D01*
G75*
G02*
X129535000Y-53176250I0J218750D01*
G01*
X129535000Y-52738750D01*
G75*
G02*
X129753750Y-52520000I218750J0D01*
G01*
G37*
G36*
G01*
X129753750Y-54095000D02*
X130266250Y-54095000D01*
G75*
G02*
X130485000Y-54313750I0J-218750D01*
G01*
X130485000Y-54751250D01*
G75*
G02*
X130266250Y-54970000I-218750J0D01*
G01*
X129753750Y-54970000D01*
G75*
G02*
X129535000Y-54751250I0J218750D01*
G01*
X129535000Y-54313750D01*
G75*
G02*
X129753750Y-54095000I218750J0D01*
G01*
G37*
G36*
G01*
X122870000Y-53150000D02*
X122870000Y-52850000D01*
G75*
G02*
X123020000Y-52700000I150000J0D01*
G01*
X124045000Y-52700000D01*
G75*
G02*
X124195000Y-52850000I0J-150000D01*
G01*
X124195000Y-53150000D01*
G75*
G02*
X124045000Y-53300000I-150000J0D01*
G01*
X123020000Y-53300000D01*
G75*
G02*
X122870000Y-53150000I0J150000D01*
G01*
G37*
G36*
G01*
X122870000Y-54100000D02*
X122870000Y-53800000D01*
G75*
G02*
X123020000Y-53650000I150000J0D01*
G01*
X124045000Y-53650000D01*
G75*
G02*
X124195000Y-53800000I0J-150000D01*
G01*
X124195000Y-54100000D01*
G75*
G02*
X124045000Y-54250000I-150000J0D01*
G01*
X123020000Y-54250000D01*
G75*
G02*
X122870000Y-54100000I0J150000D01*
G01*
G37*
G36*
G01*
X122870000Y-55050000D02*
X122870000Y-54750000D01*
G75*
G02*
X123020000Y-54600000I150000J0D01*
G01*
X124045000Y-54600000D01*
G75*
G02*
X124195000Y-54750000I0J-150000D01*
G01*
X124195000Y-55050000D01*
G75*
G02*
X124045000Y-55200000I-150000J0D01*
G01*
X123020000Y-55200000D01*
G75*
G02*
X122870000Y-55050000I0J150000D01*
G01*
G37*
G36*
G01*
X125145000Y-55050000D02*
X125145000Y-54750000D01*
G75*
G02*
X125295000Y-54600000I150000J0D01*
G01*
X126320000Y-54600000D01*
G75*
G02*
X126470000Y-54750000I0J-150000D01*
G01*
X126470000Y-55050000D01*
G75*
G02*
X126320000Y-55200000I-150000J0D01*
G01*
X125295000Y-55200000D01*
G75*
G02*
X125145000Y-55050000I0J150000D01*
G01*
G37*
G36*
G01*
X125145000Y-54100000D02*
X125145000Y-53800000D01*
G75*
G02*
X125295000Y-53650000I150000J0D01*
G01*
X126320000Y-53650000D01*
G75*
G02*
X126470000Y-53800000I0J-150000D01*
G01*
X126470000Y-54100000D01*
G75*
G02*
X126320000Y-54250000I-150000J0D01*
G01*
X125295000Y-54250000D01*
G75*
G02*
X125145000Y-54100000I0J150000D01*
G01*
G37*
G36*
G01*
X125145000Y-53150000D02*
X125145000Y-52850000D01*
G75*
G02*
X125295000Y-52700000I150000J0D01*
G01*
X126320000Y-52700000D01*
G75*
G02*
X126470000Y-52850000I0J-150000D01*
G01*
X126470000Y-53150000D01*
G75*
G02*
X126320000Y-53300000I-150000J0D01*
G01*
X125295000Y-53300000D01*
G75*
G02*
X125145000Y-53150000I0J150000D01*
G01*
G37*
G36*
G01*
X96992500Y-87815000D02*
X96992500Y-88185000D01*
G75*
G02*
X96857500Y-88320000I-135000J0D01*
G01*
X96587500Y-88320000D01*
G75*
G02*
X96452500Y-88185000I0J135000D01*
G01*
X96452500Y-87815000D01*
G75*
G02*
X96587500Y-87680000I135000J0D01*
G01*
X96857500Y-87680000D01*
G75*
G02*
X96992500Y-87815000I0J-135000D01*
G01*
G37*
G36*
G01*
X95972500Y-87815000D02*
X95972500Y-88185000D01*
G75*
G02*
X95837500Y-88320000I-135000J0D01*
G01*
X95567500Y-88320000D01*
G75*
G02*
X95432500Y-88185000I0J135000D01*
G01*
X95432500Y-87815000D01*
G75*
G02*
X95567500Y-87680000I135000J0D01*
G01*
X95837500Y-87680000D01*
G75*
G02*
X95972500Y-87815000I0J-135000D01*
G01*
G37*
G36*
G01*
X121702500Y-87670000D02*
X121702500Y-87330000D01*
G75*
G02*
X121842500Y-87190000I140000J0D01*
G01*
X122122500Y-87190000D01*
G75*
G02*
X122262500Y-87330000I0J-140000D01*
G01*
X122262500Y-87670000D01*
G75*
G02*
X122122500Y-87810000I-140000J0D01*
G01*
X121842500Y-87810000D01*
G75*
G02*
X121702500Y-87670000I0J140000D01*
G01*
G37*
G36*
G01*
X122662500Y-87670000D02*
X122662500Y-87330000D01*
G75*
G02*
X122802500Y-87190000I140000J0D01*
G01*
X123082500Y-87190000D01*
G75*
G02*
X123222500Y-87330000I0J-140000D01*
G01*
X123222500Y-87670000D01*
G75*
G02*
X123082500Y-87810000I-140000J0D01*
G01*
X122802500Y-87810000D01*
G75*
G02*
X122662500Y-87670000I0J140000D01*
G01*
G37*
D10*
X90500000Y-123375000D03*
X84500000Y-123375000D03*
X90500000Y-119625000D03*
X84500000Y-119625000D03*
M02*
