M48
; DRILL file {KiCad 8.0.2+dfsg-1} date 2024-05-24T10:29:33+0000
; FORMAT={-:-/ absolute / metric / decimal}
; #@! TF.CreationDate,2024-05-24T10:29:33+00:00
; #@! TF.GenerationSoftware,Kicad,Pcbnew,8.0.2+dfsg-1
; #@! TF.FileFunction,MixedPlating,1,4
FMAT,2
METRIC
; #@! TA.AperFunction,Plated,PTH,ViaDrill
T1C0.300
; #@! TA.AperFunction,Plated,PTH,ComponentDrill
T2C0.600
; #@! TA.AperFunction,Plated,PTH,ComponentDrill
T3C0.650
; #@! TA.AperFunction,Plated,PTH,ComponentDrill
T4C0.800
; #@! TA.AperFunction,Plated,PTH,ComponentDrill
T5C1.000
; #@! TA.AperFunction,Plated,PTH,ComponentDrill
T6C1.150
; #@! TA.AperFunction,Plated,PTH,ComponentDrill
T7C1.905
; #@! TA.AperFunction,Plated,PTH,ComponentDrill
T8C3.200
; #@! TA.AperFunction,NonPlated,NPTH,ComponentDrill
T9C0.991
; #@! TA.AperFunction,NonPlated,NPTH,ComponentDrill
T10C2.375
%
G90
G05
T1
X86.5Y-60.0
X88.75Y-61.0
X91.0Y-66.8
X91.0Y-70.6
X91.2Y-75.2
X91.4Y-96.4
X91.8Y-91.6
X92.0Y-88.2
X93.0Y-81.5
X94.0Y-62.4
X94.4Y-72.0
X94.4Y-76.8
X94.4Y-87.0
X94.6Y-66.6
X94.6Y-107.6
X95.6Y-91.0
X96.2Y-96.2
X96.4Y-56.4
X96.6Y-101.6
X97.4Y-108.0
X97.5Y-120.0
X98.2Y-107.993
X98.4Y-70.0
X98.6Y-95.2
X98.6Y-100.0
X98.7Y-84.6
X98.8Y-54.8
X98.8Y-64.8
X98.8Y-89.6
X99.0Y-75.0
X99.5Y-107.0
X100.0Y-61.0
X100.5Y-109.0
X105.5Y-95.0
X106.5Y-61.0
X108.0Y-64.0
X108.5Y-51.0
X109.2Y-64.0
X112.0Y-54.0
X112.0Y-107.0
X113.601Y-90.201
X113.625Y-91.025
X113.75Y-60.5
X121.5Y-61.0
X122.25Y-85.0
X122.8Y-64.2
X123.5Y-51.0
X124.2Y-64.2
X127.0Y-54.0
X128.75Y-60.5
X135.25Y-68.6
X135.25Y-69.4
X136.0Y-72.5
X137.0Y-65.25
X138.2Y-70.4
X138.3Y-68.7
X138.488Y-71.955
X138.6Y-50.8
X139.0Y-62.5
X139.65Y-63.0
X140.6Y-67.6
X140.6Y-71.8
X140.603Y-66.005
X140.75Y-59.5
X141.203Y-66.534
X141.276Y-70.724
X141.35Y-68.2
X141.35Y-74.6
X141.35Y-75.6
X141.858Y-66.074
X142.4Y-54.0
X142.65Y-66.184
X143.25Y-66.75
X143.957Y-65.983
X144.557Y-73.2
X144.75Y-65.0
X145.2Y-72.6
X146.6Y-66.8
X146.624Y-67.624
X148.376Y-70.224
X150.2Y-58.2
X150.2Y-60.0
X152.8Y-55.4
X157.2Y-59.0
T4
X106.5Y-71.75
X106.5Y-75.25
X116.5Y-71.75
X116.5Y-75.25
X126.5Y-71.75
X126.5Y-75.25
T5
X85.5Y-76.5
X85.5Y-95.5
X86.5Y-71.5
X86.5Y-90.5
X100.0Y-120.725
X102.5Y-120.725
X152.0Y-87.0
X152.0Y-89.54
X152.0Y-92.08
X152.0Y-94.62
X152.0Y-97.16
X152.0Y-99.7
X156.0Y-87.0
X156.0Y-89.54
X156.0Y-92.08
X156.0Y-94.62
X156.0Y-97.16
X156.0Y-99.7
X156.0Y-102.24
T6
X110.0Y-115.0
X110.0Y-120.0
X110.0Y-97.5
X110.0Y-102.5
X115.0Y-115.0
X115.0Y-120.0
X115.0Y-97.5
X115.0Y-102.5
X124.35Y-115.0
X124.35Y-120.0
X129.35Y-115.0
X129.35Y-120.0
X138.7Y-115.0
X138.7Y-120.0
X143.7Y-115.0
X143.7Y-120.0
T7
X60.0Y-61.0
X60.0Y-68.5
X60.0Y-81.5
X60.0Y-89.0
X60.0Y-102.0
X60.0Y-109.5
X72.5Y-61.0
X72.5Y-68.5
X72.5Y-81.5
X72.5Y-89.0
X72.5Y-102.0
X72.5Y-109.5
T8
X55.0Y-50.0
X55.5Y-120.0
X87.5Y-55.0
X87.5Y-114.5
X155.0Y-50.0
X155.0Y-120.0
T9
X151.21Y-59.115
X156.29Y-58.099
X156.29Y-60.131
T10
X151.21Y-56.575
X151.21Y-61.655
X154.385Y-56.575
X154.385Y-61.655
T2
G00X105.825Y-46.81
M15
G01X105.825Y-46.11
M16
G05
G00X114.175Y-46.81
M15
G01X114.175Y-46.11
M16
G05
G00X120.825Y-46.81
M15
G01X120.825Y-46.11
M16
G05
G00X129.175Y-46.81
M15
G01X129.175Y-46.11
M16
G05
G00X135.825Y-46.81
M15
G01X135.825Y-46.11
M16
G05
G00X144.175Y-46.81
M15
G01X144.175Y-46.11
M16
G05
T3
G00X107.775Y-49.56
M15
G01X107.775Y-49.36
M16
G05
G00X112.225Y-49.56
M15
G01X112.225Y-49.36
M16
G05
G00X122.775Y-49.56
M15
G01X122.775Y-49.36
M16
G05
G00X127.225Y-49.56
M15
G01X127.225Y-49.36
M16
G05
G00X137.775Y-49.56
M15
G01X137.775Y-49.36
M16
G05
G00X142.225Y-49.56
M15
G01X142.225Y-49.36
M16
G05
M30
