%TF.GenerationSoftware,KiCad,Pcbnew,9.0.1+1*%
%TF.CreationDate,2025-05-15T02:05:46+00:00*%
%TF.ProjectId,akkupack-ng,616b6b75-7061-4636-9b2d-6e672e6b6963,rev?*%
%TF.SameCoordinates,Original*%
%TF.FileFunction,Paste,Top*%
%TF.FilePolarity,Positive*%
%FSLAX46Y46*%
G04 Gerber Fmt 4.6, Leading zero omitted, Abs format (unit mm)*
G04 Created by KiCad (PCBNEW 9.0.1+1) date 2025-05-15 02:05:46*
%MOMM*%
%LPD*%
G01*
G04 APERTURE LIST*
G04 Aperture macros list*
%AMRoundRect*
0 Rectangle with rounded corners*
0 $1 Rounding radius*
0 $2 $3 $4 $5 $6 $7 $8 $9 X,Y pos of 4 corners*
0 Add a 4 corners polygon primitive as box body*
4,1,4,$2,$3,$4,$5,$6,$7,$8,$9,$2,$3,0*
0 Add four circle primitives for the rounded corners*
1,1,$1+$1,$2,$3*
1,1,$1+$1,$4,$5*
1,1,$1+$1,$6,$7*
1,1,$1+$1,$8,$9*
0 Add four rect primitives between the rounded corners*
20,1,$1+$1,$2,$3,$4,$5,0*
20,1,$1+$1,$4,$5,$6,$7,0*
20,1,$1+$1,$6,$7,$8,$9,0*
20,1,$1+$1,$8,$9,$2,$3,0*%
G04 Aperture macros list end*
%ADD10RoundRect,0.020500X0.764500X0.184500X-0.764500X0.184500X-0.764500X-0.184500X0.764500X-0.184500X0*%
%ADD11RoundRect,0.135000X-0.135000X-0.185000X0.135000X-0.185000X0.135000X0.185000X-0.135000X0.185000X0*%
%ADD12RoundRect,0.140000X0.170000X-0.140000X0.170000X0.140000X-0.170000X0.140000X-0.170000X-0.140000X0*%
%ADD13RoundRect,0.135000X0.135000X0.185000X-0.135000X0.185000X-0.135000X-0.185000X0.135000X-0.185000X0*%
%ADD14RoundRect,0.250000X-0.250000X-0.475000X0.250000X-0.475000X0.250000X0.475000X-0.250000X0.475000X0*%
%ADD15RoundRect,0.218750X-0.218750X-0.256250X0.218750X-0.256250X0.218750X0.256250X-0.218750X0.256250X0*%
%ADD16RoundRect,0.150000X-0.587500X-0.150000X0.587500X-0.150000X0.587500X0.150000X-0.587500X0.150000X0*%
%ADD17R,1.000000X0.750000*%
%ADD18RoundRect,0.140000X-0.170000X0.140000X-0.170000X-0.140000X0.170000X-0.140000X0.170000X0.140000X0*%
%ADD19RoundRect,0.150000X0.512500X0.150000X-0.512500X0.150000X-0.512500X-0.150000X0.512500X-0.150000X0*%
%ADD20RoundRect,0.140000X0.140000X0.170000X-0.140000X0.170000X-0.140000X-0.170000X0.140000X-0.170000X0*%
%ADD21RoundRect,0.250000X-0.420000X-0.945000X0.420000X-0.945000X0.420000X0.945000X-0.420000X0.945000X0*%
%ADD22RoundRect,0.250000X0.625000X-0.312500X0.625000X0.312500X-0.625000X0.312500X-0.625000X-0.312500X0*%
%ADD23RoundRect,0.150000X0.587500X0.150000X-0.587500X0.150000X-0.587500X-0.150000X0.587500X-0.150000X0*%
%ADD24RoundRect,0.150000X-0.150000X0.825000X-0.150000X-0.825000X0.150000X-0.825000X0.150000X0.825000X0*%
%ADD25RoundRect,0.250000X1.425000X-0.362500X1.425000X0.362500X-1.425000X0.362500X-1.425000X-0.362500X0*%
%ADD26RoundRect,0.135000X-0.185000X0.135000X-0.185000X-0.135000X0.185000X-0.135000X0.185000X0.135000X0*%
%ADD27RoundRect,0.140000X-0.140000X-0.170000X0.140000X-0.170000X0.140000X0.170000X-0.140000X0.170000X0*%
%ADD28RoundRect,0.100000X0.100000X-0.637500X0.100000X0.637500X-0.100000X0.637500X-0.100000X-0.637500X0*%
%ADD29RoundRect,0.200000X0.275000X-0.200000X0.275000X0.200000X-0.275000X0.200000X-0.275000X-0.200000X0*%
%ADD30RoundRect,0.150000X-0.150000X0.512500X-0.150000X-0.512500X0.150000X-0.512500X0.150000X0.512500X0*%
%ADD31RoundRect,0.150000X-0.150000X0.587500X-0.150000X-0.587500X0.150000X-0.587500X0.150000X0.587500X0*%
%ADD32R,0.300000X0.850000*%
%ADD33R,0.400000X1.350000*%
%ADD34R,2.900000X1.900000*%
%ADD35RoundRect,0.112500X0.187500X0.112500X-0.187500X0.112500X-0.187500X-0.112500X0.187500X-0.112500X0*%
%ADD36R,2.000000X2.400000*%
%ADD37RoundRect,0.218750X-0.381250X0.218750X-0.381250X-0.218750X0.381250X-0.218750X0.381250X0.218750X0*%
%ADD38RoundRect,0.375000X-0.625000X-0.375000X0.625000X-0.375000X0.625000X0.375000X-0.625000X0.375000X0*%
%ADD39RoundRect,0.500000X-0.500000X-1.400000X0.500000X-1.400000X0.500000X1.400000X-0.500000X1.400000X0*%
%ADD40R,1.800000X1.000000*%
%ADD41RoundRect,0.100000X0.637500X0.100000X-0.637500X0.100000X-0.637500X-0.100000X0.637500X-0.100000X0*%
%ADD42RoundRect,0.225000X0.250000X-0.225000X0.250000X0.225000X-0.250000X0.225000X-0.250000X-0.225000X0*%
%ADD43RoundRect,0.135000X0.185000X-0.135000X0.185000X0.135000X-0.185000X0.135000X-0.185000X-0.135000X0*%
%ADD44RoundRect,0.075000X0.075000X-0.662500X0.075000X0.662500X-0.075000X0.662500X-0.075000X-0.662500X0*%
%ADD45RoundRect,0.075000X0.662500X-0.075000X0.662500X0.075000X-0.662500X0.075000X-0.662500X-0.075000X0*%
%ADD46RoundRect,0.250000X0.650000X-0.325000X0.650000X0.325000X-0.650000X0.325000X-0.650000X-0.325000X0*%
%ADD47RoundRect,0.250000X0.300000X-0.300000X0.300000X0.300000X-0.300000X0.300000X-0.300000X-0.300000X0*%
%ADD48RoundRect,0.218750X-0.256250X0.218750X-0.256250X-0.218750X0.256250X-0.218750X0.256250X0.218750X0*%
%ADD49RoundRect,0.200000X-0.275000X0.200000X-0.275000X-0.200000X0.275000X-0.200000X0.275000X0.200000X0*%
%ADD50RoundRect,0.062500X-0.062500X0.117500X-0.062500X-0.117500X0.062500X-0.117500X0.062500X0.117500X0*%
%ADD51RoundRect,0.200000X0.200000X0.275000X-0.200000X0.275000X-0.200000X-0.275000X0.200000X-0.275000X0*%
G04 APERTURE END LIST*
D10*
%TO.C,U101*%
X101870000Y-108950000D03*
X101870000Y-108300000D03*
X101870000Y-107650000D03*
X101870000Y-107000000D03*
X101870000Y-106350000D03*
X101870000Y-105700000D03*
X101870000Y-105050000D03*
X96130000Y-105050000D03*
X96130000Y-105700000D03*
X96130000Y-106350000D03*
X96130000Y-107000000D03*
X96130000Y-107650000D03*
X96130000Y-108300000D03*
X96130000Y-108950000D03*
%TD*%
D11*
%TO.C,R202*%
X139990000Y-80250000D03*
X141010000Y-80250000D03*
%TD*%
D12*
%TO.C,C106*%
X102000000Y-91000000D03*
X102000000Y-90040000D03*
%TD*%
D13*
%TO.C,R113*%
X96722500Y-58000000D03*
X95702500Y-58000000D03*
%TD*%
%TO.C,R105*%
X96722500Y-98000000D03*
X95702500Y-98000000D03*
%TD*%
D14*
%TO.C,C301*%
X113550000Y-64500000D03*
X115450000Y-64500000D03*
%TD*%
D11*
%TO.C,R301*%
X111990000Y-51500000D03*
X113010000Y-51500000D03*
%TD*%
D12*
%TO.C,C104*%
X102750000Y-102980000D03*
X102750000Y-102020000D03*
%TD*%
D15*
%TO.C,D108*%
X98425000Y-68000000D03*
X100000000Y-68000000D03*
%TD*%
D16*
%TO.C,Q201*%
X144462500Y-55450000D03*
X144462500Y-57350000D03*
X146337500Y-56400000D03*
%TD*%
D13*
%TO.C,R109*%
X96722500Y-78000000D03*
X95702500Y-78000000D03*
%TD*%
D17*
%TO.C,SW201*%
X152200000Y-65925000D03*
X158200000Y-65925000D03*
X152200000Y-69675000D03*
X158200000Y-69675000D03*
%TD*%
D18*
%TO.C,C204*%
X150800000Y-67320000D03*
X150800000Y-68280000D03*
%TD*%
D19*
%TO.C,U302*%
X115637500Y-62450000D03*
X115637500Y-60550000D03*
X113362500Y-61500000D03*
%TD*%
D12*
%TO.C,C102*%
X90500000Y-106480000D03*
X90500000Y-105520000D03*
%TD*%
D20*
%TO.C,C103*%
X90480000Y-101750000D03*
X89520000Y-101750000D03*
%TD*%
%TO.C,C211*%
X137230000Y-64500000D03*
X136270000Y-64500000D03*
%TD*%
D13*
%TO.C,R108*%
X96722500Y-83000000D03*
X95702500Y-83000000D03*
%TD*%
D21*
%TO.C,C215*%
X120922500Y-85000000D03*
X124002500Y-85000000D03*
%TD*%
D13*
%TO.C,R502*%
X90510000Y-119000000D03*
X89490000Y-119000000D03*
%TD*%
D11*
%TO.C,R211*%
X143290000Y-54000000D03*
X144310000Y-54000000D03*
%TD*%
D22*
%TO.C,R203*%
X121500000Y-79712500D03*
X121500000Y-76787500D03*
%TD*%
D15*
%TO.C,D111*%
X98425000Y-53000000D03*
X100000000Y-53000000D03*
%TD*%
D13*
%TO.C,R101*%
X105000000Y-91500000D03*
X103980000Y-91500000D03*
%TD*%
D23*
%TO.C,Q501*%
X94125000Y-119700000D03*
X94125000Y-117800000D03*
X92250000Y-118750000D03*
%TD*%
D15*
%TO.C,D103*%
X98425000Y-93000000D03*
X100000000Y-93000000D03*
%TD*%
D24*
%TO.C,U303*%
X110365000Y-57500000D03*
X109095000Y-57500000D03*
X107825000Y-57500000D03*
X106555000Y-57500000D03*
X106555000Y-62450000D03*
X107825000Y-62450000D03*
X109095000Y-62450000D03*
X110365000Y-62450000D03*
%TD*%
D25*
%TO.C,R102*%
X86000000Y-108925000D03*
X86000000Y-103000000D03*
%TD*%
D26*
%TO.C,R204*%
X133500000Y-74490000D03*
X133500000Y-75510000D03*
%TD*%
D27*
%TO.C,C304*%
X110270000Y-64500000D03*
X111230000Y-64500000D03*
%TD*%
D28*
%TO.C,U102*%
X89050000Y-85862500D03*
X89700000Y-85862500D03*
X90350000Y-85862500D03*
X91000000Y-85862500D03*
X91650000Y-85862500D03*
X92300000Y-85862500D03*
X92950000Y-85862500D03*
X92950000Y-80137500D03*
X92300000Y-80137500D03*
X91650000Y-80137500D03*
X91000000Y-80137500D03*
X90350000Y-80137500D03*
X89700000Y-80137500D03*
X89050000Y-80137500D03*
%TD*%
D29*
%TO.C,R505*%
X127500000Y-105575000D03*
X127500000Y-103925000D03*
%TD*%
D24*
%TO.C,U403*%
X125365000Y-57500000D03*
X124095000Y-57500000D03*
X122825000Y-57500000D03*
X121555000Y-57500000D03*
X121555000Y-62450000D03*
X122825000Y-62450000D03*
X124095000Y-62450000D03*
X125365000Y-62450000D03*
%TD*%
D30*
%TO.C,U202*%
X140620000Y-52812500D03*
X139670000Y-52812500D03*
X138720000Y-52812500D03*
X138720000Y-55087500D03*
X139670000Y-55087500D03*
X140620000Y-55087500D03*
%TD*%
D13*
%TO.C,R106*%
X96722500Y-93000000D03*
X95702500Y-93000000D03*
%TD*%
D31*
%TO.C,Q101*%
X103950000Y-93125000D03*
X102050000Y-93125000D03*
X103000000Y-95000000D03*
%TD*%
D32*
%TO.C,J301*%
X113500000Y-46460000D03*
X106500000Y-46460000D03*
D33*
X108700000Y-49135000D03*
X109350000Y-49135000D03*
X110000000Y-49135000D03*
X110650000Y-49135000D03*
X111300000Y-49135000D03*
D34*
X110000000Y-46460000D03*
%TD*%
D13*
%TO.C,R111*%
X96722500Y-68000000D03*
X95702500Y-68000000D03*
%TD*%
D30*
%TO.C,U301*%
X110620000Y-52812500D03*
X109670000Y-52812500D03*
X108720000Y-52812500D03*
X108720000Y-55087500D03*
X109670000Y-55087500D03*
X110620000Y-55087500D03*
%TD*%
D35*
%TO.C,D202*%
X119350000Y-79750000D03*
X117250000Y-79750000D03*
%TD*%
D36*
%TO.C,Y201*%
X142350000Y-77500000D03*
X138650000Y-77500000D03*
%TD*%
D11*
%TO.C,R501*%
X89490000Y-120500000D03*
X90510000Y-120500000D03*
%TD*%
D13*
%TO.C,R110*%
X96722500Y-73000000D03*
X95702500Y-73000000D03*
%TD*%
D16*
%TO.C,Q502*%
X92250000Y-121350000D03*
X92250000Y-123250000D03*
X94125000Y-122300000D03*
%TD*%
D20*
%TO.C,C101*%
X90480000Y-110250000D03*
X89520000Y-110250000D03*
%TD*%
D37*
%TO.C,FB401*%
X131500000Y-47937500D03*
X131500000Y-50062500D03*
%TD*%
D27*
%TO.C,C403*%
X129020000Y-58750000D03*
X129980000Y-58750000D03*
%TD*%
D11*
%TO.C,R402*%
X129000000Y-56265000D03*
X130020000Y-56265000D03*
%TD*%
D38*
%TO.C,U203*%
X111850000Y-82700000D03*
X111850000Y-85000000D03*
D39*
X118150000Y-85000000D03*
D38*
X111850000Y-87300000D03*
%TD*%
D18*
%TO.C,C206*%
X133500000Y-72520000D03*
X133500000Y-73480000D03*
%TD*%
D40*
%TO.C,Y202*%
X135500000Y-76250000D03*
X135500000Y-73750000D03*
%TD*%
D11*
%TO.C,R212*%
X145490000Y-54000000D03*
X146510000Y-54000000D03*
%TD*%
D41*
%TO.C,U103*%
X90862500Y-63950000D03*
X90862500Y-63300000D03*
X90862500Y-62650000D03*
X90862500Y-62000000D03*
X90862500Y-61350000D03*
X90862500Y-60700000D03*
X90862500Y-60050000D03*
X85137500Y-60050000D03*
X85137500Y-60700000D03*
X85137500Y-61350000D03*
X85137500Y-62000000D03*
X85137500Y-62650000D03*
X85137500Y-63300000D03*
X85137500Y-63950000D03*
%TD*%
D42*
%TO.C,C214*%
X109500000Y-87275000D03*
X109500000Y-85725000D03*
%TD*%
D29*
%TO.C,R210*%
X138540000Y-58575000D03*
X138540000Y-56925000D03*
%TD*%
D11*
%TO.C,R302*%
X114000000Y-56265000D03*
X115020000Y-56265000D03*
%TD*%
D20*
%TO.C,C202*%
X143230000Y-80250000D03*
X142270000Y-80250000D03*
%TD*%
D37*
%TO.C,FB301*%
X116500000Y-47937500D03*
X116500000Y-50062500D03*
%TD*%
D43*
%TO.C,R208*%
X142000000Y-61260000D03*
X142000000Y-60240000D03*
%TD*%
D26*
%TO.C,R503*%
X103750000Y-104990000D03*
X103750000Y-106010000D03*
%TD*%
D27*
%TO.C,C213*%
X142270000Y-74800000D03*
X143230000Y-74800000D03*
%TD*%
D32*
%TO.C,J204*%
X143500000Y-46460000D03*
X136500000Y-46460000D03*
D33*
X138700000Y-49135000D03*
X139350000Y-49135000D03*
X140000000Y-49135000D03*
X140650000Y-49135000D03*
X141300000Y-49135000D03*
D34*
X140000000Y-46460000D03*
%TD*%
D15*
%TO.C,D110*%
X98425000Y-58000000D03*
X100000000Y-58000000D03*
%TD*%
D44*
%TO.C,U201*%
X138250000Y-73162500D03*
X138750000Y-73162500D03*
X139250000Y-73162500D03*
X139750000Y-73162500D03*
X140250000Y-73162500D03*
X140750000Y-73162500D03*
X141250000Y-73162500D03*
X141750000Y-73162500D03*
X142250000Y-73162500D03*
X142750000Y-73162500D03*
X143250000Y-73162500D03*
X143750000Y-73162500D03*
D45*
X145162500Y-71750000D03*
X145162500Y-71250000D03*
X145162500Y-70750000D03*
X145162500Y-70250000D03*
X145162500Y-69750000D03*
X145162500Y-69250000D03*
X145162500Y-68750000D03*
X145162500Y-68250000D03*
X145162500Y-67750000D03*
X145162500Y-67250000D03*
X145162500Y-66750000D03*
X145162500Y-66250000D03*
D44*
X143750000Y-64837500D03*
X143250000Y-64837500D03*
X142750000Y-64837500D03*
X142250000Y-64837500D03*
X141750000Y-64837500D03*
X141250000Y-64837500D03*
X140750000Y-64837500D03*
X140250000Y-64837500D03*
X139750000Y-64837500D03*
X139250000Y-64837500D03*
X138750000Y-64837500D03*
X138250000Y-64837500D03*
D45*
X136837500Y-66250000D03*
X136837500Y-66750000D03*
X136837500Y-67250000D03*
X136837500Y-67750000D03*
X136837500Y-68250000D03*
X136837500Y-68750000D03*
X136837500Y-69250000D03*
X136837500Y-69750000D03*
X136837500Y-70250000D03*
X136837500Y-70750000D03*
X136837500Y-71250000D03*
X136837500Y-71750000D03*
%TD*%
D15*
%TO.C,D107*%
X98425000Y-73000000D03*
X100000000Y-73000000D03*
%TD*%
D46*
%TO.C,C501*%
X125750000Y-97475000D03*
X125750000Y-94525000D03*
%TD*%
D15*
%TO.C,D106*%
X98425000Y-78000000D03*
X100000000Y-78000000D03*
%TD*%
D12*
%TO.C,C212*%
X135000000Y-72230000D03*
X135000000Y-71270000D03*
%TD*%
D27*
%TO.C,C303*%
X114020000Y-58750000D03*
X114980000Y-58750000D03*
%TD*%
D15*
%TO.C,D104*%
X98425000Y-88000000D03*
X100000000Y-88000000D03*
%TD*%
D17*
%TO.C,SW501*%
X98500000Y-119625000D03*
X104500000Y-119625000D03*
X98500000Y-123375000D03*
X104500000Y-123375000D03*
%TD*%
D29*
%TO.C,R506*%
X127500000Y-102075000D03*
X127500000Y-100425000D03*
%TD*%
D47*
%TO.C,D101*%
X104000000Y-89985000D03*
X104000000Y-87185000D03*
%TD*%
D13*
%TO.C,R201*%
X134110000Y-68000000D03*
X133090000Y-68000000D03*
%TD*%
D48*
%TO.C,D301*%
X115010000Y-52957500D03*
X115010000Y-54532500D03*
%TD*%
D19*
%TO.C,U402*%
X130637500Y-62450000D03*
X130637500Y-60550000D03*
X128362500Y-61500000D03*
%TD*%
D27*
%TO.C,C201*%
X137770000Y-80250000D03*
X138730000Y-80250000D03*
%TD*%
D12*
%TO.C,C207*%
X133500000Y-77480000D03*
X133500000Y-76520000D03*
%TD*%
D15*
%TO.C,D102*%
X98425000Y-98000000D03*
X100000000Y-98000000D03*
%TD*%
D49*
%TO.C,R507*%
X122250000Y-96175000D03*
X122250000Y-97825000D03*
%TD*%
D27*
%TO.C,C210*%
X145520000Y-65000000D03*
X146480000Y-65000000D03*
%TD*%
D15*
%TO.C,D109*%
X98425000Y-63000000D03*
X100000000Y-63000000D03*
%TD*%
D27*
%TO.C,C302*%
X114020000Y-57500000D03*
X114980000Y-57500000D03*
%TD*%
D13*
%TO.C,R207*%
X115710000Y-90600000D03*
X114690000Y-90600000D03*
%TD*%
D11*
%TO.C,R103*%
X89490000Y-109000000D03*
X90510000Y-109000000D03*
%TD*%
D13*
%TO.C,R206*%
X114710000Y-89400000D03*
X113690000Y-89400000D03*
%TD*%
D11*
%TO.C,R213*%
X141990000Y-51500000D03*
X143010000Y-51500000D03*
%TD*%
D32*
%TO.C,J401*%
X128500000Y-46460000D03*
X121500000Y-46460000D03*
D33*
X123700000Y-49135000D03*
X124350000Y-49135000D03*
X125000000Y-49135000D03*
X125650000Y-49135000D03*
X126300000Y-49135000D03*
D34*
X125000000Y-46460000D03*
%TD*%
D14*
%TO.C,C401*%
X128550000Y-64500000D03*
X130450000Y-64500000D03*
%TD*%
D12*
%TO.C,C105*%
X101500000Y-102980000D03*
X101500000Y-102020000D03*
%TD*%
D27*
%TO.C,C404*%
X125270000Y-64500000D03*
X126230000Y-64500000D03*
%TD*%
D26*
%TO.C,R205*%
X147600000Y-66890000D03*
X147600000Y-67910000D03*
%TD*%
D50*
%TO.C,D201*%
X149600000Y-68220000D03*
X149600000Y-67380000D03*
%TD*%
D11*
%TO.C,R401*%
X126990000Y-51500000D03*
X128010000Y-51500000D03*
%TD*%
D29*
%TO.C,R209*%
X140800000Y-58575000D03*
X140800000Y-56925000D03*
%TD*%
D11*
%TO.C,R104*%
X89490000Y-103000000D03*
X90510000Y-103000000D03*
%TD*%
D27*
%TO.C,C402*%
X129020000Y-57500000D03*
X129980000Y-57500000D03*
%TD*%
%TO.C,C203*%
X121520000Y-81250000D03*
X122480000Y-81250000D03*
%TD*%
D13*
%TO.C,R112*%
X96722500Y-63000000D03*
X95702500Y-63000000D03*
%TD*%
D37*
%TO.C,FB201*%
X146500000Y-47937500D03*
X146500000Y-50062500D03*
%TD*%
D13*
%TO.C,R114*%
X96722500Y-53000000D03*
X95702500Y-53000000D03*
%TD*%
D15*
%TO.C,D105*%
X98425000Y-83000000D03*
X100000000Y-83000000D03*
%TD*%
D48*
%TO.C,D401*%
X130010000Y-52957500D03*
X130010000Y-54532500D03*
%TD*%
D30*
%TO.C,U401*%
X125620000Y-52812500D03*
X124670000Y-52812500D03*
X123720000Y-52812500D03*
X123720000Y-55087500D03*
X124670000Y-55087500D03*
X125620000Y-55087500D03*
%TD*%
D13*
%TO.C,R107*%
X96722500Y-88000000D03*
X95702500Y-88000000D03*
%TD*%
D27*
%TO.C,C216*%
X121982500Y-87500000D03*
X122942500Y-87500000D03*
%TD*%
D51*
%TO.C,R504*%
X129075000Y-107250000D03*
X127425000Y-107250000D03*
%TD*%
M02*
