%TF.GenerationSoftware,KiCad,Pcbnew,8.0.2+dfsg-1*%
%TF.CreationDate,2024-05-23T10:42:42+00:00*%
%TF.ProjectId,akkupack-ng,616b6b75-7061-4636-9b2d-6e672e6b6963,rev?*%
%TF.SameCoordinates,Original*%
%TF.FileFunction,OtherDrawing,Comment*%
%FSLAX46Y46*%
G04 Gerber Fmt 4.6, Leading zero omitted, Abs format (unit mm)*
G04 Created by KiCad (PCBNEW 8.0.2+dfsg-1) date 2024-05-23 10:42:42*
%MOMM*%
%LPD*%
G01*
G04 APERTURE LIST*
%ADD10C,0.040000*%
G04 APERTURE END LIST*
D10*
X108628571Y-45192967D02*
X108628571Y-44792967D01*
X108628571Y-44792967D02*
X108780952Y-44792967D01*
X108780952Y-44792967D02*
X108819047Y-44812015D01*
X108819047Y-44812015D02*
X108838094Y-44831062D01*
X108838094Y-44831062D02*
X108857142Y-44869158D01*
X108857142Y-44869158D02*
X108857142Y-44926300D01*
X108857142Y-44926300D02*
X108838094Y-44964396D01*
X108838094Y-44964396D02*
X108819047Y-44983443D01*
X108819047Y-44983443D02*
X108780952Y-45002491D01*
X108780952Y-45002491D02*
X108628571Y-45002491D01*
X109257142Y-45154872D02*
X109238094Y-45173920D01*
X109238094Y-45173920D02*
X109180952Y-45192967D01*
X109180952Y-45192967D02*
X109142856Y-45192967D01*
X109142856Y-45192967D02*
X109085713Y-45173920D01*
X109085713Y-45173920D02*
X109047618Y-45135824D01*
X109047618Y-45135824D02*
X109028571Y-45097729D01*
X109028571Y-45097729D02*
X109009523Y-45021539D01*
X109009523Y-45021539D02*
X109009523Y-44964396D01*
X109009523Y-44964396D02*
X109028571Y-44888205D01*
X109028571Y-44888205D02*
X109047618Y-44850110D01*
X109047618Y-44850110D02*
X109085713Y-44812015D01*
X109085713Y-44812015D02*
X109142856Y-44792967D01*
X109142856Y-44792967D02*
X109180952Y-44792967D01*
X109180952Y-44792967D02*
X109238094Y-44812015D01*
X109238094Y-44812015D02*
X109257142Y-44831062D01*
X109561904Y-44983443D02*
X109619047Y-45002491D01*
X109619047Y-45002491D02*
X109638094Y-45021539D01*
X109638094Y-45021539D02*
X109657142Y-45059634D01*
X109657142Y-45059634D02*
X109657142Y-45116777D01*
X109657142Y-45116777D02*
X109638094Y-45154872D01*
X109638094Y-45154872D02*
X109619047Y-45173920D01*
X109619047Y-45173920D02*
X109580952Y-45192967D01*
X109580952Y-45192967D02*
X109428571Y-45192967D01*
X109428571Y-45192967D02*
X109428571Y-44792967D01*
X109428571Y-44792967D02*
X109561904Y-44792967D01*
X109561904Y-44792967D02*
X109599999Y-44812015D01*
X109599999Y-44812015D02*
X109619047Y-44831062D01*
X109619047Y-44831062D02*
X109638094Y-44869158D01*
X109638094Y-44869158D02*
X109638094Y-44907253D01*
X109638094Y-44907253D02*
X109619047Y-44945348D01*
X109619047Y-44945348D02*
X109599999Y-44964396D01*
X109599999Y-44964396D02*
X109561904Y-44983443D01*
X109561904Y-44983443D02*
X109428571Y-44983443D01*
X110133333Y-44983443D02*
X110266666Y-44983443D01*
X110323809Y-45192967D02*
X110133333Y-45192967D01*
X110133333Y-45192967D02*
X110133333Y-44792967D01*
X110133333Y-44792967D02*
X110323809Y-44792967D01*
X110666666Y-45192967D02*
X110666666Y-44792967D01*
X110666666Y-45173920D02*
X110628571Y-45192967D01*
X110628571Y-45192967D02*
X110552380Y-45192967D01*
X110552380Y-45192967D02*
X110514285Y-45173920D01*
X110514285Y-45173920D02*
X110495238Y-45154872D01*
X110495238Y-45154872D02*
X110476190Y-45116777D01*
X110476190Y-45116777D02*
X110476190Y-45002491D01*
X110476190Y-45002491D02*
X110495238Y-44964396D01*
X110495238Y-44964396D02*
X110514285Y-44945348D01*
X110514285Y-44945348D02*
X110552380Y-44926300D01*
X110552380Y-44926300D02*
X110628571Y-44926300D01*
X110628571Y-44926300D02*
X110666666Y-44945348D01*
X111028571Y-44926300D02*
X111028571Y-45250110D01*
X111028571Y-45250110D02*
X111009524Y-45288205D01*
X111009524Y-45288205D02*
X110990476Y-45307253D01*
X110990476Y-45307253D02*
X110952381Y-45326300D01*
X110952381Y-45326300D02*
X110895238Y-45326300D01*
X110895238Y-45326300D02*
X110857143Y-45307253D01*
X111028571Y-45173920D02*
X110990476Y-45192967D01*
X110990476Y-45192967D02*
X110914285Y-45192967D01*
X110914285Y-45192967D02*
X110876190Y-45173920D01*
X110876190Y-45173920D02*
X110857143Y-45154872D01*
X110857143Y-45154872D02*
X110838095Y-45116777D01*
X110838095Y-45116777D02*
X110838095Y-45002491D01*
X110838095Y-45002491D02*
X110857143Y-44964396D01*
X110857143Y-44964396D02*
X110876190Y-44945348D01*
X110876190Y-44945348D02*
X110914285Y-44926300D01*
X110914285Y-44926300D02*
X110990476Y-44926300D01*
X110990476Y-44926300D02*
X111028571Y-44945348D01*
X111371429Y-45173920D02*
X111333333Y-45192967D01*
X111333333Y-45192967D02*
X111257143Y-45192967D01*
X111257143Y-45192967D02*
X111219048Y-45173920D01*
X111219048Y-45173920D02*
X111200000Y-45135824D01*
X111200000Y-45135824D02*
X111200000Y-44983443D01*
X111200000Y-44983443D02*
X111219048Y-44945348D01*
X111219048Y-44945348D02*
X111257143Y-44926300D01*
X111257143Y-44926300D02*
X111333333Y-44926300D01*
X111333333Y-44926300D02*
X111371429Y-44945348D01*
X111371429Y-44945348D02*
X111390476Y-44983443D01*
X111390476Y-44983443D02*
X111390476Y-45021539D01*
X111390476Y-45021539D02*
X111200000Y-45059634D01*
X138628571Y-45192967D02*
X138628571Y-44792967D01*
X138628571Y-44792967D02*
X138780952Y-44792967D01*
X138780952Y-44792967D02*
X138819047Y-44812015D01*
X138819047Y-44812015D02*
X138838094Y-44831062D01*
X138838094Y-44831062D02*
X138857142Y-44869158D01*
X138857142Y-44869158D02*
X138857142Y-44926300D01*
X138857142Y-44926300D02*
X138838094Y-44964396D01*
X138838094Y-44964396D02*
X138819047Y-44983443D01*
X138819047Y-44983443D02*
X138780952Y-45002491D01*
X138780952Y-45002491D02*
X138628571Y-45002491D01*
X139257142Y-45154872D02*
X139238094Y-45173920D01*
X139238094Y-45173920D02*
X139180952Y-45192967D01*
X139180952Y-45192967D02*
X139142856Y-45192967D01*
X139142856Y-45192967D02*
X139085713Y-45173920D01*
X139085713Y-45173920D02*
X139047618Y-45135824D01*
X139047618Y-45135824D02*
X139028571Y-45097729D01*
X139028571Y-45097729D02*
X139009523Y-45021539D01*
X139009523Y-45021539D02*
X139009523Y-44964396D01*
X139009523Y-44964396D02*
X139028571Y-44888205D01*
X139028571Y-44888205D02*
X139047618Y-44850110D01*
X139047618Y-44850110D02*
X139085713Y-44812015D01*
X139085713Y-44812015D02*
X139142856Y-44792967D01*
X139142856Y-44792967D02*
X139180952Y-44792967D01*
X139180952Y-44792967D02*
X139238094Y-44812015D01*
X139238094Y-44812015D02*
X139257142Y-44831062D01*
X139561904Y-44983443D02*
X139619047Y-45002491D01*
X139619047Y-45002491D02*
X139638094Y-45021539D01*
X139638094Y-45021539D02*
X139657142Y-45059634D01*
X139657142Y-45059634D02*
X139657142Y-45116777D01*
X139657142Y-45116777D02*
X139638094Y-45154872D01*
X139638094Y-45154872D02*
X139619047Y-45173920D01*
X139619047Y-45173920D02*
X139580952Y-45192967D01*
X139580952Y-45192967D02*
X139428571Y-45192967D01*
X139428571Y-45192967D02*
X139428571Y-44792967D01*
X139428571Y-44792967D02*
X139561904Y-44792967D01*
X139561904Y-44792967D02*
X139599999Y-44812015D01*
X139599999Y-44812015D02*
X139619047Y-44831062D01*
X139619047Y-44831062D02*
X139638094Y-44869158D01*
X139638094Y-44869158D02*
X139638094Y-44907253D01*
X139638094Y-44907253D02*
X139619047Y-44945348D01*
X139619047Y-44945348D02*
X139599999Y-44964396D01*
X139599999Y-44964396D02*
X139561904Y-44983443D01*
X139561904Y-44983443D02*
X139428571Y-44983443D01*
X140133333Y-44983443D02*
X140266666Y-44983443D01*
X140323809Y-45192967D02*
X140133333Y-45192967D01*
X140133333Y-45192967D02*
X140133333Y-44792967D01*
X140133333Y-44792967D02*
X140323809Y-44792967D01*
X140666666Y-45192967D02*
X140666666Y-44792967D01*
X140666666Y-45173920D02*
X140628571Y-45192967D01*
X140628571Y-45192967D02*
X140552380Y-45192967D01*
X140552380Y-45192967D02*
X140514285Y-45173920D01*
X140514285Y-45173920D02*
X140495238Y-45154872D01*
X140495238Y-45154872D02*
X140476190Y-45116777D01*
X140476190Y-45116777D02*
X140476190Y-45002491D01*
X140476190Y-45002491D02*
X140495238Y-44964396D01*
X140495238Y-44964396D02*
X140514285Y-44945348D01*
X140514285Y-44945348D02*
X140552380Y-44926300D01*
X140552380Y-44926300D02*
X140628571Y-44926300D01*
X140628571Y-44926300D02*
X140666666Y-44945348D01*
X141028571Y-44926300D02*
X141028571Y-45250110D01*
X141028571Y-45250110D02*
X141009524Y-45288205D01*
X141009524Y-45288205D02*
X140990476Y-45307253D01*
X140990476Y-45307253D02*
X140952381Y-45326300D01*
X140952381Y-45326300D02*
X140895238Y-45326300D01*
X140895238Y-45326300D02*
X140857143Y-45307253D01*
X141028571Y-45173920D02*
X140990476Y-45192967D01*
X140990476Y-45192967D02*
X140914285Y-45192967D01*
X140914285Y-45192967D02*
X140876190Y-45173920D01*
X140876190Y-45173920D02*
X140857143Y-45154872D01*
X140857143Y-45154872D02*
X140838095Y-45116777D01*
X140838095Y-45116777D02*
X140838095Y-45002491D01*
X140838095Y-45002491D02*
X140857143Y-44964396D01*
X140857143Y-44964396D02*
X140876190Y-44945348D01*
X140876190Y-44945348D02*
X140914285Y-44926300D01*
X140914285Y-44926300D02*
X140990476Y-44926300D01*
X140990476Y-44926300D02*
X141028571Y-44945348D01*
X141371429Y-45173920D02*
X141333333Y-45192967D01*
X141333333Y-45192967D02*
X141257143Y-45192967D01*
X141257143Y-45192967D02*
X141219048Y-45173920D01*
X141219048Y-45173920D02*
X141200000Y-45135824D01*
X141200000Y-45135824D02*
X141200000Y-44983443D01*
X141200000Y-44983443D02*
X141219048Y-44945348D01*
X141219048Y-44945348D02*
X141257143Y-44926300D01*
X141257143Y-44926300D02*
X141333333Y-44926300D01*
X141333333Y-44926300D02*
X141371429Y-44945348D01*
X141371429Y-44945348D02*
X141390476Y-44983443D01*
X141390476Y-44983443D02*
X141390476Y-45021539D01*
X141390476Y-45021539D02*
X141200000Y-45059634D01*
X123628571Y-45192967D02*
X123628571Y-44792967D01*
X123628571Y-44792967D02*
X123780952Y-44792967D01*
X123780952Y-44792967D02*
X123819047Y-44812015D01*
X123819047Y-44812015D02*
X123838094Y-44831062D01*
X123838094Y-44831062D02*
X123857142Y-44869158D01*
X123857142Y-44869158D02*
X123857142Y-44926300D01*
X123857142Y-44926300D02*
X123838094Y-44964396D01*
X123838094Y-44964396D02*
X123819047Y-44983443D01*
X123819047Y-44983443D02*
X123780952Y-45002491D01*
X123780952Y-45002491D02*
X123628571Y-45002491D01*
X124257142Y-45154872D02*
X124238094Y-45173920D01*
X124238094Y-45173920D02*
X124180952Y-45192967D01*
X124180952Y-45192967D02*
X124142856Y-45192967D01*
X124142856Y-45192967D02*
X124085713Y-45173920D01*
X124085713Y-45173920D02*
X124047618Y-45135824D01*
X124047618Y-45135824D02*
X124028571Y-45097729D01*
X124028571Y-45097729D02*
X124009523Y-45021539D01*
X124009523Y-45021539D02*
X124009523Y-44964396D01*
X124009523Y-44964396D02*
X124028571Y-44888205D01*
X124028571Y-44888205D02*
X124047618Y-44850110D01*
X124047618Y-44850110D02*
X124085713Y-44812015D01*
X124085713Y-44812015D02*
X124142856Y-44792967D01*
X124142856Y-44792967D02*
X124180952Y-44792967D01*
X124180952Y-44792967D02*
X124238094Y-44812015D01*
X124238094Y-44812015D02*
X124257142Y-44831062D01*
X124561904Y-44983443D02*
X124619047Y-45002491D01*
X124619047Y-45002491D02*
X124638094Y-45021539D01*
X124638094Y-45021539D02*
X124657142Y-45059634D01*
X124657142Y-45059634D02*
X124657142Y-45116777D01*
X124657142Y-45116777D02*
X124638094Y-45154872D01*
X124638094Y-45154872D02*
X124619047Y-45173920D01*
X124619047Y-45173920D02*
X124580952Y-45192967D01*
X124580952Y-45192967D02*
X124428571Y-45192967D01*
X124428571Y-45192967D02*
X124428571Y-44792967D01*
X124428571Y-44792967D02*
X124561904Y-44792967D01*
X124561904Y-44792967D02*
X124599999Y-44812015D01*
X124599999Y-44812015D02*
X124619047Y-44831062D01*
X124619047Y-44831062D02*
X124638094Y-44869158D01*
X124638094Y-44869158D02*
X124638094Y-44907253D01*
X124638094Y-44907253D02*
X124619047Y-44945348D01*
X124619047Y-44945348D02*
X124599999Y-44964396D01*
X124599999Y-44964396D02*
X124561904Y-44983443D01*
X124561904Y-44983443D02*
X124428571Y-44983443D01*
X125133333Y-44983443D02*
X125266666Y-44983443D01*
X125323809Y-45192967D02*
X125133333Y-45192967D01*
X125133333Y-45192967D02*
X125133333Y-44792967D01*
X125133333Y-44792967D02*
X125323809Y-44792967D01*
X125666666Y-45192967D02*
X125666666Y-44792967D01*
X125666666Y-45173920D02*
X125628571Y-45192967D01*
X125628571Y-45192967D02*
X125552380Y-45192967D01*
X125552380Y-45192967D02*
X125514285Y-45173920D01*
X125514285Y-45173920D02*
X125495238Y-45154872D01*
X125495238Y-45154872D02*
X125476190Y-45116777D01*
X125476190Y-45116777D02*
X125476190Y-45002491D01*
X125476190Y-45002491D02*
X125495238Y-44964396D01*
X125495238Y-44964396D02*
X125514285Y-44945348D01*
X125514285Y-44945348D02*
X125552380Y-44926300D01*
X125552380Y-44926300D02*
X125628571Y-44926300D01*
X125628571Y-44926300D02*
X125666666Y-44945348D01*
X126028571Y-44926300D02*
X126028571Y-45250110D01*
X126028571Y-45250110D02*
X126009524Y-45288205D01*
X126009524Y-45288205D02*
X125990476Y-45307253D01*
X125990476Y-45307253D02*
X125952381Y-45326300D01*
X125952381Y-45326300D02*
X125895238Y-45326300D01*
X125895238Y-45326300D02*
X125857143Y-45307253D01*
X126028571Y-45173920D02*
X125990476Y-45192967D01*
X125990476Y-45192967D02*
X125914285Y-45192967D01*
X125914285Y-45192967D02*
X125876190Y-45173920D01*
X125876190Y-45173920D02*
X125857143Y-45154872D01*
X125857143Y-45154872D02*
X125838095Y-45116777D01*
X125838095Y-45116777D02*
X125838095Y-45002491D01*
X125838095Y-45002491D02*
X125857143Y-44964396D01*
X125857143Y-44964396D02*
X125876190Y-44945348D01*
X125876190Y-44945348D02*
X125914285Y-44926300D01*
X125914285Y-44926300D02*
X125990476Y-44926300D01*
X125990476Y-44926300D02*
X126028571Y-44945348D01*
X126371429Y-45173920D02*
X126333333Y-45192967D01*
X126333333Y-45192967D02*
X126257143Y-45192967D01*
X126257143Y-45192967D02*
X126219048Y-45173920D01*
X126219048Y-45173920D02*
X126200000Y-45135824D01*
X126200000Y-45135824D02*
X126200000Y-44983443D01*
X126200000Y-44983443D02*
X126219048Y-44945348D01*
X126219048Y-44945348D02*
X126257143Y-44926300D01*
X126257143Y-44926300D02*
X126333333Y-44926300D01*
X126333333Y-44926300D02*
X126371429Y-44945348D01*
X126371429Y-44945348D02*
X126390476Y-44983443D01*
X126390476Y-44983443D02*
X126390476Y-45021539D01*
X126390476Y-45021539D02*
X126200000Y-45059634D01*
M02*
