%TF.GenerationSoftware,KiCad,Pcbnew,8.0.2+dfsg-1*%
%TF.CreationDate,2024-05-23T10:42:42+00:00*%
%TF.ProjectId,akkupack-ng,616b6b75-7061-4636-9b2d-6e672e6b6963,rev?*%
%TF.SameCoordinates,Original*%
%TF.FileFunction,Copper,L4,Bot*%
%TF.FilePolarity,Positive*%
%FSLAX46Y46*%
G04 Gerber Fmt 4.6, Leading zero omitted, Abs format (unit mm)*
G04 Created by KiCad (PCBNEW 8.0.2+dfsg-1) date 2024-05-23 10:42:42*
%MOMM*%
%LPD*%
G01*
G04 APERTURE LIST*
G04 Aperture macros list*
%AMRoundRect*
0 Rectangle with rounded corners*
0 $1 Rounding radius*
0 $2 $3 $4 $5 $6 $7 $8 $9 X,Y pos of 4 corners*
0 Add a 4 corners polygon primitive as box body*
4,1,4,$2,$3,$4,$5,$6,$7,$8,$9,$2,$3,0*
0 Add four circle primitives for the rounded corners*
1,1,$1+$1,$2,$3*
1,1,$1+$1,$4,$5*
1,1,$1+$1,$6,$7*
1,1,$1+$1,$8,$9*
0 Add four rect primitives between the rounded corners*
20,1,$1+$1,$2,$3,$4,$5,0*
20,1,$1+$1,$4,$5,$6,$7,0*
20,1,$1+$1,$6,$7,$8,$9,0*
20,1,$1+$1,$8,$9,$2,$3,0*%
G04 Aperture macros list end*
%TA.AperFunction,ComponentPad*%
%ADD10R,2.413000X2.413000*%
%TD*%
%TA.AperFunction,ComponentPad*%
%ADD11C,2.413000*%
%TD*%
%TA.AperFunction,ComponentPad*%
%ADD12R,1.700000X1.700000*%
%TD*%
%TA.AperFunction,ComponentPad*%
%ADD13O,1.700000X1.700000*%
%TD*%
%TA.AperFunction,ComponentPad*%
%ADD14C,6.400000*%
%TD*%
%TA.AperFunction,ComponentPad*%
%ADD15R,1.500000X3.000000*%
%TD*%
%TA.AperFunction,ComponentPad*%
%ADD16O,1.500000X3.000000*%
%TD*%
%TA.AperFunction,HeatsinkPad*%
%ADD17O,1.000000X1.900000*%
%TD*%
%TA.AperFunction,HeatsinkPad*%
%ADD18O,1.050000X1.250000*%
%TD*%
%TA.AperFunction,ComponentPad*%
%ADD19C,2.000000*%
%TD*%
%TA.AperFunction,ComponentPad*%
%ADD20R,1.600000X1.600000*%
%TD*%
%TA.AperFunction,ComponentPad*%
%ADD21C,1.600000*%
%TD*%
%TA.AperFunction,ComponentPad*%
%ADD22RoundRect,0.250000X-0.600000X-0.750000X0.600000X-0.750000X0.600000X0.750000X-0.600000X0.750000X0*%
%TD*%
%TA.AperFunction,ComponentPad*%
%ADD23O,1.700000X2.000000*%
%TD*%
%TA.AperFunction,ViaPad*%
%ADD24C,0.600000*%
%TD*%
%TA.AperFunction,Conductor*%
%ADD25C,0.200000*%
%TD*%
%TA.AperFunction,Conductor*%
%ADD26C,3.000000*%
%TD*%
%TA.AperFunction,Conductor*%
%ADD27C,1.000000*%
%TD*%
%TA.AperFunction,Conductor*%
%ADD28C,0.500000*%
%TD*%
%TA.AperFunction,Conductor*%
%ADD29C,0.400000*%
%TD*%
G04 APERTURE END LIST*
D10*
%TO.P,J106,1*%
%TO.N,Net-(F102-Pad2)*%
X72500000Y-61000000D03*
D11*
%TO.P,J106,2*%
X60000000Y-61000000D03*
%TO.P,J106,3*%
%TO.N,GND*%
X72500000Y-68500000D03*
%TO.P,J106,4*%
X60000000Y-68500000D03*
%TD*%
D12*
%TO.P,J203,1,Pin_1*%
%TO.N,+3V3*%
X152000000Y-87000000D03*
D13*
%TO.P,J203,2,Pin_2*%
%TO.N,/MCU/~{CS}*%
X152000000Y-89540000D03*
%TO.P,J203,3,Pin_3*%
%TO.N,/MCU/SCK*%
X152000000Y-92080000D03*
%TO.P,J203,4,Pin_4*%
%TO.N,/MCU/MISO*%
X152000000Y-94620000D03*
%TO.P,J203,5,Pin_5*%
%TO.N,/MCU/MOSI*%
X152000000Y-97160000D03*
%TO.P,J203,6,Pin_6*%
%TO.N,GND*%
X152000000Y-99700000D03*
%TD*%
D12*
%TO.P,J201,1,Pin_1*%
%TO.N,+3V3*%
X156000000Y-87000000D03*
D13*
%TO.P,J201,2,Pin_2*%
%TO.N,GND*%
X156000000Y-89540000D03*
%TO.P,J201,3,Pin_3*%
%TO.N,/MCU/SCK*%
X156000000Y-92080000D03*
%TO.P,J201,4,Pin_4*%
%TO.N,/MCU/MOSI*%
X156000000Y-94620000D03*
%TO.P,J201,5,Pin_5*%
%TO.N,/MCU/DC*%
X156000000Y-97160000D03*
%TO.P,J201,6,Pin_6*%
%TO.N,/MCU/~{CS}*%
X156000000Y-99700000D03*
%TO.P,J201,7,Pin_7*%
%TO.N,/MCU/~{DISPRST}*%
X156000000Y-102240000D03*
%TD*%
D14*
%TO.P,H106,1,1*%
%TO.N,GND*%
X155000000Y-120000000D03*
%TD*%
D15*
%TO.P,J101,1,Pin_1*%
%TO.N,+12V*%
X110000000Y-115000000D03*
X110000000Y-120000000D03*
D16*
%TO.P,J101,2,Pin_2*%
%TO.N,GND*%
X115000000Y-115000000D03*
X115000000Y-120000000D03*
%TD*%
D17*
%TO.P,J301,6,Shield*%
%TO.N,Net-(J301-Shield)*%
X114175000Y-46460000D03*
D18*
X112225000Y-49460000D03*
X107775000Y-49460000D03*
D17*
X105825000Y-46460000D03*
%TD*%
D15*
%TO.P,J103,1,Pin_1*%
%TO.N,Net-(J102-Pin_1)*%
X138700000Y-115000000D03*
X138700000Y-120000000D03*
D16*
%TO.P,J103,2,Pin_2*%
%TO.N,Net-(J102-Pin_2)*%
X143700000Y-115000000D03*
X143700000Y-120000000D03*
%TD*%
D19*
%TO.P,F102,1*%
%TO.N,Net-(F101-Pad2)*%
X85500000Y-76500000D03*
%TO.P,F102,2*%
%TO.N,Net-(F102-Pad2)*%
X86500000Y-71500000D03*
%TD*%
D14*
%TO.P,H101,1,1*%
%TO.N,GND*%
X87500000Y-55000000D03*
%TD*%
D20*
%TO.P,C209,1*%
%TO.N,/MCU/Vbat*%
X106500000Y-71750000D03*
D21*
%TO.P,C209,2*%
%TO.N,GND*%
X106500000Y-75250000D03*
%TD*%
D10*
%TO.P,J105,1*%
%TO.N,Net-(F101-Pad2)*%
X72500000Y-81500000D03*
D11*
%TO.P,J105,2*%
X60000000Y-81500000D03*
%TO.P,J105,3*%
%TO.N,GND*%
X72500000Y-89000000D03*
%TO.P,J105,4*%
X60000000Y-89000000D03*
%TD*%
D10*
%TO.P,J104,1*%
%TO.N,+12V*%
X72500000Y-102000000D03*
D11*
%TO.P,J104,2*%
X60000000Y-102000000D03*
%TO.P,J104,3*%
%TO.N,Net-(J104-Pad3)*%
X72500000Y-109500000D03*
%TO.P,J104,4*%
X60000000Y-109500000D03*
%TD*%
D14*
%TO.P,H104,1,1*%
%TO.N,GND*%
X55500000Y-120000000D03*
%TD*%
%TO.P,H102,1,1*%
%TO.N,GND*%
X87500000Y-114500000D03*
%TD*%
D19*
%TO.P,F101,1*%
%TO.N,+12V*%
X85500000Y-95500000D03*
%TO.P,F101,2*%
%TO.N,Net-(F101-Pad2)*%
X86500000Y-90500000D03*
%TD*%
D15*
%TO.P,J102,1,Pin_1*%
%TO.N,Net-(J102-Pin_1)*%
X124350000Y-115000000D03*
X124350000Y-120000000D03*
D16*
%TO.P,J102,2,Pin_2*%
%TO.N,Net-(J102-Pin_2)*%
X129350000Y-115000000D03*
X129350000Y-120000000D03*
%TD*%
D14*
%TO.P,H105,1,1*%
%TO.N,GND*%
X155000000Y-50000000D03*
%TD*%
D20*
%TO.P,C208,1*%
%TO.N,/MCU/Vbat*%
X116500000Y-71750000D03*
D21*
%TO.P,C208,2*%
%TO.N,GND*%
X116500000Y-75250000D03*
%TD*%
D15*
%TO.P,J108,1,Pin_1*%
%TO.N,+2V5*%
X110000500Y-97500000D03*
X110000500Y-102500000D03*
D16*
%TO.P,J108,2,Pin_2*%
%TO.N,Net-(J108-Pin_2)*%
X115000500Y-97500000D03*
X115000500Y-102500000D03*
%TD*%
D17*
%TO.P,J204,6,Shield*%
%TO.N,Net-(J204-Shield)*%
X144175000Y-46460000D03*
D18*
X142225000Y-49460000D03*
X137775000Y-49460000D03*
D17*
X135825000Y-46460000D03*
%TD*%
D20*
%TO.P,C205,1*%
%TO.N,/MCU/Vbat*%
X126500000Y-71750000D03*
D21*
%TO.P,C205,2*%
%TO.N,GND*%
X126500000Y-75250000D03*
%TD*%
D14*
%TO.P,H103,1,1*%
%TO.N,GND*%
X55000000Y-50000000D03*
%TD*%
D22*
%TO.P,J107,1,Pin_1*%
%TO.N,Net-(J107-Pin_1)*%
X100000000Y-120725000D03*
D23*
%TO.P,J107,2,Pin_2*%
%TO.N,Net-(J107-Pin_2)*%
X102500000Y-120725000D03*
%TD*%
D17*
%TO.P,J401,6,Shield*%
%TO.N,Net-(J401-Shield)*%
X129175000Y-46460000D03*
D18*
X127225000Y-49460000D03*
X122775000Y-49460000D03*
D17*
X120825000Y-46460000D03*
%TD*%
D24*
%TO.N,+2V5*%
X97500000Y-120000000D03*
%TO.N,GND*%
X98800000Y-89600000D03*
X138300000Y-68700000D03*
X94000000Y-62400000D03*
X94600000Y-66600000D03*
X91400000Y-96400000D03*
X98700000Y-84600000D03*
X91800000Y-91600000D03*
X98600000Y-95200000D03*
X94400000Y-87000000D03*
X94400000Y-76800000D03*
X96400000Y-56400000D03*
X98600000Y-100000000D03*
X94400000Y-72000000D03*
X95600000Y-91000000D03*
X98800000Y-64800000D03*
X92000000Y-88200000D03*
X91000000Y-66800000D03*
X98400000Y-70000000D03*
X96200000Y-96200000D03*
X99000000Y-75000000D03*
X91200000Y-75200000D03*
X91000000Y-70600000D03*
X96600000Y-101600000D03*
X140600000Y-71800000D03*
X98800000Y-54800000D03*
X138200000Y-70400000D03*
%TO.N,VCC*%
X100000000Y-61000000D03*
X88750000Y-61000000D03*
%TO.N,+12V*%
X105500000Y-95000000D03*
%TO.N,/P2*%
X100500000Y-109000000D03*
X93000000Y-81500000D03*
X86500000Y-60000000D03*
%TO.N,/SCL*%
X113600737Y-90200737D03*
X97400000Y-108000000D03*
X135250000Y-68600000D03*
%TO.N,/~{ALERT}*%
X141275735Y-70724265D03*
X94600000Y-107600000D03*
%TO.N,/SDA*%
X98199965Y-107992582D03*
X113625250Y-91025250D03*
X135250000Y-69400003D03*
%TO.N,/MCU/~{RST}*%
X148375735Y-70224265D03*
X141350000Y-74600000D03*
%TO.N,+3V3*%
X136000000Y-72500000D03*
X122250000Y-85000000D03*
X144750000Y-65000000D03*
X137000000Y-65250000D03*
X141350000Y-75600000D03*
X150200000Y-60000000D03*
%TO.N,/MCU/SWCLK*%
X152800000Y-55400000D03*
X140600000Y-67600000D03*
%TO.N,/MCU/SWDIO*%
X139000000Y-62500000D03*
X150200000Y-58200000D03*
%TO.N,/MCU/SWO*%
X157200000Y-59000000D03*
X141350000Y-68200000D03*
%TO.N,Net-(J401-VBUS)*%
X123500000Y-51000000D03*
X127000000Y-54000000D03*
%TO.N,Net-(U402-VO)*%
X128750000Y-60500000D03*
X121500000Y-61000000D03*
%TO.N,/MCU/Vbat*%
X138488146Y-71954836D03*
%TO.N,/MCU/DP*%
X139650000Y-63000000D03*
X140750000Y-59500000D03*
%TO.N,/MCU/serial2/RX*%
X124200000Y-64200000D03*
X140602510Y-66004669D03*
%TO.N,/MCU/serial2/TX*%
X122800000Y-64200000D03*
X141202607Y-66533710D03*
%TO.N,/MCU/serial1/TX*%
X144556564Y-73200000D03*
X108000000Y-64000000D03*
%TO.N,/MCU/serial1/RX*%
X109200000Y-64000000D03*
X145200000Y-72600000D03*
%TO.N,/MCU/DC*%
X146624265Y-67624265D03*
%TO.N,/MCU/MOSI*%
X141857592Y-66074364D03*
%TO.N,/MCU/SCK*%
X143250000Y-66750000D03*
%TO.N,/MCU/~{CS}*%
X143956564Y-65983036D03*
%TO.N,/MCU/MISO*%
X142650000Y-66184313D03*
%TO.N,Net-(J301-VBUS)*%
X108500000Y-51000000D03*
X112000000Y-54000000D03*
%TO.N,Net-(U302-VO)*%
X113750000Y-60500000D03*
X106500000Y-61000000D03*
%TO.N,Net-(J108-Pin_2)*%
X99500000Y-107000000D03*
X112000000Y-107000000D03*
%TO.N,Net-(J204-VBUS)*%
X138600000Y-50800000D03*
X142400000Y-54000000D03*
%TO.N,/MCU/~{DISPRST}*%
X146600000Y-66800000D03*
%TD*%
D25*
%TO.N,VCC*%
X100000000Y-61000000D02*
X88750000Y-61000000D01*
D26*
%TO.N,Net-(F101-Pad2)*%
X72500000Y-81500000D02*
X81000000Y-81500000D01*
X86500000Y-87000000D02*
X81000000Y-81500000D01*
X81000000Y-81000000D02*
X81000000Y-81500000D01*
X86500000Y-90500000D02*
X86500000Y-87000000D01*
X85500000Y-76500000D02*
X81000000Y-81000000D01*
X60000000Y-81500000D02*
X72500000Y-81500000D01*
D27*
%TO.N,+12V*%
X72500000Y-105015433D02*
X72500000Y-102000000D01*
D26*
X60000000Y-102000000D02*
X72500000Y-102000000D01*
D27*
X105500000Y-110500000D02*
X105500000Y-95000000D01*
D26*
X72500000Y-102000000D02*
X79000000Y-102000000D01*
X79000000Y-102000000D02*
X85500000Y-95500000D01*
D27*
X110000000Y-120000000D02*
X107500000Y-122500000D01*
X107500000Y-122500000D02*
X89984567Y-122500000D01*
X89984567Y-122500000D02*
X72500000Y-105015433D01*
X110000000Y-115000000D02*
X105500000Y-110500000D01*
X110000000Y-120000000D02*
X110000000Y-115000000D01*
D26*
%TO.N,Net-(F102-Pad2)*%
X86500000Y-71500000D02*
X76000000Y-61000000D01*
X60000000Y-61000000D02*
X72500000Y-61000000D01*
X76000000Y-61000000D02*
X72500000Y-61000000D01*
D28*
%TO.N,+3V3*%
X137250000Y-65000000D02*
X143800000Y-65000000D01*
X136375000Y-65875000D02*
X137000000Y-65250000D01*
X123500000Y-85000000D02*
X136000000Y-72500000D01*
X141350000Y-75600000D02*
X152000000Y-85650000D01*
X136000000Y-66250000D02*
X137000000Y-65250000D01*
X136375000Y-65875000D02*
X137250000Y-65000000D01*
X143800000Y-65000000D02*
X145200000Y-65000000D01*
X143800000Y-65000000D02*
X144750000Y-65000000D01*
X138400000Y-75600000D02*
X136000000Y-72500000D01*
X141350000Y-75600000D02*
X138400000Y-75600000D01*
X136000000Y-72500000D02*
X136000000Y-66250000D01*
X145200000Y-65000000D02*
X150200000Y-60000000D01*
X122250000Y-85000000D02*
X123500000Y-85000000D01*
X152000000Y-85650000D02*
X152000000Y-87000000D01*
D29*
%TO.N,Net-(J401-VBUS)*%
X123500000Y-51000000D02*
X126500000Y-54000000D01*
X126500000Y-54000000D02*
X127000000Y-54000000D01*
D28*
%TO.N,Net-(U402-VO)*%
X128750000Y-60500000D02*
X122000000Y-60500000D01*
X122000000Y-60500000D02*
X121500000Y-61000000D01*
D25*
%TO.N,/MCU/DP*%
X139650000Y-63000000D02*
X139650000Y-60600000D01*
X139650000Y-60600000D02*
X140750000Y-59500000D01*
D29*
%TO.N,Net-(J301-VBUS)*%
X108500000Y-51000000D02*
X111500000Y-54000000D01*
X111500000Y-54000000D02*
X112000000Y-54000000D01*
D28*
%TO.N,Net-(U302-VO)*%
X113750000Y-60500000D02*
X107000000Y-60500000D01*
X107000000Y-60500000D02*
X106500000Y-61000000D01*
D27*
%TO.N,Net-(J102-Pin_1)*%
X124350000Y-115000000D02*
X126550000Y-112800000D01*
X126550000Y-112800000D02*
X136500000Y-112800000D01*
X136500000Y-112800000D02*
X138700000Y-115000000D01*
X138700000Y-120000000D02*
X138700000Y-115000000D01*
X124350000Y-120000000D02*
X124350000Y-115000000D01*
D29*
%TO.N,Net-(J204-VBUS)*%
X141800000Y-54000000D02*
X142400000Y-54000000D01*
X138600000Y-50800000D02*
X141800000Y-54000000D01*
%TD*%
%TA.AperFunction,Conductor*%
%TO.N,GND*%
G36*
X105034097Y-45510283D02*
G01*
X105101133Y-45529979D01*
X105146879Y-45582792D01*
X105156810Y-45651952D01*
X105148636Y-45681735D01*
X105103343Y-45791082D01*
X105103340Y-45791092D01*
X105074500Y-45936079D01*
X105074500Y-45936082D01*
X105074500Y-46983918D01*
X105074500Y-46983920D01*
X105074499Y-46983920D01*
X105103340Y-47128907D01*
X105103343Y-47128917D01*
X105159912Y-47265488D01*
X105159919Y-47265501D01*
X105242048Y-47388415D01*
X105242051Y-47388419D01*
X105346580Y-47492948D01*
X105346584Y-47492951D01*
X105469498Y-47575080D01*
X105469511Y-47575087D01*
X105606082Y-47631656D01*
X105606087Y-47631658D01*
X105606091Y-47631658D01*
X105606092Y-47631659D01*
X105751079Y-47660500D01*
X105751082Y-47660500D01*
X105898920Y-47660500D01*
X105996462Y-47641096D01*
X106043913Y-47631658D01*
X106180495Y-47575084D01*
X106303416Y-47492951D01*
X106407951Y-47388416D01*
X106490084Y-47265495D01*
X106546658Y-47128913D01*
X106564849Y-47037463D01*
X106597234Y-46975552D01*
X106657949Y-46940978D01*
X106727719Y-46944717D01*
X106784391Y-46985584D01*
X106801027Y-47014201D01*
X106804833Y-47023390D01*
X106804833Y-47023391D01*
X106906113Y-47174967D01*
X106906119Y-47174975D01*
X107035024Y-47303880D01*
X107035032Y-47303886D01*
X107186608Y-47405166D01*
X107186612Y-47405168D01*
X107355037Y-47474931D01*
X107355042Y-47474933D01*
X107355046Y-47474933D01*
X107355047Y-47474934D01*
X107533843Y-47510500D01*
X107533846Y-47510500D01*
X107716156Y-47510500D01*
X107836445Y-47486572D01*
X107894958Y-47474933D01*
X108063389Y-47405167D01*
X108063391Y-47405166D01*
X108138672Y-47354864D01*
X108214972Y-47303883D01*
X108343883Y-47174972D01*
X108445167Y-47023389D01*
X108452311Y-47006143D01*
X108477754Y-46944717D01*
X108514933Y-46854958D01*
X108550500Y-46676154D01*
X108550500Y-46585000D01*
X108550500Y-46519108D01*
X108550500Y-45634500D01*
X108570185Y-45567461D01*
X108622989Y-45521706D01*
X108674500Y-45510500D01*
X111325500Y-45510500D01*
X111392539Y-45530185D01*
X111438294Y-45582989D01*
X111449500Y-45634500D01*
X111449500Y-46519108D01*
X111449500Y-46585000D01*
X111449500Y-46676154D01*
X111449500Y-46676156D01*
X111449499Y-46676156D01*
X111485065Y-46854952D01*
X111485068Y-46854962D01*
X111554831Y-47023387D01*
X111554833Y-47023391D01*
X111656113Y-47174967D01*
X111656119Y-47174975D01*
X111785024Y-47303880D01*
X111785032Y-47303886D01*
X111936608Y-47405166D01*
X111936612Y-47405168D01*
X112105037Y-47474931D01*
X112105042Y-47474933D01*
X112105046Y-47474933D01*
X112105047Y-47474934D01*
X112283843Y-47510500D01*
X112283846Y-47510500D01*
X112466156Y-47510500D01*
X112586445Y-47486572D01*
X112644958Y-47474933D01*
X112813389Y-47405167D01*
X112813391Y-47405166D01*
X112888672Y-47354864D01*
X112964972Y-47303883D01*
X113093883Y-47174972D01*
X113195167Y-47023389D01*
X113198970Y-47014205D01*
X113242807Y-46959802D01*
X113309100Y-46937733D01*
X113376800Y-46955009D01*
X113424414Y-47006143D01*
X113435150Y-47037462D01*
X113453340Y-47128907D01*
X113453343Y-47128917D01*
X113509912Y-47265488D01*
X113509919Y-47265501D01*
X113592048Y-47388415D01*
X113592051Y-47388419D01*
X113696580Y-47492948D01*
X113696584Y-47492951D01*
X113819498Y-47575080D01*
X113819511Y-47575087D01*
X113956082Y-47631656D01*
X113956087Y-47631658D01*
X113956091Y-47631658D01*
X113956092Y-47631659D01*
X114101079Y-47660500D01*
X114101082Y-47660500D01*
X114248920Y-47660500D01*
X114346462Y-47641096D01*
X114393913Y-47631658D01*
X114530495Y-47575084D01*
X114653416Y-47492951D01*
X114757951Y-47388416D01*
X114840084Y-47265495D01*
X114896658Y-47128913D01*
X114917648Y-47023391D01*
X114925500Y-46983920D01*
X114925500Y-45936079D01*
X114896659Y-45791092D01*
X114896658Y-45791091D01*
X114896658Y-45791087D01*
X114851452Y-45681951D01*
X114843984Y-45612483D01*
X114875259Y-45550004D01*
X114935348Y-45514352D01*
X114966014Y-45510500D01*
X120033986Y-45510500D01*
X120101025Y-45530185D01*
X120146780Y-45582989D01*
X120156724Y-45652147D01*
X120148547Y-45681953D01*
X120103342Y-45791086D01*
X120103340Y-45791092D01*
X120074500Y-45936079D01*
X120074500Y-45936082D01*
X120074500Y-46983918D01*
X120074500Y-46983920D01*
X120074499Y-46983920D01*
X120103340Y-47128907D01*
X120103343Y-47128917D01*
X120159912Y-47265488D01*
X120159919Y-47265501D01*
X120242048Y-47388415D01*
X120242051Y-47388419D01*
X120346580Y-47492948D01*
X120346584Y-47492951D01*
X120469498Y-47575080D01*
X120469511Y-47575087D01*
X120606082Y-47631656D01*
X120606087Y-47631658D01*
X120606091Y-47631658D01*
X120606092Y-47631659D01*
X120751079Y-47660500D01*
X120751082Y-47660500D01*
X120898920Y-47660500D01*
X120996462Y-47641096D01*
X121043913Y-47631658D01*
X121180495Y-47575084D01*
X121303416Y-47492951D01*
X121407951Y-47388416D01*
X121490084Y-47265495D01*
X121546658Y-47128913D01*
X121564849Y-47037463D01*
X121597234Y-46975552D01*
X121657949Y-46940978D01*
X121727719Y-46944717D01*
X121784391Y-46985584D01*
X121801027Y-47014201D01*
X121804833Y-47023390D01*
X121804833Y-47023391D01*
X121906113Y-47174967D01*
X121906119Y-47174975D01*
X122035024Y-47303880D01*
X122035032Y-47303886D01*
X122186608Y-47405166D01*
X122186612Y-47405168D01*
X122355037Y-47474931D01*
X122355042Y-47474933D01*
X122355046Y-47474933D01*
X122355047Y-47474934D01*
X122533843Y-47510500D01*
X122533846Y-47510500D01*
X122716156Y-47510500D01*
X122836445Y-47486572D01*
X122894958Y-47474933D01*
X123063389Y-47405167D01*
X123063391Y-47405166D01*
X123138672Y-47354864D01*
X123214972Y-47303883D01*
X123343883Y-47174972D01*
X123445167Y-47023389D01*
X123452311Y-47006143D01*
X123477754Y-46944717D01*
X123514933Y-46854958D01*
X123550500Y-46676154D01*
X123550500Y-46585000D01*
X123550500Y-46519108D01*
X123550500Y-45634500D01*
X123570185Y-45567461D01*
X123622989Y-45521706D01*
X123674500Y-45510500D01*
X126325500Y-45510500D01*
X126392539Y-45530185D01*
X126438294Y-45582989D01*
X126449500Y-45634500D01*
X126449500Y-46519108D01*
X126449500Y-46585000D01*
X126449500Y-46676154D01*
X126449500Y-46676156D01*
X126449499Y-46676156D01*
X126485065Y-46854952D01*
X126485068Y-46854962D01*
X126554831Y-47023387D01*
X126554833Y-47023391D01*
X126656113Y-47174967D01*
X126656119Y-47174975D01*
X126785024Y-47303880D01*
X126785032Y-47303886D01*
X126936608Y-47405166D01*
X126936612Y-47405168D01*
X127105037Y-47474931D01*
X127105042Y-47474933D01*
X127105046Y-47474933D01*
X127105047Y-47474934D01*
X127283843Y-47510500D01*
X127283846Y-47510500D01*
X127466156Y-47510500D01*
X127586445Y-47486572D01*
X127644958Y-47474933D01*
X127813389Y-47405167D01*
X127813391Y-47405166D01*
X127888672Y-47354864D01*
X127964972Y-47303883D01*
X128093883Y-47174972D01*
X128195167Y-47023389D01*
X128198970Y-47014205D01*
X128242807Y-46959802D01*
X128309100Y-46937733D01*
X128376800Y-46955009D01*
X128424414Y-47006143D01*
X128435150Y-47037462D01*
X128453340Y-47128907D01*
X128453343Y-47128917D01*
X128509912Y-47265488D01*
X128509919Y-47265501D01*
X128592048Y-47388415D01*
X128592051Y-47388419D01*
X128696580Y-47492948D01*
X128696584Y-47492951D01*
X128819498Y-47575080D01*
X128819511Y-47575087D01*
X128956082Y-47631656D01*
X128956087Y-47631658D01*
X128956091Y-47631658D01*
X128956092Y-47631659D01*
X129101079Y-47660500D01*
X129101082Y-47660500D01*
X129248920Y-47660500D01*
X129346462Y-47641096D01*
X129393913Y-47631658D01*
X129530495Y-47575084D01*
X129653416Y-47492951D01*
X129757951Y-47388416D01*
X129840084Y-47265495D01*
X129896658Y-47128913D01*
X129917648Y-47023391D01*
X129925500Y-46983920D01*
X129925500Y-45936079D01*
X129896659Y-45791092D01*
X129896658Y-45791091D01*
X129896658Y-45791087D01*
X129851452Y-45681951D01*
X129843984Y-45612483D01*
X129875259Y-45550004D01*
X129935348Y-45514352D01*
X129966014Y-45510500D01*
X135033986Y-45510500D01*
X135101025Y-45530185D01*
X135146780Y-45582989D01*
X135156724Y-45652147D01*
X135148547Y-45681953D01*
X135103342Y-45791086D01*
X135103340Y-45791092D01*
X135074500Y-45936079D01*
X135074500Y-45936082D01*
X135074500Y-46983918D01*
X135074500Y-46983920D01*
X135074499Y-46983920D01*
X135103340Y-47128907D01*
X135103343Y-47128917D01*
X135159912Y-47265488D01*
X135159919Y-47265501D01*
X135242048Y-47388415D01*
X135242051Y-47388419D01*
X135346580Y-47492948D01*
X135346584Y-47492951D01*
X135469498Y-47575080D01*
X135469511Y-47575087D01*
X135606082Y-47631656D01*
X135606087Y-47631658D01*
X135606091Y-47631658D01*
X135606092Y-47631659D01*
X135751079Y-47660500D01*
X135751082Y-47660500D01*
X135898920Y-47660500D01*
X135996462Y-47641096D01*
X136043913Y-47631658D01*
X136180495Y-47575084D01*
X136303416Y-47492951D01*
X136407951Y-47388416D01*
X136490084Y-47265495D01*
X136546658Y-47128913D01*
X136564849Y-47037463D01*
X136597234Y-46975552D01*
X136657949Y-46940978D01*
X136727719Y-46944717D01*
X136784391Y-46985584D01*
X136801027Y-47014201D01*
X136804833Y-47023390D01*
X136804833Y-47023391D01*
X136906113Y-47174967D01*
X136906119Y-47174975D01*
X137035024Y-47303880D01*
X137035032Y-47303886D01*
X137186608Y-47405166D01*
X137186612Y-47405168D01*
X137355037Y-47474931D01*
X137355042Y-47474933D01*
X137355046Y-47474933D01*
X137355047Y-47474934D01*
X137533843Y-47510500D01*
X137533846Y-47510500D01*
X137716156Y-47510500D01*
X137836445Y-47486572D01*
X137894958Y-47474933D01*
X138063389Y-47405167D01*
X138063391Y-47405166D01*
X138138672Y-47354864D01*
X138214972Y-47303883D01*
X138343883Y-47174972D01*
X138445167Y-47023389D01*
X138452311Y-47006143D01*
X138477754Y-46944717D01*
X138514933Y-46854958D01*
X138550500Y-46676154D01*
X138550500Y-46585000D01*
X138550500Y-46519108D01*
X138550500Y-45634500D01*
X138570185Y-45567461D01*
X138622989Y-45521706D01*
X138674500Y-45510500D01*
X141325500Y-45510500D01*
X141392539Y-45530185D01*
X141438294Y-45582989D01*
X141449500Y-45634500D01*
X141449500Y-46519108D01*
X141449500Y-46585000D01*
X141449500Y-46676154D01*
X141449500Y-46676156D01*
X141449499Y-46676156D01*
X141485065Y-46854952D01*
X141485068Y-46854962D01*
X141554831Y-47023387D01*
X141554833Y-47023391D01*
X141656113Y-47174967D01*
X141656119Y-47174975D01*
X141785024Y-47303880D01*
X141785032Y-47303886D01*
X141936608Y-47405166D01*
X141936612Y-47405168D01*
X142105037Y-47474931D01*
X142105042Y-47474933D01*
X142105046Y-47474933D01*
X142105047Y-47474934D01*
X142283843Y-47510500D01*
X142283846Y-47510500D01*
X142466156Y-47510500D01*
X142586445Y-47486572D01*
X142644958Y-47474933D01*
X142813389Y-47405167D01*
X142813391Y-47405166D01*
X142888672Y-47354864D01*
X142964972Y-47303883D01*
X143093883Y-47174972D01*
X143195167Y-47023389D01*
X143198970Y-47014205D01*
X143242807Y-46959802D01*
X143309100Y-46937733D01*
X143376800Y-46955009D01*
X143424414Y-47006143D01*
X143435150Y-47037462D01*
X143453340Y-47128907D01*
X143453343Y-47128917D01*
X143509912Y-47265488D01*
X143509919Y-47265501D01*
X143592048Y-47388415D01*
X143592051Y-47388419D01*
X143696580Y-47492948D01*
X143696584Y-47492951D01*
X143819498Y-47575080D01*
X143819511Y-47575087D01*
X143956082Y-47631656D01*
X143956087Y-47631658D01*
X143956091Y-47631658D01*
X143956092Y-47631659D01*
X144101079Y-47660500D01*
X144101082Y-47660500D01*
X144248920Y-47660500D01*
X144346462Y-47641096D01*
X144393913Y-47631658D01*
X144530495Y-47575084D01*
X144653416Y-47492951D01*
X144757951Y-47388416D01*
X144840084Y-47265495D01*
X144896658Y-47128913D01*
X144917648Y-47023391D01*
X144925500Y-46983920D01*
X144925500Y-45936079D01*
X144896659Y-45791092D01*
X144896658Y-45791091D01*
X144896658Y-45791087D01*
X144896656Y-45791082D01*
X144851143Y-45681202D01*
X144843674Y-45611733D01*
X144874949Y-45549254D01*
X144935039Y-45513602D01*
X144965621Y-45509750D01*
X159375425Y-45500883D01*
X159442475Y-45520526D01*
X159488263Y-45573302D01*
X159499500Y-45624883D01*
X159499500Y-124375500D01*
X159479815Y-124442539D01*
X159427011Y-124488294D01*
X159375500Y-124499500D01*
X50624500Y-124499500D01*
X50557461Y-124479815D01*
X50511706Y-124427011D01*
X50500500Y-124375500D01*
X50500500Y-109499994D01*
X58538007Y-109499994D01*
X58538007Y-109500005D01*
X58557946Y-109740632D01*
X58617222Y-109974708D01*
X58714215Y-110195831D01*
X58846279Y-110397972D01*
X58846282Y-110397975D01*
X59008249Y-110573918D01*
X59009821Y-110575625D01*
X59009825Y-110575628D01*
X59200366Y-110723932D01*
X59200369Y-110723933D01*
X59200371Y-110723935D01*
X59323823Y-110790743D01*
X59412724Y-110838854D01*
X59641102Y-110917256D01*
X59879270Y-110957000D01*
X59879271Y-110957000D01*
X60120729Y-110957000D01*
X60120730Y-110957000D01*
X60358898Y-110917256D01*
X60587276Y-110838854D01*
X60799634Y-110723932D01*
X60990181Y-110575623D01*
X61153718Y-110397975D01*
X61285784Y-110195832D01*
X61382778Y-109974708D01*
X61442053Y-109740636D01*
X61461993Y-109500000D01*
X61461993Y-109499994D01*
X71038007Y-109499994D01*
X71038007Y-109500005D01*
X71057946Y-109740632D01*
X71117222Y-109974708D01*
X71214215Y-110195831D01*
X71346279Y-110397972D01*
X71346282Y-110397975D01*
X71508249Y-110573918D01*
X71509821Y-110575625D01*
X71509825Y-110575628D01*
X71700366Y-110723932D01*
X71700369Y-110723933D01*
X71700371Y-110723935D01*
X71823823Y-110790743D01*
X71912724Y-110838854D01*
X72141102Y-110917256D01*
X72379270Y-110957000D01*
X72379271Y-110957000D01*
X72620729Y-110957000D01*
X72620730Y-110957000D01*
X72858898Y-110917256D01*
X73087276Y-110838854D01*
X73299634Y-110723932D01*
X73490181Y-110575623D01*
X73653718Y-110397975D01*
X73785784Y-110195832D01*
X73882778Y-109974708D01*
X73942053Y-109740636D01*
X73961993Y-109500000D01*
X73960407Y-109480862D01*
X73942053Y-109259367D01*
X73942053Y-109259364D01*
X73882778Y-109025292D01*
X73785784Y-108804168D01*
X73732346Y-108722375D01*
X73653720Y-108602027D01*
X73535350Y-108473444D01*
X73490181Y-108424377D01*
X73490180Y-108424376D01*
X73490178Y-108424374D01*
X73490174Y-108424371D01*
X73299638Y-108276071D01*
X73299628Y-108276064D01*
X73087282Y-108161149D01*
X73087279Y-108161147D01*
X73087276Y-108161146D01*
X73087273Y-108161145D01*
X73087271Y-108161144D01*
X72858900Y-108082744D01*
X72700119Y-108056248D01*
X72620730Y-108043000D01*
X72379270Y-108043000D01*
X72319728Y-108052936D01*
X72141099Y-108082744D01*
X71912728Y-108161144D01*
X71912717Y-108161149D01*
X71700371Y-108276064D01*
X71700361Y-108276071D01*
X71509825Y-108424371D01*
X71509821Y-108424374D01*
X71346279Y-108602027D01*
X71214215Y-108804168D01*
X71117222Y-109025291D01*
X71057946Y-109259367D01*
X71038007Y-109499994D01*
X61461993Y-109499994D01*
X61460407Y-109480862D01*
X61442053Y-109259367D01*
X61442053Y-109259364D01*
X61382778Y-109025292D01*
X61285784Y-108804168D01*
X61232346Y-108722375D01*
X61153720Y-108602027D01*
X61035350Y-108473444D01*
X60990181Y-108424377D01*
X60990180Y-108424376D01*
X60990178Y-108424374D01*
X60990174Y-108424371D01*
X60799638Y-108276071D01*
X60799628Y-108276064D01*
X60587282Y-108161149D01*
X60587279Y-108161147D01*
X60587276Y-108161146D01*
X60587273Y-108161145D01*
X60587271Y-108161144D01*
X60358900Y-108082744D01*
X60200119Y-108056248D01*
X60120730Y-108043000D01*
X59879270Y-108043000D01*
X59819728Y-108052936D01*
X59641099Y-108082744D01*
X59412728Y-108161144D01*
X59412717Y-108161149D01*
X59200371Y-108276064D01*
X59200361Y-108276071D01*
X59009825Y-108424371D01*
X59009821Y-108424374D01*
X58846279Y-108602027D01*
X58714215Y-108804168D01*
X58617222Y-109025291D01*
X58557946Y-109259367D01*
X58538007Y-109499994D01*
X50500500Y-109499994D01*
X50500500Y-101885258D01*
X58249500Y-101885258D01*
X58249500Y-102114741D01*
X58265992Y-102240000D01*
X58279452Y-102342238D01*
X58279453Y-102342240D01*
X58338842Y-102563887D01*
X58426650Y-102775876D01*
X58426657Y-102775890D01*
X58541392Y-102974617D01*
X58681081Y-103156661D01*
X58681089Y-103156670D01*
X58843330Y-103318911D01*
X58843335Y-103318915D01*
X58843339Y-103318919D01*
X58871464Y-103340500D01*
X59025382Y-103458607D01*
X59025385Y-103458608D01*
X59025388Y-103458611D01*
X59224112Y-103573344D01*
X59224117Y-103573346D01*
X59224123Y-103573349D01*
X59315480Y-103611190D01*
X59436113Y-103661158D01*
X59657762Y-103720548D01*
X59885266Y-103750500D01*
X71625500Y-103750500D01*
X71692539Y-103770185D01*
X71738294Y-103822989D01*
X71749500Y-103874500D01*
X71749500Y-105089351D01*
X71749500Y-105089353D01*
X71749499Y-105089353D01*
X71778340Y-105234340D01*
X71778343Y-105234350D01*
X71834914Y-105370925D01*
X71867812Y-105420160D01*
X71867813Y-105420163D01*
X71917046Y-105493847D01*
X71917052Y-105493854D01*
X89506151Y-123082952D01*
X89506153Y-123082954D01*
X89535625Y-123102645D01*
X89579837Y-123132186D01*
X89629072Y-123165084D01*
X89629073Y-123165084D01*
X89629074Y-123165085D01*
X89629076Y-123165086D01*
X89765649Y-123221656D01*
X89765654Y-123221658D01*
X89765658Y-123221658D01*
X89765659Y-123221659D01*
X89910646Y-123250500D01*
X89910649Y-123250500D01*
X107573920Y-123250500D01*
X107671462Y-123231096D01*
X107718913Y-123221658D01*
X107855495Y-123165084D01*
X107904729Y-123132186D01*
X107904734Y-123132183D01*
X107929071Y-123115921D01*
X107978416Y-123082952D01*
X109274549Y-121786819D01*
X109335872Y-121753334D01*
X109362230Y-121750500D01*
X110774676Y-121750500D01*
X110774677Y-121750499D01*
X110847740Y-121735966D01*
X110930601Y-121680601D01*
X110985966Y-121597740D01*
X111000500Y-121524674D01*
X111000500Y-118475326D01*
X111000500Y-118475323D01*
X111000499Y-118475321D01*
X110985967Y-118402264D01*
X110985966Y-118402260D01*
X110930601Y-118319399D01*
X110847740Y-118264034D01*
X110847739Y-118264033D01*
X110836456Y-118259360D01*
X110837157Y-118257665D01*
X110788396Y-118232157D01*
X110753823Y-118171441D01*
X110750500Y-118142927D01*
X110750500Y-116857072D01*
X110770185Y-116790033D01*
X110822989Y-116744278D01*
X110844239Y-116737415D01*
X110847738Y-116735966D01*
X110847740Y-116735966D01*
X110930601Y-116680601D01*
X110985966Y-116597740D01*
X111000500Y-116524674D01*
X111000500Y-113475326D01*
X111000500Y-113475323D01*
X111000499Y-113475321D01*
X123349500Y-113475321D01*
X123349500Y-116524678D01*
X123364032Y-116597735D01*
X123364033Y-116597739D01*
X123364034Y-116597740D01*
X123419399Y-116680601D01*
X123466470Y-116712052D01*
X123502260Y-116735966D01*
X123513544Y-116740640D01*
X123512841Y-116742335D01*
X123561595Y-116767833D01*
X123596174Y-116828546D01*
X123599500Y-116857072D01*
X123599500Y-118142927D01*
X123579815Y-118209966D01*
X123527011Y-118255721D01*
X123505755Y-118262586D01*
X123502260Y-118264033D01*
X123419399Y-118319399D01*
X123364033Y-118402260D01*
X123364032Y-118402264D01*
X123349500Y-118475321D01*
X123349500Y-121524678D01*
X123364032Y-121597735D01*
X123364033Y-121597739D01*
X123364034Y-121597740D01*
X123419399Y-121680601D01*
X123493054Y-121729815D01*
X123502260Y-121735966D01*
X123502264Y-121735967D01*
X123575321Y-121750499D01*
X123575324Y-121750500D01*
X123575326Y-121750500D01*
X125124676Y-121750500D01*
X125124677Y-121750499D01*
X125197740Y-121735966D01*
X125280601Y-121680601D01*
X125335966Y-121597740D01*
X125350500Y-121524674D01*
X125350500Y-120848543D01*
X128349499Y-120848543D01*
X128387947Y-121041829D01*
X128387950Y-121041839D01*
X128463364Y-121223907D01*
X128463371Y-121223920D01*
X128572860Y-121387781D01*
X128572863Y-121387785D01*
X128712214Y-121527136D01*
X128712218Y-121527139D01*
X128876079Y-121636628D01*
X128876092Y-121636635D01*
X128982237Y-121680601D01*
X129058165Y-121712051D01*
X129058169Y-121712051D01*
X129058170Y-121712052D01*
X129251456Y-121750500D01*
X129251459Y-121750500D01*
X129448543Y-121750500D01*
X129578582Y-121724632D01*
X129641835Y-121712051D01*
X129823914Y-121636632D01*
X129987782Y-121527139D01*
X130127139Y-121387782D01*
X130236632Y-121223914D01*
X130312051Y-121041835D01*
X130350500Y-120848541D01*
X130350500Y-119151459D01*
X130350500Y-119151456D01*
X130312052Y-118958170D01*
X130312051Y-118958169D01*
X130312051Y-118958165D01*
X130312049Y-118958160D01*
X130236635Y-118776092D01*
X130236628Y-118776079D01*
X130127139Y-118612218D01*
X130127136Y-118612214D01*
X129987785Y-118472863D01*
X129987781Y-118472860D01*
X129823920Y-118363371D01*
X129823907Y-118363364D01*
X129641839Y-118287950D01*
X129641829Y-118287947D01*
X129448543Y-118249500D01*
X129448541Y-118249500D01*
X129251459Y-118249500D01*
X129251457Y-118249500D01*
X129058170Y-118287947D01*
X129058160Y-118287950D01*
X128876092Y-118363364D01*
X128876079Y-118363371D01*
X128712218Y-118472860D01*
X128712214Y-118472863D01*
X128572863Y-118612214D01*
X128572860Y-118612218D01*
X128463371Y-118776079D01*
X128463364Y-118776092D01*
X128387950Y-118958160D01*
X128387947Y-118958170D01*
X128349500Y-119151456D01*
X128349500Y-119151459D01*
X128349500Y-120848541D01*
X128349500Y-120848543D01*
X128349499Y-120848543D01*
X125350500Y-120848543D01*
X125350500Y-118475326D01*
X125350500Y-118475323D01*
X125350499Y-118475321D01*
X125335967Y-118402264D01*
X125335966Y-118402260D01*
X125280601Y-118319399D01*
X125197740Y-118264034D01*
X125197739Y-118264033D01*
X125186456Y-118259360D01*
X125187157Y-118257665D01*
X125138396Y-118232157D01*
X125103823Y-118171441D01*
X125100500Y-118142927D01*
X125100500Y-116857072D01*
X125120185Y-116790033D01*
X125172989Y-116744278D01*
X125194239Y-116737415D01*
X125197738Y-116735966D01*
X125197740Y-116735966D01*
X125280601Y-116680601D01*
X125335966Y-116597740D01*
X125350500Y-116524674D01*
X125350500Y-115112230D01*
X125370185Y-115045191D01*
X125386819Y-115024549D01*
X126824549Y-113586819D01*
X126885872Y-113553334D01*
X126912230Y-113550500D01*
X128382111Y-113550500D01*
X128449150Y-113570185D01*
X128494905Y-113622989D01*
X128504849Y-113692147D01*
X128485214Y-113743390D01*
X128463370Y-113776081D01*
X128463364Y-113776092D01*
X128387950Y-113958160D01*
X128387947Y-113958170D01*
X128349500Y-114151456D01*
X128349500Y-114151459D01*
X128349500Y-115848541D01*
X128349500Y-115848543D01*
X128349499Y-115848543D01*
X128387947Y-116041829D01*
X128387950Y-116041839D01*
X128463364Y-116223907D01*
X128463371Y-116223920D01*
X128572860Y-116387781D01*
X128572863Y-116387785D01*
X128712214Y-116527136D01*
X128712218Y-116527139D01*
X128876079Y-116636628D01*
X128876092Y-116636635D01*
X128982237Y-116680601D01*
X129058165Y-116712051D01*
X129058169Y-116712051D01*
X129058170Y-116712052D01*
X129251456Y-116750500D01*
X129251459Y-116750500D01*
X129448543Y-116750500D01*
X129578582Y-116724632D01*
X129641835Y-116712051D01*
X129823914Y-116636632D01*
X129987782Y-116527139D01*
X130127139Y-116387782D01*
X130236632Y-116223914D01*
X130312051Y-116041835D01*
X130350500Y-115848541D01*
X130350500Y-114151459D01*
X130350500Y-114151456D01*
X130312052Y-113958170D01*
X130312051Y-113958169D01*
X130312051Y-113958165D01*
X130312049Y-113958160D01*
X130236635Y-113776092D01*
X130236629Y-113776081D01*
X130214786Y-113743390D01*
X130193909Y-113676712D01*
X130212394Y-113609332D01*
X130264373Y-113562643D01*
X130317889Y-113550500D01*
X136137770Y-113550500D01*
X136204809Y-113570185D01*
X136225451Y-113586819D01*
X137663181Y-115024549D01*
X137696666Y-115085872D01*
X137699500Y-115112230D01*
X137699500Y-116524678D01*
X137714032Y-116597735D01*
X137714033Y-116597739D01*
X137714034Y-116597740D01*
X137769399Y-116680601D01*
X137816470Y-116712052D01*
X137852260Y-116735966D01*
X137863544Y-116740640D01*
X137862841Y-116742335D01*
X137911595Y-116767833D01*
X137946174Y-116828546D01*
X137949500Y-116857072D01*
X137949500Y-118142927D01*
X137929815Y-118209966D01*
X137877011Y-118255721D01*
X137855755Y-118262586D01*
X137852260Y-118264033D01*
X137769399Y-118319399D01*
X137714033Y-118402260D01*
X137714032Y-118402264D01*
X137699500Y-118475321D01*
X137699500Y-121524678D01*
X137714032Y-121597735D01*
X137714033Y-121597739D01*
X137714034Y-121597740D01*
X137769399Y-121680601D01*
X137843054Y-121729815D01*
X137852260Y-121735966D01*
X137852264Y-121735967D01*
X137925321Y-121750499D01*
X137925324Y-121750500D01*
X137925326Y-121750500D01*
X139474676Y-121750500D01*
X139474677Y-121750499D01*
X139547740Y-121735966D01*
X139630601Y-121680601D01*
X139685966Y-121597740D01*
X139700500Y-121524674D01*
X139700500Y-120848543D01*
X142699499Y-120848543D01*
X142737947Y-121041829D01*
X142737950Y-121041839D01*
X142813364Y-121223907D01*
X142813371Y-121223920D01*
X142922860Y-121387781D01*
X142922863Y-121387785D01*
X143062214Y-121527136D01*
X143062218Y-121527139D01*
X143226079Y-121636628D01*
X143226092Y-121636635D01*
X143332237Y-121680601D01*
X143408165Y-121712051D01*
X143408169Y-121712051D01*
X143408170Y-121712052D01*
X143601456Y-121750500D01*
X143601459Y-121750500D01*
X143798543Y-121750500D01*
X143928582Y-121724632D01*
X143991835Y-121712051D01*
X144173914Y-121636632D01*
X144337782Y-121527139D01*
X144477139Y-121387782D01*
X144586632Y-121223914D01*
X144662051Y-121041835D01*
X144700500Y-120848541D01*
X144700500Y-119151459D01*
X144700500Y-119151456D01*
X144662052Y-118958170D01*
X144662051Y-118958169D01*
X144662051Y-118958165D01*
X144662049Y-118958160D01*
X144586635Y-118776092D01*
X144586628Y-118776079D01*
X144477139Y-118612218D01*
X144477136Y-118612214D01*
X144337785Y-118472863D01*
X144337781Y-118472860D01*
X144173920Y-118363371D01*
X144173907Y-118363364D01*
X143991839Y-118287950D01*
X143991829Y-118287947D01*
X143798543Y-118249500D01*
X143798541Y-118249500D01*
X143601459Y-118249500D01*
X143601457Y-118249500D01*
X143408170Y-118287947D01*
X143408160Y-118287950D01*
X143226092Y-118363364D01*
X143226079Y-118363371D01*
X143062218Y-118472860D01*
X143062214Y-118472863D01*
X142922863Y-118612214D01*
X142922860Y-118612218D01*
X142813371Y-118776079D01*
X142813364Y-118776092D01*
X142737950Y-118958160D01*
X142737947Y-118958170D01*
X142699500Y-119151456D01*
X142699500Y-119151459D01*
X142699500Y-120848541D01*
X142699500Y-120848543D01*
X142699499Y-120848543D01*
X139700500Y-120848543D01*
X139700500Y-118475326D01*
X139700500Y-118475323D01*
X139700499Y-118475321D01*
X139685967Y-118402264D01*
X139685966Y-118402260D01*
X139630601Y-118319399D01*
X139547740Y-118264034D01*
X139547739Y-118264033D01*
X139536456Y-118259360D01*
X139537157Y-118257665D01*
X139488396Y-118232157D01*
X139453823Y-118171441D01*
X139450500Y-118142927D01*
X139450500Y-116857072D01*
X139470185Y-116790033D01*
X139522989Y-116744278D01*
X139544239Y-116737415D01*
X139547738Y-116735966D01*
X139547740Y-116735966D01*
X139630601Y-116680601D01*
X139685966Y-116597740D01*
X139700500Y-116524674D01*
X139700500Y-115848543D01*
X142699499Y-115848543D01*
X142737947Y-116041829D01*
X142737950Y-116041839D01*
X142813364Y-116223907D01*
X142813371Y-116223920D01*
X142922860Y-116387781D01*
X142922863Y-116387785D01*
X143062214Y-116527136D01*
X143062218Y-116527139D01*
X143226079Y-116636628D01*
X143226092Y-116636635D01*
X143332237Y-116680601D01*
X143408165Y-116712051D01*
X143408169Y-116712051D01*
X143408170Y-116712052D01*
X143601456Y-116750500D01*
X143601459Y-116750500D01*
X143798543Y-116750500D01*
X143928582Y-116724632D01*
X143991835Y-116712051D01*
X144173914Y-116636632D01*
X144337782Y-116527139D01*
X144477139Y-116387782D01*
X144586632Y-116223914D01*
X144662051Y-116041835D01*
X144700500Y-115848541D01*
X144700500Y-114151459D01*
X144700500Y-114151456D01*
X144662052Y-113958170D01*
X144662051Y-113958169D01*
X144662051Y-113958165D01*
X144662049Y-113958160D01*
X144586635Y-113776092D01*
X144586628Y-113776079D01*
X144477139Y-113612218D01*
X144477136Y-113612214D01*
X144337785Y-113472863D01*
X144337781Y-113472860D01*
X144173920Y-113363371D01*
X144173907Y-113363364D01*
X143991839Y-113287950D01*
X143991829Y-113287947D01*
X143798543Y-113249500D01*
X143798541Y-113249500D01*
X143601459Y-113249500D01*
X143601457Y-113249500D01*
X143408170Y-113287947D01*
X143408160Y-113287950D01*
X143226092Y-113363364D01*
X143226079Y-113363371D01*
X143062218Y-113472860D01*
X143062214Y-113472863D01*
X142922863Y-113612214D01*
X142922860Y-113612218D01*
X142813371Y-113776079D01*
X142813364Y-113776092D01*
X142737950Y-113958160D01*
X142737947Y-113958170D01*
X142699500Y-114151456D01*
X142699500Y-114151459D01*
X142699500Y-115848541D01*
X142699500Y-115848543D01*
X142699499Y-115848543D01*
X139700500Y-115848543D01*
X139700500Y-113475326D01*
X139700500Y-113475323D01*
X139700499Y-113475321D01*
X139685967Y-113402264D01*
X139685966Y-113402260D01*
X139630601Y-113319399D01*
X139547740Y-113264034D01*
X139547739Y-113264033D01*
X139547735Y-113264032D01*
X139474677Y-113249500D01*
X139474674Y-113249500D01*
X138062230Y-113249500D01*
X137995191Y-113229815D01*
X137974549Y-113213181D01*
X136978421Y-112217052D01*
X136978414Y-112217046D01*
X136904729Y-112167812D01*
X136904729Y-112167813D01*
X136855491Y-112134913D01*
X136718917Y-112078343D01*
X136718907Y-112078340D01*
X136573920Y-112049500D01*
X136573918Y-112049500D01*
X126476082Y-112049500D01*
X126476080Y-112049500D01*
X126331092Y-112078340D01*
X126331086Y-112078342D01*
X126194508Y-112134914D01*
X126194496Y-112134921D01*
X126145269Y-112167813D01*
X126071588Y-112217044D01*
X126071580Y-112217050D01*
X125075451Y-113213181D01*
X125014128Y-113246666D01*
X124987770Y-113249500D01*
X123575323Y-113249500D01*
X123502264Y-113264032D01*
X123502260Y-113264033D01*
X123419399Y-113319399D01*
X123364033Y-113402260D01*
X123364032Y-113402264D01*
X123349500Y-113475321D01*
X111000499Y-113475321D01*
X110985967Y-113402264D01*
X110985966Y-113402260D01*
X110930601Y-113319399D01*
X110847740Y-113264034D01*
X110847739Y-113264033D01*
X110847735Y-113264032D01*
X110774677Y-113249500D01*
X110774674Y-113249500D01*
X109362230Y-113249500D01*
X109295191Y-113229815D01*
X109274549Y-113213181D01*
X106286819Y-110225451D01*
X106253334Y-110164128D01*
X106250500Y-110137770D01*
X106250500Y-107000000D01*
X111444750Y-107000000D01*
X111453132Y-107063670D01*
X111463670Y-107143708D01*
X111463671Y-107143712D01*
X111519137Y-107277622D01*
X111519138Y-107277624D01*
X111519139Y-107277625D01*
X111607379Y-107392621D01*
X111722375Y-107480861D01*
X111856291Y-107536330D01*
X111970727Y-107551396D01*
X111999999Y-107555250D01*
X112000000Y-107555250D01*
X112000001Y-107555250D01*
X112029273Y-107551396D01*
X112143709Y-107536330D01*
X112277625Y-107480861D01*
X112392621Y-107392621D01*
X112480861Y-107277625D01*
X112536330Y-107143709D01*
X112555250Y-107000000D01*
X112536330Y-106856291D01*
X112480861Y-106722375D01*
X112392621Y-106607379D01*
X112277625Y-106519139D01*
X112277624Y-106519138D01*
X112277622Y-106519137D01*
X112143712Y-106463671D01*
X112143710Y-106463670D01*
X112143709Y-106463670D01*
X112071854Y-106454210D01*
X112000001Y-106444750D01*
X111999999Y-106444750D01*
X111856291Y-106463670D01*
X111856287Y-106463671D01*
X111722377Y-106519137D01*
X111607379Y-106607379D01*
X111519137Y-106722377D01*
X111463671Y-106856287D01*
X111463670Y-106856291D01*
X111444750Y-107000000D01*
X106250500Y-107000000D01*
X106250500Y-100975321D01*
X109000000Y-100975321D01*
X109000000Y-104024678D01*
X109014532Y-104097735D01*
X109014533Y-104097739D01*
X109014534Y-104097740D01*
X109069899Y-104180601D01*
X109116970Y-104212052D01*
X109152760Y-104235966D01*
X109152764Y-104235967D01*
X109225821Y-104250499D01*
X109225824Y-104250500D01*
X109225826Y-104250500D01*
X110775176Y-104250500D01*
X110775177Y-104250499D01*
X110848240Y-104235966D01*
X110931101Y-104180601D01*
X110986466Y-104097740D01*
X111001000Y-104024674D01*
X111001000Y-103348543D01*
X113999999Y-103348543D01*
X114038447Y-103541829D01*
X114038449Y-103541835D01*
X114113864Y-103723907D01*
X114113871Y-103723920D01*
X114223360Y-103887781D01*
X114223363Y-103887785D01*
X114362714Y-104027136D01*
X114362718Y-104027139D01*
X114526579Y-104136628D01*
X114526592Y-104136635D01*
X114632737Y-104180601D01*
X114708665Y-104212051D01*
X114708669Y-104212051D01*
X114708670Y-104212052D01*
X114901956Y-104250500D01*
X114901959Y-104250500D01*
X115099043Y-104250500D01*
X115229082Y-104224632D01*
X115292335Y-104212051D01*
X115474414Y-104136632D01*
X115638282Y-104027139D01*
X115777639Y-103887782D01*
X115887132Y-103723914D01*
X115962551Y-103541835D01*
X115975132Y-103478582D01*
X116001000Y-103348543D01*
X116001000Y-102239999D01*
X154894785Y-102239999D01*
X154894785Y-102240000D01*
X154913602Y-102443082D01*
X154969417Y-102639247D01*
X154969422Y-102639260D01*
X155060327Y-102821821D01*
X155183237Y-102984581D01*
X155333958Y-103121980D01*
X155333960Y-103121982D01*
X155389969Y-103156661D01*
X155507363Y-103229348D01*
X155697544Y-103303024D01*
X155898024Y-103340500D01*
X155898026Y-103340500D01*
X156101974Y-103340500D01*
X156101976Y-103340500D01*
X156302456Y-103303024D01*
X156492637Y-103229348D01*
X156666041Y-103121981D01*
X156816764Y-102984579D01*
X156939673Y-102821821D01*
X157030582Y-102639250D01*
X157086397Y-102443083D01*
X157105215Y-102240000D01*
X157086397Y-102036917D01*
X157030582Y-101840750D01*
X156939673Y-101658179D01*
X156816764Y-101495421D01*
X156816762Y-101495418D01*
X156666041Y-101358019D01*
X156666039Y-101358017D01*
X156492642Y-101250655D01*
X156492635Y-101250651D01*
X156397546Y-101213814D01*
X156302456Y-101176976D01*
X156101976Y-101139500D01*
X155898024Y-101139500D01*
X155697544Y-101176976D01*
X155697541Y-101176976D01*
X155697541Y-101176977D01*
X155507364Y-101250651D01*
X155507357Y-101250655D01*
X155333960Y-101358017D01*
X155333958Y-101358019D01*
X155183237Y-101495418D01*
X155060327Y-101658178D01*
X154969422Y-101840739D01*
X154969417Y-101840752D01*
X154913602Y-102036917D01*
X154894785Y-102239999D01*
X116001000Y-102239999D01*
X116001000Y-101651456D01*
X115962552Y-101458170D01*
X115962551Y-101458169D01*
X115962551Y-101458165D01*
X115953417Y-101436113D01*
X115887135Y-101276092D01*
X115887128Y-101276079D01*
X115777639Y-101112218D01*
X115777636Y-101112214D01*
X115638285Y-100972863D01*
X115638281Y-100972860D01*
X115474420Y-100863371D01*
X115474407Y-100863364D01*
X115292339Y-100787950D01*
X115292329Y-100787947D01*
X115099043Y-100749500D01*
X115099041Y-100749500D01*
X114901959Y-100749500D01*
X114901957Y-100749500D01*
X114708670Y-100787947D01*
X114708660Y-100787950D01*
X114526592Y-100863364D01*
X114526579Y-100863371D01*
X114362718Y-100972860D01*
X114362714Y-100972863D01*
X114223363Y-101112214D01*
X114223360Y-101112218D01*
X114113871Y-101276079D01*
X114113864Y-101276092D01*
X114038450Y-101458160D01*
X114038447Y-101458170D01*
X114000000Y-101651456D01*
X114000000Y-101651459D01*
X114000000Y-103348541D01*
X114000000Y-103348543D01*
X113999999Y-103348543D01*
X111001000Y-103348543D01*
X111001000Y-100975326D01*
X111001000Y-100975323D01*
X111000999Y-100975321D01*
X110986467Y-100902264D01*
X110986466Y-100902260D01*
X110931101Y-100819399D01*
X110848240Y-100764034D01*
X110848239Y-100764033D01*
X110848235Y-100764032D01*
X110775177Y-100749500D01*
X110775174Y-100749500D01*
X109225826Y-100749500D01*
X109225823Y-100749500D01*
X109152764Y-100764032D01*
X109152760Y-100764033D01*
X109069899Y-100819399D01*
X109014533Y-100902260D01*
X109014532Y-100902264D01*
X109000000Y-100975321D01*
X106250500Y-100975321D01*
X106250500Y-99699999D01*
X154894785Y-99699999D01*
X154894785Y-99700000D01*
X154913602Y-99903082D01*
X154969417Y-100099247D01*
X154969422Y-100099260D01*
X155060327Y-100281821D01*
X155183237Y-100444581D01*
X155333958Y-100581980D01*
X155333960Y-100581982D01*
X155433141Y-100643392D01*
X155507363Y-100689348D01*
X155697544Y-100763024D01*
X155898024Y-100800500D01*
X155898026Y-100800500D01*
X156101974Y-100800500D01*
X156101976Y-100800500D01*
X156302456Y-100763024D01*
X156492637Y-100689348D01*
X156666041Y-100581981D01*
X156816764Y-100444579D01*
X156939673Y-100281821D01*
X157030582Y-100099250D01*
X157086397Y-99903083D01*
X157105215Y-99700000D01*
X157086397Y-99496917D01*
X157030582Y-99300750D01*
X156939673Y-99118179D01*
X156816764Y-98955421D01*
X156816762Y-98955418D01*
X156666041Y-98818019D01*
X156666039Y-98818017D01*
X156492642Y-98710655D01*
X156492635Y-98710651D01*
X156397546Y-98673814D01*
X156302456Y-98636976D01*
X156101976Y-98599500D01*
X155898024Y-98599500D01*
X155697544Y-98636976D01*
X155697541Y-98636976D01*
X155697541Y-98636977D01*
X155507364Y-98710651D01*
X155507357Y-98710655D01*
X155333960Y-98818017D01*
X155333958Y-98818019D01*
X155183237Y-98955418D01*
X155060327Y-99118178D01*
X154969422Y-99300739D01*
X154969417Y-99300752D01*
X154913602Y-99496917D01*
X154894785Y-99699999D01*
X106250500Y-99699999D01*
X106250500Y-95975321D01*
X109000000Y-95975321D01*
X109000000Y-99024678D01*
X109014532Y-99097735D01*
X109014533Y-99097739D01*
X109014534Y-99097740D01*
X109069899Y-99180601D01*
X109116970Y-99212052D01*
X109152760Y-99235966D01*
X109152764Y-99235967D01*
X109225821Y-99250499D01*
X109225824Y-99250500D01*
X109225826Y-99250500D01*
X110775176Y-99250500D01*
X110775177Y-99250499D01*
X110848240Y-99235966D01*
X110931101Y-99180601D01*
X110986466Y-99097740D01*
X111001000Y-99024674D01*
X111001000Y-98348543D01*
X113999999Y-98348543D01*
X114038447Y-98541829D01*
X114038450Y-98541839D01*
X114113864Y-98723907D01*
X114113871Y-98723920D01*
X114223360Y-98887781D01*
X114223363Y-98887785D01*
X114362714Y-99027136D01*
X114362718Y-99027139D01*
X114526579Y-99136628D01*
X114526592Y-99136635D01*
X114632737Y-99180601D01*
X114708665Y-99212051D01*
X114708669Y-99212051D01*
X114708670Y-99212052D01*
X114901956Y-99250500D01*
X114901959Y-99250500D01*
X115099043Y-99250500D01*
X115229082Y-99224632D01*
X115292335Y-99212051D01*
X115474414Y-99136632D01*
X115638282Y-99027139D01*
X115777639Y-98887782D01*
X115887132Y-98723914D01*
X115962551Y-98541835D01*
X116001000Y-98348541D01*
X116001000Y-97159999D01*
X150894785Y-97159999D01*
X150894785Y-97160000D01*
X150913602Y-97363082D01*
X150969417Y-97559247D01*
X150969422Y-97559260D01*
X151060327Y-97741821D01*
X151183237Y-97904581D01*
X151333958Y-98041980D01*
X151333960Y-98041982D01*
X151433141Y-98103392D01*
X151507363Y-98149348D01*
X151697544Y-98223024D01*
X151898024Y-98260500D01*
X151898026Y-98260500D01*
X152101974Y-98260500D01*
X152101976Y-98260500D01*
X152302456Y-98223024D01*
X152492637Y-98149348D01*
X152666041Y-98041981D01*
X152816764Y-97904579D01*
X152939673Y-97741821D01*
X153030582Y-97559250D01*
X153086397Y-97363083D01*
X153105215Y-97160000D01*
X153105215Y-97159999D01*
X154894785Y-97159999D01*
X154894785Y-97160000D01*
X154913602Y-97363082D01*
X154969417Y-97559247D01*
X154969422Y-97559260D01*
X155060327Y-97741821D01*
X155183237Y-97904581D01*
X155333958Y-98041980D01*
X155333960Y-98041982D01*
X155433141Y-98103392D01*
X155507363Y-98149348D01*
X155697544Y-98223024D01*
X155898024Y-98260500D01*
X155898026Y-98260500D01*
X156101974Y-98260500D01*
X156101976Y-98260500D01*
X156302456Y-98223024D01*
X156492637Y-98149348D01*
X156666041Y-98041981D01*
X156816764Y-97904579D01*
X156939673Y-97741821D01*
X157030582Y-97559250D01*
X157086397Y-97363083D01*
X157105215Y-97160000D01*
X157086397Y-96956917D01*
X157030582Y-96760750D01*
X156939673Y-96578179D01*
X156816764Y-96415421D01*
X156816762Y-96415418D01*
X156666041Y-96278019D01*
X156666039Y-96278017D01*
X156492642Y-96170655D01*
X156492635Y-96170651D01*
X156341790Y-96112214D01*
X156302456Y-96096976D01*
X156101976Y-96059500D01*
X155898024Y-96059500D01*
X155697544Y-96096976D01*
X155697541Y-96096976D01*
X155697541Y-96096977D01*
X155507364Y-96170651D01*
X155507357Y-96170655D01*
X155333960Y-96278017D01*
X155333958Y-96278019D01*
X155183237Y-96415418D01*
X155060327Y-96578178D01*
X154969422Y-96760739D01*
X154969417Y-96760752D01*
X154913602Y-96956917D01*
X154894785Y-97159999D01*
X153105215Y-97159999D01*
X153086397Y-96956917D01*
X153030582Y-96760750D01*
X152939673Y-96578179D01*
X152816764Y-96415421D01*
X152816762Y-96415418D01*
X152666041Y-96278019D01*
X152666039Y-96278017D01*
X152492642Y-96170655D01*
X152492635Y-96170651D01*
X152341790Y-96112214D01*
X152302456Y-96096976D01*
X152101976Y-96059500D01*
X151898024Y-96059500D01*
X151697544Y-96096976D01*
X151697541Y-96096976D01*
X151697541Y-96096977D01*
X151507364Y-96170651D01*
X151507357Y-96170655D01*
X151333960Y-96278017D01*
X151333958Y-96278019D01*
X151183237Y-96415418D01*
X151060327Y-96578178D01*
X150969422Y-96760739D01*
X150969417Y-96760752D01*
X150913602Y-96956917D01*
X150894785Y-97159999D01*
X116001000Y-97159999D01*
X116001000Y-96651459D01*
X116001000Y-96651456D01*
X115962552Y-96458170D01*
X115962551Y-96458169D01*
X115962551Y-96458165D01*
X115887932Y-96278017D01*
X115887135Y-96276092D01*
X115887128Y-96276079D01*
X115777639Y-96112218D01*
X115777636Y-96112214D01*
X115638285Y-95972863D01*
X115638281Y-95972860D01*
X115474420Y-95863371D01*
X115474407Y-95863364D01*
X115292339Y-95787950D01*
X115292329Y-95787947D01*
X115099043Y-95749500D01*
X115099041Y-95749500D01*
X114901959Y-95749500D01*
X114901957Y-95749500D01*
X114708670Y-95787947D01*
X114708660Y-95787950D01*
X114526592Y-95863364D01*
X114526579Y-95863371D01*
X114362718Y-95972860D01*
X114362714Y-95972863D01*
X114223363Y-96112214D01*
X114223360Y-96112218D01*
X114113871Y-96276079D01*
X114113864Y-96276092D01*
X114038450Y-96458160D01*
X114038447Y-96458170D01*
X114000000Y-96651456D01*
X114000000Y-96651459D01*
X114000000Y-98348541D01*
X114000000Y-98348543D01*
X113999999Y-98348543D01*
X111001000Y-98348543D01*
X111001000Y-95975326D01*
X111001000Y-95975323D01*
X111000999Y-95975321D01*
X110986467Y-95902264D01*
X110986466Y-95902260D01*
X110931101Y-95819399D01*
X110848240Y-95764034D01*
X110848239Y-95764033D01*
X110848235Y-95764032D01*
X110775177Y-95749500D01*
X110775174Y-95749500D01*
X109225826Y-95749500D01*
X109225823Y-95749500D01*
X109152764Y-95764032D01*
X109152760Y-95764033D01*
X109069899Y-95819399D01*
X109014533Y-95902260D01*
X109014532Y-95902264D01*
X109000000Y-95975321D01*
X106250500Y-95975321D01*
X106250500Y-94926079D01*
X106221659Y-94781092D01*
X106221658Y-94781091D01*
X106221658Y-94781087D01*
X106221656Y-94781082D01*
X106165087Y-94644511D01*
X106165080Y-94644498D01*
X106148710Y-94619999D01*
X150894785Y-94619999D01*
X150894785Y-94620000D01*
X150913602Y-94823082D01*
X150969417Y-95019247D01*
X150969422Y-95019260D01*
X151060327Y-95201821D01*
X151183237Y-95364581D01*
X151333958Y-95501980D01*
X151333960Y-95501982D01*
X151433141Y-95563392D01*
X151507363Y-95609348D01*
X151697544Y-95683024D01*
X151898024Y-95720500D01*
X151898026Y-95720500D01*
X152101974Y-95720500D01*
X152101976Y-95720500D01*
X152302456Y-95683024D01*
X152492637Y-95609348D01*
X152666041Y-95501981D01*
X152816764Y-95364579D01*
X152939673Y-95201821D01*
X153030582Y-95019250D01*
X153086397Y-94823083D01*
X153105215Y-94620000D01*
X153105215Y-94619999D01*
X154894785Y-94619999D01*
X154894785Y-94620000D01*
X154913602Y-94823082D01*
X154969417Y-95019247D01*
X154969422Y-95019260D01*
X155060327Y-95201821D01*
X155183237Y-95364581D01*
X155333958Y-95501980D01*
X155333960Y-95501982D01*
X155433141Y-95563392D01*
X155507363Y-95609348D01*
X155697544Y-95683024D01*
X155898024Y-95720500D01*
X155898026Y-95720500D01*
X156101974Y-95720500D01*
X156101976Y-95720500D01*
X156302456Y-95683024D01*
X156492637Y-95609348D01*
X156666041Y-95501981D01*
X156816764Y-95364579D01*
X156939673Y-95201821D01*
X157030582Y-95019250D01*
X157086397Y-94823083D01*
X157105215Y-94620000D01*
X157086397Y-94416917D01*
X157030582Y-94220750D01*
X157010831Y-94181085D01*
X156986272Y-94131764D01*
X156939673Y-94038179D01*
X156816764Y-93875421D01*
X156816762Y-93875418D01*
X156666041Y-93738019D01*
X156666039Y-93738017D01*
X156492642Y-93630655D01*
X156492635Y-93630651D01*
X156397546Y-93593814D01*
X156302456Y-93556976D01*
X156101976Y-93519500D01*
X155898024Y-93519500D01*
X155697544Y-93556976D01*
X155697541Y-93556976D01*
X155697541Y-93556977D01*
X155507364Y-93630651D01*
X155507357Y-93630655D01*
X155333960Y-93738017D01*
X155333958Y-93738019D01*
X155183237Y-93875418D01*
X155060327Y-94038178D01*
X154969422Y-94220739D01*
X154969417Y-94220752D01*
X154913602Y-94416917D01*
X154894785Y-94619999D01*
X153105215Y-94619999D01*
X153086397Y-94416917D01*
X153030582Y-94220750D01*
X153010831Y-94181085D01*
X152986272Y-94131764D01*
X152939673Y-94038179D01*
X152816764Y-93875421D01*
X152816762Y-93875418D01*
X152666041Y-93738019D01*
X152666039Y-93738017D01*
X152492642Y-93630655D01*
X152492635Y-93630651D01*
X152397546Y-93593814D01*
X152302456Y-93556976D01*
X152101976Y-93519500D01*
X151898024Y-93519500D01*
X151697544Y-93556976D01*
X151697541Y-93556976D01*
X151697541Y-93556977D01*
X151507364Y-93630651D01*
X151507357Y-93630655D01*
X151333960Y-93738017D01*
X151333958Y-93738019D01*
X151183237Y-93875418D01*
X151060327Y-94038178D01*
X150969422Y-94220739D01*
X150969417Y-94220752D01*
X150913602Y-94416917D01*
X150894785Y-94619999D01*
X106148710Y-94619999D01*
X106082951Y-94521584D01*
X106082948Y-94521580D01*
X105978419Y-94417051D01*
X105978415Y-94417048D01*
X105855501Y-94334919D01*
X105855488Y-94334912D01*
X105718917Y-94278343D01*
X105718907Y-94278340D01*
X105573920Y-94249500D01*
X105573918Y-94249500D01*
X105426082Y-94249500D01*
X105426080Y-94249500D01*
X105281092Y-94278340D01*
X105281082Y-94278343D01*
X105144511Y-94334912D01*
X105144498Y-94334919D01*
X105021584Y-94417048D01*
X105021580Y-94417051D01*
X104917051Y-94521580D01*
X104917048Y-94521584D01*
X104834919Y-94644498D01*
X104834912Y-94644511D01*
X104778343Y-94781082D01*
X104778340Y-94781092D01*
X104749500Y-94926079D01*
X104749500Y-94926082D01*
X104749500Y-110573918D01*
X104749500Y-110573920D01*
X104749499Y-110573920D01*
X104778340Y-110718907D01*
X104778343Y-110718917D01*
X104834914Y-110855492D01*
X104867812Y-110904727D01*
X104867813Y-110904730D01*
X104917046Y-110978414D01*
X104917052Y-110978421D01*
X108963181Y-115024549D01*
X108996666Y-115085872D01*
X108999500Y-115112230D01*
X108999500Y-116524678D01*
X109014032Y-116597735D01*
X109014033Y-116597739D01*
X109014034Y-116597740D01*
X109069399Y-116680601D01*
X109116470Y-116712052D01*
X109152260Y-116735966D01*
X109163544Y-116740640D01*
X109162841Y-116742335D01*
X109211595Y-116767833D01*
X109246174Y-116828546D01*
X109249500Y-116857072D01*
X109249500Y-118142927D01*
X109229815Y-118209966D01*
X109177011Y-118255721D01*
X109155755Y-118262586D01*
X109152260Y-118264033D01*
X109069399Y-118319399D01*
X109014033Y-118402260D01*
X109014032Y-118402264D01*
X108999500Y-118475321D01*
X108999500Y-119887770D01*
X108979815Y-119954809D01*
X108963181Y-119975451D01*
X107225451Y-121713181D01*
X107164128Y-121746666D01*
X107137770Y-121749500D01*
X103468295Y-121749500D01*
X103401256Y-121729815D01*
X103355501Y-121677011D01*
X103345557Y-121607853D01*
X103367977Y-121552614D01*
X103388274Y-121524678D01*
X103441232Y-121451788D01*
X103519873Y-121297445D01*
X103573402Y-121132701D01*
X103600500Y-120961611D01*
X103600500Y-120488389D01*
X103573402Y-120317299D01*
X103519873Y-120152555D01*
X103441232Y-119998212D01*
X103339414Y-119858072D01*
X103216928Y-119735586D01*
X103076788Y-119633768D01*
X102922445Y-119555127D01*
X102757701Y-119501598D01*
X102757699Y-119501597D01*
X102757698Y-119501597D01*
X102626271Y-119480781D01*
X102586611Y-119474500D01*
X102413389Y-119474500D01*
X102373728Y-119480781D01*
X102242302Y-119501597D01*
X102077552Y-119555128D01*
X101923211Y-119633768D01*
X101843256Y-119691859D01*
X101783072Y-119735586D01*
X101783070Y-119735588D01*
X101783069Y-119735588D01*
X101660588Y-119858069D01*
X101660588Y-119858070D01*
X101660586Y-119858072D01*
X101653725Y-119867516D01*
X101558768Y-119998211D01*
X101480128Y-120152552D01*
X101426597Y-120317302D01*
X101414668Y-120392620D01*
X101399500Y-120488389D01*
X101399500Y-120961611D01*
X101426598Y-121132701D01*
X101480127Y-121297445D01*
X101558768Y-121451788D01*
X101611724Y-121524676D01*
X101632023Y-121552614D01*
X101655503Y-121618421D01*
X101639678Y-121686474D01*
X101589572Y-121735169D01*
X101531705Y-121749500D01*
X101210391Y-121749500D01*
X101143352Y-121729815D01*
X101097597Y-121677011D01*
X101087653Y-121607853D01*
X101093633Y-121584422D01*
X101094091Y-121582483D01*
X101097302Y-121552614D01*
X101100500Y-121522873D01*
X101100499Y-119927128D01*
X101094091Y-119867517D01*
X101090568Y-119858072D01*
X101043797Y-119732671D01*
X101043793Y-119732664D01*
X100957547Y-119617455D01*
X100957544Y-119617452D01*
X100842335Y-119531206D01*
X100842328Y-119531202D01*
X100707482Y-119480908D01*
X100707483Y-119480908D01*
X100647883Y-119474501D01*
X100647881Y-119474500D01*
X100647873Y-119474500D01*
X100647864Y-119474500D01*
X99352129Y-119474500D01*
X99352123Y-119474501D01*
X99292516Y-119480908D01*
X99157671Y-119531202D01*
X99157664Y-119531206D01*
X99042455Y-119617452D01*
X99042452Y-119617455D01*
X98956206Y-119732664D01*
X98956202Y-119732671D01*
X98905908Y-119867517D01*
X98903731Y-119887770D01*
X98899501Y-119927123D01*
X98899500Y-119927135D01*
X98899500Y-121522870D01*
X98899501Y-121522876D01*
X98905909Y-121582487D01*
X98907692Y-121590031D01*
X98906375Y-121590342D01*
X98910775Y-121651858D01*
X98877291Y-121713181D01*
X98815968Y-121746666D01*
X98789609Y-121749500D01*
X90346797Y-121749500D01*
X90279758Y-121729815D01*
X90259116Y-121713181D01*
X88545934Y-119999999D01*
X96944750Y-119999999D01*
X96944750Y-120000000D01*
X96963670Y-120143708D01*
X96963671Y-120143712D01*
X97019137Y-120277622D01*
X97019138Y-120277624D01*
X97019139Y-120277625D01*
X97107379Y-120392621D01*
X97222375Y-120480861D01*
X97356291Y-120536330D01*
X97483280Y-120553048D01*
X97499999Y-120555250D01*
X97500000Y-120555250D01*
X97500001Y-120555250D01*
X97514977Y-120553278D01*
X97643709Y-120536330D01*
X97777625Y-120480861D01*
X97892621Y-120392621D01*
X97980861Y-120277625D01*
X98036330Y-120143709D01*
X98055250Y-120000000D01*
X98055014Y-119998211D01*
X98045656Y-119927128D01*
X98036330Y-119856291D01*
X97980861Y-119722375D01*
X97892621Y-119607379D01*
X97777625Y-119519139D01*
X97777624Y-119519138D01*
X97777622Y-119519137D01*
X97643712Y-119463671D01*
X97643710Y-119463670D01*
X97643709Y-119463670D01*
X97571854Y-119454210D01*
X97500001Y-119444750D01*
X97499999Y-119444750D01*
X97356291Y-119463670D01*
X97356287Y-119463671D01*
X97222377Y-119519137D01*
X97107379Y-119607379D01*
X97019137Y-119722377D01*
X96963671Y-119856287D01*
X96963670Y-119856291D01*
X96944750Y-119999999D01*
X88545934Y-119999999D01*
X77545934Y-108999999D01*
X99944750Y-108999999D01*
X99944750Y-109000000D01*
X99963670Y-109143708D01*
X99963671Y-109143712D01*
X100019137Y-109277622D01*
X100019138Y-109277624D01*
X100019139Y-109277625D01*
X100107379Y-109392621D01*
X100222375Y-109480861D01*
X100356291Y-109536330D01*
X100483280Y-109553048D01*
X100499999Y-109555250D01*
X100500000Y-109555250D01*
X100500001Y-109555250D01*
X100514977Y-109553278D01*
X100643709Y-109536330D01*
X100777625Y-109480861D01*
X100892621Y-109392621D01*
X100980861Y-109277625D01*
X101036330Y-109143709D01*
X101055250Y-109000000D01*
X101036330Y-108856291D01*
X100980861Y-108722375D01*
X100892621Y-108607379D01*
X100777625Y-108519139D01*
X100777624Y-108519138D01*
X100777622Y-108519137D01*
X100643712Y-108463671D01*
X100643710Y-108463670D01*
X100643709Y-108463670D01*
X100571854Y-108454210D01*
X100500001Y-108444750D01*
X100499999Y-108444750D01*
X100356291Y-108463670D01*
X100356287Y-108463671D01*
X100222377Y-108519137D01*
X100107379Y-108607379D01*
X100019137Y-108722377D01*
X99963671Y-108856287D01*
X99963670Y-108856291D01*
X99944750Y-108999999D01*
X77545934Y-108999999D01*
X76145934Y-107599999D01*
X94044750Y-107599999D01*
X94044750Y-107600000D01*
X94063670Y-107743708D01*
X94063671Y-107743712D01*
X94119137Y-107877622D01*
X94119138Y-107877624D01*
X94119139Y-107877625D01*
X94207379Y-107992621D01*
X94322375Y-108080861D01*
X94456291Y-108136330D01*
X94583280Y-108153048D01*
X94599999Y-108155250D01*
X94600000Y-108155250D01*
X94600001Y-108155250D01*
X94614977Y-108153278D01*
X94743709Y-108136330D01*
X94877625Y-108080861D01*
X94983005Y-108000000D01*
X96844750Y-108000000D01*
X96862698Y-108136329D01*
X96863670Y-108143708D01*
X96863671Y-108143712D01*
X96919137Y-108277622D01*
X96919138Y-108277624D01*
X96919139Y-108277625D01*
X97007379Y-108392621D01*
X97122375Y-108480861D01*
X97256291Y-108536330D01*
X97383280Y-108553048D01*
X97399999Y-108555250D01*
X97400000Y-108555250D01*
X97400001Y-108555250D01*
X97414977Y-108553278D01*
X97543709Y-108536330D01*
X97677625Y-108480861D01*
X97729330Y-108441185D01*
X97794496Y-108415992D01*
X97862941Y-108430030D01*
X97880301Y-108441186D01*
X97909604Y-108463670D01*
X97922340Y-108473443D01*
X98056256Y-108528912D01*
X98183245Y-108545630D01*
X98199964Y-108547832D01*
X98199965Y-108547832D01*
X98199966Y-108547832D01*
X98214942Y-108545860D01*
X98343674Y-108528912D01*
X98477590Y-108473443D01*
X98592586Y-108385203D01*
X98680826Y-108270207D01*
X98736295Y-108136291D01*
X98755215Y-107992582D01*
X98736295Y-107848873D01*
X98692735Y-107743708D01*
X98680827Y-107714959D01*
X98680826Y-107714958D01*
X98680826Y-107714957D01*
X98592586Y-107599961D01*
X98477590Y-107511721D01*
X98477589Y-107511720D01*
X98477587Y-107511719D01*
X98343677Y-107456253D01*
X98343675Y-107456252D01*
X98343674Y-107456252D01*
X98256309Y-107444750D01*
X98199966Y-107437332D01*
X98199964Y-107437332D01*
X98056256Y-107456252D01*
X98056252Y-107456253D01*
X97922341Y-107511720D01*
X97922340Y-107511720D01*
X97870633Y-107551396D01*
X97805463Y-107576589D01*
X97737019Y-107562550D01*
X97719662Y-107551395D01*
X97677625Y-107519139D01*
X97677623Y-107519138D01*
X97543712Y-107463671D01*
X97543710Y-107463670D01*
X97543709Y-107463670D01*
X97471854Y-107454210D01*
X97400001Y-107444750D01*
X97399999Y-107444750D01*
X97256291Y-107463670D01*
X97256287Y-107463671D01*
X97122377Y-107519137D01*
X97007379Y-107607379D01*
X96919137Y-107722377D01*
X96863671Y-107856287D01*
X96863670Y-107856291D01*
X96845722Y-107992620D01*
X96844750Y-108000000D01*
X94983005Y-108000000D01*
X94992621Y-107992621D01*
X95080861Y-107877625D01*
X95136330Y-107743709D01*
X95155250Y-107600000D01*
X95136330Y-107456291D01*
X95080861Y-107322375D01*
X94992621Y-107207379D01*
X94877625Y-107119139D01*
X94877624Y-107119138D01*
X94877622Y-107119137D01*
X94743712Y-107063671D01*
X94743710Y-107063670D01*
X94743709Y-107063670D01*
X94671854Y-107054210D01*
X94600001Y-107044750D01*
X94599999Y-107044750D01*
X94456291Y-107063670D01*
X94456287Y-107063671D01*
X94322377Y-107119137D01*
X94207379Y-107207379D01*
X94119137Y-107322377D01*
X94063671Y-107456287D01*
X94063670Y-107456291D01*
X94044750Y-107599999D01*
X76145934Y-107599999D01*
X75545935Y-107000000D01*
X98944750Y-107000000D01*
X98953132Y-107063670D01*
X98963670Y-107143708D01*
X98963671Y-107143712D01*
X99019137Y-107277622D01*
X99019138Y-107277624D01*
X99019139Y-107277625D01*
X99107379Y-107392621D01*
X99222375Y-107480861D01*
X99356291Y-107536330D01*
X99470727Y-107551396D01*
X99499999Y-107555250D01*
X99500000Y-107555250D01*
X99500001Y-107555250D01*
X99529273Y-107551396D01*
X99643709Y-107536330D01*
X99777625Y-107480861D01*
X99892621Y-107392621D01*
X99980861Y-107277625D01*
X100036330Y-107143709D01*
X100055250Y-107000000D01*
X100036330Y-106856291D01*
X99980861Y-106722375D01*
X99892621Y-106607379D01*
X99777625Y-106519139D01*
X99777624Y-106519138D01*
X99777622Y-106519137D01*
X99643712Y-106463671D01*
X99643710Y-106463670D01*
X99643709Y-106463670D01*
X99571854Y-106454210D01*
X99500001Y-106444750D01*
X99499999Y-106444750D01*
X99356291Y-106463670D01*
X99356287Y-106463671D01*
X99222377Y-106519137D01*
X99107379Y-106607379D01*
X99019137Y-106722377D01*
X98963671Y-106856287D01*
X98963670Y-106856291D01*
X98944750Y-107000000D01*
X75545935Y-107000000D01*
X73286819Y-104740884D01*
X73253334Y-104679561D01*
X73250500Y-104653203D01*
X73250500Y-103874500D01*
X73270185Y-103807461D01*
X73322989Y-103761706D01*
X73374500Y-103750500D01*
X79114727Y-103750500D01*
X79114734Y-103750500D01*
X79316671Y-103723914D01*
X79342239Y-103720548D01*
X79563887Y-103661158D01*
X79730538Y-103592128D01*
X79775879Y-103573348D01*
X79775880Y-103573347D01*
X79775888Y-103573344D01*
X79830463Y-103541835D01*
X79974612Y-103458611D01*
X80067805Y-103387101D01*
X80156661Y-103318920D01*
X86818919Y-96656661D01*
X86958610Y-96474612D01*
X87073344Y-96275888D01*
X87161158Y-96063887D01*
X87220548Y-95842239D01*
X87250499Y-95614734D01*
X87250499Y-95385266D01*
X87220548Y-95157761D01*
X87161158Y-94936114D01*
X87157001Y-94926079D01*
X87073345Y-94724115D01*
X87073344Y-94724112D01*
X86958610Y-94525388D01*
X86818919Y-94343339D01*
X86818914Y-94343333D01*
X86656666Y-94181085D01*
X86656659Y-94181079D01*
X86474620Y-94041396D01*
X86474618Y-94041395D01*
X86474612Y-94041390D01*
X86275888Y-93926656D01*
X86275884Y-93926654D01*
X86063888Y-93838842D01*
X85945108Y-93807015D01*
X85842239Y-93779452D01*
X85842233Y-93779451D01*
X85842228Y-93779450D01*
X85614735Y-93749501D01*
X85614734Y-93749501D01*
X85385266Y-93749501D01*
X85385265Y-93749501D01*
X85157771Y-93779450D01*
X85157764Y-93779451D01*
X85157761Y-93779452D01*
X85064077Y-93804554D01*
X84936112Y-93838842D01*
X84724120Y-93926651D01*
X84724111Y-93926656D01*
X84525388Y-94041390D01*
X84525379Y-94041396D01*
X84343340Y-94181079D01*
X84343333Y-94181085D01*
X78311238Y-100213181D01*
X78249915Y-100246666D01*
X78223557Y-100249500D01*
X59885258Y-100249500D01*
X59668715Y-100278009D01*
X59657762Y-100279452D01*
X59648921Y-100281821D01*
X59436112Y-100338842D01*
X59224123Y-100426650D01*
X59224109Y-100426657D01*
X59025382Y-100541392D01*
X58843338Y-100681081D01*
X58681081Y-100843338D01*
X58541392Y-101025382D01*
X58426657Y-101224109D01*
X58426650Y-101224123D01*
X58338842Y-101436112D01*
X58279453Y-101657759D01*
X58279451Y-101657770D01*
X58249500Y-101885258D01*
X50500500Y-101885258D01*
X50500500Y-81385258D01*
X58249500Y-81385258D01*
X58249500Y-81614741D01*
X58270945Y-81777622D01*
X58279452Y-81842238D01*
X58279453Y-81842240D01*
X58338842Y-82063887D01*
X58426650Y-82275876D01*
X58426657Y-82275890D01*
X58541392Y-82474617D01*
X58681081Y-82656661D01*
X58681089Y-82656670D01*
X58843330Y-82818911D01*
X58843338Y-82818918D01*
X59025382Y-82958607D01*
X59025385Y-82958608D01*
X59025388Y-82958611D01*
X59224112Y-83073344D01*
X59224117Y-83073346D01*
X59224123Y-83073349D01*
X59315480Y-83111190D01*
X59436113Y-83161158D01*
X59657762Y-83220548D01*
X59885266Y-83250500D01*
X72385266Y-83250500D01*
X80223557Y-83250500D01*
X80290596Y-83270185D01*
X80311238Y-83286819D01*
X84713181Y-87688762D01*
X84746666Y-87750085D01*
X84749500Y-87776443D01*
X84749500Y-90614741D01*
X84766996Y-90747626D01*
X84779452Y-90842238D01*
X84779453Y-90842240D01*
X84838842Y-91063887D01*
X84926650Y-91275876D01*
X84926657Y-91275890D01*
X85041392Y-91474617D01*
X85181081Y-91656661D01*
X85181089Y-91656670D01*
X85343330Y-91818911D01*
X85343338Y-91818918D01*
X85525382Y-91958607D01*
X85525385Y-91958608D01*
X85525388Y-91958611D01*
X85724112Y-92073344D01*
X85724117Y-92073346D01*
X85724123Y-92073349D01*
X85815480Y-92111190D01*
X85936113Y-92161158D01*
X86157762Y-92220548D01*
X86385266Y-92250500D01*
X86385273Y-92250500D01*
X86614727Y-92250500D01*
X86614734Y-92250500D01*
X86842238Y-92220548D01*
X87063887Y-92161158D01*
X87259821Y-92079999D01*
X150894785Y-92079999D01*
X150894785Y-92080000D01*
X150913602Y-92283082D01*
X150969417Y-92479247D01*
X150969422Y-92479260D01*
X151060327Y-92661821D01*
X151183237Y-92824581D01*
X151333958Y-92961980D01*
X151333960Y-92961982D01*
X151433141Y-93023392D01*
X151507363Y-93069348D01*
X151697544Y-93143024D01*
X151898024Y-93180500D01*
X151898026Y-93180500D01*
X152101974Y-93180500D01*
X152101976Y-93180500D01*
X152302456Y-93143024D01*
X152492637Y-93069348D01*
X152666041Y-92961981D01*
X152816764Y-92824579D01*
X152939673Y-92661821D01*
X153030582Y-92479250D01*
X153086397Y-92283083D01*
X153105215Y-92080000D01*
X153105215Y-92079999D01*
X154894785Y-92079999D01*
X154894785Y-92080000D01*
X154913602Y-92283082D01*
X154969417Y-92479247D01*
X154969422Y-92479260D01*
X155060327Y-92661821D01*
X155183237Y-92824581D01*
X155333958Y-92961980D01*
X155333960Y-92961982D01*
X155433141Y-93023392D01*
X155507363Y-93069348D01*
X155697544Y-93143024D01*
X155898024Y-93180500D01*
X155898026Y-93180500D01*
X156101974Y-93180500D01*
X156101976Y-93180500D01*
X156302456Y-93143024D01*
X156492637Y-93069348D01*
X156666041Y-92961981D01*
X156816764Y-92824579D01*
X156939673Y-92661821D01*
X157030582Y-92479250D01*
X157086397Y-92283083D01*
X157105215Y-92080000D01*
X157086397Y-91876917D01*
X157030582Y-91680750D01*
X157018587Y-91656661D01*
X156943623Y-91506112D01*
X156939673Y-91498179D01*
X156816764Y-91335421D01*
X156816762Y-91335418D01*
X156666041Y-91198019D01*
X156666039Y-91198017D01*
X156492642Y-91090655D01*
X156492635Y-91090651D01*
X156397546Y-91053814D01*
X156302456Y-91016976D01*
X156101976Y-90979500D01*
X155898024Y-90979500D01*
X155697544Y-91016976D01*
X155697541Y-91016976D01*
X155697541Y-91016977D01*
X155507364Y-91090651D01*
X155507357Y-91090655D01*
X155333960Y-91198017D01*
X155333958Y-91198019D01*
X155183237Y-91335418D01*
X155060327Y-91498178D01*
X154969422Y-91680739D01*
X154969417Y-91680752D01*
X154913602Y-91876917D01*
X154894785Y-92079999D01*
X153105215Y-92079999D01*
X153086397Y-91876917D01*
X153030582Y-91680750D01*
X153018587Y-91656661D01*
X152943623Y-91506112D01*
X152939673Y-91498179D01*
X152816764Y-91335421D01*
X152816762Y-91335418D01*
X152666041Y-91198019D01*
X152666039Y-91198017D01*
X152492642Y-91090655D01*
X152492635Y-91090651D01*
X152397546Y-91053814D01*
X152302456Y-91016976D01*
X152101976Y-90979500D01*
X151898024Y-90979500D01*
X151697544Y-91016976D01*
X151697541Y-91016976D01*
X151697541Y-91016977D01*
X151507364Y-91090651D01*
X151507357Y-91090655D01*
X151333960Y-91198017D01*
X151333958Y-91198019D01*
X151183237Y-91335418D01*
X151060327Y-91498178D01*
X150969422Y-91680739D01*
X150969417Y-91680752D01*
X150913602Y-91876917D01*
X150894785Y-92079999D01*
X87259821Y-92079999D01*
X87275888Y-92073344D01*
X87474612Y-91958611D01*
X87656661Y-91818919D01*
X87656665Y-91818914D01*
X87656670Y-91818911D01*
X87818911Y-91656670D01*
X87818914Y-91656665D01*
X87818919Y-91656661D01*
X87958611Y-91474612D01*
X88073344Y-91275888D01*
X88161158Y-91063887D01*
X88220548Y-90842238D01*
X88250500Y-90614734D01*
X88250500Y-90200737D01*
X113045487Y-90200737D01*
X113056525Y-90284581D01*
X113064407Y-90344445D01*
X113064408Y-90344449D01*
X113119875Y-90478360D01*
X113119876Y-90478362D01*
X113177516Y-90553480D01*
X113202710Y-90618649D01*
X113188672Y-90687094D01*
X113177517Y-90704451D01*
X113144388Y-90747625D01*
X113144388Y-90747626D01*
X113088921Y-90881537D01*
X113088920Y-90881541D01*
X113070000Y-91025250D01*
X113078610Y-91090652D01*
X113088920Y-91168958D01*
X113088921Y-91168962D01*
X113144387Y-91302872D01*
X113144388Y-91302874D01*
X113144389Y-91302875D01*
X113232629Y-91417871D01*
X113347625Y-91506111D01*
X113481541Y-91561580D01*
X113608530Y-91578298D01*
X113625249Y-91580500D01*
X113625250Y-91580500D01*
X113625251Y-91580500D01*
X113640227Y-91578528D01*
X113768959Y-91561580D01*
X113902875Y-91506111D01*
X114017871Y-91417871D01*
X114106111Y-91302875D01*
X114161580Y-91168959D01*
X114180500Y-91025250D01*
X114161580Y-90881541D01*
X114106111Y-90747625D01*
X114048469Y-90672505D01*
X114023276Y-90607337D01*
X114037314Y-90538893D01*
X114048464Y-90521542D01*
X114081598Y-90478362D01*
X114137067Y-90344446D01*
X114155987Y-90200737D01*
X114137067Y-90057028D01*
X114088287Y-89939260D01*
X114081599Y-89923114D01*
X114081598Y-89923113D01*
X114081598Y-89923112D01*
X113993358Y-89808116D01*
X113878362Y-89719876D01*
X113878361Y-89719875D01*
X113878359Y-89719874D01*
X113744449Y-89664408D01*
X113744447Y-89664407D01*
X113744446Y-89664407D01*
X113672591Y-89654947D01*
X113600738Y-89645487D01*
X113600736Y-89645487D01*
X113457028Y-89664407D01*
X113457024Y-89664408D01*
X113323114Y-89719874D01*
X113208116Y-89808116D01*
X113119874Y-89923114D01*
X113064408Y-90057024D01*
X113064407Y-90057028D01*
X113045487Y-90200737D01*
X88250500Y-90200737D01*
X88250500Y-89539999D01*
X150894785Y-89539999D01*
X150894785Y-89540000D01*
X150913602Y-89743082D01*
X150969417Y-89939247D01*
X150969422Y-89939260D01*
X151060327Y-90121821D01*
X151183237Y-90284581D01*
X151333958Y-90421980D01*
X151333960Y-90421982D01*
X151425013Y-90478359D01*
X151507363Y-90529348D01*
X151697544Y-90603024D01*
X151898024Y-90640500D01*
X151898026Y-90640500D01*
X152101974Y-90640500D01*
X152101976Y-90640500D01*
X152302456Y-90603024D01*
X152492637Y-90529348D01*
X152666041Y-90421981D01*
X152816764Y-90284579D01*
X152939673Y-90121821D01*
X153030582Y-89939250D01*
X153086397Y-89743083D01*
X153105215Y-89540000D01*
X153086397Y-89336917D01*
X153030582Y-89140750D01*
X152939673Y-88958179D01*
X152816764Y-88795421D01*
X152816762Y-88795418D01*
X152666041Y-88658019D01*
X152666039Y-88658017D01*
X152492642Y-88550655D01*
X152492635Y-88550651D01*
X152397546Y-88513814D01*
X152302456Y-88476976D01*
X152101976Y-88439500D01*
X151898024Y-88439500D01*
X151697544Y-88476976D01*
X151697541Y-88476976D01*
X151697541Y-88476977D01*
X151507364Y-88550651D01*
X151507357Y-88550655D01*
X151333960Y-88658017D01*
X151333958Y-88658019D01*
X151183237Y-88795418D01*
X151060327Y-88958178D01*
X150969422Y-89140739D01*
X150969417Y-89140752D01*
X150913602Y-89336917D01*
X150894785Y-89539999D01*
X88250500Y-89539999D01*
X88250500Y-86885266D01*
X88247378Y-86861557D01*
X88220549Y-86657761D01*
X88161158Y-86436114D01*
X88161155Y-86436106D01*
X88073349Y-86224121D01*
X88073344Y-86224112D01*
X88007807Y-86110599D01*
X87958611Y-86025388D01*
X87873166Y-85914034D01*
X87818920Y-85843339D01*
X87818915Y-85843333D01*
X86975581Y-84999999D01*
X121694750Y-84999999D01*
X121694750Y-85000000D01*
X121713670Y-85143708D01*
X121713671Y-85143712D01*
X121769137Y-85277622D01*
X121769138Y-85277624D01*
X121769139Y-85277625D01*
X121857379Y-85392621D01*
X121972375Y-85480861D01*
X122106291Y-85536330D01*
X122233280Y-85553048D01*
X122249999Y-85555250D01*
X122250000Y-85555250D01*
X122250001Y-85555250D01*
X122285927Y-85550520D01*
X122393709Y-85536330D01*
X122457427Y-85509937D01*
X122504876Y-85500500D01*
X123565890Y-85500500D01*
X123565892Y-85500500D01*
X123693186Y-85466392D01*
X123807314Y-85400500D01*
X135852556Y-73355256D01*
X135913877Y-73321773D01*
X135983569Y-73326757D01*
X136038283Y-73367029D01*
X136688877Y-74207379D01*
X137978357Y-75872958D01*
X137987693Y-75886864D01*
X137999500Y-75907314D01*
X137999502Y-75907316D01*
X138018100Y-75925914D01*
X138028467Y-75937683D01*
X138044580Y-75958495D01*
X138063373Y-75972787D01*
X138075992Y-75983806D01*
X138092686Y-76000500D01*
X138092687Y-76000501D01*
X138092689Y-76000502D01*
X138115473Y-76013656D01*
X138128529Y-76022338D01*
X138149476Y-76038269D01*
X138149479Y-76038270D01*
X138149482Y-76038272D01*
X138171325Y-76047209D01*
X138186366Y-76054586D01*
X138197158Y-76060817D01*
X138206813Y-76066392D01*
X138215903Y-76068827D01*
X138232227Y-76073201D01*
X138247085Y-76078208D01*
X138271444Y-76088176D01*
X138294879Y-76091158D01*
X138311300Y-76094388D01*
X138326817Y-76098546D01*
X138334107Y-76100500D01*
X138334108Y-76100500D01*
X138360418Y-76100500D01*
X138376072Y-76101491D01*
X138402175Y-76104814D01*
X138425566Y-76101631D01*
X138442281Y-76100500D01*
X141095124Y-76100500D01*
X141142576Y-76109939D01*
X141154582Y-76114912D01*
X141192234Y-76139288D01*
X151308175Y-85685315D01*
X151343423Y-85745642D01*
X151340460Y-85815449D01*
X151300226Y-85872572D01*
X151235497Y-85898876D01*
X151223071Y-85899500D01*
X151125323Y-85899500D01*
X151052264Y-85914032D01*
X151052260Y-85914033D01*
X150969399Y-85969399D01*
X150914033Y-86052260D01*
X150914032Y-86052264D01*
X150899500Y-86125321D01*
X150899500Y-87874678D01*
X150914032Y-87947735D01*
X150914033Y-87947739D01*
X150914034Y-87947740D01*
X150969399Y-88030601D01*
X151052260Y-88085966D01*
X151052264Y-88085967D01*
X151125321Y-88100499D01*
X151125324Y-88100500D01*
X151125326Y-88100500D01*
X152874676Y-88100500D01*
X152874677Y-88100499D01*
X152947740Y-88085966D01*
X153030601Y-88030601D01*
X153085966Y-87947740D01*
X153100500Y-87874674D01*
X153100500Y-86125326D01*
X153100500Y-86125323D01*
X153100499Y-86125321D01*
X154899500Y-86125321D01*
X154899500Y-87874678D01*
X154914032Y-87947735D01*
X154914033Y-87947739D01*
X154914034Y-87947740D01*
X154969399Y-88030601D01*
X155052260Y-88085966D01*
X155052264Y-88085967D01*
X155125321Y-88100499D01*
X155125324Y-88100500D01*
X155125326Y-88100500D01*
X156874676Y-88100500D01*
X156874677Y-88100499D01*
X156947740Y-88085966D01*
X157030601Y-88030601D01*
X157085966Y-87947740D01*
X157100500Y-87874674D01*
X157100500Y-86125326D01*
X157100500Y-86125323D01*
X157100499Y-86125321D01*
X157085967Y-86052264D01*
X157085966Y-86052260D01*
X157068011Y-86025388D01*
X157030601Y-85969399D01*
X156975235Y-85932405D01*
X156947739Y-85914033D01*
X156947735Y-85914032D01*
X156874677Y-85899500D01*
X156874674Y-85899500D01*
X155125326Y-85899500D01*
X155125323Y-85899500D01*
X155052264Y-85914032D01*
X155052260Y-85914033D01*
X154969399Y-85969399D01*
X154914033Y-86052260D01*
X154914032Y-86052264D01*
X154899500Y-86125321D01*
X153100499Y-86125321D01*
X153085967Y-86052264D01*
X153085966Y-86052260D01*
X153068011Y-86025388D01*
X153030601Y-85969399D01*
X152975235Y-85932405D01*
X152947739Y-85914033D01*
X152947735Y-85914032D01*
X152874677Y-85899500D01*
X152874674Y-85899500D01*
X152624500Y-85899500D01*
X152557461Y-85879815D01*
X152511706Y-85827011D01*
X152500500Y-85775500D01*
X152500500Y-85723031D01*
X152502080Y-85709528D01*
X152501372Y-85709456D01*
X152502198Y-85701368D01*
X152502199Y-85701364D01*
X152500552Y-85644538D01*
X152500500Y-85640946D01*
X152500500Y-85584105D01*
X152499546Y-85576865D01*
X152498381Y-85569635D01*
X152482077Y-85515154D01*
X152481107Y-85511733D01*
X152466392Y-85456814D01*
X152466390Y-85456810D01*
X152463602Y-85450078D01*
X152460601Y-85443390D01*
X152460599Y-85443382D01*
X152430756Y-85394986D01*
X152428915Y-85391902D01*
X152400500Y-85342686D01*
X152400494Y-85342680D01*
X152396043Y-85336879D01*
X152391426Y-85331209D01*
X152350070Y-85292183D01*
X152347492Y-85289678D01*
X152307314Y-85249499D01*
X152300868Y-85244553D01*
X152301302Y-85243986D01*
X152290395Y-85235870D01*
X141879558Y-75411560D01*
X141850103Y-75368830D01*
X141830861Y-75322375D01*
X141742621Y-75207379D01*
X141730886Y-75198374D01*
X141689685Y-75141950D01*
X141685529Y-75072204D01*
X141719740Y-75011283D01*
X141730876Y-75001632D01*
X141742621Y-74992621D01*
X141830861Y-74877625D01*
X141886330Y-74743709D01*
X141905250Y-74600000D01*
X141886330Y-74456291D01*
X141830861Y-74322375D01*
X141742621Y-74207379D01*
X141627625Y-74119139D01*
X141627624Y-74119138D01*
X141627622Y-74119137D01*
X141493712Y-74063671D01*
X141493710Y-74063670D01*
X141493709Y-74063670D01*
X141421854Y-74054210D01*
X141350001Y-74044750D01*
X141349999Y-74044750D01*
X141206291Y-74063670D01*
X141206287Y-74063671D01*
X141072377Y-74119137D01*
X140957379Y-74207379D01*
X140869137Y-74322377D01*
X140813671Y-74456287D01*
X140813670Y-74456291D01*
X140794750Y-74599999D01*
X140794750Y-74600000D01*
X140813670Y-74743708D01*
X140813671Y-74743712D01*
X140869138Y-74877623D01*
X140869139Y-74877626D01*
X140886318Y-74900013D01*
X140911513Y-74965182D01*
X140897475Y-75033627D01*
X140848662Y-75083617D01*
X140787943Y-75099500D01*
X138706298Y-75099500D01*
X138639259Y-75079815D01*
X138608248Y-75051409D01*
X138600491Y-75041390D01*
X137547179Y-73680861D01*
X137174899Y-73199999D01*
X144001314Y-73199999D01*
X144001314Y-73200000D01*
X144020234Y-73343708D01*
X144020235Y-73343712D01*
X144075701Y-73477622D01*
X144075702Y-73477624D01*
X144075703Y-73477625D01*
X144163943Y-73592621D01*
X144278939Y-73680861D01*
X144412855Y-73736330D01*
X144539844Y-73753048D01*
X144556563Y-73755250D01*
X144556564Y-73755250D01*
X144556565Y-73755250D01*
X144571541Y-73753278D01*
X144700273Y-73736330D01*
X144834189Y-73680861D01*
X144949185Y-73592621D01*
X145037425Y-73477625D01*
X145092894Y-73343709D01*
X145103834Y-73260608D01*
X145132100Y-73196713D01*
X145190425Y-73158242D01*
X145210585Y-73153856D01*
X145343709Y-73136330D01*
X145477625Y-73080861D01*
X145592621Y-72992621D01*
X145680861Y-72877625D01*
X145736330Y-72743709D01*
X145755250Y-72600000D01*
X145736330Y-72456291D01*
X145680861Y-72322375D01*
X145592621Y-72207379D01*
X145477625Y-72119139D01*
X145477624Y-72119138D01*
X145477622Y-72119137D01*
X145343712Y-72063671D01*
X145343710Y-72063670D01*
X145343709Y-72063670D01*
X145271854Y-72054210D01*
X145200001Y-72044750D01*
X145199999Y-72044750D01*
X145056291Y-72063670D01*
X145056287Y-72063671D01*
X144922377Y-72119137D01*
X144807379Y-72207379D01*
X144719137Y-72322377D01*
X144663671Y-72456287D01*
X144663670Y-72456291D01*
X144652729Y-72539391D01*
X144624462Y-72603287D01*
X144566137Y-72641757D01*
X144545977Y-72646143D01*
X144412855Y-72663670D01*
X144412851Y-72663671D01*
X144278941Y-72719137D01*
X144163943Y-72807379D01*
X144075701Y-72922377D01*
X144020235Y-73056287D01*
X144020234Y-73056291D01*
X144001314Y-73199999D01*
X137174899Y-73199999D01*
X136559340Y-72404901D01*
X136537615Y-72361086D01*
X136536329Y-72356287D01*
X136509939Y-72292575D01*
X136500500Y-72245123D01*
X136500500Y-71954835D01*
X137932896Y-71954835D01*
X137932896Y-71954836D01*
X137951816Y-72098544D01*
X137951817Y-72098548D01*
X138007283Y-72232458D01*
X138007284Y-72232460D01*
X138007285Y-72232461D01*
X138095525Y-72347457D01*
X138210521Y-72435697D01*
X138344437Y-72491166D01*
X138471426Y-72507884D01*
X138488145Y-72510086D01*
X138488146Y-72510086D01*
X138488147Y-72510086D01*
X138503123Y-72508114D01*
X138631855Y-72491166D01*
X138765771Y-72435697D01*
X138880767Y-72347457D01*
X138969007Y-72232461D01*
X139024476Y-72098545D01*
X139043396Y-71954836D01*
X139024476Y-71811127D01*
X138969007Y-71677211D01*
X138880767Y-71562215D01*
X138765771Y-71473975D01*
X138765770Y-71473974D01*
X138765768Y-71473973D01*
X138631858Y-71418507D01*
X138631856Y-71418506D01*
X138631855Y-71418506D01*
X138560000Y-71409046D01*
X138488147Y-71399586D01*
X138488145Y-71399586D01*
X138344437Y-71418506D01*
X138344433Y-71418507D01*
X138210523Y-71473973D01*
X138095525Y-71562215D01*
X138007283Y-71677213D01*
X137951817Y-71811123D01*
X137951816Y-71811127D01*
X137932896Y-71954835D01*
X136500500Y-71954835D01*
X136500500Y-70724264D01*
X140720485Y-70724264D01*
X140720485Y-70724265D01*
X140739405Y-70867973D01*
X140739406Y-70867977D01*
X140794872Y-71001887D01*
X140794873Y-71001889D01*
X140794874Y-71001890D01*
X140883114Y-71116886D01*
X140998110Y-71205126D01*
X141132026Y-71260595D01*
X141259015Y-71277313D01*
X141275734Y-71279515D01*
X141275735Y-71279515D01*
X141275736Y-71279515D01*
X141290712Y-71277543D01*
X141419444Y-71260595D01*
X141553360Y-71205126D01*
X141668356Y-71116886D01*
X141756596Y-71001890D01*
X141812065Y-70867974D01*
X141830985Y-70724265D01*
X141812065Y-70580556D01*
X141756596Y-70446640D01*
X141668356Y-70331644D01*
X141553360Y-70243404D01*
X141553359Y-70243403D01*
X141553357Y-70243402D01*
X141507153Y-70224264D01*
X147820485Y-70224264D01*
X147820485Y-70224265D01*
X147839405Y-70367973D01*
X147839406Y-70367977D01*
X147894872Y-70501887D01*
X147894873Y-70501889D01*
X147894874Y-70501890D01*
X147983114Y-70616886D01*
X148098110Y-70705126D01*
X148232026Y-70760595D01*
X148359015Y-70777313D01*
X148375734Y-70779515D01*
X148375735Y-70779515D01*
X148375736Y-70779515D01*
X148390712Y-70777543D01*
X148519444Y-70760595D01*
X148653360Y-70705126D01*
X148768356Y-70616886D01*
X148856596Y-70501890D01*
X148912065Y-70367974D01*
X148930985Y-70224265D01*
X148912065Y-70080556D01*
X148856596Y-69946640D01*
X148768356Y-69831644D01*
X148653360Y-69743404D01*
X148653359Y-69743403D01*
X148653357Y-69743402D01*
X148519447Y-69687936D01*
X148519445Y-69687935D01*
X148519444Y-69687935D01*
X148441133Y-69677625D01*
X148375736Y-69669015D01*
X148375734Y-69669015D01*
X148232026Y-69687935D01*
X148232022Y-69687936D01*
X148098112Y-69743402D01*
X147983114Y-69831644D01*
X147894872Y-69946642D01*
X147839406Y-70080552D01*
X147839405Y-70080556D01*
X147820485Y-70224264D01*
X141507153Y-70224264D01*
X141419447Y-70187936D01*
X141419445Y-70187935D01*
X141419444Y-70187935D01*
X141347589Y-70178475D01*
X141275736Y-70169015D01*
X141275734Y-70169015D01*
X141132026Y-70187935D01*
X141132022Y-70187936D01*
X140998112Y-70243402D01*
X140883114Y-70331644D01*
X140794872Y-70446642D01*
X140739406Y-70580552D01*
X140739405Y-70580556D01*
X140720485Y-70724264D01*
X136500500Y-70724264D01*
X136500500Y-66508675D01*
X136520185Y-66441636D01*
X136536815Y-66420998D01*
X137173683Y-65784129D01*
X137213907Y-65757252D01*
X137277625Y-65730861D01*
X137392621Y-65642621D01*
X137446052Y-65572989D01*
X137464450Y-65549013D01*
X137520878Y-65507811D01*
X137562825Y-65500500D01*
X140044035Y-65500500D01*
X140111074Y-65520185D01*
X140156829Y-65572989D01*
X140166773Y-65642147D01*
X140142411Y-65699986D01*
X140121649Y-65727043D01*
X140121648Y-65727045D01*
X140066181Y-65860956D01*
X140066180Y-65860960D01*
X140047260Y-66004668D01*
X140047260Y-66004669D01*
X140066180Y-66148377D01*
X140066181Y-66148381D01*
X140121647Y-66282291D01*
X140121648Y-66282293D01*
X140121649Y-66282294D01*
X140209889Y-66397290D01*
X140324885Y-66485530D01*
X140458801Y-66540999D01*
X140557325Y-66553970D01*
X140621221Y-66582237D01*
X140659692Y-66640561D01*
X140664077Y-66660719D01*
X140666275Y-66677415D01*
X140666276Y-66677418D01*
X140721745Y-66811333D01*
X140721746Y-66811335D01*
X140752419Y-66851309D01*
X140777613Y-66916478D01*
X140763575Y-66984923D01*
X140714761Y-67034912D01*
X140646669Y-67050576D01*
X140637857Y-67049734D01*
X140600001Y-67044750D01*
X140599999Y-67044750D01*
X140456291Y-67063670D01*
X140456287Y-67063671D01*
X140322377Y-67119137D01*
X140207379Y-67207379D01*
X140119137Y-67322377D01*
X140063671Y-67456287D01*
X140063670Y-67456291D01*
X140044750Y-67600000D01*
X140053132Y-67663670D01*
X140063670Y-67743708D01*
X140063671Y-67743712D01*
X140119137Y-67877622D01*
X140119138Y-67877624D01*
X140119139Y-67877625D01*
X140207379Y-67992621D01*
X140322375Y-68080861D01*
X140456291Y-68136330D01*
X140583280Y-68153048D01*
X140599999Y-68155250D01*
X140600000Y-68155250D01*
X140600001Y-68155250D01*
X140635103Y-68150628D01*
X140662701Y-68146995D01*
X140731736Y-68157760D01*
X140783992Y-68204140D01*
X140801826Y-68253748D01*
X140813670Y-68343707D01*
X140813671Y-68343712D01*
X140869137Y-68477622D01*
X140869138Y-68477624D01*
X140869139Y-68477625D01*
X140957379Y-68592621D01*
X141072375Y-68680861D01*
X141206291Y-68736330D01*
X141333280Y-68753048D01*
X141349999Y-68755250D01*
X141350000Y-68755250D01*
X141350001Y-68755250D01*
X141364977Y-68753278D01*
X141493709Y-68736330D01*
X141627625Y-68680861D01*
X141742621Y-68592621D01*
X141830861Y-68477625D01*
X141886330Y-68343709D01*
X141905250Y-68200000D01*
X141886330Y-68056291D01*
X141830861Y-67922375D01*
X141742621Y-67807379D01*
X141627625Y-67719139D01*
X141627624Y-67719138D01*
X141627622Y-67719137D01*
X141493712Y-67663671D01*
X141493710Y-67663670D01*
X141493709Y-67663670D01*
X141412694Y-67653004D01*
X141350001Y-67644750D01*
X141349996Y-67644750D01*
X141287296Y-67653004D01*
X141218261Y-67642238D01*
X141166006Y-67595857D01*
X141148173Y-67546252D01*
X141136330Y-67456291D01*
X141080861Y-67322375D01*
X141050186Y-67282399D01*
X141024993Y-67217231D01*
X141039031Y-67148787D01*
X141087845Y-67098797D01*
X141155936Y-67083133D01*
X141164721Y-67083972D01*
X141202607Y-67088960D01*
X141346316Y-67070040D01*
X141480232Y-67014571D01*
X141595228Y-66926331D01*
X141683468Y-66811335D01*
X141727439Y-66705176D01*
X141771278Y-66650776D01*
X141837572Y-66628710D01*
X141856550Y-66629614D01*
X141857592Y-66629614D01*
X141857593Y-66629614D01*
X141872569Y-66627642D01*
X142001301Y-66610694D01*
X142130038Y-66557369D01*
X142199507Y-66549901D01*
X142252977Y-66573556D01*
X142372373Y-66665173D01*
X142372374Y-66665173D01*
X142372375Y-66665174D01*
X142506291Y-66720643D01*
X142599808Y-66732955D01*
X142663703Y-66761220D01*
X142702174Y-66819544D01*
X142706560Y-66839706D01*
X142713670Y-66893708D01*
X142713671Y-66893712D01*
X142769137Y-67027622D01*
X142769138Y-67027624D01*
X142769139Y-67027625D01*
X142857379Y-67142621D01*
X142972375Y-67230861D01*
X143106291Y-67286330D01*
X143233280Y-67303048D01*
X143249999Y-67305250D01*
X143250000Y-67305250D01*
X143250001Y-67305250D01*
X143264977Y-67303278D01*
X143393709Y-67286330D01*
X143527625Y-67230861D01*
X143642621Y-67142621D01*
X143730861Y-67027625D01*
X143786330Y-66893709D01*
X143798667Y-66800000D01*
X146044750Y-66800000D01*
X146049977Y-66839706D01*
X146063670Y-66943708D01*
X146063671Y-66943712D01*
X146119137Y-67077622D01*
X146119138Y-67077623D01*
X146119139Y-67077625D01*
X146176560Y-67152458D01*
X146201754Y-67217625D01*
X146187716Y-67286070D01*
X146176561Y-67303428D01*
X146143403Y-67346640D01*
X146143403Y-67346641D01*
X146087936Y-67480552D01*
X146087935Y-67480556D01*
X146072210Y-67600000D01*
X146069015Y-67624265D01*
X146084740Y-67743709D01*
X146087935Y-67767973D01*
X146087936Y-67767977D01*
X146143402Y-67901887D01*
X146143403Y-67901889D01*
X146143404Y-67901890D01*
X146231644Y-68016886D01*
X146346640Y-68105126D01*
X146346641Y-68105126D01*
X146346642Y-68105127D01*
X146380466Y-68119137D01*
X146480556Y-68160595D01*
X146607545Y-68177313D01*
X146624264Y-68179515D01*
X146624265Y-68179515D01*
X146624266Y-68179515D01*
X146639242Y-68177543D01*
X146767974Y-68160595D01*
X146901890Y-68105126D01*
X147016886Y-68016886D01*
X147105126Y-67901890D01*
X147160595Y-67767974D01*
X147179515Y-67624265D01*
X147160595Y-67480556D01*
X147105126Y-67346640D01*
X147105125Y-67346639D01*
X147105125Y-67346638D01*
X147047705Y-67271808D01*
X147022510Y-67206639D01*
X147036548Y-67138194D01*
X147047705Y-67120834D01*
X147049006Y-67119139D01*
X147080861Y-67077625D01*
X147136330Y-66943709D01*
X147155250Y-66800000D01*
X147136330Y-66656291D01*
X147093631Y-66553206D01*
X147080862Y-66522377D01*
X147080861Y-66522376D01*
X147080861Y-66522375D01*
X146992621Y-66407379D01*
X146877625Y-66319139D01*
X146877624Y-66319138D01*
X146877622Y-66319137D01*
X146743712Y-66263671D01*
X146743710Y-66263670D01*
X146743709Y-66263670D01*
X146671854Y-66254210D01*
X146600001Y-66244750D01*
X146599999Y-66244750D01*
X146456291Y-66263670D01*
X146456287Y-66263671D01*
X146322377Y-66319137D01*
X146207379Y-66407379D01*
X146119137Y-66522377D01*
X146063671Y-66656287D01*
X146063670Y-66656291D01*
X146049856Y-66761220D01*
X146044750Y-66800000D01*
X143798667Y-66800000D01*
X143805250Y-66750000D01*
X143795309Y-66674495D01*
X143806074Y-66605462D01*
X143852453Y-66553206D01*
X143919722Y-66534320D01*
X143934423Y-66535371D01*
X143956564Y-66538286D01*
X144100273Y-66519366D01*
X144234189Y-66463897D01*
X144349185Y-66375657D01*
X144437425Y-66260661D01*
X144492894Y-66126745D01*
X144511814Y-65983036D01*
X144492894Y-65839327D01*
X144437425Y-65705411D01*
X144434315Y-65697902D01*
X144436152Y-65697141D01*
X144422220Y-65639700D01*
X144445074Y-65573674D01*
X144499998Y-65530486D01*
X144569551Y-65523847D01*
X144593528Y-65531043D01*
X144606291Y-65536330D01*
X144733280Y-65553048D01*
X144749999Y-65555250D01*
X144750000Y-65555250D01*
X144750001Y-65555250D01*
X144797374Y-65549013D01*
X144893709Y-65536330D01*
X144957427Y-65509937D01*
X145004876Y-65500500D01*
X145265890Y-65500500D01*
X145265892Y-65500500D01*
X145393186Y-65466392D01*
X145507314Y-65400500D01*
X149578616Y-61329196D01*
X149639937Y-61295713D01*
X149709629Y-61300697D01*
X149765562Y-61342569D01*
X149789979Y-61408033D01*
X149788768Y-61436277D01*
X149772050Y-61541831D01*
X149772050Y-61768168D01*
X149807458Y-61991722D01*
X149807458Y-61991725D01*
X149877398Y-62206978D01*
X149877400Y-62206981D01*
X149980155Y-62408650D01*
X150113193Y-62591761D01*
X150273239Y-62751807D01*
X150456350Y-62884845D01*
X150658019Y-62987600D01*
X150658021Y-62987601D01*
X150696182Y-63000000D01*
X150873279Y-63057542D01*
X151096831Y-63092950D01*
X151096832Y-63092950D01*
X151323168Y-63092950D01*
X151323169Y-63092950D01*
X151546721Y-63057542D01*
X151546724Y-63057541D01*
X151546725Y-63057541D01*
X151761978Y-62987601D01*
X151761978Y-62987600D01*
X151761981Y-62987600D01*
X151963650Y-62884845D01*
X152146761Y-62751807D01*
X152306807Y-62591761D01*
X152439845Y-62408650D01*
X152542600Y-62206981D01*
X152598180Y-62035924D01*
X152612541Y-61991725D01*
X152612541Y-61991724D01*
X152612542Y-61991721D01*
X152647950Y-61768169D01*
X152647950Y-61541831D01*
X152947050Y-61541831D01*
X152947050Y-61768168D01*
X152982458Y-61991722D01*
X152982458Y-61991725D01*
X153052398Y-62206978D01*
X153052400Y-62206981D01*
X153155155Y-62408650D01*
X153288193Y-62591761D01*
X153448239Y-62751807D01*
X153631350Y-62884845D01*
X153833019Y-62987600D01*
X153833021Y-62987601D01*
X153871182Y-63000000D01*
X154048279Y-63057542D01*
X154271831Y-63092950D01*
X154271832Y-63092950D01*
X154498168Y-63092950D01*
X154498169Y-63092950D01*
X154721721Y-63057542D01*
X154721724Y-63057541D01*
X154721725Y-63057541D01*
X154936978Y-62987601D01*
X154936978Y-62987600D01*
X154936981Y-62987600D01*
X155138650Y-62884845D01*
X155321761Y-62751807D01*
X155481807Y-62591761D01*
X155614845Y-62408650D01*
X155717600Y-62206981D01*
X155773180Y-62035924D01*
X155787541Y-61991725D01*
X155787541Y-61991724D01*
X155787542Y-61991721D01*
X155822950Y-61768169D01*
X155822950Y-61541831D01*
X155787542Y-61318279D01*
X155787541Y-61318275D01*
X155787541Y-61318274D01*
X155717601Y-61103021D01*
X155717599Y-61103018D01*
X155693261Y-61055250D01*
X155614845Y-60901350D01*
X155481807Y-60718239D01*
X155321761Y-60558193D01*
X155138650Y-60425155D01*
X154936981Y-60322400D01*
X154936978Y-60322398D01*
X154721723Y-60252458D01*
X154542825Y-60224123D01*
X154498169Y-60217050D01*
X154271831Y-60217050D01*
X154227175Y-60224123D01*
X154048277Y-60252458D01*
X154048274Y-60252458D01*
X153833021Y-60322398D01*
X153833018Y-60322400D01*
X153631349Y-60425155D01*
X153549978Y-60484275D01*
X153448239Y-60558193D01*
X153448237Y-60558195D01*
X153448236Y-60558195D01*
X153288195Y-60718236D01*
X153288195Y-60718237D01*
X153288193Y-60718239D01*
X153234661Y-60791920D01*
X153155155Y-60901349D01*
X153052400Y-61103018D01*
X153052398Y-61103021D01*
X152982458Y-61318274D01*
X152982458Y-61318277D01*
X152947050Y-61541831D01*
X152647950Y-61541831D01*
X152612542Y-61318279D01*
X152612541Y-61318275D01*
X152612541Y-61318274D01*
X152542601Y-61103021D01*
X152542599Y-61103018D01*
X152518261Y-61055250D01*
X152439845Y-60901350D01*
X152306807Y-60718239D01*
X152146761Y-60558193D01*
X151963650Y-60425155D01*
X151761981Y-60322400D01*
X151761978Y-60322398D01*
X151546723Y-60252458D01*
X151367825Y-60224123D01*
X151323169Y-60217050D01*
X151096831Y-60217050D01*
X151052263Y-60224109D01*
X150882803Y-60250949D01*
X150813510Y-60241994D01*
X150760058Y-60196998D01*
X150739418Y-60130247D01*
X150740466Y-60112290D01*
X150743196Y-60091559D01*
X150755250Y-60000000D01*
X150746228Y-59931472D01*
X150756993Y-59862438D01*
X150803373Y-59810182D01*
X150870642Y-59791296D01*
X150916614Y-59800724D01*
X150992458Y-59832140D01*
X151136540Y-59860799D01*
X151136544Y-59860800D01*
X151136545Y-59860800D01*
X151283456Y-59860800D01*
X151283457Y-59860799D01*
X151427542Y-59832140D01*
X151563269Y-59775920D01*
X151685420Y-59694301D01*
X151789301Y-59590420D01*
X151870920Y-59468269D01*
X151927140Y-59332542D01*
X151955800Y-59188455D01*
X151955800Y-59041545D01*
X151927140Y-58897458D01*
X151870920Y-58761731D01*
X151870919Y-58761730D01*
X151870916Y-58761724D01*
X151789301Y-58639580D01*
X151789298Y-58639576D01*
X151685423Y-58535701D01*
X151685419Y-58535698D01*
X151563275Y-58454083D01*
X151563266Y-58454078D01*
X151450081Y-58407196D01*
X151427542Y-58397860D01*
X151427538Y-58397859D01*
X151427534Y-58397858D01*
X151283459Y-58369200D01*
X151283455Y-58369200D01*
X151136545Y-58369200D01*
X151136540Y-58369200D01*
X150992465Y-58397858D01*
X150992450Y-58397862D01*
X150912441Y-58431003D01*
X150842971Y-58438472D01*
X150780492Y-58407196D01*
X150744840Y-58347107D01*
X150742050Y-58300259D01*
X150755250Y-58200000D01*
X150744500Y-58118347D01*
X150755265Y-58049313D01*
X150776365Y-58025540D01*
X155544200Y-58025540D01*
X155544200Y-58172459D01*
X155572858Y-58316534D01*
X155572861Y-58316544D01*
X155629078Y-58452266D01*
X155629083Y-58452275D01*
X155710698Y-58574419D01*
X155710701Y-58574423D01*
X155814576Y-58678298D01*
X155814580Y-58678301D01*
X155936724Y-58759916D01*
X155936730Y-58759919D01*
X155936731Y-58759920D01*
X156072458Y-58816140D01*
X156199246Y-58841359D01*
X156216540Y-58844799D01*
X156216544Y-58844800D01*
X156216545Y-58844800D01*
X156363456Y-58844800D01*
X156363456Y-58844799D01*
X156503579Y-58816928D01*
X156573170Y-58823155D01*
X156628348Y-58866018D01*
X156651592Y-58931908D01*
X156650709Y-58954729D01*
X156644750Y-58999996D01*
X156644750Y-58999999D01*
X156644750Y-59000000D01*
X156650219Y-59041544D01*
X156663670Y-59143708D01*
X156663671Y-59143712D01*
X156716518Y-59271299D01*
X156723987Y-59340769D01*
X156692711Y-59403248D01*
X156632622Y-59438900D01*
X156562797Y-59436405D01*
X156554505Y-59433312D01*
X156507548Y-59413862D01*
X156507544Y-59413860D01*
X156507542Y-59413860D01*
X156507538Y-59413859D01*
X156507534Y-59413858D01*
X156363459Y-59385200D01*
X156363455Y-59385200D01*
X156216545Y-59385200D01*
X156216540Y-59385200D01*
X156072465Y-59413858D01*
X156072455Y-59413861D01*
X155936733Y-59470078D01*
X155936724Y-59470083D01*
X155814580Y-59551698D01*
X155814576Y-59551701D01*
X155710701Y-59655576D01*
X155710698Y-59655580D01*
X155629083Y-59777724D01*
X155629078Y-59777733D01*
X155572861Y-59913455D01*
X155572858Y-59913465D01*
X155544200Y-60057540D01*
X155544200Y-60204459D01*
X155572858Y-60348534D01*
X155572861Y-60348544D01*
X155629078Y-60484266D01*
X155629083Y-60484275D01*
X155710698Y-60606419D01*
X155710701Y-60606423D01*
X155814576Y-60710298D01*
X155814580Y-60710301D01*
X155936724Y-60791916D01*
X155936730Y-60791919D01*
X155936731Y-60791920D01*
X156072458Y-60848140D01*
X156216540Y-60876799D01*
X156216544Y-60876800D01*
X156216545Y-60876800D01*
X156363456Y-60876800D01*
X156363457Y-60876799D01*
X156507542Y-60848140D01*
X156643269Y-60791920D01*
X156765420Y-60710301D01*
X156869301Y-60606420D01*
X156950920Y-60484269D01*
X157007140Y-60348542D01*
X157035800Y-60204455D01*
X157035800Y-60057545D01*
X157007140Y-59913458D01*
X156950920Y-59777731D01*
X156914503Y-59723229D01*
X156893625Y-59656552D01*
X156912109Y-59589172D01*
X156964088Y-59542481D01*
X157033058Y-59531305D01*
X157049699Y-59534563D01*
X157056285Y-59536327D01*
X157056291Y-59536330D01*
X157164072Y-59550520D01*
X157199999Y-59555250D01*
X157200000Y-59555250D01*
X157200001Y-59555250D01*
X157219847Y-59552637D01*
X157343709Y-59536330D01*
X157477625Y-59480861D01*
X157592621Y-59392621D01*
X157680861Y-59277625D01*
X157736330Y-59143709D01*
X157755250Y-59000000D01*
X157755249Y-58999996D01*
X157746285Y-58931908D01*
X157736330Y-58856291D01*
X157686641Y-58736329D01*
X157680862Y-58722377D01*
X157680861Y-58722376D01*
X157680861Y-58722375D01*
X157592621Y-58607379D01*
X157477625Y-58519139D01*
X157477624Y-58519138D01*
X157477622Y-58519137D01*
X157343712Y-58463671D01*
X157343710Y-58463670D01*
X157343709Y-58463670D01*
X157257157Y-58452275D01*
X157200001Y-58444750D01*
X157199997Y-58444750D01*
X157147325Y-58451684D01*
X157078290Y-58440918D01*
X157026035Y-58394538D01*
X157007150Y-58327269D01*
X157009523Y-58304560D01*
X157035800Y-58172455D01*
X157035800Y-58025545D01*
X157007140Y-57881458D01*
X156950920Y-57745731D01*
X156950919Y-57745730D01*
X156950916Y-57745724D01*
X156869301Y-57623580D01*
X156869298Y-57623576D01*
X156765423Y-57519701D01*
X156765419Y-57519698D01*
X156643275Y-57438083D01*
X156643266Y-57438078D01*
X156507544Y-57381861D01*
X156507545Y-57381861D01*
X156507542Y-57381860D01*
X156507538Y-57381859D01*
X156507534Y-57381858D01*
X156363459Y-57353200D01*
X156363455Y-57353200D01*
X156216545Y-57353200D01*
X156216540Y-57353200D01*
X156072465Y-57381858D01*
X156072455Y-57381861D01*
X155936733Y-57438078D01*
X155936724Y-57438083D01*
X155814580Y-57519698D01*
X155814576Y-57519701D01*
X155710701Y-57623576D01*
X155710698Y-57623580D01*
X155629083Y-57745724D01*
X155629078Y-57745733D01*
X155572861Y-57881455D01*
X155572858Y-57881465D01*
X155544200Y-58025540D01*
X150776365Y-58025540D01*
X150801645Y-57997057D01*
X150868914Y-57978171D01*
X150886831Y-57979688D01*
X151096831Y-58012950D01*
X151096832Y-58012950D01*
X151323168Y-58012950D01*
X151323169Y-58012950D01*
X151546721Y-57977542D01*
X151546724Y-57977541D01*
X151546725Y-57977541D01*
X151761978Y-57907601D01*
X151761978Y-57907600D01*
X151761981Y-57907600D01*
X151963650Y-57804845D01*
X152146761Y-57671807D01*
X152306807Y-57511761D01*
X152439845Y-57328650D01*
X152542600Y-57126981D01*
X152612542Y-56911721D01*
X152647950Y-56688169D01*
X152647950Y-56461831D01*
X152612542Y-56238279D01*
X152612541Y-56238275D01*
X152612541Y-56238274D01*
X152568824Y-56103728D01*
X152566829Y-56033887D01*
X152602909Y-55974054D01*
X152665610Y-55943226D01*
X152702936Y-55942471D01*
X152800000Y-55955250D01*
X152800001Y-55955250D01*
X152820148Y-55952597D01*
X152891836Y-55943159D01*
X152960870Y-55953924D01*
X153013126Y-56000304D01*
X153032012Y-56067573D01*
X153025952Y-56104416D01*
X152982458Y-56238274D01*
X152982458Y-56238277D01*
X152947050Y-56461831D01*
X152947050Y-56688168D01*
X152982458Y-56911722D01*
X152982458Y-56911725D01*
X153052398Y-57126978D01*
X153052400Y-57126981D01*
X153155155Y-57328650D01*
X153288193Y-57511761D01*
X153448239Y-57671807D01*
X153631350Y-57804845D01*
X153833019Y-57907600D01*
X153833021Y-57907601D01*
X154033801Y-57972837D01*
X154048279Y-57977542D01*
X154271831Y-58012950D01*
X154271832Y-58012950D01*
X154498168Y-58012950D01*
X154498169Y-58012950D01*
X154721721Y-57977542D01*
X154721724Y-57977541D01*
X154721725Y-57977541D01*
X154936978Y-57907601D01*
X154936978Y-57907600D01*
X154936981Y-57907600D01*
X155138650Y-57804845D01*
X155321761Y-57671807D01*
X155481807Y-57511761D01*
X155614845Y-57328650D01*
X155717600Y-57126981D01*
X155787542Y-56911721D01*
X155822950Y-56688169D01*
X155822950Y-56461831D01*
X155787542Y-56238279D01*
X155787541Y-56238275D01*
X155787541Y-56238274D01*
X155717601Y-56023021D01*
X155717599Y-56023018D01*
X155682395Y-55953924D01*
X155614845Y-55821350D01*
X155481807Y-55638239D01*
X155321761Y-55478193D01*
X155138650Y-55345155D01*
X154936981Y-55242400D01*
X154936978Y-55242398D01*
X154721723Y-55172458D01*
X154572686Y-55148852D01*
X154498169Y-55137050D01*
X154271831Y-55137050D01*
X154197313Y-55148852D01*
X154048277Y-55172458D01*
X154048274Y-55172458D01*
X153833021Y-55242398D01*
X153833018Y-55242400D01*
X153631350Y-55345154D01*
X153541382Y-55410520D01*
X153475575Y-55433999D01*
X153407521Y-55418173D01*
X153358827Y-55368067D01*
X153345558Y-55326386D01*
X153336330Y-55256292D01*
X153336328Y-55256287D01*
X153280862Y-55122377D01*
X153280861Y-55122376D01*
X153280861Y-55122375D01*
X153192621Y-55007379D01*
X153077625Y-54919139D01*
X153077624Y-54919138D01*
X153077622Y-54919137D01*
X152943712Y-54863671D01*
X152943710Y-54863670D01*
X152943709Y-54863670D01*
X152871854Y-54854210D01*
X152800001Y-54844750D01*
X152799999Y-54844750D01*
X152656291Y-54863670D01*
X152656287Y-54863671D01*
X152522377Y-54919137D01*
X152407379Y-55007379D01*
X152319137Y-55122377D01*
X152263671Y-55256287D01*
X152263670Y-55256291D01*
X152254004Y-55329704D01*
X152225736Y-55393600D01*
X152167411Y-55432071D01*
X152097546Y-55432901D01*
X152058181Y-55413836D01*
X151963650Y-55345155D01*
X151761981Y-55242400D01*
X151761978Y-55242398D01*
X151546723Y-55172458D01*
X151397686Y-55148852D01*
X151323169Y-55137050D01*
X151096831Y-55137050D01*
X151022313Y-55148852D01*
X150873277Y-55172458D01*
X150873274Y-55172458D01*
X150658021Y-55242398D01*
X150658018Y-55242400D01*
X150456349Y-55345155D01*
X150424814Y-55368067D01*
X150273239Y-55478193D01*
X150273237Y-55478195D01*
X150273236Y-55478195D01*
X150113195Y-55638236D01*
X150113195Y-55638237D01*
X150113193Y-55638239D01*
X150056058Y-55716878D01*
X149980155Y-55821349D01*
X149877400Y-56023018D01*
X149877398Y-56023021D01*
X149807458Y-56238274D01*
X149807458Y-56238277D01*
X149772050Y-56461831D01*
X149772050Y-56688168D01*
X149807458Y-56911722D01*
X149807458Y-56911725D01*
X149877398Y-57126978D01*
X149877400Y-57126981D01*
X149980155Y-57328650D01*
X150092412Y-57483158D01*
X150115892Y-57548965D01*
X150100067Y-57617019D01*
X150049961Y-57665714D01*
X150039547Y-57670605D01*
X149922376Y-57719138D01*
X149807379Y-57807379D01*
X149719137Y-57922377D01*
X149663671Y-58056287D01*
X149663670Y-58056291D01*
X149644750Y-58199999D01*
X149644750Y-58200000D01*
X149663670Y-58343708D01*
X149663671Y-58343712D01*
X149719137Y-58477622D01*
X149719138Y-58477624D01*
X149719139Y-58477625D01*
X149807379Y-58592621D01*
X149922375Y-58680861D01*
X150056291Y-58736330D01*
X150183280Y-58753048D01*
X150199999Y-58755250D01*
X150200000Y-58755250D01*
X150200001Y-58755250D01*
X150217963Y-58752885D01*
X150343709Y-58736330D01*
X150343716Y-58736327D01*
X150343727Y-58736327D01*
X150351766Y-58735269D01*
X150351930Y-58736521D01*
X150413566Y-58737980D01*
X150471434Y-58777134D01*
X150498947Y-58841359D01*
X150494490Y-58892080D01*
X150492860Y-58897453D01*
X150464200Y-59041540D01*
X150464200Y-59041544D01*
X150464200Y-59041545D01*
X150464200Y-59188455D01*
X150476342Y-59249500D01*
X150489906Y-59317692D01*
X150483677Y-59387283D01*
X150440814Y-59442460D01*
X150374924Y-59465704D01*
X150351953Y-59463304D01*
X150351766Y-59464731D01*
X150343709Y-59463670D01*
X150251525Y-59451533D01*
X150200001Y-59444750D01*
X150199999Y-59444750D01*
X150056291Y-59463670D01*
X150056287Y-59463671D01*
X149922377Y-59519137D01*
X149829480Y-59590420D01*
X149807379Y-59607379D01*
X149740684Y-59694298D01*
X149719137Y-59722378D01*
X149692747Y-59786089D01*
X149665867Y-59826317D01*
X145047618Y-64444567D01*
X144986295Y-64478052D01*
X144916603Y-64473068D01*
X144912508Y-64471456D01*
X144893709Y-64463670D01*
X144797903Y-64451056D01*
X144750001Y-64444750D01*
X144749999Y-64444750D01*
X144606293Y-64463669D01*
X144606291Y-64463670D01*
X144542572Y-64490062D01*
X144495124Y-64499500D01*
X137184108Y-64499500D01*
X137056812Y-64533608D01*
X136942686Y-64599500D01*
X136942682Y-64599503D01*
X136826315Y-64715868D01*
X136786089Y-64742747D01*
X136722377Y-64769138D01*
X136722375Y-64769139D01*
X136607379Y-64857379D01*
X136519137Y-64972378D01*
X136492747Y-65036089D01*
X136465867Y-65076317D01*
X135692686Y-65849500D01*
X135599502Y-65942683D01*
X135599500Y-65942686D01*
X135533608Y-66056812D01*
X135499500Y-66184108D01*
X135499500Y-67936202D01*
X135479815Y-68003241D01*
X135427011Y-68048996D01*
X135359315Y-68059141D01*
X135250002Y-68044750D01*
X135249999Y-68044750D01*
X135106291Y-68063670D01*
X135106287Y-68063671D01*
X134972377Y-68119137D01*
X134857379Y-68207379D01*
X134769137Y-68322377D01*
X134713671Y-68456287D01*
X134713670Y-68456291D01*
X134695722Y-68592620D01*
X134694750Y-68600000D01*
X134712698Y-68736329D01*
X134713670Y-68743708D01*
X134713671Y-68743712D01*
X134769137Y-68877622D01*
X134769138Y-68877624D01*
X134769139Y-68877625D01*
X134805119Y-68924515D01*
X134830313Y-68989684D01*
X134816275Y-69058128D01*
X134805119Y-69075487D01*
X134769139Y-69122377D01*
X134769138Y-69122379D01*
X134713671Y-69256290D01*
X134713670Y-69256294D01*
X134694750Y-69400002D01*
X134694750Y-69400003D01*
X134713670Y-69543711D01*
X134713671Y-69543715D01*
X134769137Y-69677625D01*
X134769138Y-69677627D01*
X134769139Y-69677628D01*
X134857379Y-69792624D01*
X134972375Y-69880864D01*
X134972376Y-69880864D01*
X134972377Y-69880865D01*
X135017013Y-69899353D01*
X135106291Y-69936333D01*
X135222451Y-69951626D01*
X135249999Y-69955253D01*
X135250000Y-69955253D01*
X135250001Y-69955253D01*
X135285679Y-69950555D01*
X135359314Y-69940861D01*
X135428349Y-69951626D01*
X135480605Y-69998006D01*
X135499500Y-70063800D01*
X135499500Y-72241323D01*
X135479815Y-72308362D01*
X135463181Y-72329004D01*
X123329005Y-84463181D01*
X123267682Y-84496666D01*
X123241324Y-84499500D01*
X122504876Y-84499500D01*
X122457427Y-84490062D01*
X122393709Y-84463670D01*
X122393708Y-84463669D01*
X122393706Y-84463669D01*
X122250001Y-84444750D01*
X122249999Y-84444750D01*
X122106291Y-84463670D01*
X122106287Y-84463671D01*
X121972377Y-84519137D01*
X121857379Y-84607379D01*
X121769137Y-84722377D01*
X121713671Y-84856287D01*
X121713670Y-84856291D01*
X121694750Y-84999999D01*
X86975581Y-84999999D01*
X83475580Y-81499999D01*
X92444750Y-81499999D01*
X92444750Y-81500000D01*
X92463670Y-81643708D01*
X92463671Y-81643712D01*
X92519137Y-81777622D01*
X92519138Y-81777624D01*
X92519139Y-81777625D01*
X92607379Y-81892621D01*
X92722375Y-81980861D01*
X92856291Y-82036330D01*
X92983280Y-82053048D01*
X92999999Y-82055250D01*
X93000000Y-82055250D01*
X93000001Y-82055250D01*
X93014977Y-82053278D01*
X93143709Y-82036330D01*
X93277625Y-81980861D01*
X93392621Y-81892621D01*
X93480861Y-81777625D01*
X93536330Y-81643709D01*
X93555250Y-81500000D01*
X93536330Y-81356291D01*
X93499350Y-81267013D01*
X93480862Y-81222377D01*
X93480861Y-81222376D01*
X93480861Y-81222375D01*
X93392621Y-81107379D01*
X93277625Y-81019139D01*
X93277624Y-81019138D01*
X93277622Y-81019137D01*
X93143712Y-80963671D01*
X93143710Y-80963670D01*
X93143709Y-80963670D01*
X93071854Y-80954210D01*
X93000001Y-80944750D01*
X92999999Y-80944750D01*
X92856291Y-80963670D01*
X92856287Y-80963671D01*
X92722377Y-81019137D01*
X92607379Y-81107379D01*
X92519137Y-81222377D01*
X92463671Y-81356287D01*
X92463670Y-81356291D01*
X92444750Y-81499999D01*
X83475580Y-81499999D01*
X83313262Y-81337681D01*
X83279777Y-81276358D01*
X83284761Y-81206666D01*
X83313262Y-81162319D01*
X86818915Y-77656666D01*
X86818920Y-77656661D01*
X86958610Y-77474612D01*
X87073344Y-77275888D01*
X87161158Y-77063887D01*
X87220548Y-76842239D01*
X87250499Y-76614734D01*
X87250499Y-76385266D01*
X87220548Y-76157761D01*
X87161158Y-75936113D01*
X87120721Y-75838489D01*
X87073348Y-75724120D01*
X87073343Y-75724111D01*
X86958610Y-75525388D01*
X86958605Y-75525382D01*
X86958603Y-75525378D01*
X86818921Y-75343340D01*
X86818915Y-75343333D01*
X86656666Y-75181084D01*
X86656659Y-75181078D01*
X86474621Y-75041396D01*
X86474615Y-75041392D01*
X86474612Y-75041390D01*
X86275888Y-74926656D01*
X86275879Y-74926651D01*
X86063887Y-74838842D01*
X85842239Y-74779452D01*
X85842233Y-74779451D01*
X85842228Y-74779450D01*
X85614735Y-74749501D01*
X85614734Y-74749501D01*
X85385266Y-74749501D01*
X85385265Y-74749501D01*
X85157771Y-74779450D01*
X85157764Y-74779451D01*
X85157761Y-74779452D01*
X85064077Y-74804554D01*
X84936112Y-74838842D01*
X84724120Y-74926651D01*
X84724111Y-74926656D01*
X84525388Y-75041390D01*
X84525378Y-75041396D01*
X84343340Y-75181078D01*
X84343333Y-75181084D01*
X79811238Y-79713181D01*
X79749915Y-79746666D01*
X79723557Y-79749500D01*
X59885258Y-79749500D01*
X59668715Y-79778009D01*
X59657762Y-79779452D01*
X59564076Y-79804554D01*
X59436112Y-79838842D01*
X59224123Y-79926650D01*
X59224109Y-79926657D01*
X59025382Y-80041392D01*
X58843338Y-80181081D01*
X58681081Y-80343338D01*
X58541392Y-80525382D01*
X58426657Y-80724109D01*
X58426650Y-80724123D01*
X58338842Y-80936112D01*
X58279453Y-81157759D01*
X58279451Y-81157770D01*
X58249500Y-81385258D01*
X50500500Y-81385258D01*
X50500500Y-60885258D01*
X58249500Y-60885258D01*
X58249500Y-61114741D01*
X58262557Y-61213910D01*
X58279452Y-61342238D01*
X58316596Y-61480861D01*
X58338842Y-61563887D01*
X58426650Y-61775876D01*
X58426656Y-61775888D01*
X58530994Y-61956608D01*
X58541392Y-61974617D01*
X58681081Y-62156661D01*
X58681089Y-62156670D01*
X58843330Y-62318911D01*
X58843338Y-62318918D01*
X59025382Y-62458607D01*
X59025385Y-62458608D01*
X59025388Y-62458611D01*
X59224112Y-62573344D01*
X59224117Y-62573346D01*
X59224123Y-62573349D01*
X59306279Y-62607379D01*
X59436113Y-62661158D01*
X59657762Y-62720548D01*
X59885266Y-62750500D01*
X72385266Y-62750500D01*
X75223557Y-62750500D01*
X75290596Y-62770185D01*
X75311238Y-62786819D01*
X85343332Y-72818914D01*
X85343338Y-72818919D01*
X85525387Y-72958610D01*
X85525394Y-72958614D01*
X85724104Y-73073340D01*
X85724120Y-73073348D01*
X85838489Y-73120721D01*
X85936113Y-73161158D01*
X86157761Y-73220548D01*
X86318435Y-73241700D01*
X86385265Y-73250499D01*
X86385266Y-73250499D01*
X86614734Y-73250499D01*
X86666389Y-73243698D01*
X86842239Y-73220548D01*
X87063886Y-73161158D01*
X87257737Y-73080862D01*
X87275878Y-73073348D01*
X87275881Y-73073346D01*
X87275887Y-73073344D01*
X87474612Y-72958610D01*
X87656661Y-72818919D01*
X87818919Y-72656661D01*
X87958610Y-72474612D01*
X88073344Y-72275887D01*
X88075871Y-72269788D01*
X88146800Y-72098548D01*
X88161158Y-72063886D01*
X88220548Y-71842239D01*
X88250499Y-71614733D01*
X88250499Y-71385266D01*
X88220548Y-71157761D01*
X88161158Y-70936113D01*
X88156688Y-70925321D01*
X105449500Y-70925321D01*
X105449500Y-72574678D01*
X105464032Y-72647735D01*
X105464033Y-72647739D01*
X105482405Y-72675235D01*
X105519399Y-72730601D01*
X105602260Y-72785966D01*
X105602264Y-72785967D01*
X105675321Y-72800499D01*
X105675324Y-72800500D01*
X105675326Y-72800500D01*
X107324676Y-72800500D01*
X107324677Y-72800499D01*
X107397740Y-72785966D01*
X107480601Y-72730601D01*
X107535966Y-72647740D01*
X107550500Y-72574674D01*
X107550500Y-70925326D01*
X107550500Y-70925323D01*
X107550499Y-70925321D01*
X115449500Y-70925321D01*
X115449500Y-72574678D01*
X115464032Y-72647735D01*
X115464033Y-72647739D01*
X115482405Y-72675235D01*
X115519399Y-72730601D01*
X115602260Y-72785966D01*
X115602264Y-72785967D01*
X115675321Y-72800499D01*
X115675324Y-72800500D01*
X115675326Y-72800500D01*
X117324676Y-72800500D01*
X117324677Y-72800499D01*
X117397740Y-72785966D01*
X117480601Y-72730601D01*
X117535966Y-72647740D01*
X117550500Y-72574674D01*
X117550500Y-70925326D01*
X117550500Y-70925323D01*
X117550499Y-70925321D01*
X125449500Y-70925321D01*
X125449500Y-72574678D01*
X125464032Y-72647735D01*
X125464033Y-72647739D01*
X125482405Y-72675235D01*
X125519399Y-72730601D01*
X125602260Y-72785966D01*
X125602264Y-72785967D01*
X125675321Y-72800499D01*
X125675324Y-72800500D01*
X125675326Y-72800500D01*
X127324676Y-72800500D01*
X127324677Y-72800499D01*
X127397740Y-72785966D01*
X127480601Y-72730601D01*
X127535966Y-72647740D01*
X127550500Y-72574674D01*
X127550500Y-70925326D01*
X127550500Y-70925323D01*
X127550499Y-70925321D01*
X127535967Y-70852264D01*
X127535966Y-70852260D01*
X127480601Y-70769399D01*
X127397740Y-70714034D01*
X127397739Y-70714033D01*
X127397735Y-70714032D01*
X127324677Y-70699500D01*
X127324674Y-70699500D01*
X125675326Y-70699500D01*
X125675323Y-70699500D01*
X125602264Y-70714032D01*
X125602260Y-70714033D01*
X125519399Y-70769399D01*
X125464033Y-70852260D01*
X125464032Y-70852264D01*
X125449500Y-70925321D01*
X117550499Y-70925321D01*
X117535967Y-70852264D01*
X117535966Y-70852260D01*
X117480601Y-70769399D01*
X117397740Y-70714034D01*
X117397739Y-70714033D01*
X117397735Y-70714032D01*
X117324677Y-70699500D01*
X117324674Y-70699500D01*
X115675326Y-70699500D01*
X115675323Y-70699500D01*
X115602264Y-70714032D01*
X115602260Y-70714033D01*
X115519399Y-70769399D01*
X115464033Y-70852260D01*
X115464032Y-70852264D01*
X115449500Y-70925321D01*
X107550499Y-70925321D01*
X107535967Y-70852264D01*
X107535966Y-70852260D01*
X107480601Y-70769399D01*
X107397740Y-70714034D01*
X107397739Y-70714033D01*
X107397735Y-70714032D01*
X107324677Y-70699500D01*
X107324674Y-70699500D01*
X105675326Y-70699500D01*
X105675323Y-70699500D01*
X105602264Y-70714032D01*
X105602260Y-70714033D01*
X105519399Y-70769399D01*
X105464033Y-70852260D01*
X105464032Y-70852264D01*
X105449500Y-70925321D01*
X88156688Y-70925321D01*
X88088456Y-70760595D01*
X88073348Y-70724120D01*
X88073340Y-70724104D01*
X87958614Y-70525394D01*
X87958610Y-70525387D01*
X87818919Y-70343338D01*
X87818914Y-70343332D01*
X81475582Y-64000000D01*
X107444750Y-64000000D01*
X107452160Y-64056287D01*
X107463670Y-64143708D01*
X107463671Y-64143712D01*
X107519137Y-64277622D01*
X107519138Y-64277624D01*
X107519139Y-64277625D01*
X107607379Y-64392621D01*
X107722375Y-64480861D01*
X107722376Y-64480861D01*
X107722377Y-64480862D01*
X107767013Y-64499350D01*
X107856291Y-64536330D01*
X107983280Y-64553048D01*
X107999999Y-64555250D01*
X108000000Y-64555250D01*
X108000001Y-64555250D01*
X108014977Y-64553278D01*
X108143709Y-64536330D01*
X108277625Y-64480861D01*
X108392621Y-64392621D01*
X108480861Y-64277625D01*
X108485439Y-64266570D01*
X108529279Y-64212170D01*
X108595573Y-64190104D01*
X108663272Y-64207383D01*
X108710883Y-64258519D01*
X108714553Y-64266553D01*
X108719139Y-64277625D01*
X108807379Y-64392621D01*
X108922375Y-64480861D01*
X108922376Y-64480861D01*
X108922377Y-64480862D01*
X108967013Y-64499350D01*
X109056291Y-64536330D01*
X109183280Y-64553048D01*
X109199999Y-64555250D01*
X109200000Y-64555250D01*
X109200001Y-64555250D01*
X109214977Y-64553278D01*
X109343709Y-64536330D01*
X109477625Y-64480861D01*
X109592621Y-64392621D01*
X109680861Y-64277625D01*
X109713014Y-64199999D01*
X122244750Y-64199999D01*
X122244750Y-64200000D01*
X122263670Y-64343708D01*
X122263671Y-64343712D01*
X122319137Y-64477622D01*
X122319138Y-64477624D01*
X122319139Y-64477625D01*
X122407379Y-64592621D01*
X122522375Y-64680861D01*
X122656291Y-64736330D01*
X122783280Y-64753048D01*
X122799999Y-64755250D01*
X122800000Y-64755250D01*
X122800001Y-64755250D01*
X122814977Y-64753278D01*
X122943709Y-64736330D01*
X123077625Y-64680861D01*
X123192621Y-64592621D01*
X123280861Y-64477625D01*
X123336330Y-64343709D01*
X123355250Y-64200000D01*
X123355250Y-64199999D01*
X123644750Y-64199999D01*
X123644750Y-64200000D01*
X123663670Y-64343708D01*
X123663671Y-64343712D01*
X123719137Y-64477622D01*
X123719138Y-64477624D01*
X123719139Y-64477625D01*
X123807379Y-64592621D01*
X123922375Y-64680861D01*
X124056291Y-64736330D01*
X124183280Y-64753048D01*
X124199999Y-64755250D01*
X124200000Y-64755250D01*
X124200001Y-64755250D01*
X124214977Y-64753278D01*
X124343709Y-64736330D01*
X124477625Y-64680861D01*
X124592621Y-64592621D01*
X124680861Y-64477625D01*
X124736330Y-64343709D01*
X124755250Y-64200000D01*
X124736330Y-64056291D01*
X124680861Y-63922375D01*
X124592621Y-63807379D01*
X124477625Y-63719139D01*
X124477624Y-63719138D01*
X124477622Y-63719137D01*
X124343712Y-63663671D01*
X124343710Y-63663670D01*
X124343709Y-63663670D01*
X124271854Y-63654210D01*
X124200001Y-63644750D01*
X124199999Y-63644750D01*
X124056291Y-63663670D01*
X124056287Y-63663671D01*
X123922377Y-63719137D01*
X123807379Y-63807379D01*
X123719137Y-63922377D01*
X123663671Y-64056287D01*
X123663670Y-64056291D01*
X123644750Y-64199999D01*
X123355250Y-64199999D01*
X123336330Y-64056291D01*
X123280861Y-63922375D01*
X123192621Y-63807379D01*
X123077625Y-63719139D01*
X123077624Y-63719138D01*
X123077622Y-63719137D01*
X122943712Y-63663671D01*
X122943710Y-63663670D01*
X122943709Y-63663670D01*
X122871854Y-63654210D01*
X122800001Y-63644750D01*
X122799999Y-63644750D01*
X122656291Y-63663670D01*
X122656287Y-63663671D01*
X122522377Y-63719137D01*
X122407379Y-63807379D01*
X122319137Y-63922377D01*
X122263671Y-64056287D01*
X122263670Y-64056291D01*
X122244750Y-64199999D01*
X109713014Y-64199999D01*
X109736330Y-64143709D01*
X109755250Y-64000000D01*
X109736330Y-63856291D01*
X109680861Y-63722375D01*
X109592621Y-63607379D01*
X109477625Y-63519139D01*
X109477624Y-63519138D01*
X109477622Y-63519137D01*
X109343712Y-63463671D01*
X109343710Y-63463670D01*
X109343709Y-63463670D01*
X109271854Y-63454210D01*
X109200001Y-63444750D01*
X109199999Y-63444750D01*
X109056291Y-63463670D01*
X109056287Y-63463671D01*
X108922377Y-63519137D01*
X108807379Y-63607379D01*
X108719139Y-63722375D01*
X108714561Y-63733428D01*
X108670719Y-63787831D01*
X108604425Y-63809895D01*
X108536726Y-63792615D01*
X108489116Y-63741478D01*
X108485439Y-63733428D01*
X108480861Y-63722375D01*
X108392621Y-63607379D01*
X108277625Y-63519139D01*
X108277624Y-63519138D01*
X108277622Y-63519137D01*
X108143712Y-63463671D01*
X108143710Y-63463670D01*
X108143709Y-63463670D01*
X108071854Y-63454210D01*
X108000001Y-63444750D01*
X107999999Y-63444750D01*
X107856291Y-63463670D01*
X107856287Y-63463671D01*
X107722377Y-63519137D01*
X107607379Y-63607379D01*
X107519137Y-63722377D01*
X107463671Y-63856287D01*
X107463670Y-63856291D01*
X107444750Y-64000000D01*
X81475582Y-64000000D01*
X79975582Y-62500000D01*
X138444750Y-62500000D01*
X138457798Y-62599111D01*
X138463670Y-62643708D01*
X138463671Y-62643712D01*
X138519137Y-62777622D01*
X138519138Y-62777624D01*
X138519139Y-62777625D01*
X138607379Y-62892621D01*
X138722375Y-62980861D01*
X138722376Y-62980861D01*
X138722377Y-62980862D01*
X138738647Y-62987601D01*
X138856291Y-63036330D01*
X139000000Y-63055250D01*
X139008059Y-63056311D01*
X139007700Y-63059032D01*
X139061858Y-63074935D01*
X139107613Y-63127739D01*
X139111281Y-63137942D01*
X139169137Y-63277622D01*
X139169138Y-63277624D01*
X139169139Y-63277625D01*
X139257379Y-63392621D01*
X139372375Y-63480861D01*
X139506291Y-63536330D01*
X139633280Y-63553048D01*
X139649999Y-63555250D01*
X139650000Y-63555250D01*
X139650001Y-63555250D01*
X139664977Y-63553278D01*
X139793709Y-63536330D01*
X139927625Y-63480861D01*
X140042621Y-63392621D01*
X140130861Y-63277625D01*
X140186330Y-63143709D01*
X140205250Y-63000000D01*
X140203617Y-62987600D01*
X140202730Y-62980861D01*
X140186330Y-62856291D01*
X140130861Y-62722375D01*
X140042621Y-62607379D01*
X140042619Y-62607377D01*
X140042615Y-62607372D01*
X140036871Y-62601628D01*
X140039387Y-62599111D01*
X140007797Y-62555817D01*
X140000500Y-62513908D01*
X140000500Y-60796543D01*
X140020185Y-60729504D01*
X140036815Y-60708866D01*
X140654123Y-60091557D01*
X140715444Y-60058074D01*
X140741871Y-60057144D01*
X140741871Y-60055250D01*
X140750000Y-60055250D01*
X140893709Y-60036330D01*
X141027625Y-59980861D01*
X141142621Y-59892621D01*
X141230861Y-59777625D01*
X141286330Y-59643709D01*
X141305250Y-59500000D01*
X141286330Y-59356291D01*
X141230861Y-59222375D01*
X141142621Y-59107379D01*
X141027625Y-59019139D01*
X141027624Y-59019138D01*
X141027622Y-59019137D01*
X140893712Y-58963671D01*
X140893710Y-58963670D01*
X140893709Y-58963670D01*
X140821854Y-58954210D01*
X140750001Y-58944750D01*
X140749999Y-58944750D01*
X140606291Y-58963670D01*
X140606287Y-58963671D01*
X140472377Y-59019137D01*
X140357379Y-59107379D01*
X140269137Y-59222377D01*
X140213671Y-59356287D01*
X140213670Y-59356291D01*
X140194750Y-59500000D01*
X140194750Y-59508128D01*
X140191456Y-59508128D01*
X140182192Y-59562588D01*
X140158439Y-59595877D01*
X139369531Y-60384786D01*
X139369527Y-60384791D01*
X139339898Y-60436110D01*
X139339899Y-60436111D01*
X139339898Y-60436113D01*
X139323386Y-60464712D01*
X139323386Y-60464713D01*
X139299500Y-60553856D01*
X139299500Y-61843814D01*
X139279815Y-61910853D01*
X139227011Y-61956608D01*
X139157853Y-61966552D01*
X139143964Y-61963703D01*
X139000001Y-61944750D01*
X138999999Y-61944750D01*
X138856291Y-61963670D01*
X138856287Y-61963671D01*
X138722377Y-62019137D01*
X138607379Y-62107379D01*
X138519137Y-62222377D01*
X138463671Y-62356287D01*
X138463670Y-62356291D01*
X138450200Y-62458607D01*
X138444750Y-62500000D01*
X79975582Y-62500000D01*
X78475581Y-60999999D01*
X88194750Y-60999999D01*
X88194750Y-61000000D01*
X88213670Y-61143708D01*
X88213671Y-61143712D01*
X88269137Y-61277622D01*
X88269138Y-61277624D01*
X88269139Y-61277625D01*
X88357379Y-61392621D01*
X88472375Y-61480861D01*
X88606291Y-61536330D01*
X88733280Y-61553048D01*
X88749999Y-61555250D01*
X88750000Y-61555250D01*
X88750001Y-61555250D01*
X88764977Y-61553278D01*
X88893709Y-61536330D01*
X89027625Y-61480861D01*
X89142621Y-61392621D01*
X89142623Y-61392617D01*
X89142627Y-61392615D01*
X89148372Y-61386871D01*
X89150888Y-61389387D01*
X89194183Y-61357797D01*
X89236092Y-61350500D01*
X99513908Y-61350500D01*
X99580947Y-61370185D01*
X99600412Y-61388086D01*
X99601628Y-61386871D01*
X99607372Y-61392615D01*
X99607377Y-61392619D01*
X99607379Y-61392621D01*
X99722375Y-61480861D01*
X99856291Y-61536330D01*
X99983280Y-61553048D01*
X99999999Y-61555250D01*
X100000000Y-61555250D01*
X100000001Y-61555250D01*
X100014977Y-61553278D01*
X100143709Y-61536330D01*
X100277625Y-61480861D01*
X100392621Y-61392621D01*
X100480861Y-61277625D01*
X100536330Y-61143709D01*
X100555250Y-61000000D01*
X100555250Y-60999999D01*
X105944750Y-60999999D01*
X105944750Y-61000000D01*
X105963670Y-61143708D01*
X105963671Y-61143712D01*
X106019137Y-61277622D01*
X106019138Y-61277624D01*
X106019139Y-61277625D01*
X106107379Y-61392621D01*
X106222375Y-61480861D01*
X106356291Y-61536330D01*
X106483280Y-61553048D01*
X106499999Y-61555250D01*
X106500000Y-61555250D01*
X106500001Y-61555250D01*
X106514977Y-61553278D01*
X106643709Y-61536330D01*
X106777625Y-61480861D01*
X106892621Y-61392621D01*
X106980861Y-61277625D01*
X107007252Y-61213910D01*
X107034129Y-61173683D01*
X107170996Y-61036817D01*
X107232318Y-61003334D01*
X107258676Y-61000500D01*
X113495124Y-61000500D01*
X113542572Y-61009937D01*
X113606291Y-61036330D01*
X113702097Y-61048943D01*
X113749999Y-61055250D01*
X113750000Y-61055250D01*
X113750001Y-61055250D01*
X113764977Y-61053278D01*
X113893709Y-61036330D01*
X113981421Y-60999999D01*
X120944750Y-60999999D01*
X120944750Y-61000000D01*
X120963670Y-61143708D01*
X120963671Y-61143712D01*
X121019137Y-61277622D01*
X121019138Y-61277624D01*
X121019139Y-61277625D01*
X121107379Y-61392621D01*
X121222375Y-61480861D01*
X121356291Y-61536330D01*
X121483280Y-61553048D01*
X121499999Y-61555250D01*
X121500000Y-61555250D01*
X121500001Y-61555250D01*
X121514977Y-61553278D01*
X121643709Y-61536330D01*
X121777625Y-61480861D01*
X121892621Y-61392621D01*
X121980861Y-61277625D01*
X122007252Y-61213910D01*
X122034129Y-61173683D01*
X122170996Y-61036817D01*
X122232318Y-61003334D01*
X122258676Y-61000500D01*
X128495124Y-61000500D01*
X128542572Y-61009937D01*
X128606291Y-61036330D01*
X128702097Y-61048943D01*
X128749999Y-61055250D01*
X128750000Y-61055250D01*
X128750001Y-61055250D01*
X128764977Y-61053278D01*
X128893709Y-61036330D01*
X129027625Y-60980861D01*
X129142621Y-60892621D01*
X129230861Y-60777625D01*
X129286330Y-60643709D01*
X129305250Y-60500000D01*
X129286330Y-60356291D01*
X129231585Y-60224123D01*
X129230862Y-60222377D01*
X129230861Y-60222376D01*
X129230861Y-60222375D01*
X129142621Y-60107379D01*
X129027625Y-60019139D01*
X129027624Y-60019138D01*
X129027622Y-60019137D01*
X128893712Y-59963671D01*
X128893710Y-59963670D01*
X128893709Y-59963670D01*
X128821854Y-59954210D01*
X128750001Y-59944750D01*
X128749999Y-59944750D01*
X128606293Y-59963669D01*
X128589912Y-59970453D01*
X128542572Y-59990062D01*
X128495124Y-59999500D01*
X121934108Y-59999500D01*
X121806812Y-60033608D01*
X121692686Y-60099500D01*
X121692683Y-60099502D01*
X121326317Y-60465867D01*
X121286089Y-60492747D01*
X121222378Y-60519137D01*
X121222375Y-60519138D01*
X121222375Y-60519139D01*
X121108630Y-60606419D01*
X121107379Y-60607379D01*
X121019137Y-60722377D01*
X120963671Y-60856287D01*
X120963670Y-60856291D01*
X120944750Y-60999999D01*
X113981421Y-60999999D01*
X114027625Y-60980861D01*
X114142621Y-60892621D01*
X114230861Y-60777625D01*
X114286330Y-60643709D01*
X114305250Y-60500000D01*
X114286330Y-60356291D01*
X114231585Y-60224123D01*
X114230862Y-60222377D01*
X114230861Y-60222376D01*
X114230861Y-60222375D01*
X114142621Y-60107379D01*
X114027625Y-60019139D01*
X114027624Y-60019138D01*
X114027622Y-60019137D01*
X113893712Y-59963671D01*
X113893710Y-59963670D01*
X113893709Y-59963670D01*
X113821854Y-59954210D01*
X113750001Y-59944750D01*
X113749999Y-59944750D01*
X113606293Y-59963669D01*
X113589912Y-59970453D01*
X113542572Y-59990062D01*
X113495124Y-59999500D01*
X106934108Y-59999500D01*
X106806812Y-60033608D01*
X106692686Y-60099500D01*
X106692683Y-60099502D01*
X106326317Y-60465867D01*
X106286089Y-60492747D01*
X106222378Y-60519137D01*
X106222375Y-60519138D01*
X106222375Y-60519139D01*
X106108630Y-60606419D01*
X106107379Y-60607379D01*
X106019137Y-60722377D01*
X105963671Y-60856287D01*
X105963670Y-60856291D01*
X105944750Y-60999999D01*
X100555250Y-60999999D01*
X100536330Y-60856291D01*
X100480861Y-60722375D01*
X100392621Y-60607379D01*
X100277625Y-60519139D01*
X100277624Y-60519138D01*
X100277622Y-60519137D01*
X100143712Y-60463671D01*
X100143710Y-60463670D01*
X100143709Y-60463670D01*
X100071854Y-60454210D01*
X100000001Y-60444750D01*
X99999999Y-60444750D01*
X99856291Y-60463670D01*
X99856287Y-60463671D01*
X99722377Y-60519137D01*
X99607372Y-60607384D01*
X99601628Y-60613129D01*
X99599111Y-60610612D01*
X99555817Y-60642203D01*
X99513908Y-60649500D01*
X89236092Y-60649500D01*
X89169053Y-60629815D01*
X89149587Y-60611913D01*
X89148372Y-60613129D01*
X89142627Y-60607384D01*
X89142621Y-60607379D01*
X89027625Y-60519139D01*
X89027624Y-60519138D01*
X89027622Y-60519137D01*
X88893712Y-60463671D01*
X88893710Y-60463670D01*
X88893709Y-60463670D01*
X88821854Y-60454210D01*
X88750001Y-60444750D01*
X88749999Y-60444750D01*
X88606291Y-60463670D01*
X88606287Y-60463671D01*
X88472377Y-60519137D01*
X88357379Y-60607379D01*
X88269137Y-60722377D01*
X88213671Y-60856287D01*
X88213670Y-60856291D01*
X88194750Y-60999999D01*
X78475581Y-60999999D01*
X77475581Y-59999999D01*
X85944750Y-59999999D01*
X85944750Y-60000000D01*
X85963670Y-60143708D01*
X85963671Y-60143712D01*
X86019137Y-60277622D01*
X86019138Y-60277624D01*
X86019139Y-60277625D01*
X86107379Y-60392621D01*
X86222375Y-60480861D01*
X86222376Y-60480861D01*
X86222377Y-60480862D01*
X86230617Y-60484275D01*
X86356291Y-60536330D01*
X86483280Y-60553048D01*
X86499999Y-60555250D01*
X86500000Y-60555250D01*
X86500001Y-60555250D01*
X86514977Y-60553278D01*
X86643709Y-60536330D01*
X86777625Y-60480861D01*
X86892621Y-60392621D01*
X86980861Y-60277625D01*
X87036330Y-60143709D01*
X87055250Y-60000000D01*
X87036330Y-59856291D01*
X86980861Y-59722375D01*
X86892621Y-59607379D01*
X86777625Y-59519139D01*
X86777624Y-59519138D01*
X86777622Y-59519137D01*
X86643712Y-59463671D01*
X86643710Y-59463670D01*
X86643709Y-59463670D01*
X86571854Y-59454210D01*
X86500001Y-59444750D01*
X86499999Y-59444750D01*
X86356291Y-59463670D01*
X86356287Y-59463671D01*
X86222377Y-59519137D01*
X86107379Y-59607379D01*
X86019137Y-59722377D01*
X85963671Y-59856287D01*
X85963670Y-59856291D01*
X85944750Y-59999999D01*
X77475581Y-59999999D01*
X77156666Y-59681084D01*
X77156659Y-59681078D01*
X77050343Y-59599500D01*
X77050342Y-59599499D01*
X76974622Y-59541396D01*
X76974616Y-59541392D01*
X76974612Y-59541389D01*
X76902924Y-59500000D01*
X76775891Y-59426657D01*
X76775881Y-59426652D01*
X76563896Y-59338845D01*
X76563889Y-59338843D01*
X76563890Y-59338843D01*
X76563887Y-59338842D01*
X76523610Y-59328050D01*
X76523609Y-59328049D01*
X76380569Y-59289722D01*
X76342239Y-59279452D01*
X76342233Y-59279451D01*
X76342232Y-59279451D01*
X76328340Y-59277622D01*
X76315771Y-59275967D01*
X76315770Y-59275966D01*
X76114744Y-59249501D01*
X76114739Y-59249500D01*
X76114734Y-59249500D01*
X72614734Y-59249500D01*
X59885266Y-59249500D01*
X59885258Y-59249500D01*
X59671662Y-59277622D01*
X59657762Y-59279452D01*
X59564076Y-59304554D01*
X59436112Y-59338842D01*
X59224123Y-59426650D01*
X59224109Y-59426657D01*
X59025382Y-59541392D01*
X58843338Y-59681081D01*
X58681081Y-59843338D01*
X58541392Y-60025382D01*
X58426657Y-60224109D01*
X58426650Y-60224123D01*
X58360100Y-60384791D01*
X58338842Y-60436113D01*
X58283217Y-60643712D01*
X58279453Y-60657759D01*
X58279451Y-60657770D01*
X58249500Y-60885258D01*
X50500500Y-60885258D01*
X50500500Y-50999999D01*
X107944750Y-50999999D01*
X107944750Y-51000000D01*
X107963670Y-51143708D01*
X107963671Y-51143712D01*
X108019137Y-51277622D01*
X108019138Y-51277624D01*
X108019139Y-51277625D01*
X108107379Y-51392621D01*
X108222375Y-51480861D01*
X108289333Y-51508595D01*
X108356288Y-51536329D01*
X108356290Y-51536330D01*
X108359721Y-51536781D01*
X108363995Y-51537344D01*
X108427894Y-51565606D01*
X108435499Y-51572602D01*
X111223386Y-54360490D01*
X111326113Y-54419799D01*
X111350321Y-54426284D01*
X111350324Y-54426286D01*
X111350325Y-54426286D01*
X111380447Y-54434357D01*
X111440691Y-54450500D01*
X111640715Y-54450500D01*
X111707754Y-54470185D01*
X111716199Y-54476123D01*
X111722370Y-54480858D01*
X111722373Y-54480859D01*
X111722375Y-54480861D01*
X111856291Y-54536330D01*
X111983280Y-54553048D01*
X111999999Y-54555250D01*
X112000000Y-54555250D01*
X112000001Y-54555250D01*
X112014977Y-54553278D01*
X112143709Y-54536330D01*
X112277625Y-54480861D01*
X112392621Y-54392621D01*
X112480861Y-54277625D01*
X112536330Y-54143709D01*
X112555250Y-54000000D01*
X112536330Y-53856291D01*
X112480861Y-53722375D01*
X112392621Y-53607379D01*
X112277625Y-53519139D01*
X112277624Y-53519138D01*
X112277622Y-53519137D01*
X112143712Y-53463671D01*
X112143710Y-53463670D01*
X112143709Y-53463670D01*
X112071854Y-53454210D01*
X112000001Y-53444750D01*
X111999999Y-53444750D01*
X111856291Y-53463670D01*
X111856287Y-53463671D01*
X111752159Y-53506802D01*
X111682690Y-53514271D01*
X111620211Y-53482995D01*
X111617026Y-53479922D01*
X109137102Y-50999999D01*
X122944750Y-50999999D01*
X122944750Y-51000000D01*
X122963670Y-51143708D01*
X122963671Y-51143712D01*
X123019137Y-51277622D01*
X123019138Y-51277624D01*
X123019139Y-51277625D01*
X123107379Y-51392621D01*
X123222375Y-51480861D01*
X123289333Y-51508595D01*
X123356288Y-51536329D01*
X123356290Y-51536330D01*
X123359721Y-51536781D01*
X123363995Y-51537344D01*
X123427894Y-51565606D01*
X123435499Y-51572602D01*
X126223386Y-54360490D01*
X126326113Y-54419799D01*
X126350321Y-54426284D01*
X126350324Y-54426286D01*
X126350325Y-54426286D01*
X126380447Y-54434357D01*
X126440691Y-54450500D01*
X126640715Y-54450500D01*
X126707754Y-54470185D01*
X126716199Y-54476123D01*
X126722370Y-54480858D01*
X126722373Y-54480859D01*
X126722375Y-54480861D01*
X126856291Y-54536330D01*
X126983280Y-54553048D01*
X126999999Y-54555250D01*
X127000000Y-54555250D01*
X127000001Y-54555250D01*
X127014977Y-54553278D01*
X127143709Y-54536330D01*
X127277625Y-54480861D01*
X127392621Y-54392621D01*
X127480861Y-54277625D01*
X127536330Y-54143709D01*
X127555250Y-54000000D01*
X127536330Y-53856291D01*
X127480861Y-53722375D01*
X127392621Y-53607379D01*
X127277625Y-53519139D01*
X127277624Y-53519138D01*
X127277622Y-53519137D01*
X127143712Y-53463671D01*
X127143710Y-53463670D01*
X127143709Y-53463670D01*
X127071854Y-53454210D01*
X127000001Y-53444750D01*
X126999999Y-53444750D01*
X126856291Y-53463670D01*
X126856287Y-53463671D01*
X126752159Y-53506802D01*
X126682690Y-53514271D01*
X126620211Y-53482995D01*
X126617026Y-53479922D01*
X124072603Y-50935500D01*
X124039118Y-50874177D01*
X124037344Y-50863995D01*
X124036330Y-50856290D01*
X124036329Y-50856288D01*
X123980862Y-50722378D01*
X123980861Y-50722375D01*
X123892621Y-50607379D01*
X123777625Y-50519139D01*
X123777624Y-50519138D01*
X123777622Y-50519137D01*
X123643712Y-50463671D01*
X123643710Y-50463670D01*
X123643709Y-50463670D01*
X123571854Y-50454210D01*
X123500001Y-50444750D01*
X123499999Y-50444750D01*
X123356291Y-50463670D01*
X123356287Y-50463671D01*
X123222377Y-50519137D01*
X123107379Y-50607379D01*
X123019137Y-50722377D01*
X122963671Y-50856287D01*
X122963670Y-50856291D01*
X122944750Y-50999999D01*
X109137102Y-50999999D01*
X109072603Y-50935500D01*
X109039118Y-50874177D01*
X109037344Y-50863995D01*
X109036330Y-50856290D01*
X109036329Y-50856288D01*
X108980862Y-50722378D01*
X108980861Y-50722375D01*
X108892621Y-50607379D01*
X108777625Y-50519139D01*
X108777624Y-50519138D01*
X108777622Y-50519137D01*
X108643712Y-50463671D01*
X108643710Y-50463670D01*
X108643709Y-50463670D01*
X108571854Y-50454210D01*
X108500001Y-50444750D01*
X108499999Y-50444750D01*
X108356291Y-50463670D01*
X108356287Y-50463671D01*
X108222377Y-50519137D01*
X108107379Y-50607379D01*
X108019137Y-50722377D01*
X107963671Y-50856287D01*
X107963670Y-50856291D01*
X107944750Y-50999999D01*
X50500500Y-50999999D01*
X50500500Y-49283615D01*
X106999500Y-49283615D01*
X106999500Y-49636384D01*
X107029300Y-49786197D01*
X107029302Y-49786205D01*
X107087759Y-49927334D01*
X107087764Y-49927343D01*
X107172629Y-50054351D01*
X107172632Y-50054355D01*
X107280644Y-50162367D01*
X107280648Y-50162370D01*
X107407656Y-50247235D01*
X107407662Y-50247238D01*
X107407663Y-50247239D01*
X107548795Y-50305698D01*
X107698615Y-50335499D01*
X107698619Y-50335500D01*
X107698620Y-50335500D01*
X107851381Y-50335500D01*
X107851382Y-50335499D01*
X108001205Y-50305698D01*
X108142337Y-50247239D01*
X108269352Y-50162370D01*
X108377370Y-50054352D01*
X108462239Y-49927337D01*
X108520698Y-49786205D01*
X108550500Y-49636380D01*
X108550500Y-49283620D01*
X108550499Y-49283615D01*
X111449500Y-49283615D01*
X111449500Y-49636384D01*
X111479300Y-49786197D01*
X111479302Y-49786205D01*
X111537759Y-49927334D01*
X111537764Y-49927343D01*
X111622629Y-50054351D01*
X111622632Y-50054355D01*
X111730644Y-50162367D01*
X111730648Y-50162370D01*
X111857656Y-50247235D01*
X111857662Y-50247238D01*
X111857663Y-50247239D01*
X111998795Y-50305698D01*
X112148615Y-50335499D01*
X112148619Y-50335500D01*
X112148620Y-50335500D01*
X112301381Y-50335500D01*
X112301382Y-50335499D01*
X112451205Y-50305698D01*
X112592337Y-50247239D01*
X112719352Y-50162370D01*
X112827370Y-50054352D01*
X112912239Y-49927337D01*
X112970698Y-49786205D01*
X113000500Y-49636380D01*
X113000500Y-49283620D01*
X113000499Y-49283615D01*
X121999500Y-49283615D01*
X121999500Y-49636384D01*
X122029300Y-49786197D01*
X122029302Y-49786205D01*
X122087759Y-49927334D01*
X122087764Y-49927343D01*
X122172629Y-50054351D01*
X122172632Y-50054355D01*
X122280644Y-50162367D01*
X122280648Y-50162370D01*
X122407656Y-50247235D01*
X122407662Y-50247238D01*
X122407663Y-50247239D01*
X122548795Y-50305698D01*
X122698615Y-50335499D01*
X122698619Y-50335500D01*
X122698620Y-50335500D01*
X122851381Y-50335500D01*
X122851382Y-50335499D01*
X123001205Y-50305698D01*
X123142337Y-50247239D01*
X123269352Y-50162370D01*
X123377370Y-50054352D01*
X123462239Y-49927337D01*
X123520698Y-49786205D01*
X123550500Y-49636380D01*
X123550500Y-49283620D01*
X123550499Y-49283615D01*
X126449500Y-49283615D01*
X126449500Y-49636384D01*
X126479300Y-49786197D01*
X126479302Y-49786205D01*
X126537759Y-49927334D01*
X126537764Y-49927343D01*
X126622629Y-50054351D01*
X126622632Y-50054355D01*
X126730644Y-50162367D01*
X126730648Y-50162370D01*
X126857656Y-50247235D01*
X126857662Y-50247238D01*
X126857663Y-50247239D01*
X126998795Y-50305698D01*
X127148615Y-50335499D01*
X127148619Y-50335500D01*
X127148620Y-50335500D01*
X127301381Y-50335500D01*
X127301382Y-50335499D01*
X127451205Y-50305698D01*
X127592337Y-50247239D01*
X127719352Y-50162370D01*
X127827370Y-50054352D01*
X127912239Y-49927337D01*
X127970698Y-49786205D01*
X128000500Y-49636380D01*
X128000500Y-49283620D01*
X128000499Y-49283615D01*
X136999500Y-49283615D01*
X136999500Y-49636384D01*
X137029300Y-49786197D01*
X137029302Y-49786205D01*
X137087759Y-49927334D01*
X137087764Y-49927343D01*
X137172629Y-50054351D01*
X137172632Y-50054355D01*
X137280644Y-50162367D01*
X137280648Y-50162370D01*
X137407656Y-50247235D01*
X137407662Y-50247238D01*
X137407663Y-50247239D01*
X137548795Y-50305698D01*
X137698615Y-50335499D01*
X137698619Y-50335500D01*
X137698620Y-50335500D01*
X137851381Y-50335500D01*
X137851382Y-50335499D01*
X137925306Y-50320795D01*
X138001196Y-50305700D01*
X138001198Y-50305699D01*
X138001205Y-50305698D01*
X138001211Y-50305695D01*
X138002308Y-50305363D01*
X138002919Y-50305357D01*
X138007180Y-50304510D01*
X138007340Y-50305317D01*
X138072175Y-50304736D01*
X138131289Y-50341981D01*
X138160884Y-50405274D01*
X138151561Y-50474519D01*
X138136686Y-50499508D01*
X138119137Y-50522378D01*
X138063671Y-50656287D01*
X138063671Y-50656288D01*
X138063670Y-50656291D01*
X138044750Y-50800000D01*
X138052160Y-50856287D01*
X138063670Y-50943708D01*
X138063671Y-50943712D01*
X138119137Y-51077622D01*
X138119138Y-51077624D01*
X138119139Y-51077625D01*
X138207379Y-51192621D01*
X138322375Y-51280861D01*
X138389333Y-51308595D01*
X138456288Y-51336329D01*
X138456290Y-51336330D01*
X138459721Y-51336781D01*
X138463995Y-51337344D01*
X138527894Y-51365606D01*
X138535500Y-51372603D01*
X141523386Y-54360489D01*
X141523387Y-54360490D01*
X141523389Y-54360491D01*
X141566957Y-54385644D01*
X141566959Y-54385646D01*
X141566960Y-54385646D01*
X141626114Y-54419799D01*
X141740691Y-54450500D01*
X142040715Y-54450500D01*
X142107754Y-54470185D01*
X142116199Y-54476123D01*
X142122370Y-54480858D01*
X142122373Y-54480859D01*
X142122375Y-54480861D01*
X142256291Y-54536330D01*
X142383280Y-54553048D01*
X142399999Y-54555250D01*
X142400000Y-54555250D01*
X142400001Y-54555250D01*
X142414977Y-54553278D01*
X142543709Y-54536330D01*
X142677625Y-54480861D01*
X142792621Y-54392621D01*
X142880861Y-54277625D01*
X142936330Y-54143709D01*
X142955250Y-54000000D01*
X142936330Y-53856291D01*
X142880861Y-53722375D01*
X142792621Y-53607379D01*
X142677625Y-53519139D01*
X142677624Y-53519138D01*
X142677622Y-53519137D01*
X142543712Y-53463671D01*
X142543710Y-53463670D01*
X142543709Y-53463670D01*
X142471854Y-53454210D01*
X142400001Y-53444750D01*
X142399999Y-53444750D01*
X142256291Y-53463670D01*
X142256287Y-53463671D01*
X142122376Y-53519138D01*
X142122370Y-53519141D01*
X142116199Y-53523877D01*
X142051030Y-53549070D01*
X142040715Y-53549500D01*
X142037965Y-53549500D01*
X141970926Y-53529815D01*
X141950284Y-53513181D01*
X139172603Y-50735500D01*
X139139118Y-50674177D01*
X139137344Y-50663995D01*
X139136330Y-50656290D01*
X139136329Y-50656288D01*
X139080862Y-50522378D01*
X139080861Y-50522375D01*
X138992621Y-50407379D01*
X138877625Y-50319139D01*
X138877624Y-50319138D01*
X138877622Y-50319137D01*
X138743712Y-50263671D01*
X138743710Y-50263670D01*
X138743709Y-50263670D01*
X138671854Y-50254210D01*
X138600001Y-50244750D01*
X138599999Y-50244750D01*
X138486323Y-50259716D01*
X138417287Y-50248951D01*
X138365031Y-50202571D01*
X138346146Y-50135302D01*
X138366627Y-50068501D01*
X138374287Y-50058108D01*
X138377362Y-50054359D01*
X138377370Y-50054352D01*
X138462239Y-49927337D01*
X138520698Y-49786205D01*
X138550500Y-49636380D01*
X138550500Y-49283620D01*
X138550499Y-49283615D01*
X141449500Y-49283615D01*
X141449500Y-49636384D01*
X141479300Y-49786197D01*
X141479302Y-49786205D01*
X141537759Y-49927334D01*
X141537764Y-49927343D01*
X141622629Y-50054351D01*
X141622632Y-50054355D01*
X141730644Y-50162367D01*
X141730648Y-50162370D01*
X141857656Y-50247235D01*
X141857662Y-50247238D01*
X141857663Y-50247239D01*
X141998795Y-50305698D01*
X142148615Y-50335499D01*
X142148619Y-50335500D01*
X142148620Y-50335500D01*
X142301381Y-50335500D01*
X142301382Y-50335499D01*
X142451205Y-50305698D01*
X142592337Y-50247239D01*
X142719352Y-50162370D01*
X142827370Y-50054352D01*
X142912239Y-49927337D01*
X142970698Y-49786205D01*
X143000500Y-49636380D01*
X143000500Y-49283620D01*
X142970698Y-49133795D01*
X142912239Y-48992663D01*
X142912238Y-48992662D01*
X142912235Y-48992656D01*
X142827370Y-48865648D01*
X142827367Y-48865644D01*
X142719355Y-48757632D01*
X142719351Y-48757629D01*
X142592343Y-48672764D01*
X142592334Y-48672759D01*
X142451205Y-48614302D01*
X142451197Y-48614300D01*
X142301384Y-48584500D01*
X142301380Y-48584500D01*
X142148620Y-48584500D01*
X142148615Y-48584500D01*
X141998802Y-48614300D01*
X141998794Y-48614302D01*
X141857665Y-48672759D01*
X141857656Y-48672764D01*
X141730648Y-48757629D01*
X141730644Y-48757632D01*
X141622632Y-48865644D01*
X141622629Y-48865648D01*
X141537764Y-48992656D01*
X141537759Y-48992665D01*
X141479302Y-49133794D01*
X141479300Y-49133802D01*
X141449500Y-49283615D01*
X138550499Y-49283615D01*
X138520698Y-49133795D01*
X138462239Y-48992663D01*
X138462238Y-48992662D01*
X138462235Y-48992656D01*
X138377370Y-48865648D01*
X138377367Y-48865644D01*
X138269355Y-48757632D01*
X138269351Y-48757629D01*
X138142343Y-48672764D01*
X138142334Y-48672759D01*
X138001205Y-48614302D01*
X138001197Y-48614300D01*
X137851384Y-48584500D01*
X137851380Y-48584500D01*
X137698620Y-48584500D01*
X137698615Y-48584500D01*
X137548802Y-48614300D01*
X137548794Y-48614302D01*
X137407665Y-48672759D01*
X137407656Y-48672764D01*
X137280648Y-48757629D01*
X137280644Y-48757632D01*
X137172632Y-48865644D01*
X137172629Y-48865648D01*
X137087764Y-48992656D01*
X137087759Y-48992665D01*
X137029302Y-49133794D01*
X137029300Y-49133802D01*
X136999500Y-49283615D01*
X128000499Y-49283615D01*
X127970698Y-49133795D01*
X127912239Y-48992663D01*
X127912238Y-48992662D01*
X127912235Y-48992656D01*
X127827370Y-48865648D01*
X127827367Y-48865644D01*
X127719355Y-48757632D01*
X127719351Y-48757629D01*
X127592343Y-48672764D01*
X127592334Y-48672759D01*
X127451205Y-48614302D01*
X127451197Y-48614300D01*
X127301384Y-48584500D01*
X127301380Y-48584500D01*
X127148620Y-48584500D01*
X127148615Y-48584500D01*
X126998802Y-48614300D01*
X126998794Y-48614302D01*
X126857665Y-48672759D01*
X126857656Y-48672764D01*
X126730648Y-48757629D01*
X126730644Y-48757632D01*
X126622632Y-48865644D01*
X126622629Y-48865648D01*
X126537764Y-48992656D01*
X126537759Y-48992665D01*
X126479302Y-49133794D01*
X126479300Y-49133802D01*
X126449500Y-49283615D01*
X123550499Y-49283615D01*
X123520698Y-49133795D01*
X123462239Y-48992663D01*
X123462238Y-48992662D01*
X123462235Y-48992656D01*
X123377370Y-48865648D01*
X123377367Y-48865644D01*
X123269355Y-48757632D01*
X123269351Y-48757629D01*
X123142343Y-48672764D01*
X123142334Y-48672759D01*
X123001205Y-48614302D01*
X123001197Y-48614300D01*
X122851384Y-48584500D01*
X122851380Y-48584500D01*
X122698620Y-48584500D01*
X122698615Y-48584500D01*
X122548802Y-48614300D01*
X122548794Y-48614302D01*
X122407665Y-48672759D01*
X122407656Y-48672764D01*
X122280648Y-48757629D01*
X122280644Y-48757632D01*
X122172632Y-48865644D01*
X122172629Y-48865648D01*
X122087764Y-48992656D01*
X122087759Y-48992665D01*
X122029302Y-49133794D01*
X122029300Y-49133802D01*
X121999500Y-49283615D01*
X113000499Y-49283615D01*
X112970698Y-49133795D01*
X112912239Y-48992663D01*
X112912238Y-48992662D01*
X112912235Y-48992656D01*
X112827370Y-48865648D01*
X112827367Y-48865644D01*
X112719355Y-48757632D01*
X112719351Y-48757629D01*
X112592343Y-48672764D01*
X112592334Y-48672759D01*
X112451205Y-48614302D01*
X112451197Y-48614300D01*
X112301384Y-48584500D01*
X112301380Y-48584500D01*
X112148620Y-48584500D01*
X112148615Y-48584500D01*
X111998802Y-48614300D01*
X111998794Y-48614302D01*
X111857665Y-48672759D01*
X111857656Y-48672764D01*
X111730648Y-48757629D01*
X111730644Y-48757632D01*
X111622632Y-48865644D01*
X111622629Y-48865648D01*
X111537764Y-48992656D01*
X111537759Y-48992665D01*
X111479302Y-49133794D01*
X111479300Y-49133802D01*
X111449500Y-49283615D01*
X108550499Y-49283615D01*
X108520698Y-49133795D01*
X108462239Y-48992663D01*
X108462238Y-48992662D01*
X108462235Y-48992656D01*
X108377370Y-48865648D01*
X108377367Y-48865644D01*
X108269355Y-48757632D01*
X108269351Y-48757629D01*
X108142343Y-48672764D01*
X108142334Y-48672759D01*
X108001205Y-48614302D01*
X108001197Y-48614300D01*
X107851384Y-48584500D01*
X107851380Y-48584500D01*
X107698620Y-48584500D01*
X107698615Y-48584500D01*
X107548802Y-48614300D01*
X107548794Y-48614302D01*
X107407665Y-48672759D01*
X107407656Y-48672764D01*
X107280648Y-48757629D01*
X107280644Y-48757632D01*
X107172632Y-48865644D01*
X107172629Y-48865648D01*
X107087764Y-48992656D01*
X107087759Y-48992665D01*
X107029302Y-49133794D01*
X107029300Y-49133802D01*
X106999500Y-49283615D01*
X50500500Y-49283615D01*
X50500500Y-45624610D01*
X50520185Y-45557571D01*
X50572989Y-45511816D01*
X50624521Y-45500610D01*
X105034097Y-45510283D01*
G37*
%TD.AperFunction*%
%TD*%
M02*
