%TF.GenerationSoftware,KiCad,Pcbnew,8.0.2+dfsg-1*%
%TF.CreationDate,2024-05-23T10:42:42+00:00*%
%TF.ProjectId,akkupack-ng,616b6b75-7061-4636-9b2d-6e672e6b6963,rev?*%
%TF.SameCoordinates,Original*%
%TF.FileFunction,Profile,NP*%
%FSLAX46Y46*%
G04 Gerber Fmt 4.6, Leading zero omitted, Abs format (unit mm)*
G04 Created by KiCad (PCBNEW 8.0.2+dfsg-1) date 2024-05-23 10:42:42*
%MOMM*%
%LPD*%
G01*
G04 APERTURE LIST*
%TA.AperFunction,Profile*%
%ADD10C,0.050000*%
%TD*%
%TA.AperFunction,Profile*%
%ADD11C,0.100000*%
%TD*%
G04 APERTURE END LIST*
D10*
X136250000Y-45010000D02*
X128750000Y-45010000D01*
X50000000Y-125000000D02*
X50000000Y-45000000D01*
X50000000Y-45000000D02*
X106250000Y-45010000D01*
X160000000Y-45000000D02*
X160000000Y-125000000D01*
X160000000Y-125000000D02*
X50000000Y-125000000D01*
X121250000Y-45010000D02*
X113750000Y-45010000D01*
X160000000Y-45000000D02*
X143750000Y-45010000D01*
D11*
%TO.C,J301*%
X107200000Y-45010000D02*
X106250000Y-45010000D01*
X107200000Y-46585000D02*
X107200000Y-45010000D01*
X108050000Y-46585000D02*
X108050000Y-45010000D01*
X111950000Y-45010000D02*
X108050000Y-45010000D01*
X111950000Y-46585000D02*
X111950000Y-45010000D01*
X112800000Y-46585000D02*
X112800000Y-45010000D01*
X113750000Y-45010000D02*
X112800000Y-45010000D01*
X108050000Y-46585000D02*
G75*
G02*
X107200000Y-46585000I-425000J0D01*
G01*
X112800000Y-46585000D02*
G75*
G02*
X111950000Y-46585000I-425000J0D01*
G01*
%TO.C,J204*%
X137200000Y-45010000D02*
X136250000Y-45010000D01*
X137200000Y-46585000D02*
X137200000Y-45010000D01*
X138050000Y-46585000D02*
X138050000Y-45010000D01*
X141950000Y-45010000D02*
X138050000Y-45010000D01*
X141950000Y-46585000D02*
X141950000Y-45010000D01*
X142800000Y-46585000D02*
X142800000Y-45010000D01*
X143750000Y-45010000D02*
X142800000Y-45010000D01*
X138050000Y-46585000D02*
G75*
G02*
X137200000Y-46585000I-425000J0D01*
G01*
X142800000Y-46585000D02*
G75*
G02*
X141950000Y-46585000I-425000J0D01*
G01*
%TO.C,J401*%
X122200000Y-45010000D02*
X121250000Y-45010000D01*
X122200000Y-46585000D02*
X122200000Y-45010000D01*
X123050000Y-46585000D02*
X123050000Y-45010000D01*
X126950000Y-45010000D02*
X123050000Y-45010000D01*
X126950000Y-46585000D02*
X126950000Y-45010000D01*
X127800000Y-46585000D02*
X127800000Y-45010000D01*
X128750000Y-45010000D02*
X127800000Y-45010000D01*
X123050000Y-46585000D02*
G75*
G02*
X122200000Y-46585000I-425000J0D01*
G01*
X127800000Y-46585000D02*
G75*
G02*
X126950000Y-46585000I-425000J0D01*
G01*
%TD*%
M02*
