G04 #@! TF.GenerationSoftware,KiCad,Pcbnew,8.0.2+dfsg-1*
G04 #@! TF.CreationDate,2024-05-24T10:29:40+00:00*
G04 #@! TF.ProjectId,akkupack-ng,616b6b75-7061-4636-9b2d-6e672e6b6963,rev?*
G04 #@! TF.SameCoordinates,Original*
G04 #@! TF.FileFunction,Legend,Bot*
G04 #@! TF.FilePolarity,Positive*
%FSLAX46Y46*%
G04 Gerber Fmt 4.6, Leading zero omitted, Abs format (unit mm)*
G04 Created by KiCad (PCBNEW 8.0.2+dfsg-1) date 2024-05-24 10:29:40*
%MOMM*%
%LPD*%
G01*
G04 APERTURE LIST*
%ADD10R,2.413000X2.413000*%
%ADD11C,2.413000*%
%ADD12R,1.700000X1.700000*%
%ADD13O,1.700000X1.700000*%
%ADD14C,6.400000*%
%ADD15C,2.374900*%
%ADD16C,0.990600*%
%ADD17R,1.500000X3.000000*%
%ADD18O,1.500000X3.000000*%
%ADD19O,1.000000X1.900000*%
%ADD20O,1.050000X1.250000*%
%ADD21C,2.000000*%
%ADD22R,1.600000X1.600000*%
%ADD23C,1.600000*%
%ADD24O,1.700000X2.000000*%
G04 APERTURE END LIST*
%LPC*%
D10*
X72500000Y-61000000D03*
D11*
X60000000Y-61000000D03*
X72500000Y-68500000D03*
X60000000Y-68500000D03*
D12*
X152000000Y-87000000D03*
D13*
X152000000Y-89540000D03*
X152000000Y-92080000D03*
X152000000Y-94620000D03*
X152000000Y-97160000D03*
X152000000Y-99700000D03*
D12*
X156000000Y-87000000D03*
D13*
X156000000Y-89540000D03*
X156000000Y-92080000D03*
X156000000Y-94620000D03*
X156000000Y-97160000D03*
X156000000Y-99700000D03*
X156000000Y-102240000D03*
D14*
X155000000Y-120000000D03*
D15*
X151210000Y-56575000D03*
D16*
X151210000Y-59115000D03*
D15*
X151210000Y-61655000D03*
X154385000Y-56575000D03*
X154385000Y-61655000D03*
D16*
X156290000Y-58099000D03*
X156290000Y-60131000D03*
D17*
X110000000Y-115000000D03*
X110000000Y-120000000D03*
D18*
X115000000Y-115000000D03*
X115000000Y-120000000D03*
D19*
X114175000Y-46460000D03*
D20*
X112225000Y-49460000D03*
X107775000Y-49460000D03*
D19*
X105825000Y-46460000D03*
D17*
X138700000Y-115000000D03*
X138700000Y-120000000D03*
D18*
X143700000Y-115000000D03*
X143700000Y-120000000D03*
D21*
X85500000Y-76500000D03*
X86500000Y-71500000D03*
D14*
X87500000Y-55000000D03*
D22*
X106500000Y-71750000D03*
D23*
X106500000Y-75250000D03*
D10*
X72500000Y-81500000D03*
D11*
X60000000Y-81500000D03*
X72500000Y-89000000D03*
X60000000Y-89000000D03*
D10*
X72500000Y-102000000D03*
D11*
X60000000Y-102000000D03*
X72500000Y-109500000D03*
X60000000Y-109500000D03*
D14*
X55500000Y-120000000D03*
X87500000Y-114500000D03*
D21*
X85500000Y-95500000D03*
X86500000Y-90500000D03*
D17*
X124350000Y-115000000D03*
X124350000Y-120000000D03*
D18*
X129350000Y-115000000D03*
X129350000Y-120000000D03*
D14*
X155000000Y-50000000D03*
D22*
X116500000Y-71750000D03*
D23*
X116500000Y-75250000D03*
D17*
X110000500Y-97500000D03*
X110000500Y-102500000D03*
D18*
X115000500Y-97500000D03*
X115000500Y-102500000D03*
D19*
X144175000Y-46460000D03*
D20*
X142225000Y-49460000D03*
X137775000Y-49460000D03*
D19*
X135825000Y-46460000D03*
D22*
X126500000Y-71750000D03*
D23*
X126500000Y-75250000D03*
D14*
X55000000Y-50000000D03*
G36*
G01*
X99150000Y-121475000D02*
X99150000Y-119975000D01*
G75*
G02*
X99400000Y-119725000I250000J0D01*
G01*
X100600000Y-119725000D01*
G75*
G02*
X100850000Y-119975000I0J-250000D01*
G01*
X100850000Y-121475000D01*
G75*
G02*
X100600000Y-121725000I-250000J0D01*
G01*
X99400000Y-121725000D01*
G75*
G02*
X99150000Y-121475000I0J250000D01*
G01*
G37*
D24*
X102500000Y-120725000D03*
D19*
X129175000Y-46460000D03*
D20*
X127225000Y-49460000D03*
X122775000Y-49460000D03*
D19*
X120825000Y-46460000D03*
%LPD*%
M02*
