G04 #@! TF.GenerationSoftware,KiCad,Pcbnew,9.0.1+1*
G04 #@! TF.CreationDate,2025-05-28T08:23:52+00:00*
G04 #@! TF.ProjectId,akkupack-ng,616b6b75-7061-4636-9b2d-6e672e6b6963,rev?*
G04 #@! TF.SameCoordinates,Original*
G04 #@! TF.FileFunction,Soldermask,Bot*
G04 #@! TF.FilePolarity,Negative*
%FSLAX46Y46*%
G04 Gerber Fmt 4.6, Leading zero omitted, Abs format (unit mm)*
G04 Created by KiCad (PCBNEW 9.0.1+1) date 2025-05-28 08:23:52*
%MOMM*%
%LPD*%
G01*
G04 APERTURE LIST*
%ADD10C,2.374900*%
%ADD11C,0.990600*%
%ADD12R,2.413000X2.413000*%
%ADD13C,2.413000*%
%ADD14R,1.700000X1.700000*%
%ADD15C,1.700000*%
%ADD16C,6.400000*%
%ADD17R,1.500000X3.000000*%
%ADD18O,1.500000X3.000000*%
%ADD19O,1.000000X1.900000*%
%ADD20O,1.050000X1.250000*%
%ADD21C,2.000000*%
%ADD22O,1.740000X2.190000*%
%ADD23R,1.600000X1.600000*%
%ADD24C,1.600000*%
%ADD25O,1.700000X2.000000*%
G04 APERTURE END LIST*
D10*
X151170000Y-56600000D03*
D11*
X151170000Y-59140000D03*
D10*
X151170000Y-61680000D03*
X154345000Y-56600000D03*
X154345000Y-61680000D03*
D11*
X156250000Y-58124000D03*
X156250000Y-60156000D03*
D12*
X72500000Y-61000000D03*
D13*
X60000000Y-61000000D03*
X72500000Y-68500000D03*
X60000000Y-68500000D03*
D14*
X152000000Y-87000000D03*
D15*
X152000000Y-89540000D03*
X152000000Y-92080000D03*
X152000000Y-94620000D03*
X152000000Y-97160000D03*
X152000000Y-99700000D03*
D14*
X156000000Y-87000000D03*
D15*
X156000000Y-89540000D03*
X156000000Y-92080000D03*
X156000000Y-94620000D03*
X156000000Y-97160000D03*
X156000000Y-99700000D03*
X156000000Y-102240000D03*
D16*
X155000000Y-120000000D03*
D17*
X110000000Y-115000000D03*
X110000000Y-120000000D03*
D18*
X115000000Y-115000000D03*
X115000000Y-120000000D03*
D19*
X114175000Y-46460000D03*
D20*
X112225000Y-49460000D03*
X107775000Y-49460000D03*
D19*
X105825000Y-46460000D03*
D17*
X138700000Y-115000000D03*
X138700000Y-120000000D03*
D18*
X143700000Y-115000000D03*
X143700000Y-120000000D03*
D21*
X85500000Y-76500000D03*
X86500000Y-71500000D03*
D16*
X87500000Y-55000000D03*
G36*
G01*
X69800000Y-122095000D02*
X69800000Y-120405000D01*
G75*
G02*
X70050000Y-120155000I250000J0D01*
G01*
X71290000Y-120155000D01*
G75*
G02*
X71540000Y-120405000I0J-250000D01*
G01*
X71540000Y-122095000D01*
G75*
G02*
X71290000Y-122345000I-250000J0D01*
G01*
X70050000Y-122345000D01*
G75*
G02*
X69800000Y-122095000I0J250000D01*
G01*
G37*
D22*
X73210000Y-121250000D03*
X75750000Y-121250000D03*
X78290000Y-121250000D03*
D23*
X106500000Y-71750000D03*
D24*
X106500000Y-75250000D03*
D12*
X72500000Y-81500000D03*
D13*
X60000000Y-81500000D03*
X72500000Y-89000000D03*
X60000000Y-89000000D03*
D12*
X72500000Y-102000000D03*
D13*
X60000000Y-102000000D03*
X72500000Y-109500000D03*
X60000000Y-109500000D03*
D16*
X55500000Y-120000000D03*
X87500000Y-114500000D03*
D21*
X85500000Y-95500000D03*
X86500000Y-90500000D03*
D17*
X124350000Y-115000000D03*
X124350000Y-120000000D03*
D18*
X129350000Y-115000000D03*
X129350000Y-120000000D03*
D16*
X155000000Y-50000000D03*
G36*
G01*
X97650000Y-114225000D02*
X97650000Y-112725000D01*
G75*
G02*
X97900000Y-112475000I250000J0D01*
G01*
X99100000Y-112475000D01*
G75*
G02*
X99350000Y-112725000I0J-250000D01*
G01*
X99350000Y-114225000D01*
G75*
G02*
X99100000Y-114475000I-250000J0D01*
G01*
X97900000Y-114475000D01*
G75*
G02*
X97650000Y-114225000I0J250000D01*
G01*
G37*
D25*
X101000000Y-113475000D03*
D23*
X116500000Y-71750000D03*
D24*
X116500000Y-75250000D03*
D17*
X110000500Y-97500000D03*
X110000500Y-102500000D03*
D18*
X115000500Y-97500000D03*
X115000500Y-102500000D03*
D19*
X144175000Y-46460000D03*
D20*
X142225000Y-49460000D03*
X137775000Y-49460000D03*
D19*
X135825000Y-46460000D03*
D23*
X126500000Y-71750000D03*
D24*
X126500000Y-75250000D03*
D16*
X55000000Y-50000000D03*
D14*
X126000000Y-81000000D03*
D15*
X128540000Y-81000000D03*
X131080000Y-81000000D03*
D19*
X129175000Y-46460000D03*
D20*
X127225000Y-49460000D03*
X122775000Y-49460000D03*
D19*
X120825000Y-46460000D03*
D14*
X124775000Y-105540000D03*
D15*
X122235000Y-105540000D03*
X124775000Y-103000000D03*
X122235000Y-103000000D03*
X124775000Y-100460000D03*
X122235000Y-100460000D03*
M02*
