G04 #@! TF.GenerationSoftware,KiCad,Pcbnew,8.0.2+dfsg-1*
G04 #@! TF.CreationDate,2024-05-23T10:42:26+00:00*
G04 #@! TF.ProjectId,akkupack-ng,616b6b75-7061-4636-9b2d-6e672e6b6963,rev?*
G04 #@! TF.SameCoordinates,Original*
G04 #@! TF.FileFunction,Copper,L2,Inr*
G04 #@! TF.FilePolarity,Positive*
%FSLAX46Y46*%
G04 Gerber Fmt 4.6, Leading zero omitted, Abs format (unit mm)*
G04 Created by KiCad (PCBNEW 8.0.2+dfsg-1) date 2024-05-23 10:42:26*
%MOMM*%
%LPD*%
G01*
G04 APERTURE LIST*
G04 #@! TA.AperFunction,ComponentPad*
%ADD10R,2.413000X2.413000*%
G04 #@! TD*
G04 #@! TA.AperFunction,ComponentPad*
%ADD11C,2.413000*%
G04 #@! TD*
G04 #@! TA.AperFunction,ComponentPad*
%ADD12R,1.700000X1.700000*%
G04 #@! TD*
G04 #@! TA.AperFunction,ComponentPad*
%ADD13O,1.700000X1.700000*%
G04 #@! TD*
G04 #@! TA.AperFunction,ComponentPad*
%ADD14C,6.400000*%
G04 #@! TD*
G04 #@! TA.AperFunction,ComponentPad*
%ADD15R,1.500000X3.000000*%
G04 #@! TD*
G04 #@! TA.AperFunction,ComponentPad*
%ADD16O,1.500000X3.000000*%
G04 #@! TD*
G04 #@! TA.AperFunction,HeatsinkPad*
%ADD17O,1.000000X1.900000*%
G04 #@! TD*
G04 #@! TA.AperFunction,HeatsinkPad*
%ADD18O,1.050000X1.250000*%
G04 #@! TD*
G04 #@! TA.AperFunction,ComponentPad*
%ADD19C,2.000000*%
G04 #@! TD*
G04 #@! TA.AperFunction,ComponentPad*
%ADD20R,1.600000X1.600000*%
G04 #@! TD*
G04 #@! TA.AperFunction,ComponentPad*
%ADD21C,1.600000*%
G04 #@! TD*
G04 #@! TA.AperFunction,ComponentPad*
%ADD22O,1.700000X2.000000*%
G04 #@! TD*
G04 #@! TA.AperFunction,ViaPad*
%ADD23C,0.600000*%
G04 #@! TD*
G04 #@! TA.AperFunction,Conductor*
%ADD24C,0.500000*%
G04 #@! TD*
G04 #@! TA.AperFunction,Conductor*
%ADD25C,0.200000*%
G04 #@! TD*
G04 APERTURE END LIST*
D10*
X72500000Y-61000000D03*
D11*
X60000000Y-61000000D03*
X72500000Y-68500000D03*
X60000000Y-68500000D03*
D12*
X152000000Y-87000000D03*
D13*
X152000000Y-89540000D03*
X152000000Y-92080000D03*
X152000000Y-94620000D03*
X152000000Y-97160000D03*
X152000000Y-99700000D03*
D12*
X156000000Y-87000000D03*
D13*
X156000000Y-89540000D03*
X156000000Y-92080000D03*
X156000000Y-94620000D03*
X156000000Y-97160000D03*
X156000000Y-99700000D03*
X156000000Y-102240000D03*
D14*
X155000000Y-120000000D03*
D15*
X110000000Y-115000000D03*
X110000000Y-120000000D03*
D16*
X115000000Y-115000000D03*
X115000000Y-120000000D03*
D17*
X114175000Y-46460000D03*
D18*
X112225000Y-49460000D03*
X107775000Y-49460000D03*
D17*
X105825000Y-46460000D03*
D15*
X138700000Y-115000000D03*
X138700000Y-120000000D03*
D16*
X143700000Y-115000000D03*
X143700000Y-120000000D03*
D19*
X85500000Y-76500000D03*
X86500000Y-71500000D03*
D14*
X87500000Y-55000000D03*
D20*
X106500000Y-71750000D03*
D21*
X106500000Y-75250000D03*
D10*
X72500000Y-81500000D03*
D11*
X60000000Y-81500000D03*
X72500000Y-89000000D03*
X60000000Y-89000000D03*
D10*
X72500000Y-102000000D03*
D11*
X60000000Y-102000000D03*
X72500000Y-109500000D03*
X60000000Y-109500000D03*
D14*
X55500000Y-120000000D03*
X87500000Y-114500000D03*
D19*
X85500000Y-95500000D03*
X86500000Y-90500000D03*
D15*
X124350000Y-115000000D03*
X124350000Y-120000000D03*
D16*
X129350000Y-115000000D03*
X129350000Y-120000000D03*
D14*
X155000000Y-50000000D03*
D20*
X116500000Y-71750000D03*
D21*
X116500000Y-75250000D03*
D15*
X110000500Y-97500000D03*
X110000500Y-102500000D03*
D16*
X115000500Y-97500000D03*
X115000500Y-102500000D03*
D17*
X144175000Y-46460000D03*
D18*
X142225000Y-49460000D03*
X137775000Y-49460000D03*
D17*
X135825000Y-46460000D03*
D20*
X126500000Y-71750000D03*
D21*
X126500000Y-75250000D03*
D14*
X55000000Y-50000000D03*
G04 #@! TA.AperFunction,ComponentPad*
G36*
G01*
X99150000Y-121475000D02*
X99150000Y-119975000D01*
G75*
G02*
X99400000Y-119725000I250000J0D01*
G01*
X100600000Y-119725000D01*
G75*
G02*
X100850000Y-119975000I0J-250000D01*
G01*
X100850000Y-121475000D01*
G75*
G02*
X100600000Y-121725000I-250000J0D01*
G01*
X99400000Y-121725000D01*
G75*
G02*
X99150000Y-121475000I0J250000D01*
G01*
G37*
G04 #@! TD.AperFunction*
D22*
X102500000Y-120725000D03*
D17*
X129175000Y-46460000D03*
D18*
X127225000Y-49460000D03*
X122775000Y-49460000D03*
D17*
X120825000Y-46460000D03*
D23*
X97500000Y-120000000D03*
X98800000Y-89600000D03*
X138300000Y-68700000D03*
X94000000Y-62400000D03*
X94600000Y-66600000D03*
X91400000Y-96400000D03*
X98700000Y-84600000D03*
X91800000Y-91600000D03*
X98600000Y-95200000D03*
X94400000Y-87000000D03*
X94400000Y-76800000D03*
X96400000Y-56400000D03*
X98600000Y-100000000D03*
X94400000Y-72000000D03*
X95600000Y-91000000D03*
X98800000Y-64800000D03*
X92000000Y-88200000D03*
X91000000Y-66800000D03*
X98400000Y-70000000D03*
X96200000Y-96200000D03*
X99000000Y-75000000D03*
X91200000Y-75200000D03*
X91000000Y-70600000D03*
X96600000Y-101600000D03*
X140600000Y-71800000D03*
X98800000Y-54800000D03*
X138200000Y-70400000D03*
X100000000Y-61000000D03*
X88750000Y-61000000D03*
X105500000Y-95000000D03*
X100500000Y-109000000D03*
X93000000Y-81500000D03*
X86500000Y-60000000D03*
X113600737Y-90200737D03*
X97400000Y-108000000D03*
X135250000Y-68600000D03*
X141275735Y-70724265D03*
X94600000Y-107600000D03*
X98199965Y-107992582D03*
X113625250Y-91025250D03*
X135250000Y-69400003D03*
X148375735Y-70224265D03*
X141350000Y-74600000D03*
X136000000Y-72500000D03*
X122250000Y-85000000D03*
X144750000Y-65000000D03*
X137000000Y-65250000D03*
X141350000Y-75600000D03*
X150200000Y-60000000D03*
X152800000Y-55400000D03*
X140600000Y-67600000D03*
X139000000Y-62500000D03*
X150200000Y-58200000D03*
X157200000Y-59000000D03*
X141350000Y-68200000D03*
X123500000Y-51000000D03*
X127000000Y-54000000D03*
X128750000Y-60500000D03*
X121500000Y-61000000D03*
X138488146Y-71954836D03*
X139650000Y-63000000D03*
X140750000Y-59500000D03*
X124200000Y-64200000D03*
X140602510Y-66004669D03*
X122800000Y-64200000D03*
X141202607Y-66533710D03*
X144556564Y-73200000D03*
X108000000Y-64000000D03*
X109200000Y-64000000D03*
X145200000Y-72600000D03*
X146624265Y-67624265D03*
X141857592Y-66074364D03*
X143250000Y-66750000D03*
X143956564Y-65983036D03*
X142650000Y-66184313D03*
X108500000Y-51000000D03*
X112000000Y-54000000D03*
X113750000Y-60500000D03*
X106500000Y-61000000D03*
X99500000Y-107000000D03*
X112000000Y-107000000D03*
X138600000Y-50800000D03*
X142400000Y-54000000D03*
X146600000Y-66800000D03*
D24*
X97500000Y-115000500D02*
X110000500Y-102500000D01*
X97500000Y-120000000D02*
X97500000Y-115000500D01*
D25*
X97400000Y-108000000D02*
X97400000Y-106401474D01*
X135201474Y-68600000D02*
X113600737Y-90200737D01*
X135250000Y-68600000D02*
X135201474Y-68600000D01*
X97400000Y-106401474D02*
X113600737Y-90200737D01*
X94600000Y-107600000D02*
X95600000Y-108600000D01*
X100051471Y-108600000D02*
X109351471Y-99300000D01*
X115500000Y-99300000D02*
X141275735Y-73524265D01*
X141275735Y-73524265D02*
X141275735Y-70724265D01*
X109351471Y-99300000D02*
X115500000Y-99300000D01*
X95600000Y-108600000D02*
X100051471Y-108600000D01*
X98199965Y-107992582D02*
X98199965Y-106450535D01*
X135250000Y-69400500D02*
X135250000Y-69400003D01*
X98199965Y-106450535D02*
X135250000Y-69400500D01*
X139100000Y-62400000D02*
X146000000Y-62400000D01*
X146000000Y-62400000D02*
X150200000Y-58200000D01*
X139000000Y-62500000D02*
X139100000Y-62400000D01*
X126004669Y-66004669D02*
X140602510Y-66004669D01*
X124200000Y-64200000D02*
X126004669Y-66004669D01*
X125204669Y-66604669D02*
X141131648Y-66604669D01*
X122800000Y-64200000D02*
X125204669Y-66604669D01*
X141131648Y-66604669D02*
X141202607Y-66533710D01*
X141857592Y-66074364D02*
X141950000Y-66166772D01*
X152000000Y-97160000D02*
X153460000Y-97160000D01*
X153460000Y-97160000D02*
X156000000Y-94620000D01*
X141950000Y-66166772D02*
X141950000Y-87110000D01*
X141950000Y-87110000D02*
X152000000Y-97160000D01*
X152000000Y-92080000D02*
X156000000Y-92080000D01*
X143250000Y-66750000D02*
X143250000Y-83330000D01*
X143250000Y-83330000D02*
X152000000Y-92080000D01*
X152000000Y-89540000D02*
X143956564Y-81496564D01*
X143956564Y-81496564D02*
X143956564Y-65983036D01*
X142650000Y-66184313D02*
X142650000Y-85270000D01*
X142650000Y-85270000D02*
X152000000Y-94620000D01*
M02*
