M48
; DRILL file {KiCad 9.0.1+1} date 2025-05-15T19:50:51+0000
; FORMAT={-:-/ absolute / inch / decimal}
; #@! TF.CreationDate,2025-05-15T19:50:51+00:00
; #@! TF.GenerationSoftware,Kicad,Pcbnew,9.0.1+1
; #@! TF.FileFunction,Plated,1,4,PTH
FMAT,2
INCH
; #@! TA.AperFunction,Plated,PTH,ViaDrill
T1C0.0118
; #@! TA.AperFunction,Plated,PTH,ComponentDrill
T2C0.0236
; #@! TA.AperFunction,Plated,PTH,ComponentDrill
T3C0.0256
; #@! TA.AperFunction,Plated,PTH,ComponentDrill
T4C0.0315
; #@! TA.AperFunction,Plated,PTH,ComponentDrill
T5C0.0394
; #@! TA.AperFunction,Plated,PTH,ComponentDrill
T6C0.0453
; #@! TA.AperFunction,Plated,PTH,ComponentDrill
T7C0.0469
; #@! TA.AperFunction,Plated,PTH,ComponentDrill
T8C0.0750
; #@! TA.AperFunction,Plated,PTH,ComponentDrill
T9C0.1260
%
G90
G05
T1
X3.2776Y-4.4783
X3.4055Y-2.3622
X3.4252Y-4.7933
X3.4941Y-2.4016
X3.563Y-4.8228
X3.5827Y-2.6299
X3.5827Y-2.7795
X3.5906Y-2.9606
X3.5984Y-3.7953
X3.6142Y-3.6063
X3.622Y-3.4724
X3.6614Y-3.2087
X3.7008Y-2.4567
X3.7165Y-2.8346
X3.7165Y-3.0236
X3.7165Y-3.4252
X3.7244Y-2.622
X3.7244Y-4.2362
X3.75Y-4.6949
X3.7638Y-3.5827
X3.7874Y-3.7874
X3.7953Y-2.2205
X3.8031Y-4.0
X3.8346Y-4.252
X3.8661Y-4.2517
X3.874Y-2.7559
X3.878Y-4.6752
X3.8819Y-3.748
X3.8819Y-3.937
X3.8858Y-3.3307
X3.8898Y-2.1575
X3.8898Y-2.5512
X3.8898Y-3.5276
X3.8976Y-2.9528
X3.9173Y-4.2126
X3.937Y-2.4016
X3.9567Y-4.2913
X4.1142Y-4.185
X4.1535Y-3.7402
X4.1929Y-2.4016
X4.252Y-2.5197
X4.2717Y-2.0079
X4.2992Y-2.5197
X4.4094Y-2.126
X4.4725Y-3.5512
X4.4734Y-3.5837
X4.4783Y-2.3819
X4.7835Y-2.4016
X4.813Y-3.3465
X4.8346Y-2.5276
X4.8622Y-2.0079
X4.8898Y-2.5276
X5.0Y-2.126
X5.0689Y-2.3819
X5.3248Y-2.7008
X5.3248Y-2.7323
X5.3543Y-2.8543
X5.3937Y-2.5689
X5.4409Y-2.7717
X5.4449Y-2.7047
X5.4523Y-2.8329
X5.4567Y-2.0
X5.4724Y-2.4606
X5.498Y-2.4803
X5.5354Y-2.6614
X5.5354Y-2.8268
X5.5355Y-2.5986
X5.5413Y-2.3425
X5.5592Y-2.6194
X5.562Y-2.7844
X5.565Y-2.685
X5.565Y-2.937
X5.565Y-2.9764
X5.5849Y-2.6014
X5.6063Y-2.126
X5.6161Y-2.6057
X5.6398Y-2.628
X5.6676Y-2.5978
X5.6912Y-2.8819
X5.6988Y-2.5591
X5.7165Y-2.8583
X5.7717Y-2.6299
X5.7726Y-2.6624
X5.8416Y-2.7647
X5.9134Y-2.2913
X5.9134Y-2.3622
X6.0157Y-2.1811
X6.189Y-2.3228
T4
X4.1929Y-2.8248
X4.1929Y-2.9626
X4.5866Y-2.8248
X4.5866Y-2.9626
X4.9803Y-2.8248
X4.9803Y-2.9626
T5
X3.3661Y-3.0118
X3.3661Y-3.7598
X3.4055Y-2.815
X3.4055Y-3.563
X3.878Y-4.4675
X3.9764Y-4.4675
X4.8124Y-3.9551
X4.8124Y-4.0551
X4.8124Y-4.1551
X4.9124Y-3.9551
X4.9124Y-4.0551
X4.9124Y-4.1551
X4.9606Y-3.189
X5.0606Y-3.189
X5.1606Y-3.189
X5.9843Y-3.4252
X5.9843Y-3.5252
X5.9843Y-3.6252
X5.9843Y-3.7252
X5.9843Y-3.8252
X5.9843Y-3.9252
X6.1417Y-3.4252
X6.1417Y-3.5252
X6.1417Y-3.6252
X6.1417Y-3.7252
X6.1417Y-3.8252
X6.1417Y-3.9252
X6.1417Y-4.0252
T6
X4.3307Y-4.5276
X4.3307Y-4.7244
X4.3307Y-3.8386
X4.3307Y-4.0354
X4.5276Y-4.5276
X4.5276Y-4.7244
X4.5276Y-3.8386
X4.5276Y-4.0354
X4.8957Y-4.5276
X4.8957Y-4.7244
X5.0925Y-4.5276
X5.0925Y-4.7244
X5.4606Y-4.5276
X5.4606Y-4.7244
X5.6575Y-4.5276
X5.6575Y-4.7244
T7
X2.7823Y-4.7736
X2.8823Y-4.7736
X2.9823Y-4.7736
X3.0823Y-4.7736
T8
X2.3622Y-2.4016
X2.3622Y-2.6969
X2.3622Y-3.2087
X2.3622Y-3.5039
X2.3622Y-4.0157
X2.3622Y-4.311
X2.8543Y-2.4016
X2.8543Y-2.6969
X2.8543Y-3.2087
X2.8543Y-3.5039
X2.8543Y-4.0157
X2.8543Y-4.311
T9
X2.1654Y-1.9685
X2.185Y-4.7244
X3.4449Y-2.1654
X3.4449Y-4.5079
X6.1024Y-1.9685
X6.1024Y-4.7244
T2
G00X4.1663Y-1.8429
M15
G01X4.1663Y-1.8154
M16
G05
G00X4.4951Y-1.8429
M15
G01X4.4951Y-1.8154
M16
G05
G00X4.7569Y-1.8429
M15
G01X4.7569Y-1.8154
M16
G05
G00X5.0856Y-1.8429
M15
G01X5.0856Y-1.8154
M16
G05
G00X5.3474Y-1.8429
M15
G01X5.3474Y-1.8154
M16
G05
G00X5.6762Y-1.8429
M15
G01X5.6762Y-1.8154
M16
G05
T3
G00X4.2431Y-1.9512
M15
G01X4.2431Y-1.9433
M16
G05
G00X4.4183Y-1.9512
M15
G01X4.4183Y-1.9433
M16
G05
G00X4.8337Y-1.9512
M15
G01X4.8337Y-1.9433
M16
G05
G00X5.0089Y-1.9512
M15
G01X5.0089Y-1.9433
M16
G05
G00X5.4242Y-1.9512
M15
G01X5.4242Y-1.9433
M16
G05
G00X5.5994Y-1.9512
M15
G01X5.5994Y-1.9433
M16
G05
M30
